G04 #@! TF.GenerationSoftware,KiCad,Pcbnew,(5.1.5)-3*
G04 #@! TF.CreationDate,2020-06-24T13:45:01-07:00*
G04 #@! TF.ProjectId,BMS Board,424d5320-426f-4617-9264-2e6b69636164,rev?*
G04 #@! TF.SameCoordinates,Original*
G04 #@! TF.FileFunction,Soldermask,Top*
G04 #@! TF.FilePolarity,Negative*
%FSLAX46Y46*%
G04 Gerber Fmt 4.6, Leading zero omitted, Abs format (unit mm)*
G04 Created by KiCad (PCBNEW (5.1.5)-3) date 2020-06-24 13:45:01*
%MOMM*%
%LPD*%
G04 APERTURE LIST*
%ADD10C,0.100000*%
G04 APERTURE END LIST*
D10*
G36*
X231249098Y-141374533D02*
G01*
X231713350Y-141566832D01*
X231713352Y-141566833D01*
X232131168Y-141846009D01*
X232486491Y-142201332D01*
X232670971Y-142477426D01*
X232765668Y-142619150D01*
X232957967Y-143083402D01*
X233056000Y-143576247D01*
X233056000Y-144078753D01*
X232957967Y-144571598D01*
X232765668Y-145035850D01*
X232765667Y-145035852D01*
X232486491Y-145453668D01*
X232131168Y-145808991D01*
X231713352Y-146088167D01*
X231713351Y-146088168D01*
X231713350Y-146088168D01*
X231249098Y-146280467D01*
X230756253Y-146378500D01*
X230253747Y-146378500D01*
X229760902Y-146280467D01*
X229296650Y-146088168D01*
X229296649Y-146088168D01*
X229296648Y-146088167D01*
X228878832Y-145808991D01*
X228523509Y-145453668D01*
X228244333Y-145035852D01*
X228244332Y-145035850D01*
X228052033Y-144571598D01*
X227954000Y-144078753D01*
X227954000Y-143576247D01*
X228052033Y-143083402D01*
X228244332Y-142619150D01*
X228339029Y-142477426D01*
X228523509Y-142201332D01*
X228878832Y-141846009D01*
X229296648Y-141566833D01*
X229296650Y-141566832D01*
X229760902Y-141374533D01*
X230253747Y-141276500D01*
X230756253Y-141276500D01*
X231249098Y-141374533D01*
G37*
G36*
X74086598Y-141374533D02*
G01*
X74550850Y-141566832D01*
X74550852Y-141566833D01*
X74968668Y-141846009D01*
X75323991Y-142201332D01*
X75508471Y-142477426D01*
X75603168Y-142619150D01*
X75795467Y-143083402D01*
X75893500Y-143576247D01*
X75893500Y-144078753D01*
X75795467Y-144571598D01*
X75603168Y-145035850D01*
X75603167Y-145035852D01*
X75323991Y-145453668D01*
X74968668Y-145808991D01*
X74550852Y-146088167D01*
X74550851Y-146088168D01*
X74550850Y-146088168D01*
X74086598Y-146280467D01*
X73593753Y-146378500D01*
X73091247Y-146378500D01*
X72598402Y-146280467D01*
X72134150Y-146088168D01*
X72134149Y-146088168D01*
X72134148Y-146088167D01*
X71716332Y-145808991D01*
X71361009Y-145453668D01*
X71081833Y-145035852D01*
X71081832Y-145035850D01*
X70889533Y-144571598D01*
X70791500Y-144078753D01*
X70791500Y-143576247D01*
X70889533Y-143083402D01*
X71081832Y-142619150D01*
X71176529Y-142477426D01*
X71361009Y-142201332D01*
X71716332Y-141846009D01*
X72134148Y-141566833D01*
X72134150Y-141566832D01*
X72598402Y-141374533D01*
X73091247Y-141276500D01*
X73593753Y-141276500D01*
X74086598Y-141374533D01*
G37*
G36*
X84716000Y-145213500D02*
G01*
X83564000Y-145213500D01*
X83564000Y-143711500D01*
X84716000Y-143711500D01*
X84716000Y-145213500D01*
G37*
G36*
X86616000Y-145213500D02*
G01*
X85464000Y-145213500D01*
X85464000Y-143711500D01*
X86616000Y-143711500D01*
X86616000Y-145213500D01*
G37*
G36*
X158866000Y-144401000D02*
G01*
X157364000Y-144401000D01*
X157364000Y-143249000D01*
X158866000Y-143249000D01*
X158866000Y-144401000D01*
G37*
G36*
X215125451Y-141661500D02*
G01*
X215213958Y-141679105D01*
X215282819Y-141707628D01*
X215380203Y-141747966D01*
X215529822Y-141847938D01*
X215657062Y-141975178D01*
X215757034Y-142124797D01*
X215825895Y-142291043D01*
X215861000Y-142467527D01*
X215861000Y-142647473D01*
X215825895Y-142823957D01*
X215757034Y-142990203D01*
X215657062Y-143139822D01*
X215529822Y-143267062D01*
X215380203Y-143367034D01*
X215282819Y-143407372D01*
X215213958Y-143435895D01*
X215125715Y-143453447D01*
X215037473Y-143471000D01*
X214857527Y-143471000D01*
X214769285Y-143453447D01*
X214681042Y-143435895D01*
X214612181Y-143407372D01*
X214514797Y-143367034D01*
X214365178Y-143267062D01*
X214237938Y-143139822D01*
X214137966Y-142990203D01*
X214069105Y-142823957D01*
X214034000Y-142647473D01*
X214034000Y-142467527D01*
X214069105Y-142291043D01*
X214137966Y-142124797D01*
X214237938Y-141975178D01*
X214365178Y-141847938D01*
X214514797Y-141747966D01*
X214612181Y-141707628D01*
X214681042Y-141679105D01*
X214769549Y-141661500D01*
X214857527Y-141644000D01*
X215037473Y-141644000D01*
X215125451Y-141661500D01*
G37*
G36*
X212585451Y-141661500D02*
G01*
X212673958Y-141679105D01*
X212742819Y-141707628D01*
X212840203Y-141747966D01*
X212989822Y-141847938D01*
X213117062Y-141975178D01*
X213217034Y-142124797D01*
X213285895Y-142291043D01*
X213321000Y-142467527D01*
X213321000Y-142647473D01*
X213285895Y-142823957D01*
X213217034Y-142990203D01*
X213117062Y-143139822D01*
X212989822Y-143267062D01*
X212840203Y-143367034D01*
X212742819Y-143407372D01*
X212673958Y-143435895D01*
X212585715Y-143453447D01*
X212497473Y-143471000D01*
X212317527Y-143471000D01*
X212229285Y-143453447D01*
X212141042Y-143435895D01*
X212072181Y-143407372D01*
X211974797Y-143367034D01*
X211825178Y-143267062D01*
X211697938Y-143139822D01*
X211597966Y-142990203D01*
X211529105Y-142823957D01*
X211494000Y-142647473D01*
X211494000Y-142467527D01*
X211529105Y-142291043D01*
X211597966Y-142124797D01*
X211697938Y-141975178D01*
X211825178Y-141847938D01*
X211974797Y-141747966D01*
X212072181Y-141707628D01*
X212141042Y-141679105D01*
X212229549Y-141661500D01*
X212317527Y-141644000D01*
X212497473Y-141644000D01*
X212585451Y-141661500D01*
G37*
G36*
X210045451Y-141661500D02*
G01*
X210133958Y-141679105D01*
X210202819Y-141707628D01*
X210300203Y-141747966D01*
X210449822Y-141847938D01*
X210577062Y-141975178D01*
X210677034Y-142124797D01*
X210745895Y-142291043D01*
X210781000Y-142467527D01*
X210781000Y-142647473D01*
X210745895Y-142823957D01*
X210677034Y-142990203D01*
X210577062Y-143139822D01*
X210449822Y-143267062D01*
X210300203Y-143367034D01*
X210202819Y-143407372D01*
X210133958Y-143435895D01*
X210045715Y-143453447D01*
X209957473Y-143471000D01*
X209777527Y-143471000D01*
X209689285Y-143453447D01*
X209601042Y-143435895D01*
X209532181Y-143407372D01*
X209434797Y-143367034D01*
X209285178Y-143267062D01*
X209157938Y-143139822D01*
X209057966Y-142990203D01*
X208989105Y-142823957D01*
X208954000Y-142647473D01*
X208954000Y-142467527D01*
X208989105Y-142291043D01*
X209057966Y-142124797D01*
X209157938Y-141975178D01*
X209285178Y-141847938D01*
X209434797Y-141747966D01*
X209532181Y-141707628D01*
X209601042Y-141679105D01*
X209689549Y-141661500D01*
X209777527Y-141644000D01*
X209957473Y-141644000D01*
X210045451Y-141661500D01*
G37*
G36*
X208241000Y-143471000D02*
G01*
X206414000Y-143471000D01*
X206414000Y-141644000D01*
X208241000Y-141644000D01*
X208241000Y-143471000D01*
G37*
G36*
X203437142Y-141775742D02*
G01*
X203585101Y-141837029D01*
X203718255Y-141925999D01*
X203831501Y-142039245D01*
X203920471Y-142172399D01*
X203981758Y-142320358D01*
X204013000Y-142477425D01*
X204013000Y-142637575D01*
X203981758Y-142794642D01*
X203920471Y-142942601D01*
X203831501Y-143075755D01*
X203718255Y-143189001D01*
X203585101Y-143277971D01*
X203437142Y-143339258D01*
X203280075Y-143370500D01*
X203119925Y-143370500D01*
X202962858Y-143339258D01*
X202814899Y-143277971D01*
X202681745Y-143189001D01*
X202568499Y-143075755D01*
X202479529Y-142942601D01*
X202418242Y-142794642D01*
X202387000Y-142637575D01*
X202387000Y-142477425D01*
X202418242Y-142320358D01*
X202479529Y-142172399D01*
X202568499Y-142039245D01*
X202681745Y-141925999D01*
X202814899Y-141837029D01*
X202962858Y-141775742D01*
X203119925Y-141744500D01*
X203280075Y-141744500D01*
X203437142Y-141775742D01*
G37*
G36*
X188197142Y-141775742D02*
G01*
X188345101Y-141837029D01*
X188478255Y-141925999D01*
X188591501Y-142039245D01*
X188680471Y-142172399D01*
X188741758Y-142320358D01*
X188773000Y-142477425D01*
X188773000Y-142637575D01*
X188741758Y-142794642D01*
X188680471Y-142942601D01*
X188591501Y-143075755D01*
X188478255Y-143189001D01*
X188345101Y-143277971D01*
X188197142Y-143339258D01*
X188040075Y-143370500D01*
X187879925Y-143370500D01*
X187722858Y-143339258D01*
X187574899Y-143277971D01*
X187441745Y-143189001D01*
X187328499Y-143075755D01*
X187239529Y-142942601D01*
X187178242Y-142794642D01*
X187147000Y-142637575D01*
X187147000Y-142477425D01*
X187178242Y-142320358D01*
X187239529Y-142172399D01*
X187328499Y-142039245D01*
X187441745Y-141925999D01*
X187574899Y-141837029D01*
X187722858Y-141775742D01*
X187879925Y-141744500D01*
X188040075Y-141744500D01*
X188197142Y-141775742D01*
G37*
G36*
X82101000Y-142938500D02*
G01*
X81099000Y-142938500D01*
X81099000Y-141636500D01*
X82101000Y-141636500D01*
X82101000Y-142938500D01*
G37*
G36*
X84001000Y-142938500D02*
G01*
X82999000Y-142938500D01*
X82999000Y-141636500D01*
X84001000Y-141636500D01*
X84001000Y-142938500D01*
G37*
G36*
X156643500Y-142813500D02*
G01*
X155141500Y-142813500D01*
X155141500Y-141661500D01*
X156643500Y-141661500D01*
X156643500Y-142813500D01*
G37*
G36*
X158866000Y-142501000D02*
G01*
X157364000Y-142501000D01*
X157364000Y-141349000D01*
X158866000Y-141349000D01*
X158866000Y-142501000D01*
G37*
G36*
X163581000Y-142391000D02*
G01*
X162459000Y-142391000D01*
X162459000Y-140819000D01*
X163581000Y-140819000D01*
X163581000Y-142391000D01*
G37*
G36*
X165201000Y-142391000D02*
G01*
X164079000Y-142391000D01*
X164079000Y-140819000D01*
X165201000Y-140819000D01*
X165201000Y-142391000D01*
G37*
G36*
X151708500Y-142038500D02*
G01*
X150556500Y-142038500D01*
X150556500Y-140536500D01*
X151708500Y-140536500D01*
X151708500Y-142038500D01*
G37*
G36*
X153608500Y-142038500D02*
G01*
X152456500Y-142038500D01*
X152456500Y-140536500D01*
X153608500Y-140536500D01*
X153608500Y-142038500D01*
G37*
G36*
X144813000Y-141346000D02*
G01*
X143186000Y-141346000D01*
X143186000Y-140594000D01*
X144813000Y-140594000D01*
X144813000Y-141346000D01*
G37*
G36*
X139389000Y-141346000D02*
G01*
X137762000Y-141346000D01*
X137762000Y-140594000D01*
X139389000Y-140594000D01*
X139389000Y-141346000D01*
G37*
G36*
X83051000Y-140938500D02*
G01*
X82049000Y-140938500D01*
X82049000Y-139636500D01*
X83051000Y-139636500D01*
X83051000Y-140938500D01*
G37*
G36*
X156643500Y-140913500D02*
G01*
X155141500Y-140913500D01*
X155141500Y-139761500D01*
X156643500Y-139761500D01*
X156643500Y-140913500D01*
G37*
G36*
X203437142Y-139235742D02*
G01*
X203585101Y-139297029D01*
X203718255Y-139385999D01*
X203831501Y-139499245D01*
X203920471Y-139632399D01*
X203981758Y-139780358D01*
X204013000Y-139937425D01*
X204013000Y-140097575D01*
X203981758Y-140254642D01*
X203920471Y-140402601D01*
X203831501Y-140535755D01*
X203718255Y-140649001D01*
X203585101Y-140737971D01*
X203437142Y-140799258D01*
X203280075Y-140830500D01*
X203119925Y-140830500D01*
X202962858Y-140799258D01*
X202814899Y-140737971D01*
X202681745Y-140649001D01*
X202568499Y-140535755D01*
X202479529Y-140402601D01*
X202418242Y-140254642D01*
X202387000Y-140097575D01*
X202387000Y-139937425D01*
X202418242Y-139780358D01*
X202479529Y-139632399D01*
X202568499Y-139499245D01*
X202681745Y-139385999D01*
X202814899Y-139297029D01*
X202962858Y-139235742D01*
X203119925Y-139204500D01*
X203280075Y-139204500D01*
X203437142Y-139235742D01*
G37*
G36*
X188197142Y-139235742D02*
G01*
X188345101Y-139297029D01*
X188478255Y-139385999D01*
X188591501Y-139499245D01*
X188680471Y-139632399D01*
X188741758Y-139780358D01*
X188773000Y-139937425D01*
X188773000Y-140097575D01*
X188741758Y-140254642D01*
X188680471Y-140402601D01*
X188591501Y-140535755D01*
X188478255Y-140649001D01*
X188345101Y-140737971D01*
X188197142Y-140799258D01*
X188040075Y-140830500D01*
X187879925Y-140830500D01*
X187722858Y-140799258D01*
X187574899Y-140737971D01*
X187441745Y-140649001D01*
X187328499Y-140535755D01*
X187239529Y-140402601D01*
X187178242Y-140254642D01*
X187147000Y-140097575D01*
X187147000Y-139937425D01*
X187178242Y-139780358D01*
X187239529Y-139632399D01*
X187328499Y-139499245D01*
X187441745Y-139385999D01*
X187574899Y-139297029D01*
X187722858Y-139235742D01*
X187879925Y-139204500D01*
X188040075Y-139204500D01*
X188197142Y-139235742D01*
G37*
G36*
X151708500Y-140133500D02*
G01*
X150556500Y-140133500D01*
X150556500Y-138631500D01*
X151708500Y-138631500D01*
X151708500Y-140133500D01*
G37*
G36*
X153608500Y-140133500D02*
G01*
X152456500Y-140133500D01*
X152456500Y-138631500D01*
X153608500Y-138631500D01*
X153608500Y-140133500D01*
G37*
G36*
X144813000Y-140076000D02*
G01*
X143186000Y-140076000D01*
X143186000Y-139324000D01*
X144813000Y-139324000D01*
X144813000Y-140076000D01*
G37*
G36*
X139389000Y-140076000D02*
G01*
X137762000Y-140076000D01*
X137762000Y-139324000D01*
X139389000Y-139324000D01*
X139389000Y-140076000D01*
G37*
G36*
X210618500Y-139638500D02*
G01*
X209116500Y-139638500D01*
X209116500Y-138486500D01*
X210618500Y-138486500D01*
X210618500Y-139638500D01*
G37*
G36*
X207126000Y-139638500D02*
G01*
X205624000Y-139638500D01*
X205624000Y-138486500D01*
X207126000Y-138486500D01*
X207126000Y-139638500D01*
G37*
G36*
X144813000Y-138806000D02*
G01*
X143186000Y-138806000D01*
X143186000Y-138054000D01*
X144813000Y-138054000D01*
X144813000Y-138806000D01*
G37*
G36*
X139389000Y-138806000D02*
G01*
X137762000Y-138806000D01*
X137762000Y-138054000D01*
X139389000Y-138054000D01*
X139389000Y-138806000D01*
G37*
G36*
X163251000Y-138346500D02*
G01*
X154249000Y-138346500D01*
X154249000Y-136769500D01*
X163251000Y-136769500D01*
X163251000Y-138346500D01*
G37*
G36*
X88431000Y-138298500D02*
G01*
X86829000Y-138298500D01*
X86829000Y-136196500D01*
X88431000Y-136196500D01*
X88431000Y-138298500D01*
G37*
G36*
X129071000Y-138298500D02*
G01*
X127469000Y-138298500D01*
X127469000Y-136196500D01*
X129071000Y-136196500D01*
X129071000Y-138298500D01*
G37*
G36*
X126531000Y-138298500D02*
G01*
X124929000Y-138298500D01*
X124929000Y-136196500D01*
X126531000Y-136196500D01*
X126531000Y-138298500D01*
G37*
G36*
X116371000Y-138298500D02*
G01*
X114769000Y-138298500D01*
X114769000Y-136196500D01*
X116371000Y-136196500D01*
X116371000Y-138298500D01*
G37*
G36*
X113831000Y-138298500D02*
G01*
X112229000Y-138298500D01*
X112229000Y-136196500D01*
X113831000Y-136196500D01*
X113831000Y-138298500D01*
G37*
G36*
X103671000Y-138298500D02*
G01*
X102069000Y-138298500D01*
X102069000Y-136196500D01*
X103671000Y-136196500D01*
X103671000Y-138298500D01*
G37*
G36*
X101131000Y-138298500D02*
G01*
X99529000Y-138298500D01*
X99529000Y-136196500D01*
X101131000Y-136196500D01*
X101131000Y-138298500D01*
G37*
G36*
X90971000Y-138298500D02*
G01*
X89369000Y-138298500D01*
X89369000Y-136196500D01*
X90971000Y-136196500D01*
X90971000Y-138298500D01*
G37*
G36*
X203437142Y-136695742D02*
G01*
X203585101Y-136757029D01*
X203718255Y-136845999D01*
X203831501Y-136959245D01*
X203920471Y-137092399D01*
X203981758Y-137240358D01*
X204013000Y-137397425D01*
X204013000Y-137557575D01*
X203981758Y-137714642D01*
X203920471Y-137862601D01*
X203831501Y-137995755D01*
X203718255Y-138109001D01*
X203585101Y-138197971D01*
X203437142Y-138259258D01*
X203280075Y-138290500D01*
X203119925Y-138290500D01*
X202962858Y-138259258D01*
X202814899Y-138197971D01*
X202681745Y-138109001D01*
X202568499Y-137995755D01*
X202479529Y-137862601D01*
X202418242Y-137714642D01*
X202387000Y-137557575D01*
X202387000Y-137397425D01*
X202418242Y-137240358D01*
X202479529Y-137092399D01*
X202568499Y-136959245D01*
X202681745Y-136845999D01*
X202814899Y-136757029D01*
X202962858Y-136695742D01*
X203119925Y-136664500D01*
X203280075Y-136664500D01*
X203437142Y-136695742D01*
G37*
G36*
X188197142Y-136695742D02*
G01*
X188345101Y-136757029D01*
X188478255Y-136845999D01*
X188591501Y-136959245D01*
X188680471Y-137092399D01*
X188741758Y-137240358D01*
X188773000Y-137397425D01*
X188773000Y-137557575D01*
X188741758Y-137714642D01*
X188680471Y-137862601D01*
X188591501Y-137995755D01*
X188478255Y-138109001D01*
X188345101Y-138197971D01*
X188197142Y-138259258D01*
X188040075Y-138290500D01*
X187879925Y-138290500D01*
X187722858Y-138259258D01*
X187574899Y-138197971D01*
X187441745Y-138109001D01*
X187328499Y-137995755D01*
X187239529Y-137862601D01*
X187178242Y-137714642D01*
X187147000Y-137557575D01*
X187147000Y-137397425D01*
X187178242Y-137240358D01*
X187239529Y-137092399D01*
X187328499Y-136959245D01*
X187441745Y-136845999D01*
X187574899Y-136757029D01*
X187722858Y-136695742D01*
X187879925Y-136664500D01*
X188040075Y-136664500D01*
X188197142Y-136695742D01*
G37*
G36*
X77736000Y-138148500D02*
G01*
X75934000Y-138148500D01*
X75934000Y-136546500D01*
X77736000Y-136546500D01*
X77736000Y-138148500D01*
G37*
G36*
X146753500Y-137946000D02*
G01*
X145631500Y-137946000D01*
X145631500Y-136374000D01*
X146753500Y-136374000D01*
X146753500Y-137946000D01*
G37*
G36*
X148373500Y-137946000D02*
G01*
X147251500Y-137946000D01*
X147251500Y-136374000D01*
X148373500Y-136374000D01*
X148373500Y-137946000D01*
G37*
G36*
X207126000Y-137738500D02*
G01*
X205624000Y-137738500D01*
X205624000Y-136586500D01*
X207126000Y-136586500D01*
X207126000Y-137738500D01*
G37*
G36*
X210618500Y-137738500D02*
G01*
X209116500Y-137738500D01*
X209116500Y-136586500D01*
X210618500Y-136586500D01*
X210618500Y-137738500D01*
G37*
G36*
X166438500Y-137628500D02*
G01*
X165316500Y-137628500D01*
X165316500Y-136056500D01*
X166438500Y-136056500D01*
X166438500Y-137628500D01*
G37*
G36*
X168058500Y-137628500D02*
G01*
X166936500Y-137628500D01*
X166936500Y-136056500D01*
X168058500Y-136056500D01*
X168058500Y-137628500D01*
G37*
G36*
X139389000Y-137536000D02*
G01*
X137762000Y-137536000D01*
X137762000Y-136784000D01*
X139389000Y-136784000D01*
X139389000Y-137536000D01*
G37*
G36*
X144813000Y-137536000D02*
G01*
X143186000Y-137536000D01*
X143186000Y-136784000D01*
X144813000Y-136784000D01*
X144813000Y-137536000D01*
G37*
G36*
X153692582Y-136120507D02*
G01*
X152630507Y-137182582D01*
X151815920Y-136367995D01*
X152877995Y-135305920D01*
X153692582Y-136120507D01*
G37*
G36*
X152349080Y-134777005D02*
G01*
X151287005Y-135839080D01*
X150472418Y-135024493D01*
X151534493Y-133962418D01*
X152349080Y-134777005D01*
G37*
G36*
X188197142Y-134155742D02*
G01*
X188345101Y-134217029D01*
X188478255Y-134305999D01*
X188591501Y-134419245D01*
X188680471Y-134552399D01*
X188741758Y-134700358D01*
X188773000Y-134857425D01*
X188773000Y-135017575D01*
X188741758Y-135174642D01*
X188680471Y-135322601D01*
X188591501Y-135455755D01*
X188478255Y-135569001D01*
X188345101Y-135657971D01*
X188197142Y-135719258D01*
X188040075Y-135750500D01*
X187879925Y-135750500D01*
X187722858Y-135719258D01*
X187574899Y-135657971D01*
X187441745Y-135569001D01*
X187328499Y-135455755D01*
X187239529Y-135322601D01*
X187178242Y-135174642D01*
X187147000Y-135017575D01*
X187147000Y-134857425D01*
X187178242Y-134700358D01*
X187239529Y-134552399D01*
X187328499Y-134419245D01*
X187441745Y-134305999D01*
X187574899Y-134217029D01*
X187722858Y-134155742D01*
X187879925Y-134124500D01*
X188040075Y-134124500D01*
X188197142Y-134155742D01*
G37*
G36*
X203437142Y-134155742D02*
G01*
X203585101Y-134217029D01*
X203718255Y-134305999D01*
X203831501Y-134419245D01*
X203920471Y-134552399D01*
X203981758Y-134700358D01*
X204013000Y-134857425D01*
X204013000Y-135017575D01*
X203981758Y-135174642D01*
X203920471Y-135322601D01*
X203831501Y-135455755D01*
X203718255Y-135569001D01*
X203585101Y-135657971D01*
X203437142Y-135719258D01*
X203280075Y-135750500D01*
X203119925Y-135750500D01*
X202962858Y-135719258D01*
X202814899Y-135657971D01*
X202681745Y-135569001D01*
X202568499Y-135455755D01*
X202479529Y-135322601D01*
X202418242Y-135174642D01*
X202387000Y-135017575D01*
X202387000Y-134857425D01*
X202418242Y-134700358D01*
X202479529Y-134552399D01*
X202568499Y-134419245D01*
X202681745Y-134305999D01*
X202814899Y-134217029D01*
X202962858Y-134155742D01*
X203119925Y-134124500D01*
X203280075Y-134124500D01*
X203437142Y-134155742D01*
G37*
G36*
X216251000Y-135676000D02*
G01*
X215549000Y-135676000D01*
X215549000Y-134174000D01*
X216251000Y-134174000D01*
X216251000Y-135676000D01*
G37*
G36*
X210218500Y-135676000D02*
G01*
X209516500Y-135676000D01*
X209516500Y-134174000D01*
X210218500Y-134174000D01*
X210218500Y-135676000D01*
G37*
G36*
X214981000Y-135676000D02*
G01*
X214279000Y-135676000D01*
X214279000Y-134174000D01*
X214981000Y-134174000D01*
X214981000Y-135676000D01*
G37*
G36*
X213711000Y-135676000D02*
G01*
X213009000Y-135676000D01*
X213009000Y-134174000D01*
X213711000Y-134174000D01*
X213711000Y-135676000D01*
G37*
G36*
X211488500Y-135676000D02*
G01*
X210786500Y-135676000D01*
X210786500Y-134174000D01*
X211488500Y-134174000D01*
X211488500Y-135676000D01*
G37*
G36*
X208948500Y-135676000D02*
G01*
X208246500Y-135676000D01*
X208246500Y-134174000D01*
X208948500Y-134174000D01*
X208948500Y-135676000D01*
G37*
G36*
X180693500Y-134123500D02*
G01*
X179991500Y-134123500D01*
X179991500Y-132771500D01*
X180693500Y-132771500D01*
X180693500Y-134123500D01*
G37*
G36*
X182593500Y-134123500D02*
G01*
X181891500Y-134123500D01*
X181891500Y-132771500D01*
X182593500Y-132771500D01*
X182593500Y-134123500D01*
G37*
G36*
X172401000Y-133953500D02*
G01*
X170549000Y-133953500D01*
X170549000Y-132901500D01*
X172401000Y-132901500D01*
X172401000Y-133953500D01*
G37*
G36*
X203437142Y-131615742D02*
G01*
X203585101Y-131677029D01*
X203718255Y-131765999D01*
X203831501Y-131879245D01*
X203920471Y-132012399D01*
X203981758Y-132160358D01*
X204013000Y-132317425D01*
X204013000Y-132477575D01*
X203981758Y-132634642D01*
X203920471Y-132782601D01*
X203831501Y-132915755D01*
X203718255Y-133029001D01*
X203585101Y-133117971D01*
X203437142Y-133179258D01*
X203280075Y-133210500D01*
X203119925Y-133210500D01*
X202962858Y-133179258D01*
X202814899Y-133117971D01*
X202681745Y-133029001D01*
X202568499Y-132915755D01*
X202479529Y-132782601D01*
X202418242Y-132634642D01*
X202387000Y-132477575D01*
X202387000Y-132317425D01*
X202418242Y-132160358D01*
X202479529Y-132012399D01*
X202568499Y-131879245D01*
X202681745Y-131765999D01*
X202814899Y-131677029D01*
X202962858Y-131615742D01*
X203119925Y-131584500D01*
X203280075Y-131584500D01*
X203437142Y-131615742D01*
G37*
G36*
X188197142Y-131615742D02*
G01*
X188345101Y-131677029D01*
X188478255Y-131765999D01*
X188591501Y-131879245D01*
X188680471Y-132012399D01*
X188741758Y-132160358D01*
X188773000Y-132317425D01*
X188773000Y-132477575D01*
X188741758Y-132634642D01*
X188680471Y-132782601D01*
X188591501Y-132915755D01*
X188478255Y-133029001D01*
X188345101Y-133117971D01*
X188197142Y-133179258D01*
X188040075Y-133210500D01*
X187879925Y-133210500D01*
X187722858Y-133179258D01*
X187574899Y-133117971D01*
X187441745Y-133029001D01*
X187328499Y-132915755D01*
X187239529Y-132782601D01*
X187178242Y-132634642D01*
X187147000Y-132477575D01*
X187147000Y-132317425D01*
X187178242Y-132160358D01*
X187239529Y-132012399D01*
X187328499Y-131879245D01*
X187441745Y-131765999D01*
X187574899Y-131677029D01*
X187722858Y-131615742D01*
X187879925Y-131584500D01*
X188040075Y-131584500D01*
X188197142Y-131615742D01*
G37*
G36*
X178701000Y-132778500D02*
G01*
X176849000Y-132778500D01*
X176849000Y-129476500D01*
X178701000Y-129476500D01*
X178701000Y-132778500D01*
G37*
G36*
X163251000Y-132470500D02*
G01*
X154249000Y-132470500D01*
X154249000Y-130893500D01*
X163251000Y-130893500D01*
X163251000Y-132470500D01*
G37*
G36*
X144813000Y-132138500D02*
G01*
X143186000Y-132138500D01*
X143186000Y-131386500D01*
X144813000Y-131386500D01*
X144813000Y-132138500D01*
G37*
G36*
X139389000Y-132138500D02*
G01*
X137762000Y-132138500D01*
X137762000Y-131386500D01*
X139389000Y-131386500D01*
X139389000Y-132138500D01*
G37*
G36*
X181643500Y-132023500D02*
G01*
X180941500Y-132023500D01*
X180941500Y-130671500D01*
X181643500Y-130671500D01*
X181643500Y-132023500D01*
G37*
G36*
X154010082Y-130723007D02*
G01*
X152948007Y-131785082D01*
X152133420Y-130970495D01*
X153195495Y-129908420D01*
X154010082Y-130723007D01*
G37*
G36*
X172401000Y-131653500D02*
G01*
X170549000Y-131653500D01*
X170549000Y-130601500D01*
X172401000Y-130601500D01*
X172401000Y-131653500D01*
G37*
G36*
X218873500Y-131651000D02*
G01*
X217371500Y-131651000D01*
X217371500Y-130599000D01*
X218873500Y-130599000D01*
X218873500Y-131651000D01*
G37*
G36*
X207126000Y-131651000D02*
G01*
X205624000Y-131651000D01*
X205624000Y-130599000D01*
X207126000Y-130599000D01*
X207126000Y-131651000D01*
G37*
G36*
X144813000Y-130868500D02*
G01*
X143186000Y-130868500D01*
X143186000Y-130116500D01*
X144813000Y-130116500D01*
X144813000Y-130868500D01*
G37*
G36*
X139389000Y-130868500D02*
G01*
X137762000Y-130868500D01*
X137762000Y-130116500D01*
X139389000Y-130116500D01*
X139389000Y-130868500D01*
G37*
G36*
X203437142Y-129075742D02*
G01*
X203585101Y-129137029D01*
X203718255Y-129225999D01*
X203831501Y-129339245D01*
X203920471Y-129472399D01*
X203981758Y-129620358D01*
X204013000Y-129777425D01*
X204013000Y-129937575D01*
X203981758Y-130094642D01*
X203920471Y-130242601D01*
X203831501Y-130375755D01*
X203718255Y-130489001D01*
X203585101Y-130577971D01*
X203437142Y-130639258D01*
X203280075Y-130670500D01*
X203119925Y-130670500D01*
X202962858Y-130639258D01*
X202814899Y-130577971D01*
X202681745Y-130489001D01*
X202568499Y-130375755D01*
X202479529Y-130242601D01*
X202418242Y-130094642D01*
X202387000Y-129937575D01*
X202387000Y-129777425D01*
X202418242Y-129620358D01*
X202479529Y-129472399D01*
X202568499Y-129339245D01*
X202681745Y-129225999D01*
X202814899Y-129137029D01*
X202962858Y-129075742D01*
X203119925Y-129044500D01*
X203280075Y-129044500D01*
X203437142Y-129075742D01*
G37*
G36*
X188197142Y-129075742D02*
G01*
X188345101Y-129137029D01*
X188478255Y-129225999D01*
X188591501Y-129339245D01*
X188680471Y-129472399D01*
X188741758Y-129620358D01*
X188773000Y-129777425D01*
X188773000Y-129937575D01*
X188741758Y-130094642D01*
X188680471Y-130242601D01*
X188591501Y-130375755D01*
X188478255Y-130489001D01*
X188345101Y-130577971D01*
X188197142Y-130639258D01*
X188040075Y-130670500D01*
X187879925Y-130670500D01*
X187722858Y-130639258D01*
X187574899Y-130577971D01*
X187441745Y-130489001D01*
X187328499Y-130375755D01*
X187239529Y-130242601D01*
X187178242Y-130094642D01*
X187147000Y-129937575D01*
X187147000Y-129777425D01*
X187178242Y-129620358D01*
X187239529Y-129472399D01*
X187328499Y-129339245D01*
X187441745Y-129225999D01*
X187574899Y-129137029D01*
X187722858Y-129075742D01*
X187879925Y-129044500D01*
X188040075Y-129044500D01*
X188197142Y-129075742D01*
G37*
G36*
X164721000Y-130608500D02*
G01*
X163569000Y-130608500D01*
X163569000Y-129106500D01*
X164721000Y-129106500D01*
X164721000Y-130608500D01*
G37*
G36*
X162821000Y-130608500D02*
G01*
X161669000Y-130608500D01*
X161669000Y-129106500D01*
X162821000Y-129106500D01*
X162821000Y-130608500D01*
G37*
G36*
X152666580Y-129379505D02*
G01*
X151604505Y-130441580D01*
X150789918Y-129626993D01*
X151851993Y-128564918D01*
X152666580Y-129379505D01*
G37*
G36*
X159818500Y-130113500D02*
G01*
X158316500Y-130113500D01*
X158316500Y-128961500D01*
X159818500Y-128961500D01*
X159818500Y-130113500D01*
G37*
G36*
X218873500Y-129751000D02*
G01*
X217371500Y-129751000D01*
X217371500Y-128699000D01*
X218873500Y-128699000D01*
X218873500Y-129751000D01*
G37*
G36*
X207126000Y-129751000D02*
G01*
X205624000Y-129751000D01*
X205624000Y-128699000D01*
X207126000Y-128699000D01*
X207126000Y-129751000D01*
G37*
G36*
X144813000Y-129598500D02*
G01*
X143186000Y-129598500D01*
X143186000Y-128846500D01*
X144813000Y-128846500D01*
X144813000Y-129598500D01*
G37*
G36*
X139389000Y-129598500D02*
G01*
X137762000Y-129598500D01*
X137762000Y-128846500D01*
X139389000Y-128846500D01*
X139389000Y-129598500D01*
G37*
G36*
X154645082Y-128500507D02*
G01*
X153583007Y-129562582D01*
X152768420Y-128747995D01*
X153830495Y-127685920D01*
X154645082Y-128500507D01*
G37*
G36*
X172401000Y-129353500D02*
G01*
X170549000Y-129353500D01*
X170549000Y-128301500D01*
X172401000Y-128301500D01*
X172401000Y-129353500D01*
G37*
G36*
X148373500Y-128738500D02*
G01*
X147251500Y-128738500D01*
X147251500Y-127166500D01*
X148373500Y-127166500D01*
X148373500Y-128738500D01*
G37*
G36*
X146753500Y-128738500D02*
G01*
X145631500Y-128738500D01*
X145631500Y-127166500D01*
X146753500Y-127166500D01*
X146753500Y-128738500D01*
G37*
G36*
X88431000Y-128598500D02*
G01*
X86829000Y-128598500D01*
X86829000Y-126496500D01*
X88431000Y-126496500D01*
X88431000Y-128598500D01*
G37*
G36*
X126531000Y-128598500D02*
G01*
X124929000Y-128598500D01*
X124929000Y-126496500D01*
X126531000Y-126496500D01*
X126531000Y-128598500D01*
G37*
G36*
X113831000Y-128598500D02*
G01*
X112229000Y-128598500D01*
X112229000Y-126496500D01*
X113831000Y-126496500D01*
X113831000Y-128598500D01*
G37*
G36*
X116371000Y-128598500D02*
G01*
X114769000Y-128598500D01*
X114769000Y-126496500D01*
X116371000Y-126496500D01*
X116371000Y-128598500D01*
G37*
G36*
X90971000Y-128598500D02*
G01*
X89369000Y-128598500D01*
X89369000Y-126496500D01*
X90971000Y-126496500D01*
X90971000Y-128598500D01*
G37*
G36*
X129071000Y-128598500D02*
G01*
X127469000Y-128598500D01*
X127469000Y-126496500D01*
X129071000Y-126496500D01*
X129071000Y-128598500D01*
G37*
G36*
X101131000Y-128598500D02*
G01*
X99529000Y-128598500D01*
X99529000Y-126496500D01*
X101131000Y-126496500D01*
X101131000Y-128598500D01*
G37*
G36*
X103671000Y-128598500D02*
G01*
X102069000Y-128598500D01*
X102069000Y-126496500D01*
X103671000Y-126496500D01*
X103671000Y-128598500D01*
G37*
G36*
X139389000Y-128328500D02*
G01*
X137762000Y-128328500D01*
X137762000Y-127576500D01*
X139389000Y-127576500D01*
X139389000Y-128328500D01*
G37*
G36*
X144813000Y-128328500D02*
G01*
X143186000Y-128328500D01*
X143186000Y-127576500D01*
X144813000Y-127576500D01*
X144813000Y-128328500D01*
G37*
G36*
X155915082Y-127230507D02*
G01*
X154853007Y-128292582D01*
X154038420Y-127477995D01*
X155100495Y-126415920D01*
X155915082Y-127230507D01*
G37*
G36*
X77736000Y-128248500D02*
G01*
X75934000Y-128248500D01*
X75934000Y-126646500D01*
X77736000Y-126646500D01*
X77736000Y-128248500D01*
G37*
G36*
X153301580Y-127157005D02*
G01*
X152239505Y-128219080D01*
X151424918Y-127404493D01*
X152486993Y-126342418D01*
X153301580Y-127157005D01*
G37*
G36*
X159818500Y-128213500D02*
G01*
X158316500Y-128213500D01*
X158316500Y-127061500D01*
X159818500Y-127061500D01*
X159818500Y-128213500D01*
G37*
G36*
X203437142Y-126535742D02*
G01*
X203585101Y-126597029D01*
X203718255Y-126685999D01*
X203831501Y-126799245D01*
X203920471Y-126932399D01*
X203981758Y-127080358D01*
X204013000Y-127237425D01*
X204013000Y-127397575D01*
X203981758Y-127554642D01*
X203920471Y-127702601D01*
X203831501Y-127835755D01*
X203718255Y-127949001D01*
X203585101Y-128037971D01*
X203437142Y-128099258D01*
X203280075Y-128130500D01*
X203119925Y-128130500D01*
X202962858Y-128099258D01*
X202814899Y-128037971D01*
X202681745Y-127949001D01*
X202568499Y-127835755D01*
X202479529Y-127702601D01*
X202418242Y-127554642D01*
X202387000Y-127397575D01*
X202387000Y-127237425D01*
X202418242Y-127080358D01*
X202479529Y-126932399D01*
X202568499Y-126799245D01*
X202681745Y-126685999D01*
X202814899Y-126597029D01*
X202962858Y-126535742D01*
X203119925Y-126504500D01*
X203280075Y-126504500D01*
X203437142Y-126535742D01*
G37*
G36*
X188197142Y-126535742D02*
G01*
X188345101Y-126597029D01*
X188478255Y-126685999D01*
X188591501Y-126799245D01*
X188680471Y-126932399D01*
X188741758Y-127080358D01*
X188773000Y-127237425D01*
X188773000Y-127397575D01*
X188741758Y-127554642D01*
X188680471Y-127702601D01*
X188591501Y-127835755D01*
X188478255Y-127949001D01*
X188345101Y-128037971D01*
X188197142Y-128099258D01*
X188040075Y-128130500D01*
X187879925Y-128130500D01*
X187722858Y-128099258D01*
X187574899Y-128037971D01*
X187441745Y-127949001D01*
X187328499Y-127835755D01*
X187239529Y-127702601D01*
X187178242Y-127554642D01*
X187147000Y-127397575D01*
X187147000Y-127237425D01*
X187178242Y-127080358D01*
X187239529Y-126932399D01*
X187328499Y-126799245D01*
X187441745Y-126685999D01*
X187574899Y-126597029D01*
X187722858Y-126535742D01*
X187879925Y-126504500D01*
X188040075Y-126504500D01*
X188197142Y-126535742D01*
G37*
G36*
X154571580Y-125887005D02*
G01*
X153509505Y-126949080D01*
X152694918Y-126134493D01*
X153756993Y-125072418D01*
X154571580Y-125887005D01*
G37*
G36*
X213711000Y-126176000D02*
G01*
X213009000Y-126176000D01*
X213009000Y-124674000D01*
X213711000Y-124674000D01*
X213711000Y-126176000D01*
G37*
G36*
X208948500Y-126176000D02*
G01*
X208246500Y-126176000D01*
X208246500Y-124674000D01*
X208948500Y-124674000D01*
X208948500Y-126176000D01*
G37*
G36*
X210218500Y-126176000D02*
G01*
X209516500Y-126176000D01*
X209516500Y-124674000D01*
X210218500Y-124674000D01*
X210218500Y-126176000D01*
G37*
G36*
X211488500Y-126176000D02*
G01*
X210786500Y-126176000D01*
X210786500Y-124674000D01*
X211488500Y-124674000D01*
X211488500Y-126176000D01*
G37*
G36*
X214981000Y-126176000D02*
G01*
X214279000Y-126176000D01*
X214279000Y-124674000D01*
X214981000Y-124674000D01*
X214981000Y-126176000D01*
G37*
G36*
X216251000Y-126176000D02*
G01*
X215549000Y-126176000D01*
X215549000Y-124674000D01*
X216251000Y-124674000D01*
X216251000Y-126176000D01*
G37*
G36*
X139389000Y-125788500D02*
G01*
X137762000Y-125788500D01*
X137762000Y-125036500D01*
X139389000Y-125036500D01*
X139389000Y-125788500D01*
G37*
G36*
X144813000Y-125788500D02*
G01*
X143186000Y-125788500D01*
X143186000Y-125036500D01*
X144813000Y-125036500D01*
X144813000Y-125788500D01*
G37*
G36*
X203437142Y-123995742D02*
G01*
X203585101Y-124057029D01*
X203718255Y-124145999D01*
X203831501Y-124259245D01*
X203920471Y-124392399D01*
X203981758Y-124540358D01*
X204013000Y-124697425D01*
X204013000Y-124857575D01*
X203981758Y-125014642D01*
X203920471Y-125162601D01*
X203831501Y-125295755D01*
X203718255Y-125409001D01*
X203585101Y-125497971D01*
X203437142Y-125559258D01*
X203280075Y-125590500D01*
X203119925Y-125590500D01*
X202962858Y-125559258D01*
X202814899Y-125497971D01*
X202681745Y-125409001D01*
X202568499Y-125295755D01*
X202479529Y-125162601D01*
X202418242Y-125014642D01*
X202387000Y-124857575D01*
X202387000Y-124697425D01*
X202418242Y-124540358D01*
X202479529Y-124392399D01*
X202568499Y-124259245D01*
X202681745Y-124145999D01*
X202814899Y-124057029D01*
X202962858Y-123995742D01*
X203119925Y-123964500D01*
X203280075Y-123964500D01*
X203437142Y-123995742D01*
G37*
G36*
X188197142Y-123995742D02*
G01*
X188345101Y-124057029D01*
X188478255Y-124145999D01*
X188591501Y-124259245D01*
X188680471Y-124392399D01*
X188741758Y-124540358D01*
X188773000Y-124697425D01*
X188773000Y-124857575D01*
X188741758Y-125014642D01*
X188680471Y-125162601D01*
X188591501Y-125295755D01*
X188478255Y-125409001D01*
X188345101Y-125497971D01*
X188197142Y-125559258D01*
X188040075Y-125590500D01*
X187879925Y-125590500D01*
X187722858Y-125559258D01*
X187574899Y-125497971D01*
X187441745Y-125409001D01*
X187328499Y-125295755D01*
X187239529Y-125162601D01*
X187178242Y-125014642D01*
X187147000Y-124857575D01*
X187147000Y-124697425D01*
X187178242Y-124540358D01*
X187239529Y-124392399D01*
X187328499Y-124259245D01*
X187441745Y-124145999D01*
X187574899Y-124057029D01*
X187722858Y-123995742D01*
X187879925Y-123964500D01*
X188040075Y-123964500D01*
X188197142Y-123995742D01*
G37*
G36*
X206808500Y-125351000D02*
G01*
X205306500Y-125351000D01*
X205306500Y-124199000D01*
X206808500Y-124199000D01*
X206808500Y-125351000D01*
G37*
G36*
X156550082Y-124055507D02*
G01*
X155488007Y-125117582D01*
X154673420Y-124302995D01*
X155735495Y-123240920D01*
X156550082Y-124055507D01*
G37*
G36*
X144813000Y-124518500D02*
G01*
X143186000Y-124518500D01*
X143186000Y-123766500D01*
X144813000Y-123766500D01*
X144813000Y-124518500D01*
G37*
G36*
X139389000Y-124518500D02*
G01*
X137762000Y-124518500D01*
X137762000Y-123766500D01*
X139389000Y-123766500D01*
X139389000Y-124518500D01*
G37*
G36*
X209383500Y-124243500D02*
G01*
X207811500Y-124243500D01*
X207811500Y-123121500D01*
X209383500Y-123121500D01*
X209383500Y-124243500D01*
G37*
G36*
X218873500Y-124081000D02*
G01*
X217371500Y-124081000D01*
X217371500Y-122929000D01*
X218873500Y-122929000D01*
X218873500Y-124081000D01*
G37*
G36*
X216651000Y-124081000D02*
G01*
X215149000Y-124081000D01*
X215149000Y-122929000D01*
X216651000Y-122929000D01*
X216651000Y-124081000D01*
G37*
G36*
X155206580Y-122712005D02*
G01*
X154144505Y-123774080D01*
X153329918Y-122959493D01*
X154391993Y-121897418D01*
X155206580Y-122712005D01*
G37*
G36*
X206808500Y-123451000D02*
G01*
X205306500Y-123451000D01*
X205306500Y-122299000D01*
X206808500Y-122299000D01*
X206808500Y-123451000D01*
G37*
G36*
X139389000Y-123248500D02*
G01*
X137762000Y-123248500D01*
X137762000Y-122496500D01*
X139389000Y-122496500D01*
X139389000Y-123248500D01*
G37*
G36*
X144813000Y-123248500D02*
G01*
X143186000Y-123248500D01*
X143186000Y-122496500D01*
X144813000Y-122496500D01*
X144813000Y-123248500D01*
G37*
G36*
X188197142Y-121455742D02*
G01*
X188345101Y-121517029D01*
X188478255Y-121605999D01*
X188591501Y-121719245D01*
X188680471Y-121852399D01*
X188741758Y-122000358D01*
X188773000Y-122157425D01*
X188773000Y-122317575D01*
X188741758Y-122474642D01*
X188680471Y-122622601D01*
X188591501Y-122755755D01*
X188478255Y-122869001D01*
X188345101Y-122957971D01*
X188197142Y-123019258D01*
X188040075Y-123050500D01*
X187879925Y-123050500D01*
X187722858Y-123019258D01*
X187574899Y-122957971D01*
X187441745Y-122869001D01*
X187328499Y-122755755D01*
X187239529Y-122622601D01*
X187178242Y-122474642D01*
X187147000Y-122317575D01*
X187147000Y-122157425D01*
X187178242Y-122000358D01*
X187239529Y-121852399D01*
X187328499Y-121719245D01*
X187441745Y-121605999D01*
X187574899Y-121517029D01*
X187722858Y-121455742D01*
X187879925Y-121424500D01*
X188040075Y-121424500D01*
X188197142Y-121455742D01*
G37*
G36*
X203437142Y-121455742D02*
G01*
X203585101Y-121517029D01*
X203718255Y-121605999D01*
X203831501Y-121719245D01*
X203920471Y-121852399D01*
X203981758Y-122000358D01*
X204013000Y-122157425D01*
X204013000Y-122317575D01*
X203981758Y-122474642D01*
X203920471Y-122622601D01*
X203831501Y-122755755D01*
X203718255Y-122869001D01*
X203585101Y-122957971D01*
X203437142Y-123019258D01*
X203280075Y-123050500D01*
X203119925Y-123050500D01*
X202962858Y-123019258D01*
X202814899Y-122957971D01*
X202681745Y-122869001D01*
X202568499Y-122755755D01*
X202479529Y-122622601D01*
X202418242Y-122474642D01*
X202387000Y-122317575D01*
X202387000Y-122157425D01*
X202418242Y-122000358D01*
X202479529Y-121852399D01*
X202568499Y-121719245D01*
X202681745Y-121605999D01*
X202814899Y-121517029D01*
X202962858Y-121455742D01*
X203119925Y-121424500D01*
X203280075Y-121424500D01*
X203437142Y-121455742D01*
G37*
G36*
X209383500Y-122623500D02*
G01*
X207811500Y-122623500D01*
X207811500Y-121501500D01*
X209383500Y-121501500D01*
X209383500Y-122623500D01*
G37*
G36*
X200776000Y-122493500D02*
G01*
X199274000Y-122493500D01*
X199274000Y-121341500D01*
X200776000Y-121341500D01*
X200776000Y-122493500D01*
G37*
G36*
X146753500Y-122388500D02*
G01*
X145631500Y-122388500D01*
X145631500Y-120816500D01*
X146753500Y-120816500D01*
X146753500Y-122388500D01*
G37*
G36*
X148373500Y-122388500D02*
G01*
X147251500Y-122388500D01*
X147251500Y-120816500D01*
X148373500Y-120816500D01*
X148373500Y-122388500D01*
G37*
G36*
X216651000Y-122181000D02*
G01*
X215149000Y-122181000D01*
X215149000Y-121029000D01*
X216651000Y-121029000D01*
X216651000Y-122181000D01*
G37*
G36*
X218873500Y-122181000D02*
G01*
X217371500Y-122181000D01*
X217371500Y-121029000D01*
X218873500Y-121029000D01*
X218873500Y-122181000D01*
G37*
G36*
X139389000Y-121978500D02*
G01*
X137762000Y-121978500D01*
X137762000Y-121226500D01*
X139389000Y-121226500D01*
X139389000Y-121978500D01*
G37*
G36*
X144813000Y-121978500D02*
G01*
X143186000Y-121978500D01*
X143186000Y-121226500D01*
X144813000Y-121226500D01*
X144813000Y-121978500D01*
G37*
G36*
X200776000Y-120593500D02*
G01*
X199274000Y-120593500D01*
X199274000Y-119441500D01*
X200776000Y-119441500D01*
X200776000Y-120593500D01*
G37*
G36*
X188197142Y-118915742D02*
G01*
X188345101Y-118977029D01*
X188478255Y-119065999D01*
X188591501Y-119179245D01*
X188680471Y-119312399D01*
X188741758Y-119460358D01*
X188773000Y-119617425D01*
X188773000Y-119777575D01*
X188741758Y-119934642D01*
X188680471Y-120082601D01*
X188591501Y-120215755D01*
X188478255Y-120329001D01*
X188345101Y-120417971D01*
X188197142Y-120479258D01*
X188040075Y-120510500D01*
X187879925Y-120510500D01*
X187722858Y-120479258D01*
X187574899Y-120417971D01*
X187441745Y-120329001D01*
X187328499Y-120215755D01*
X187239529Y-120082601D01*
X187178242Y-119934642D01*
X187147000Y-119777575D01*
X187147000Y-119617425D01*
X187178242Y-119460358D01*
X187239529Y-119312399D01*
X187328499Y-119179245D01*
X187441745Y-119065999D01*
X187574899Y-118977029D01*
X187722858Y-118915742D01*
X187879925Y-118884500D01*
X188040075Y-118884500D01*
X188197142Y-118915742D01*
G37*
G36*
X203437142Y-118915742D02*
G01*
X203585101Y-118977029D01*
X203718255Y-119065999D01*
X203831501Y-119179245D01*
X203920471Y-119312399D01*
X203981758Y-119460358D01*
X204013000Y-119617425D01*
X204013000Y-119777575D01*
X203981758Y-119934642D01*
X203920471Y-120082601D01*
X203831501Y-120215755D01*
X203718255Y-120329001D01*
X203585101Y-120417971D01*
X203437142Y-120479258D01*
X203280075Y-120510500D01*
X203119925Y-120510500D01*
X202962858Y-120479258D01*
X202814899Y-120417971D01*
X202681745Y-120329001D01*
X202568499Y-120215755D01*
X202479529Y-120082601D01*
X202418242Y-119934642D01*
X202387000Y-119777575D01*
X202387000Y-119617425D01*
X202418242Y-119460358D01*
X202479529Y-119312399D01*
X202568499Y-119179245D01*
X202681745Y-119065999D01*
X202814899Y-118977029D01*
X202962858Y-118915742D01*
X203119925Y-118884500D01*
X203280075Y-118884500D01*
X203437142Y-118915742D01*
G37*
G36*
X103671000Y-119883500D02*
G01*
X102069000Y-119883500D01*
X102069000Y-117781500D01*
X103671000Y-117781500D01*
X103671000Y-119883500D01*
G37*
G36*
X88431000Y-119883500D02*
G01*
X86829000Y-119883500D01*
X86829000Y-117781500D01*
X88431000Y-117781500D01*
X88431000Y-119883500D01*
G37*
G36*
X90971000Y-119883500D02*
G01*
X89369000Y-119883500D01*
X89369000Y-117781500D01*
X90971000Y-117781500D01*
X90971000Y-119883500D01*
G37*
G36*
X129071000Y-119883500D02*
G01*
X127469000Y-119883500D01*
X127469000Y-117781500D01*
X129071000Y-117781500D01*
X129071000Y-119883500D01*
G37*
G36*
X116371000Y-119883500D02*
G01*
X114769000Y-119883500D01*
X114769000Y-117781500D01*
X116371000Y-117781500D01*
X116371000Y-119883500D01*
G37*
G36*
X113831000Y-119883500D02*
G01*
X112229000Y-119883500D01*
X112229000Y-117781500D01*
X113831000Y-117781500D01*
X113831000Y-119883500D01*
G37*
G36*
X101131000Y-119883500D02*
G01*
X99529000Y-119883500D01*
X99529000Y-117781500D01*
X101131000Y-117781500D01*
X101131000Y-119883500D01*
G37*
G36*
X126531000Y-119883500D02*
G01*
X124929000Y-119883500D01*
X124929000Y-117781500D01*
X126531000Y-117781500D01*
X126531000Y-119883500D01*
G37*
G36*
X139389000Y-119438500D02*
G01*
X137762000Y-119438500D01*
X137762000Y-118686500D01*
X139389000Y-118686500D01*
X139389000Y-119438500D01*
G37*
G36*
X144813000Y-119438500D02*
G01*
X143186000Y-119438500D01*
X143186000Y-118686500D01*
X144813000Y-118686500D01*
X144813000Y-119438500D01*
G37*
G36*
X144813000Y-118168500D02*
G01*
X143186000Y-118168500D01*
X143186000Y-117416500D01*
X144813000Y-117416500D01*
X144813000Y-118168500D01*
G37*
G36*
X139389000Y-118168500D02*
G01*
X137762000Y-118168500D01*
X137762000Y-117416500D01*
X139389000Y-117416500D01*
X139389000Y-118168500D01*
G37*
G36*
X188197142Y-116375742D02*
G01*
X188345101Y-116437029D01*
X188478255Y-116525999D01*
X188591501Y-116639245D01*
X188680471Y-116772399D01*
X188741758Y-116920358D01*
X188773000Y-117077425D01*
X188773000Y-117237575D01*
X188741758Y-117394642D01*
X188680471Y-117542601D01*
X188591501Y-117675755D01*
X188478255Y-117789001D01*
X188345101Y-117877971D01*
X188197142Y-117939258D01*
X188040075Y-117970500D01*
X187879925Y-117970500D01*
X187722858Y-117939258D01*
X187574899Y-117877971D01*
X187441745Y-117789001D01*
X187328499Y-117675755D01*
X187239529Y-117542601D01*
X187178242Y-117394642D01*
X187147000Y-117237575D01*
X187147000Y-117077425D01*
X187178242Y-116920358D01*
X187239529Y-116772399D01*
X187328499Y-116639245D01*
X187441745Y-116525999D01*
X187574899Y-116437029D01*
X187722858Y-116375742D01*
X187879925Y-116344500D01*
X188040075Y-116344500D01*
X188197142Y-116375742D01*
G37*
G36*
X203437142Y-116375742D02*
G01*
X203585101Y-116437029D01*
X203718255Y-116525999D01*
X203831501Y-116639245D01*
X203920471Y-116772399D01*
X203981758Y-116920358D01*
X204013000Y-117077425D01*
X204013000Y-117237575D01*
X203981758Y-117394642D01*
X203920471Y-117542601D01*
X203831501Y-117675755D01*
X203718255Y-117789001D01*
X203585101Y-117877971D01*
X203437142Y-117939258D01*
X203280075Y-117970500D01*
X203119925Y-117970500D01*
X202962858Y-117939258D01*
X202814899Y-117877971D01*
X202681745Y-117789001D01*
X202568499Y-117675755D01*
X202479529Y-117542601D01*
X202418242Y-117394642D01*
X202387000Y-117237575D01*
X202387000Y-117077425D01*
X202418242Y-116920358D01*
X202479529Y-116772399D01*
X202568499Y-116639245D01*
X202681745Y-116525999D01*
X202814899Y-116437029D01*
X202962858Y-116375742D01*
X203119925Y-116344500D01*
X203280075Y-116344500D01*
X203437142Y-116375742D01*
G37*
G36*
X193613500Y-117908500D02*
G01*
X192461500Y-117908500D01*
X192461500Y-116406500D01*
X193613500Y-116406500D01*
X193613500Y-117908500D01*
G37*
G36*
X191713500Y-117908500D02*
G01*
X190561500Y-117908500D01*
X190561500Y-116406500D01*
X191713500Y-116406500D01*
X191713500Y-117908500D01*
G37*
G36*
X144813000Y-116898500D02*
G01*
X143186000Y-116898500D01*
X143186000Y-116146500D01*
X144813000Y-116146500D01*
X144813000Y-116898500D01*
G37*
G36*
X139389000Y-116898500D02*
G01*
X137762000Y-116898500D01*
X137762000Y-116146500D01*
X139389000Y-116146500D01*
X139389000Y-116898500D01*
G37*
G36*
X62482585Y-113736302D02*
G01*
X62632410Y-113766104D01*
X62914674Y-113883021D01*
X63168705Y-114052759D01*
X63384741Y-114268795D01*
X63554479Y-114522826D01*
X63671396Y-114805090D01*
X63731000Y-115104740D01*
X63731000Y-115410260D01*
X63671396Y-115709910D01*
X63554479Y-115992174D01*
X63384741Y-116246205D01*
X63168705Y-116462241D01*
X62914674Y-116631979D01*
X62632410Y-116748896D01*
X62514252Y-116772399D01*
X62332761Y-116808500D01*
X62027239Y-116808500D01*
X61845748Y-116772399D01*
X61727590Y-116748896D01*
X61445326Y-116631979D01*
X61191295Y-116462241D01*
X60975259Y-116246205D01*
X60805521Y-115992174D01*
X60688604Y-115709910D01*
X60629000Y-115410260D01*
X60629000Y-115104740D01*
X60688604Y-114805090D01*
X60805521Y-114522826D01*
X60975259Y-114268795D01*
X61191295Y-114052759D01*
X61445326Y-113883021D01*
X61727590Y-113766104D01*
X61877415Y-113736302D01*
X62027239Y-113706500D01*
X62332761Y-113706500D01*
X62482585Y-113736302D01*
G37*
G36*
X148373500Y-116038500D02*
G01*
X147251500Y-116038500D01*
X147251500Y-114466500D01*
X148373500Y-114466500D01*
X148373500Y-116038500D01*
G37*
G36*
X146753500Y-116038500D02*
G01*
X145631500Y-116038500D01*
X145631500Y-114466500D01*
X146753500Y-114466500D01*
X146753500Y-116038500D01*
G37*
G36*
X139389000Y-115628500D02*
G01*
X137762000Y-115628500D01*
X137762000Y-114876500D01*
X139389000Y-114876500D01*
X139389000Y-115628500D01*
G37*
G36*
X144813000Y-115628500D02*
G01*
X143186000Y-115628500D01*
X143186000Y-114876500D01*
X144813000Y-114876500D01*
X144813000Y-115628500D01*
G37*
G36*
X188197142Y-113835742D02*
G01*
X188345101Y-113897029D01*
X188478255Y-113985999D01*
X188591501Y-114099245D01*
X188680471Y-114232399D01*
X188741758Y-114380358D01*
X188773000Y-114537425D01*
X188773000Y-114697575D01*
X188741758Y-114854642D01*
X188680471Y-115002601D01*
X188591501Y-115135755D01*
X188478255Y-115249001D01*
X188345101Y-115337971D01*
X188197142Y-115399258D01*
X188040075Y-115430500D01*
X187879925Y-115430500D01*
X187722858Y-115399258D01*
X187574899Y-115337971D01*
X187441745Y-115249001D01*
X187328499Y-115135755D01*
X187239529Y-115002601D01*
X187178242Y-114854642D01*
X187147000Y-114697575D01*
X187147000Y-114537425D01*
X187178242Y-114380358D01*
X187239529Y-114232399D01*
X187328499Y-114099245D01*
X187441745Y-113985999D01*
X187574899Y-113897029D01*
X187722858Y-113835742D01*
X187879925Y-113804500D01*
X188040075Y-113804500D01*
X188197142Y-113835742D01*
G37*
G36*
X203437142Y-113835742D02*
G01*
X203585101Y-113897029D01*
X203718255Y-113985999D01*
X203831501Y-114099245D01*
X203920471Y-114232399D01*
X203981758Y-114380358D01*
X204013000Y-114537425D01*
X204013000Y-114697575D01*
X203981758Y-114854642D01*
X203920471Y-115002601D01*
X203831501Y-115135755D01*
X203718255Y-115249001D01*
X203585101Y-115337971D01*
X203437142Y-115399258D01*
X203280075Y-115430500D01*
X203119925Y-115430500D01*
X202962858Y-115399258D01*
X202814899Y-115337971D01*
X202681745Y-115249001D01*
X202568499Y-115135755D01*
X202479529Y-115002601D01*
X202418242Y-114854642D01*
X202387000Y-114697575D01*
X202387000Y-114537425D01*
X202418242Y-114380358D01*
X202479529Y-114232399D01*
X202568499Y-114099245D01*
X202681745Y-113985999D01*
X202814899Y-113897029D01*
X202962858Y-113835742D01*
X203119925Y-113804500D01*
X203280075Y-113804500D01*
X203437142Y-113835742D01*
G37*
G36*
X193613500Y-115368500D02*
G01*
X192461500Y-115368500D01*
X192461500Y-113866500D01*
X193613500Y-113866500D01*
X193613500Y-115368500D01*
G37*
G36*
X191713500Y-115368500D02*
G01*
X190561500Y-115368500D01*
X190561500Y-113866500D01*
X191713500Y-113866500D01*
X191713500Y-115368500D01*
G37*
G36*
X66613512Y-112211427D02*
G01*
X66762812Y-112241124D01*
X66926784Y-112309044D01*
X67074354Y-112407647D01*
X67199853Y-112533146D01*
X67298456Y-112680716D01*
X67366376Y-112844688D01*
X67401000Y-113018759D01*
X67401000Y-113196241D01*
X67366376Y-113370312D01*
X67298456Y-113534284D01*
X67199853Y-113681854D01*
X67074354Y-113807353D01*
X66926784Y-113905956D01*
X66762812Y-113973876D01*
X66613512Y-114003573D01*
X66588742Y-114008500D01*
X66411258Y-114008500D01*
X66386488Y-114003573D01*
X66237188Y-113973876D01*
X66073216Y-113905956D01*
X65925646Y-113807353D01*
X65800147Y-113681854D01*
X65701544Y-113534284D01*
X65633624Y-113370312D01*
X65599000Y-113196241D01*
X65599000Y-113018759D01*
X65633624Y-112844688D01*
X65701544Y-112680716D01*
X65800147Y-112533146D01*
X65925646Y-112407647D01*
X66073216Y-112309044D01*
X66237188Y-112241124D01*
X66386488Y-112211427D01*
X66411258Y-112206500D01*
X66588742Y-112206500D01*
X66613512Y-112211427D01*
G37*
G36*
X69613512Y-112211427D02*
G01*
X69762812Y-112241124D01*
X69926784Y-112309044D01*
X70074354Y-112407647D01*
X70199853Y-112533146D01*
X70298456Y-112680716D01*
X70366376Y-112844688D01*
X70401000Y-113018759D01*
X70401000Y-113196241D01*
X70366376Y-113370312D01*
X70298456Y-113534284D01*
X70199853Y-113681854D01*
X70074354Y-113807353D01*
X69926784Y-113905956D01*
X69762812Y-113973876D01*
X69613512Y-114003573D01*
X69588742Y-114008500D01*
X69411258Y-114008500D01*
X69386488Y-114003573D01*
X69237188Y-113973876D01*
X69073216Y-113905956D01*
X68925646Y-113807353D01*
X68800147Y-113681854D01*
X68701544Y-113534284D01*
X68633624Y-113370312D01*
X68599000Y-113196241D01*
X68599000Y-113018759D01*
X68633624Y-112844688D01*
X68701544Y-112680716D01*
X68800147Y-112533146D01*
X68925646Y-112407647D01*
X69073216Y-112309044D01*
X69237188Y-112241124D01*
X69386488Y-112211427D01*
X69411258Y-112206500D01*
X69588742Y-112206500D01*
X69613512Y-112211427D01*
G37*
G36*
X203437142Y-111295742D02*
G01*
X203585101Y-111357029D01*
X203718255Y-111445999D01*
X203831501Y-111559245D01*
X203920471Y-111692399D01*
X203981758Y-111840358D01*
X204013000Y-111997425D01*
X204013000Y-112157575D01*
X203981758Y-112314642D01*
X203920471Y-112462601D01*
X203831501Y-112595755D01*
X203718255Y-112709001D01*
X203585101Y-112797971D01*
X203437142Y-112859258D01*
X203280075Y-112890500D01*
X203119925Y-112890500D01*
X202962858Y-112859258D01*
X202814899Y-112797971D01*
X202681745Y-112709001D01*
X202568499Y-112595755D01*
X202479529Y-112462601D01*
X202418242Y-112314642D01*
X202387000Y-112157575D01*
X202387000Y-111997425D01*
X202418242Y-111840358D01*
X202479529Y-111692399D01*
X202568499Y-111559245D01*
X202681745Y-111445999D01*
X202814899Y-111357029D01*
X202962858Y-111295742D01*
X203119925Y-111264500D01*
X203280075Y-111264500D01*
X203437142Y-111295742D01*
G37*
G36*
X188197142Y-111295742D02*
G01*
X188345101Y-111357029D01*
X188478255Y-111445999D01*
X188591501Y-111559245D01*
X188680471Y-111692399D01*
X188741758Y-111840358D01*
X188773000Y-111997425D01*
X188773000Y-112157575D01*
X188741758Y-112314642D01*
X188680471Y-112462601D01*
X188591501Y-112595755D01*
X188478255Y-112709001D01*
X188345101Y-112797971D01*
X188197142Y-112859258D01*
X188040075Y-112890500D01*
X187879925Y-112890500D01*
X187722858Y-112859258D01*
X187574899Y-112797971D01*
X187441745Y-112709001D01*
X187328499Y-112595755D01*
X187239529Y-112462601D01*
X187178242Y-112314642D01*
X187147000Y-112157575D01*
X187147000Y-111997425D01*
X187178242Y-111840358D01*
X187239529Y-111692399D01*
X187328499Y-111559245D01*
X187441745Y-111445999D01*
X187574899Y-111357029D01*
X187722858Y-111295742D01*
X187879925Y-111264500D01*
X188040075Y-111264500D01*
X188197142Y-111295742D01*
G37*
G36*
X69613512Y-109211427D02*
G01*
X69762812Y-109241124D01*
X69926784Y-109309044D01*
X70074354Y-109407647D01*
X70199853Y-109533146D01*
X70298456Y-109680716D01*
X70366376Y-109844688D01*
X70401000Y-110018759D01*
X70401000Y-110196241D01*
X70366376Y-110370312D01*
X70298456Y-110534284D01*
X70199853Y-110681854D01*
X70074354Y-110807353D01*
X69926784Y-110905956D01*
X69762812Y-110973876D01*
X69613512Y-111003573D01*
X69588742Y-111008500D01*
X69411258Y-111008500D01*
X69386488Y-111003573D01*
X69237188Y-110973876D01*
X69073216Y-110905956D01*
X68925646Y-110807353D01*
X68800147Y-110681854D01*
X68701544Y-110534284D01*
X68633624Y-110370312D01*
X68599000Y-110196241D01*
X68599000Y-110018759D01*
X68633624Y-109844688D01*
X68701544Y-109680716D01*
X68800147Y-109533146D01*
X68925646Y-109407647D01*
X69073216Y-109309044D01*
X69237188Y-109241124D01*
X69386488Y-109211427D01*
X69411258Y-109206500D01*
X69588742Y-109206500D01*
X69613512Y-109211427D01*
G37*
G36*
X66613512Y-109211427D02*
G01*
X66762812Y-109241124D01*
X66926784Y-109309044D01*
X67074354Y-109407647D01*
X67199853Y-109533146D01*
X67298456Y-109680716D01*
X67366376Y-109844688D01*
X67401000Y-110018759D01*
X67401000Y-110196241D01*
X67366376Y-110370312D01*
X67298456Y-110534284D01*
X67199853Y-110681854D01*
X67074354Y-110807353D01*
X66926784Y-110905956D01*
X66762812Y-110973876D01*
X66613512Y-111003573D01*
X66588742Y-111008500D01*
X66411258Y-111008500D01*
X66386488Y-111003573D01*
X66237188Y-110973876D01*
X66073216Y-110905956D01*
X65925646Y-110807353D01*
X65800147Y-110681854D01*
X65701544Y-110534284D01*
X65633624Y-110370312D01*
X65599000Y-110196241D01*
X65599000Y-110018759D01*
X65633624Y-109844688D01*
X65701544Y-109680716D01*
X65800147Y-109533146D01*
X65925646Y-109407647D01*
X66073216Y-109309044D01*
X66237188Y-109241124D01*
X66386488Y-109211427D01*
X66411258Y-109206500D01*
X66588742Y-109206500D01*
X66613512Y-109211427D01*
G37*
G36*
X156008500Y-110746000D02*
G01*
X154506500Y-110746000D01*
X154506500Y-109594000D01*
X156008500Y-109594000D01*
X156008500Y-110746000D01*
G37*
G36*
X198357142Y-108755742D02*
G01*
X198505101Y-108817029D01*
X198638255Y-108905999D01*
X198751501Y-109019245D01*
X198840471Y-109152399D01*
X198901758Y-109300358D01*
X198933000Y-109457425D01*
X198933000Y-109617575D01*
X198901758Y-109774642D01*
X198840471Y-109922601D01*
X198751501Y-110055755D01*
X198638255Y-110169001D01*
X198505101Y-110257971D01*
X198357142Y-110319258D01*
X198200075Y-110350500D01*
X198039925Y-110350500D01*
X197882858Y-110319258D01*
X197734899Y-110257971D01*
X197601745Y-110169001D01*
X197488499Y-110055755D01*
X197399529Y-109922601D01*
X197338242Y-109774642D01*
X197307000Y-109617575D01*
X197307000Y-109457425D01*
X197338242Y-109300358D01*
X197399529Y-109152399D01*
X197488499Y-109019245D01*
X197601745Y-108905999D01*
X197734899Y-108817029D01*
X197882858Y-108755742D01*
X198039925Y-108724500D01*
X198200075Y-108724500D01*
X198357142Y-108755742D01*
G37*
G36*
X193277142Y-108755742D02*
G01*
X193425101Y-108817029D01*
X193558255Y-108905999D01*
X193671501Y-109019245D01*
X193760471Y-109152399D01*
X193821758Y-109300358D01*
X193853000Y-109457425D01*
X193853000Y-109617575D01*
X193821758Y-109774642D01*
X193760471Y-109922601D01*
X193671501Y-110055755D01*
X193558255Y-110169001D01*
X193425101Y-110257971D01*
X193277142Y-110319258D01*
X193120075Y-110350500D01*
X192959925Y-110350500D01*
X192802858Y-110319258D01*
X192654899Y-110257971D01*
X192521745Y-110169001D01*
X192408499Y-110055755D01*
X192319529Y-109922601D01*
X192258242Y-109774642D01*
X192227000Y-109617575D01*
X192227000Y-109457425D01*
X192258242Y-109300358D01*
X192319529Y-109152399D01*
X192408499Y-109019245D01*
X192521745Y-108905999D01*
X192654899Y-108817029D01*
X192802858Y-108755742D01*
X192959925Y-108724500D01*
X193120075Y-108724500D01*
X193277142Y-108755742D01*
G37*
G36*
X195817142Y-108755742D02*
G01*
X195965101Y-108817029D01*
X196098255Y-108905999D01*
X196211501Y-109019245D01*
X196300471Y-109152399D01*
X196361758Y-109300358D01*
X196393000Y-109457425D01*
X196393000Y-109617575D01*
X196361758Y-109774642D01*
X196300471Y-109922601D01*
X196211501Y-110055755D01*
X196098255Y-110169001D01*
X195965101Y-110257971D01*
X195817142Y-110319258D01*
X195660075Y-110350500D01*
X195499925Y-110350500D01*
X195342858Y-110319258D01*
X195194899Y-110257971D01*
X195061745Y-110169001D01*
X194948499Y-110055755D01*
X194859529Y-109922601D01*
X194798242Y-109774642D01*
X194767000Y-109617575D01*
X194767000Y-109457425D01*
X194798242Y-109300358D01*
X194859529Y-109152399D01*
X194948499Y-109019245D01*
X195061745Y-108905999D01*
X195194899Y-108817029D01*
X195342858Y-108755742D01*
X195499925Y-108724500D01*
X195660075Y-108724500D01*
X195817142Y-108755742D01*
G37*
G36*
X190737142Y-108755742D02*
G01*
X190885101Y-108817029D01*
X191018255Y-108905999D01*
X191131501Y-109019245D01*
X191220471Y-109152399D01*
X191281758Y-109300358D01*
X191313000Y-109457425D01*
X191313000Y-109617575D01*
X191281758Y-109774642D01*
X191220471Y-109922601D01*
X191131501Y-110055755D01*
X191018255Y-110169001D01*
X190885101Y-110257971D01*
X190737142Y-110319258D01*
X190580075Y-110350500D01*
X190419925Y-110350500D01*
X190262858Y-110319258D01*
X190114899Y-110257971D01*
X189981745Y-110169001D01*
X189868499Y-110055755D01*
X189779529Y-109922601D01*
X189718242Y-109774642D01*
X189687000Y-109617575D01*
X189687000Y-109457425D01*
X189718242Y-109300358D01*
X189779529Y-109152399D01*
X189868499Y-109019245D01*
X189981745Y-108905999D01*
X190114899Y-108817029D01*
X190262858Y-108755742D01*
X190419925Y-108724500D01*
X190580075Y-108724500D01*
X190737142Y-108755742D01*
G37*
G36*
X188197142Y-108755742D02*
G01*
X188345101Y-108817029D01*
X188478255Y-108905999D01*
X188591501Y-109019245D01*
X188680471Y-109152399D01*
X188741758Y-109300358D01*
X188773000Y-109457425D01*
X188773000Y-109617575D01*
X188741758Y-109774642D01*
X188680471Y-109922601D01*
X188591501Y-110055755D01*
X188478255Y-110169001D01*
X188345101Y-110257971D01*
X188197142Y-110319258D01*
X188040075Y-110350500D01*
X187879925Y-110350500D01*
X187722858Y-110319258D01*
X187574899Y-110257971D01*
X187441745Y-110169001D01*
X187328499Y-110055755D01*
X187239529Y-109922601D01*
X187178242Y-109774642D01*
X187147000Y-109617575D01*
X187147000Y-109457425D01*
X187178242Y-109300358D01*
X187239529Y-109152399D01*
X187328499Y-109019245D01*
X187441745Y-108905999D01*
X187574899Y-108817029D01*
X187722858Y-108755742D01*
X187879925Y-108724500D01*
X188040075Y-108724500D01*
X188197142Y-108755742D01*
G37*
G36*
X200897142Y-108755742D02*
G01*
X201045101Y-108817029D01*
X201178255Y-108905999D01*
X201291501Y-109019245D01*
X201380471Y-109152399D01*
X201441758Y-109300358D01*
X201473000Y-109457425D01*
X201473000Y-109617575D01*
X201441758Y-109774642D01*
X201380471Y-109922601D01*
X201291501Y-110055755D01*
X201178255Y-110169001D01*
X201045101Y-110257971D01*
X200897142Y-110319258D01*
X200740075Y-110350500D01*
X200579925Y-110350500D01*
X200422858Y-110319258D01*
X200274899Y-110257971D01*
X200141745Y-110169001D01*
X200028499Y-110055755D01*
X199939529Y-109922601D01*
X199878242Y-109774642D01*
X199847000Y-109617575D01*
X199847000Y-109457425D01*
X199878242Y-109300358D01*
X199939529Y-109152399D01*
X200028499Y-109019245D01*
X200141745Y-108905999D01*
X200274899Y-108817029D01*
X200422858Y-108755742D01*
X200579925Y-108724500D01*
X200740075Y-108724500D01*
X200897142Y-108755742D01*
G37*
G36*
X203437142Y-108755742D02*
G01*
X203585101Y-108817029D01*
X203718255Y-108905999D01*
X203831501Y-109019245D01*
X203920471Y-109152399D01*
X203981758Y-109300358D01*
X204013000Y-109457425D01*
X204013000Y-109617575D01*
X203981758Y-109774642D01*
X203920471Y-109922601D01*
X203831501Y-110055755D01*
X203718255Y-110169001D01*
X203585101Y-110257971D01*
X203437142Y-110319258D01*
X203280075Y-110350500D01*
X203119925Y-110350500D01*
X202962858Y-110319258D01*
X202814899Y-110257971D01*
X202681745Y-110169001D01*
X202568499Y-110055755D01*
X202479529Y-109922601D01*
X202418242Y-109774642D01*
X202387000Y-109617575D01*
X202387000Y-109457425D01*
X202418242Y-109300358D01*
X202479529Y-109152399D01*
X202568499Y-109019245D01*
X202681745Y-108905999D01*
X202814899Y-108817029D01*
X202962858Y-108755742D01*
X203119925Y-108724500D01*
X203280075Y-108724500D01*
X203437142Y-108755742D01*
G37*
G36*
X88431000Y-110183500D02*
G01*
X86829000Y-110183500D01*
X86829000Y-108081500D01*
X88431000Y-108081500D01*
X88431000Y-110183500D01*
G37*
G36*
X90971000Y-110183500D02*
G01*
X89369000Y-110183500D01*
X89369000Y-108081500D01*
X90971000Y-108081500D01*
X90971000Y-110183500D01*
G37*
G36*
X129071000Y-110183500D02*
G01*
X127469000Y-110183500D01*
X127469000Y-108081500D01*
X129071000Y-108081500D01*
X129071000Y-110183500D01*
G37*
G36*
X126531000Y-110183500D02*
G01*
X124929000Y-110183500D01*
X124929000Y-108081500D01*
X126531000Y-108081500D01*
X126531000Y-110183500D01*
G37*
G36*
X113831000Y-110183500D02*
G01*
X112229000Y-110183500D01*
X112229000Y-108081500D01*
X113831000Y-108081500D01*
X113831000Y-110183500D01*
G37*
G36*
X116371000Y-110183500D02*
G01*
X114769000Y-110183500D01*
X114769000Y-108081500D01*
X116371000Y-108081500D01*
X116371000Y-110183500D01*
G37*
G36*
X101131000Y-110183500D02*
G01*
X99529000Y-110183500D01*
X99529000Y-108081500D01*
X101131000Y-108081500D01*
X101131000Y-110183500D01*
G37*
G36*
X103671000Y-110183500D02*
G01*
X102069000Y-110183500D01*
X102069000Y-108081500D01*
X103671000Y-108081500D01*
X103671000Y-110183500D01*
G37*
G36*
X156008500Y-108846000D02*
G01*
X154506500Y-108846000D01*
X154506500Y-107694000D01*
X156008500Y-107694000D01*
X156008500Y-108846000D01*
G37*
G36*
X69613512Y-106211427D02*
G01*
X69762812Y-106241124D01*
X69926784Y-106309044D01*
X70074354Y-106407647D01*
X70199853Y-106533146D01*
X70298456Y-106680716D01*
X70366376Y-106844688D01*
X70401000Y-107018759D01*
X70401000Y-107196241D01*
X70366376Y-107370312D01*
X70298456Y-107534284D01*
X70199853Y-107681854D01*
X70074354Y-107807353D01*
X69926784Y-107905956D01*
X69762812Y-107973876D01*
X69613512Y-108003573D01*
X69588742Y-108008500D01*
X69411258Y-108008500D01*
X69386488Y-108003573D01*
X69237188Y-107973876D01*
X69073216Y-107905956D01*
X68925646Y-107807353D01*
X68800147Y-107681854D01*
X68701544Y-107534284D01*
X68633624Y-107370312D01*
X68599000Y-107196241D01*
X68599000Y-107018759D01*
X68633624Y-106844688D01*
X68701544Y-106680716D01*
X68800147Y-106533146D01*
X68925646Y-106407647D01*
X69073216Y-106309044D01*
X69237188Y-106241124D01*
X69386488Y-106211427D01*
X69411258Y-106206500D01*
X69588742Y-106206500D01*
X69613512Y-106211427D01*
G37*
G36*
X66613512Y-106211427D02*
G01*
X66762812Y-106241124D01*
X66926784Y-106309044D01*
X67074354Y-106407647D01*
X67199853Y-106533146D01*
X67298456Y-106680716D01*
X67366376Y-106844688D01*
X67401000Y-107018759D01*
X67401000Y-107196241D01*
X67366376Y-107370312D01*
X67298456Y-107534284D01*
X67199853Y-107681854D01*
X67074354Y-107807353D01*
X66926784Y-107905956D01*
X66762812Y-107973876D01*
X66613512Y-108003573D01*
X66588742Y-108008500D01*
X66411258Y-108008500D01*
X66386488Y-108003573D01*
X66237188Y-107973876D01*
X66073216Y-107905956D01*
X65925646Y-107807353D01*
X65800147Y-107681854D01*
X65701544Y-107534284D01*
X65633624Y-107370312D01*
X65599000Y-107196241D01*
X65599000Y-107018759D01*
X65633624Y-106844688D01*
X65701544Y-106680716D01*
X65800147Y-106533146D01*
X65925646Y-106407647D01*
X66073216Y-106309044D01*
X66237188Y-106241124D01*
X66386488Y-106211427D01*
X66411258Y-106206500D01*
X66588742Y-106206500D01*
X66613512Y-106211427D01*
G37*
G36*
X154243500Y-107113500D02*
G01*
X153091500Y-107113500D01*
X153091500Y-105611500D01*
X154243500Y-105611500D01*
X154243500Y-107113500D01*
G37*
G36*
X152343500Y-107113500D02*
G01*
X151191500Y-107113500D01*
X151191500Y-105611500D01*
X152343500Y-105611500D01*
X152343500Y-107113500D01*
G37*
G36*
X139389000Y-107056000D02*
G01*
X137762000Y-107056000D01*
X137762000Y-106304000D01*
X139389000Y-106304000D01*
X139389000Y-107056000D01*
G37*
G36*
X144813000Y-107056000D02*
G01*
X143186000Y-107056000D01*
X143186000Y-106304000D01*
X144813000Y-106304000D01*
X144813000Y-107056000D01*
G37*
G36*
X144813000Y-105786000D02*
G01*
X143186000Y-105786000D01*
X143186000Y-105034000D01*
X144813000Y-105034000D01*
X144813000Y-105786000D01*
G37*
G36*
X139389000Y-105786000D02*
G01*
X137762000Y-105786000D01*
X137762000Y-105034000D01*
X139389000Y-105034000D01*
X139389000Y-105786000D01*
G37*
G36*
X66613512Y-103211427D02*
G01*
X66762812Y-103241124D01*
X66926784Y-103309044D01*
X67074354Y-103407647D01*
X67199853Y-103533146D01*
X67298456Y-103680716D01*
X67366376Y-103844688D01*
X67396073Y-103993988D01*
X67398960Y-104008500D01*
X67401000Y-104018759D01*
X67401000Y-104196241D01*
X67366376Y-104370312D01*
X67298456Y-104534284D01*
X67199853Y-104681854D01*
X67074354Y-104807353D01*
X66926784Y-104905956D01*
X66762812Y-104973876D01*
X66613512Y-105003573D01*
X66588742Y-105008500D01*
X66411258Y-105008500D01*
X66386488Y-105003573D01*
X66237188Y-104973876D01*
X66073216Y-104905956D01*
X65925646Y-104807353D01*
X65800147Y-104681854D01*
X65701544Y-104534284D01*
X65633624Y-104370312D01*
X65599000Y-104196241D01*
X65599000Y-104018759D01*
X65601041Y-104008500D01*
X65603927Y-103993988D01*
X65633624Y-103844688D01*
X65701544Y-103680716D01*
X65800147Y-103533146D01*
X65925646Y-103407647D01*
X66073216Y-103309044D01*
X66237188Y-103241124D01*
X66386488Y-103211427D01*
X66411258Y-103206500D01*
X66588742Y-103206500D01*
X66613512Y-103211427D01*
G37*
G36*
X69613512Y-103211427D02*
G01*
X69762812Y-103241124D01*
X69926784Y-103309044D01*
X70074354Y-103407647D01*
X70199853Y-103533146D01*
X70298456Y-103680716D01*
X70366376Y-103844688D01*
X70396073Y-103993988D01*
X70398960Y-104008500D01*
X70401000Y-104018759D01*
X70401000Y-104196241D01*
X70366376Y-104370312D01*
X70298456Y-104534284D01*
X70199853Y-104681854D01*
X70074354Y-104807353D01*
X69926784Y-104905956D01*
X69762812Y-104973876D01*
X69613512Y-105003573D01*
X69588742Y-105008500D01*
X69411258Y-105008500D01*
X69386488Y-105003573D01*
X69237188Y-104973876D01*
X69073216Y-104905956D01*
X68925646Y-104807353D01*
X68800147Y-104681854D01*
X68701544Y-104534284D01*
X68633624Y-104370312D01*
X68599000Y-104196241D01*
X68599000Y-104018759D01*
X68601041Y-104008500D01*
X68603927Y-103993988D01*
X68633624Y-103844688D01*
X68701544Y-103680716D01*
X68800147Y-103533146D01*
X68925646Y-103407647D01*
X69073216Y-103309044D01*
X69237188Y-103241124D01*
X69386488Y-103211427D01*
X69411258Y-103206500D01*
X69588742Y-103206500D01*
X69613512Y-103211427D01*
G37*
G36*
X182113500Y-104521000D02*
G01*
X181111500Y-104521000D01*
X181111500Y-103219000D01*
X182113500Y-103219000D01*
X182113500Y-104521000D01*
G37*
G36*
X184013500Y-104521000D02*
G01*
X183011500Y-104521000D01*
X183011500Y-103219000D01*
X184013500Y-103219000D01*
X184013500Y-104521000D01*
G37*
G36*
X144813000Y-104516000D02*
G01*
X143186000Y-104516000D01*
X143186000Y-103764000D01*
X144813000Y-103764000D01*
X144813000Y-104516000D01*
G37*
G36*
X139389000Y-104516000D02*
G01*
X137762000Y-104516000D01*
X137762000Y-103764000D01*
X139389000Y-103764000D01*
X139389000Y-104516000D01*
G37*
G36*
X163251000Y-104056500D02*
G01*
X154249000Y-104056500D01*
X154249000Y-102479500D01*
X163251000Y-102479500D01*
X163251000Y-104056500D01*
G37*
G36*
X126531000Y-104008500D02*
G01*
X124929000Y-104008500D01*
X124929000Y-101906500D01*
X126531000Y-101906500D01*
X126531000Y-104008500D01*
G37*
G36*
X129071000Y-104008500D02*
G01*
X127469000Y-104008500D01*
X127469000Y-101906500D01*
X129071000Y-101906500D01*
X129071000Y-104008500D01*
G37*
G36*
X116371000Y-104008500D02*
G01*
X114769000Y-104008500D01*
X114769000Y-101906500D01*
X116371000Y-101906500D01*
X116371000Y-104008500D01*
G37*
G36*
X101131000Y-104008500D02*
G01*
X99529000Y-104008500D01*
X99529000Y-101906500D01*
X101131000Y-101906500D01*
X101131000Y-104008500D01*
G37*
G36*
X88431000Y-104008500D02*
G01*
X86829000Y-104008500D01*
X86829000Y-101906500D01*
X88431000Y-101906500D01*
X88431000Y-104008500D01*
G37*
G36*
X113831000Y-104008500D02*
G01*
X112229000Y-104008500D01*
X112229000Y-101906500D01*
X113831000Y-101906500D01*
X113831000Y-104008500D01*
G37*
G36*
X103671000Y-104008500D02*
G01*
X102069000Y-104008500D01*
X102069000Y-101906500D01*
X103671000Y-101906500D01*
X103671000Y-104008500D01*
G37*
G36*
X90971000Y-104008500D02*
G01*
X89369000Y-104008500D01*
X89369000Y-101906500D01*
X90971000Y-101906500D01*
X90971000Y-104008500D01*
G37*
G36*
X146753500Y-103656000D02*
G01*
X145631500Y-103656000D01*
X145631500Y-102084000D01*
X146753500Y-102084000D01*
X146753500Y-103656000D01*
G37*
G36*
X148373500Y-103656000D02*
G01*
X147251500Y-103656000D01*
X147251500Y-102084000D01*
X148373500Y-102084000D01*
X148373500Y-103656000D01*
G37*
G36*
X144813000Y-103246000D02*
G01*
X143186000Y-103246000D01*
X143186000Y-102494000D01*
X144813000Y-102494000D01*
X144813000Y-103246000D01*
G37*
G36*
X139389000Y-103246000D02*
G01*
X137762000Y-103246000D01*
X137762000Y-102494000D01*
X139389000Y-102494000D01*
X139389000Y-103246000D01*
G37*
G36*
X183063500Y-102521000D02*
G01*
X182061500Y-102521000D01*
X182061500Y-101219000D01*
X183063500Y-101219000D01*
X183063500Y-102521000D01*
G37*
G36*
X66613512Y-100211427D02*
G01*
X66762812Y-100241124D01*
X66926784Y-100309044D01*
X67074354Y-100407647D01*
X67199853Y-100533146D01*
X67298456Y-100680716D01*
X67366376Y-100844688D01*
X67401000Y-101018759D01*
X67401000Y-101196241D01*
X67366376Y-101370312D01*
X67298456Y-101534284D01*
X67199853Y-101681854D01*
X67074354Y-101807353D01*
X66926784Y-101905956D01*
X66762812Y-101973876D01*
X66613512Y-102003573D01*
X66588742Y-102008500D01*
X66411258Y-102008500D01*
X66386488Y-102003573D01*
X66237188Y-101973876D01*
X66073216Y-101905956D01*
X65925646Y-101807353D01*
X65800147Y-101681854D01*
X65701544Y-101534284D01*
X65633624Y-101370312D01*
X65599000Y-101196241D01*
X65599000Y-101018759D01*
X65633624Y-100844688D01*
X65701544Y-100680716D01*
X65800147Y-100533146D01*
X65925646Y-100407647D01*
X66073216Y-100309044D01*
X66237188Y-100241124D01*
X66386488Y-100211427D01*
X66411258Y-100206500D01*
X66588742Y-100206500D01*
X66613512Y-100211427D01*
G37*
G36*
X69613512Y-100211427D02*
G01*
X69762812Y-100241124D01*
X69926784Y-100309044D01*
X70074354Y-100407647D01*
X70199853Y-100533146D01*
X70298456Y-100680716D01*
X70366376Y-100844688D01*
X70401000Y-101018759D01*
X70401000Y-101196241D01*
X70366376Y-101370312D01*
X70298456Y-101534284D01*
X70199853Y-101681854D01*
X70074354Y-101807353D01*
X69926784Y-101905956D01*
X69762812Y-101973876D01*
X69613512Y-102003573D01*
X69588742Y-102008500D01*
X69411258Y-102008500D01*
X69386488Y-102003573D01*
X69237188Y-101973876D01*
X69073216Y-101905956D01*
X68925646Y-101807353D01*
X68800147Y-101681854D01*
X68701544Y-101534284D01*
X68633624Y-101370312D01*
X68599000Y-101196241D01*
X68599000Y-101018759D01*
X68633624Y-100844688D01*
X68701544Y-100680716D01*
X68800147Y-100533146D01*
X68925646Y-100407647D01*
X69073216Y-100309044D01*
X69237188Y-100241124D01*
X69386488Y-100211427D01*
X69411258Y-100206500D01*
X69588742Y-100206500D01*
X69613512Y-100211427D01*
G37*
G36*
X183551000Y-100048500D02*
G01*
X181574000Y-100048500D01*
X181574000Y-98071500D01*
X183551000Y-98071500D01*
X183551000Y-100048500D01*
G37*
G36*
X69613512Y-97211427D02*
G01*
X69762812Y-97241124D01*
X69926784Y-97309044D01*
X70074354Y-97407647D01*
X70199853Y-97533146D01*
X70298456Y-97680716D01*
X70366376Y-97844688D01*
X70401000Y-98018759D01*
X70401000Y-98196241D01*
X70366376Y-98370312D01*
X70298456Y-98534284D01*
X70199853Y-98681854D01*
X70074354Y-98807353D01*
X69926784Y-98905956D01*
X69762812Y-98973876D01*
X69613512Y-99003573D01*
X69588742Y-99008500D01*
X69411258Y-99008500D01*
X69386488Y-99003573D01*
X69237188Y-98973876D01*
X69073216Y-98905956D01*
X68925646Y-98807353D01*
X68800147Y-98681854D01*
X68701544Y-98534284D01*
X68633624Y-98370312D01*
X68599000Y-98196241D01*
X68599000Y-98018759D01*
X68633624Y-97844688D01*
X68701544Y-97680716D01*
X68800147Y-97533146D01*
X68925646Y-97407647D01*
X69073216Y-97309044D01*
X69237188Y-97241124D01*
X69386488Y-97211427D01*
X69411258Y-97206500D01*
X69588742Y-97206500D01*
X69613512Y-97211427D01*
G37*
G36*
X66613512Y-97211427D02*
G01*
X66762812Y-97241124D01*
X66926784Y-97309044D01*
X67074354Y-97407647D01*
X67199853Y-97533146D01*
X67298456Y-97680716D01*
X67366376Y-97844688D01*
X67401000Y-98018759D01*
X67401000Y-98196241D01*
X67366376Y-98370312D01*
X67298456Y-98534284D01*
X67199853Y-98681854D01*
X67074354Y-98807353D01*
X66926784Y-98905956D01*
X66762812Y-98973876D01*
X66613512Y-99003573D01*
X66588742Y-99008500D01*
X66411258Y-99008500D01*
X66386488Y-99003573D01*
X66237188Y-98973876D01*
X66073216Y-98905956D01*
X65925646Y-98807353D01*
X65800147Y-98681854D01*
X65701544Y-98534284D01*
X65633624Y-98370312D01*
X65599000Y-98196241D01*
X65599000Y-98018759D01*
X65633624Y-97844688D01*
X65701544Y-97680716D01*
X65800147Y-97533146D01*
X65925646Y-97407647D01*
X66073216Y-97309044D01*
X66237188Y-97241124D01*
X66386488Y-97211427D01*
X66411258Y-97206500D01*
X66588742Y-97206500D01*
X66613512Y-97211427D01*
G37*
G36*
X163251000Y-98180500D02*
G01*
X154249000Y-98180500D01*
X154249000Y-96603500D01*
X163251000Y-96603500D01*
X163251000Y-98180500D01*
G37*
G36*
X153151000Y-98046000D02*
G01*
X151649000Y-98046000D01*
X151649000Y-96894000D01*
X153151000Y-96894000D01*
X153151000Y-98046000D01*
G37*
G36*
X144813000Y-97848500D02*
G01*
X143186000Y-97848500D01*
X143186000Y-97096500D01*
X144813000Y-97096500D01*
X144813000Y-97848500D01*
G37*
G36*
X139389000Y-97848500D02*
G01*
X137762000Y-97848500D01*
X137762000Y-97096500D01*
X139389000Y-97096500D01*
X139389000Y-97848500D01*
G37*
G36*
X182755347Y-95550493D02*
G01*
X182850835Y-95569487D01*
X182925350Y-95600353D01*
X183030729Y-95644002D01*
X183030730Y-95644003D01*
X183192632Y-95752182D01*
X183330318Y-95889868D01*
X183384775Y-95971369D01*
X183438498Y-96051771D01*
X183513013Y-96231666D01*
X183551000Y-96422640D01*
X183551000Y-96617360D01*
X183513013Y-96808334D01*
X183438498Y-96988229D01*
X183438497Y-96988230D01*
X183330318Y-97150132D01*
X183192632Y-97287818D01*
X183160865Y-97309044D01*
X183030729Y-97395998D01*
X182925350Y-97439647D01*
X182850835Y-97470513D01*
X182755347Y-97489506D01*
X182659860Y-97508500D01*
X182465140Y-97508500D01*
X182369653Y-97489506D01*
X182274165Y-97470513D01*
X182199650Y-97439647D01*
X182094271Y-97395998D01*
X181964135Y-97309044D01*
X181932368Y-97287818D01*
X181794682Y-97150132D01*
X181686503Y-96988230D01*
X181686502Y-96988229D01*
X181611987Y-96808334D01*
X181574000Y-96617360D01*
X181574000Y-96422640D01*
X181611987Y-96231666D01*
X181686502Y-96051771D01*
X181740225Y-95971369D01*
X181794682Y-95889868D01*
X181932368Y-95752182D01*
X182094270Y-95644003D01*
X182094271Y-95644002D01*
X182199650Y-95600353D01*
X182274165Y-95569487D01*
X182369653Y-95550493D01*
X182465140Y-95531500D01*
X182659860Y-95531500D01*
X182755347Y-95550493D01*
G37*
G36*
X139389000Y-96578500D02*
G01*
X137762000Y-96578500D01*
X137762000Y-95826500D01*
X139389000Y-95826500D01*
X139389000Y-96578500D01*
G37*
G36*
X144813000Y-96578500D02*
G01*
X143186000Y-96578500D01*
X143186000Y-95826500D01*
X144813000Y-95826500D01*
X144813000Y-96578500D01*
G37*
G36*
X153151000Y-96146000D02*
G01*
X151649000Y-96146000D01*
X151649000Y-94994000D01*
X153151000Y-94994000D01*
X153151000Y-96146000D01*
G37*
G36*
X158548500Y-96141000D02*
G01*
X157046500Y-96141000D01*
X157046500Y-94989000D01*
X158548500Y-94989000D01*
X158548500Y-96141000D01*
G37*
G36*
X69613512Y-94211427D02*
G01*
X69762812Y-94241124D01*
X69926784Y-94309044D01*
X70074354Y-94407647D01*
X70199853Y-94533146D01*
X70298456Y-94680716D01*
X70366376Y-94844688D01*
X70401000Y-95018759D01*
X70401000Y-95196241D01*
X70366376Y-95370312D01*
X70298456Y-95534284D01*
X70199853Y-95681854D01*
X70074354Y-95807353D01*
X69926784Y-95905956D01*
X69762812Y-95973876D01*
X69613512Y-96003573D01*
X69588742Y-96008500D01*
X69411258Y-96008500D01*
X69386488Y-96003573D01*
X69237188Y-95973876D01*
X69073216Y-95905956D01*
X68925646Y-95807353D01*
X68800147Y-95681854D01*
X68701544Y-95534284D01*
X68633624Y-95370312D01*
X68599000Y-95196241D01*
X68599000Y-95018759D01*
X68633624Y-94844688D01*
X68701544Y-94680716D01*
X68800147Y-94533146D01*
X68925646Y-94407647D01*
X69073216Y-94309044D01*
X69237188Y-94241124D01*
X69386488Y-94211427D01*
X69411258Y-94206500D01*
X69588742Y-94206500D01*
X69613512Y-94211427D01*
G37*
G36*
X66613512Y-94211427D02*
G01*
X66762812Y-94241124D01*
X66926784Y-94309044D01*
X67074354Y-94407647D01*
X67199853Y-94533146D01*
X67298456Y-94680716D01*
X67366376Y-94844688D01*
X67401000Y-95018759D01*
X67401000Y-95196241D01*
X67366376Y-95370312D01*
X67298456Y-95534284D01*
X67199853Y-95681854D01*
X67074354Y-95807353D01*
X66926784Y-95905956D01*
X66762812Y-95973876D01*
X66613512Y-96003573D01*
X66588742Y-96008500D01*
X66411258Y-96008500D01*
X66386488Y-96003573D01*
X66237188Y-95973876D01*
X66073216Y-95905956D01*
X65925646Y-95807353D01*
X65800147Y-95681854D01*
X65701544Y-95534284D01*
X65633624Y-95370312D01*
X65599000Y-95196241D01*
X65599000Y-95018759D01*
X65633624Y-94844688D01*
X65701544Y-94680716D01*
X65800147Y-94533146D01*
X65925646Y-94407647D01*
X66073216Y-94309044D01*
X66237188Y-94241124D01*
X66386488Y-94211427D01*
X66411258Y-94206500D01*
X66588742Y-94206500D01*
X66613512Y-94211427D01*
G37*
G36*
X144813000Y-95308500D02*
G01*
X143186000Y-95308500D01*
X143186000Y-94556500D01*
X144813000Y-94556500D01*
X144813000Y-95308500D01*
G37*
G36*
X139389000Y-95308500D02*
G01*
X137762000Y-95308500D01*
X137762000Y-94556500D01*
X139389000Y-94556500D01*
X139389000Y-95308500D01*
G37*
G36*
X211342295Y-92900156D02*
G01*
X211448650Y-92921311D01*
X211649020Y-93004307D01*
X211829344Y-93124795D01*
X211982705Y-93278156D01*
X212103193Y-93458480D01*
X212103193Y-93458481D01*
X212186189Y-93658850D01*
X212228500Y-93871561D01*
X212228500Y-94088439D01*
X212186189Y-94301150D01*
X212182919Y-94309044D01*
X212103193Y-94501520D01*
X211982705Y-94681844D01*
X211829344Y-94835205D01*
X211649020Y-94955693D01*
X211568609Y-94989000D01*
X211448650Y-95038689D01*
X211342294Y-95059845D01*
X211235940Y-95081000D01*
X211019060Y-95081000D01*
X210912706Y-95059845D01*
X210806350Y-95038689D01*
X210686391Y-94989000D01*
X210605980Y-94955693D01*
X210425656Y-94835205D01*
X210272295Y-94681844D01*
X210151807Y-94501520D01*
X210072081Y-94309044D01*
X210068811Y-94301150D01*
X210026500Y-94088439D01*
X210026500Y-93871561D01*
X210068811Y-93658850D01*
X210151807Y-93458481D01*
X210151807Y-93458480D01*
X210272295Y-93278156D01*
X210425656Y-93124795D01*
X210605980Y-93004307D01*
X210806350Y-92921311D01*
X210912705Y-92900156D01*
X211019060Y-92879000D01*
X211235940Y-92879000D01*
X211342295Y-92900156D01*
G37*
G36*
X182724245Y-93004307D02*
G01*
X182850835Y-93029487D01*
X182900555Y-93050082D01*
X183030729Y-93104002D01*
X183111131Y-93157725D01*
X183192632Y-93212182D01*
X183330318Y-93349868D01*
X183330319Y-93349870D01*
X183438498Y-93511771D01*
X183452676Y-93546000D01*
X183513013Y-93691665D01*
X183551000Y-93882641D01*
X183551000Y-94077359D01*
X183513013Y-94268335D01*
X183491579Y-94320081D01*
X183438498Y-94448229D01*
X183438497Y-94448230D01*
X183330318Y-94610132D01*
X183192632Y-94747818D01*
X183179936Y-94756301D01*
X183030729Y-94855998D01*
X182925350Y-94899647D01*
X182850835Y-94930513D01*
X182755347Y-94949506D01*
X182659860Y-94968500D01*
X182465140Y-94968500D01*
X182369653Y-94949507D01*
X182274165Y-94930513D01*
X182199650Y-94899647D01*
X182094271Y-94855998D01*
X181945064Y-94756301D01*
X181932368Y-94747818D01*
X181794682Y-94610132D01*
X181686503Y-94448230D01*
X181686502Y-94448229D01*
X181633421Y-94320081D01*
X181611987Y-94268335D01*
X181574000Y-94077359D01*
X181574000Y-93882641D01*
X181611987Y-93691665D01*
X181672324Y-93546000D01*
X181686502Y-93511771D01*
X181794681Y-93349870D01*
X181794682Y-93349868D01*
X181932368Y-93212182D01*
X182013869Y-93157725D01*
X182094271Y-93104002D01*
X182224445Y-93050082D01*
X182274165Y-93029487D01*
X182400755Y-93004307D01*
X182465140Y-92991500D01*
X182659860Y-92991500D01*
X182724245Y-93004307D01*
G37*
G36*
X194883020Y-93137664D02*
G01*
X195042442Y-93203699D01*
X195185918Y-93299566D01*
X195307934Y-93421582D01*
X195403801Y-93565058D01*
X195469836Y-93724480D01*
X195503500Y-93893721D01*
X195503500Y-94066279D01*
X195469836Y-94235520D01*
X195403801Y-94394942D01*
X195307934Y-94538418D01*
X195185918Y-94660434D01*
X195042442Y-94756301D01*
X194883020Y-94822336D01*
X194818338Y-94835202D01*
X194713780Y-94856000D01*
X194541220Y-94856000D01*
X194436662Y-94835202D01*
X194371980Y-94822336D01*
X194212558Y-94756301D01*
X194069082Y-94660434D01*
X193947066Y-94538418D01*
X193851199Y-94394942D01*
X193785164Y-94235520D01*
X193751500Y-94066279D01*
X193751500Y-93893721D01*
X193785164Y-93724480D01*
X193851199Y-93565058D01*
X193947066Y-93421582D01*
X194069082Y-93299566D01*
X194212558Y-93203699D01*
X194371980Y-93137664D01*
X194541220Y-93104000D01*
X194713780Y-93104000D01*
X194883020Y-93137664D01*
G37*
G36*
X154962582Y-93258007D02*
G01*
X153900507Y-94320082D01*
X153085920Y-93505495D01*
X154147995Y-92443420D01*
X154962582Y-93258007D01*
G37*
G36*
X129071000Y-94308500D02*
G01*
X127469000Y-94308500D01*
X127469000Y-92206500D01*
X129071000Y-92206500D01*
X129071000Y-94308500D01*
G37*
G36*
X90971000Y-94308500D02*
G01*
X89369000Y-94308500D01*
X89369000Y-92206500D01*
X90971000Y-92206500D01*
X90971000Y-94308500D01*
G37*
G36*
X88431000Y-94308500D02*
G01*
X86829000Y-94308500D01*
X86829000Y-92206500D01*
X88431000Y-92206500D01*
X88431000Y-94308500D01*
G37*
G36*
X113831000Y-94308500D02*
G01*
X112229000Y-94308500D01*
X112229000Y-92206500D01*
X113831000Y-92206500D01*
X113831000Y-94308500D01*
G37*
G36*
X103671000Y-94308500D02*
G01*
X102069000Y-94308500D01*
X102069000Y-92206500D01*
X103671000Y-92206500D01*
X103671000Y-94308500D01*
G37*
G36*
X101131000Y-94308500D02*
G01*
X99529000Y-94308500D01*
X99529000Y-92206500D01*
X101131000Y-92206500D01*
X101131000Y-94308500D01*
G37*
G36*
X116371000Y-94308500D02*
G01*
X114769000Y-94308500D01*
X114769000Y-92206500D01*
X116371000Y-92206500D01*
X116371000Y-94308500D01*
G37*
G36*
X126531000Y-94308500D02*
G01*
X124929000Y-94308500D01*
X124929000Y-92206500D01*
X126531000Y-92206500D01*
X126531000Y-94308500D01*
G37*
G36*
X158548500Y-94241000D02*
G01*
X157046500Y-94241000D01*
X157046500Y-93089000D01*
X158548500Y-93089000D01*
X158548500Y-94241000D01*
G37*
G36*
X139389000Y-94038500D02*
G01*
X137762000Y-94038500D01*
X137762000Y-93286500D01*
X139389000Y-93286500D01*
X139389000Y-94038500D01*
G37*
G36*
X144813000Y-94038500D02*
G01*
X143186000Y-94038500D01*
X143186000Y-93286500D01*
X144813000Y-93286500D01*
X144813000Y-94038500D01*
G37*
G36*
X189103500Y-93546000D02*
G01*
X187451500Y-93546000D01*
X187451500Y-91094000D01*
X189103500Y-91094000D01*
X189103500Y-93546000D01*
G37*
G36*
X148373500Y-93178500D02*
G01*
X147251500Y-93178500D01*
X147251500Y-91606500D01*
X148373500Y-91606500D01*
X148373500Y-93178500D01*
G37*
G36*
X146753500Y-93178500D02*
G01*
X145631500Y-93178500D01*
X145631500Y-91606500D01*
X146753500Y-91606500D01*
X146753500Y-93178500D01*
G37*
G36*
X156232582Y-91988007D02*
G01*
X155170507Y-93050082D01*
X154355920Y-92235495D01*
X155417995Y-91173420D01*
X156232582Y-91988007D01*
G37*
G36*
X69613512Y-91211427D02*
G01*
X69762812Y-91241124D01*
X69926784Y-91309044D01*
X70074354Y-91407647D01*
X70199853Y-91533146D01*
X70298456Y-91680716D01*
X70366376Y-91844688D01*
X70394883Y-91988007D01*
X70401000Y-92018758D01*
X70401000Y-92196242D01*
X70396073Y-92221012D01*
X70366376Y-92370312D01*
X70298456Y-92534284D01*
X70199853Y-92681854D01*
X70074354Y-92807353D01*
X69926784Y-92905956D01*
X69762812Y-92973876D01*
X69613512Y-93003573D01*
X69588742Y-93008500D01*
X69411258Y-93008500D01*
X69386488Y-93003573D01*
X69237188Y-92973876D01*
X69073216Y-92905956D01*
X68925646Y-92807353D01*
X68800147Y-92681854D01*
X68701544Y-92534284D01*
X68633624Y-92370312D01*
X68603927Y-92221012D01*
X68599000Y-92196242D01*
X68599000Y-92018758D01*
X68605117Y-91988007D01*
X68633624Y-91844688D01*
X68701544Y-91680716D01*
X68800147Y-91533146D01*
X68925646Y-91407647D01*
X69073216Y-91309044D01*
X69237188Y-91241124D01*
X69386488Y-91211427D01*
X69411258Y-91206500D01*
X69588742Y-91206500D01*
X69613512Y-91211427D01*
G37*
G36*
X66613512Y-91211427D02*
G01*
X66762812Y-91241124D01*
X66926784Y-91309044D01*
X67074354Y-91407647D01*
X67199853Y-91533146D01*
X67298456Y-91680716D01*
X67366376Y-91844688D01*
X67394883Y-91988007D01*
X67401000Y-92018758D01*
X67401000Y-92196242D01*
X67396073Y-92221012D01*
X67366376Y-92370312D01*
X67298456Y-92534284D01*
X67199853Y-92681854D01*
X67074354Y-92807353D01*
X66926784Y-92905956D01*
X66762812Y-92973876D01*
X66613512Y-93003573D01*
X66588742Y-93008500D01*
X66411258Y-93008500D01*
X66386488Y-93003573D01*
X66237188Y-92973876D01*
X66073216Y-92905956D01*
X65925646Y-92807353D01*
X65800147Y-92681854D01*
X65701544Y-92534284D01*
X65633624Y-92370312D01*
X65603927Y-92221012D01*
X65599000Y-92196242D01*
X65599000Y-92018758D01*
X65605117Y-91988007D01*
X65633624Y-91844688D01*
X65701544Y-91680716D01*
X65800147Y-91533146D01*
X65925646Y-91407647D01*
X66073216Y-91309044D01*
X66237188Y-91241124D01*
X66386488Y-91211427D01*
X66411258Y-91206500D01*
X66588742Y-91206500D01*
X66613512Y-91211427D01*
G37*
G36*
X153619080Y-91914505D02*
G01*
X152557005Y-92976580D01*
X151742418Y-92161993D01*
X152804493Y-91099918D01*
X153619080Y-91914505D01*
G37*
G36*
X154889080Y-90644505D02*
G01*
X153827005Y-91706580D01*
X153012418Y-90891993D01*
X154074493Y-89829918D01*
X154889080Y-90644505D01*
G37*
G36*
X144813000Y-91498500D02*
G01*
X143186000Y-91498500D01*
X143186000Y-90746500D01*
X144813000Y-90746500D01*
X144813000Y-91498500D01*
G37*
G36*
X139389000Y-91498500D02*
G01*
X137762000Y-91498500D01*
X137762000Y-90746500D01*
X139389000Y-90746500D01*
X139389000Y-91498500D01*
G37*
G36*
X144813000Y-90228500D02*
G01*
X143186000Y-90228500D01*
X143186000Y-89476500D01*
X144813000Y-89476500D01*
X144813000Y-90228500D01*
G37*
G36*
X139389000Y-90228500D02*
G01*
X137762000Y-90228500D01*
X137762000Y-89476500D01*
X139389000Y-89476500D01*
X139389000Y-90228500D01*
G37*
G36*
X66613512Y-88211427D02*
G01*
X66762812Y-88241124D01*
X66926784Y-88309044D01*
X67074354Y-88407647D01*
X67199853Y-88533146D01*
X67298456Y-88680716D01*
X67366376Y-88844688D01*
X67401000Y-89018759D01*
X67401000Y-89196241D01*
X67366376Y-89370312D01*
X67298456Y-89534284D01*
X67199853Y-89681854D01*
X67074354Y-89807353D01*
X66926784Y-89905956D01*
X66762812Y-89973876D01*
X66613512Y-90003573D01*
X66588742Y-90008500D01*
X66411258Y-90008500D01*
X66386488Y-90003573D01*
X66237188Y-89973876D01*
X66073216Y-89905956D01*
X65925646Y-89807353D01*
X65800147Y-89681854D01*
X65701544Y-89534284D01*
X65633624Y-89370312D01*
X65599000Y-89196241D01*
X65599000Y-89018759D01*
X65633624Y-88844688D01*
X65701544Y-88680716D01*
X65800147Y-88533146D01*
X65925646Y-88407647D01*
X66073216Y-88309044D01*
X66237188Y-88241124D01*
X66386488Y-88211427D01*
X66411258Y-88206500D01*
X66588742Y-88206500D01*
X66613512Y-88211427D01*
G37*
G36*
X69613512Y-88211427D02*
G01*
X69762812Y-88241124D01*
X69926784Y-88309044D01*
X70074354Y-88407647D01*
X70199853Y-88533146D01*
X70298456Y-88680716D01*
X70366376Y-88844688D01*
X70401000Y-89018759D01*
X70401000Y-89196241D01*
X70366376Y-89370312D01*
X70298456Y-89534284D01*
X70199853Y-89681854D01*
X70074354Y-89807353D01*
X69926784Y-89905956D01*
X69762812Y-89973876D01*
X69613512Y-90003573D01*
X69588742Y-90008500D01*
X69411258Y-90008500D01*
X69386488Y-90003573D01*
X69237188Y-89973876D01*
X69073216Y-89905956D01*
X68925646Y-89807353D01*
X68800147Y-89681854D01*
X68701544Y-89534284D01*
X68633624Y-89370312D01*
X68599000Y-89196241D01*
X68599000Y-89018759D01*
X68633624Y-88844688D01*
X68701544Y-88680716D01*
X68800147Y-88533146D01*
X68925646Y-88407647D01*
X69073216Y-88309044D01*
X69237188Y-88241124D01*
X69386488Y-88211427D01*
X69411258Y-88206500D01*
X69588742Y-88206500D01*
X69613512Y-88211427D01*
G37*
G36*
X189103500Y-89246000D02*
G01*
X187451500Y-89246000D01*
X187451500Y-86794000D01*
X189103500Y-86794000D01*
X189103500Y-89246000D01*
G37*
G36*
X144813000Y-88958500D02*
G01*
X143186000Y-88958500D01*
X143186000Y-88206500D01*
X144813000Y-88206500D01*
X144813000Y-88958500D01*
G37*
G36*
X139389000Y-88958500D02*
G01*
X137762000Y-88958500D01*
X137762000Y-88206500D01*
X139389000Y-88206500D01*
X139389000Y-88958500D01*
G37*
G36*
X146753500Y-88098500D02*
G01*
X145631500Y-88098500D01*
X145631500Y-86526500D01*
X146753500Y-86526500D01*
X146753500Y-88098500D01*
G37*
G36*
X148373500Y-88098500D02*
G01*
X147251500Y-88098500D01*
X147251500Y-86526500D01*
X148373500Y-86526500D01*
X148373500Y-88098500D01*
G37*
G36*
X139389000Y-87688500D02*
G01*
X137762000Y-87688500D01*
X137762000Y-86936500D01*
X139389000Y-86936500D01*
X139389000Y-87688500D01*
G37*
G36*
X144813000Y-87688500D02*
G01*
X143186000Y-87688500D01*
X143186000Y-86936500D01*
X144813000Y-86936500D01*
X144813000Y-87688500D01*
G37*
G36*
X214842295Y-85400156D02*
G01*
X214948650Y-85421311D01*
X215149020Y-85504307D01*
X215329344Y-85624795D01*
X215482705Y-85778156D01*
X215603193Y-85958480D01*
X215603193Y-85958481D01*
X215686189Y-86158850D01*
X215693627Y-86196242D01*
X215728252Y-86370311D01*
X215728500Y-86371561D01*
X215728500Y-86588439D01*
X215686189Y-86801150D01*
X215647340Y-86894940D01*
X215603193Y-87001520D01*
X215482705Y-87181844D01*
X215329344Y-87335205D01*
X215149020Y-87455693D01*
X214948650Y-87538689D01*
X214842294Y-87559845D01*
X214735940Y-87581000D01*
X214519060Y-87581000D01*
X214412706Y-87559845D01*
X214306350Y-87538689D01*
X214206166Y-87497191D01*
X214105980Y-87455693D01*
X213925656Y-87335205D01*
X213772295Y-87181844D01*
X213651807Y-87001520D01*
X213607660Y-86894940D01*
X213568811Y-86801150D01*
X213526500Y-86588439D01*
X213526500Y-86371561D01*
X213526749Y-86370311D01*
X213561373Y-86196242D01*
X213568811Y-86158850D01*
X213651807Y-85958481D01*
X213651807Y-85958480D01*
X213772295Y-85778156D01*
X213925656Y-85624795D01*
X214105980Y-85504307D01*
X214206166Y-85462809D01*
X214306350Y-85421311D01*
X214412706Y-85400155D01*
X214519060Y-85379000D01*
X214735940Y-85379000D01*
X214842295Y-85400156D01*
G37*
G36*
X194798399Y-85620832D02*
G01*
X194883020Y-85637664D01*
X195042442Y-85703699D01*
X195185918Y-85799566D01*
X195307934Y-85921582D01*
X195403801Y-86065058D01*
X195458139Y-86196242D01*
X195469836Y-86224481D01*
X195498844Y-86370311D01*
X195503500Y-86393721D01*
X195503500Y-86566279D01*
X195469836Y-86735520D01*
X195403801Y-86894942D01*
X195307934Y-87038418D01*
X195185918Y-87160434D01*
X195042442Y-87256301D01*
X194883020Y-87322336D01*
X194818338Y-87335202D01*
X194713780Y-87356000D01*
X194541220Y-87356000D01*
X194436662Y-87335202D01*
X194371980Y-87322336D01*
X194212558Y-87256301D01*
X194069082Y-87160434D01*
X193947066Y-87038418D01*
X193851199Y-86894942D01*
X193785164Y-86735520D01*
X193751500Y-86566279D01*
X193751500Y-86393721D01*
X193756157Y-86370311D01*
X193785164Y-86224481D01*
X193796861Y-86196242D01*
X193851199Y-86065058D01*
X193947066Y-85921582D01*
X194069082Y-85799566D01*
X194212558Y-85703699D01*
X194371980Y-85637664D01*
X194456601Y-85620832D01*
X194541220Y-85604000D01*
X194713780Y-85604000D01*
X194798399Y-85620832D01*
G37*
G36*
X66613512Y-85211427D02*
G01*
X66762812Y-85241124D01*
X66926784Y-85309044D01*
X67074354Y-85407647D01*
X67199853Y-85533146D01*
X67298456Y-85680716D01*
X67366376Y-85844688D01*
X67401000Y-86018759D01*
X67401000Y-86196241D01*
X67366376Y-86370312D01*
X67298456Y-86534284D01*
X67199853Y-86681854D01*
X67074354Y-86807353D01*
X66926784Y-86905956D01*
X66762812Y-86973876D01*
X66613512Y-87003573D01*
X66588742Y-87008500D01*
X66411258Y-87008500D01*
X66386488Y-87003573D01*
X66237188Y-86973876D01*
X66073216Y-86905956D01*
X65925646Y-86807353D01*
X65800147Y-86681854D01*
X65701544Y-86534284D01*
X65633624Y-86370312D01*
X65599000Y-86196241D01*
X65599000Y-86018759D01*
X65633624Y-85844688D01*
X65701544Y-85680716D01*
X65800147Y-85533146D01*
X65925646Y-85407647D01*
X66073216Y-85309044D01*
X66237188Y-85241124D01*
X66386488Y-85211427D01*
X66411258Y-85206500D01*
X66588742Y-85206500D01*
X66613512Y-85211427D01*
G37*
G36*
X69613512Y-85211427D02*
G01*
X69762812Y-85241124D01*
X69926784Y-85309044D01*
X70074354Y-85407647D01*
X70199853Y-85533146D01*
X70298456Y-85680716D01*
X70366376Y-85844688D01*
X70401000Y-86018759D01*
X70401000Y-86196241D01*
X70366376Y-86370312D01*
X70298456Y-86534284D01*
X70199853Y-86681854D01*
X70074354Y-86807353D01*
X69926784Y-86905956D01*
X69762812Y-86973876D01*
X69613512Y-87003573D01*
X69588742Y-87008500D01*
X69411258Y-87008500D01*
X69386488Y-87003573D01*
X69237188Y-86973876D01*
X69073216Y-86905956D01*
X68925646Y-86807353D01*
X68800147Y-86681854D01*
X68701544Y-86534284D01*
X68633624Y-86370312D01*
X68599000Y-86196241D01*
X68599000Y-86018759D01*
X68633624Y-85844688D01*
X68701544Y-85680716D01*
X68800147Y-85533146D01*
X68925646Y-85407647D01*
X69073216Y-85309044D01*
X69237188Y-85241124D01*
X69386488Y-85211427D01*
X69411258Y-85206500D01*
X69588742Y-85206500D01*
X69613512Y-85211427D01*
G37*
G36*
X113831000Y-85593500D02*
G01*
X112229000Y-85593500D01*
X112229000Y-83491500D01*
X113831000Y-83491500D01*
X113831000Y-85593500D01*
G37*
G36*
X126531000Y-85593500D02*
G01*
X124929000Y-85593500D01*
X124929000Y-83491500D01*
X126531000Y-83491500D01*
X126531000Y-85593500D01*
G37*
G36*
X129071000Y-85593500D02*
G01*
X127469000Y-85593500D01*
X127469000Y-83491500D01*
X129071000Y-83491500D01*
X129071000Y-85593500D01*
G37*
G36*
X116371000Y-85593500D02*
G01*
X114769000Y-85593500D01*
X114769000Y-83491500D01*
X116371000Y-83491500D01*
X116371000Y-85593500D01*
G37*
G36*
X103671000Y-85593500D02*
G01*
X102069000Y-85593500D01*
X102069000Y-83491500D01*
X103671000Y-83491500D01*
X103671000Y-85593500D01*
G37*
G36*
X101131000Y-85593500D02*
G01*
X99529000Y-85593500D01*
X99529000Y-83491500D01*
X101131000Y-83491500D01*
X101131000Y-85593500D01*
G37*
G36*
X90971000Y-85593500D02*
G01*
X89369000Y-85593500D01*
X89369000Y-83491500D01*
X90971000Y-83491500D01*
X90971000Y-85593500D01*
G37*
G36*
X88431000Y-85593500D02*
G01*
X86829000Y-85593500D01*
X86829000Y-83491500D01*
X88431000Y-83491500D01*
X88431000Y-85593500D01*
G37*
G36*
X139389000Y-85148500D02*
G01*
X137762000Y-85148500D01*
X137762000Y-84396500D01*
X139389000Y-84396500D01*
X139389000Y-85148500D01*
G37*
G36*
X144813000Y-85148500D02*
G01*
X143186000Y-85148500D01*
X143186000Y-84396500D01*
X144813000Y-84396500D01*
X144813000Y-85148500D01*
G37*
G36*
X152343500Y-84253500D02*
G01*
X151191500Y-84253500D01*
X151191500Y-82751500D01*
X152343500Y-82751500D01*
X152343500Y-84253500D01*
G37*
G36*
X154243500Y-84253500D02*
G01*
X153091500Y-84253500D01*
X153091500Y-82751500D01*
X154243500Y-82751500D01*
X154243500Y-84253500D01*
G37*
G36*
X69613512Y-82211427D02*
G01*
X69762812Y-82241124D01*
X69926784Y-82309044D01*
X70074354Y-82407647D01*
X70199853Y-82533146D01*
X70298456Y-82680716D01*
X70366376Y-82844688D01*
X70401000Y-83018759D01*
X70401000Y-83196241D01*
X70366376Y-83370312D01*
X70298456Y-83534284D01*
X70199853Y-83681854D01*
X70074354Y-83807353D01*
X69926784Y-83905956D01*
X69762812Y-83973876D01*
X69613512Y-84003573D01*
X69588742Y-84008500D01*
X69411258Y-84008500D01*
X69386488Y-84003573D01*
X69237188Y-83973876D01*
X69073216Y-83905956D01*
X68925646Y-83807353D01*
X68800147Y-83681854D01*
X68701544Y-83534284D01*
X68633624Y-83370312D01*
X68599000Y-83196241D01*
X68599000Y-83018759D01*
X68633624Y-82844688D01*
X68701544Y-82680716D01*
X68800147Y-82533146D01*
X68925646Y-82407647D01*
X69073216Y-82309044D01*
X69237188Y-82241124D01*
X69386488Y-82211427D01*
X69411258Y-82206500D01*
X69588742Y-82206500D01*
X69613512Y-82211427D01*
G37*
G36*
X66613512Y-82211427D02*
G01*
X66762812Y-82241124D01*
X66926784Y-82309044D01*
X67074354Y-82407647D01*
X67199853Y-82533146D01*
X67298456Y-82680716D01*
X67366376Y-82844688D01*
X67401000Y-83018759D01*
X67401000Y-83196241D01*
X67366376Y-83370312D01*
X67298456Y-83534284D01*
X67199853Y-83681854D01*
X67074354Y-83807353D01*
X66926784Y-83905956D01*
X66762812Y-83973876D01*
X66613512Y-84003573D01*
X66588742Y-84008500D01*
X66411258Y-84008500D01*
X66386488Y-84003573D01*
X66237188Y-83973876D01*
X66073216Y-83905956D01*
X65925646Y-83807353D01*
X65800147Y-83681854D01*
X65701544Y-83534284D01*
X65633624Y-83370312D01*
X65599000Y-83196241D01*
X65599000Y-83018759D01*
X65633624Y-82844688D01*
X65701544Y-82680716D01*
X65800147Y-82533146D01*
X65925646Y-82407647D01*
X66073216Y-82309044D01*
X66237188Y-82241124D01*
X66386488Y-82211427D01*
X66411258Y-82206500D01*
X66588742Y-82206500D01*
X66613512Y-82211427D01*
G37*
G36*
X139389000Y-83878500D02*
G01*
X137762000Y-83878500D01*
X137762000Y-83126500D01*
X139389000Y-83126500D01*
X139389000Y-83878500D01*
G37*
G36*
X144813000Y-83878500D02*
G01*
X143186000Y-83878500D01*
X143186000Y-83126500D01*
X144813000Y-83126500D01*
X144813000Y-83878500D01*
G37*
G36*
X193568500Y-83618500D02*
G01*
X192516500Y-83618500D01*
X192516500Y-82116500D01*
X193568500Y-82116500D01*
X193568500Y-83618500D01*
G37*
G36*
X195468500Y-83618500D02*
G01*
X194416500Y-83618500D01*
X194416500Y-82116500D01*
X195468500Y-82116500D01*
X195468500Y-83618500D01*
G37*
G36*
X139389000Y-82608500D02*
G01*
X137762000Y-82608500D01*
X137762000Y-81856500D01*
X139389000Y-81856500D01*
X139389000Y-82608500D01*
G37*
G36*
X144813000Y-82608500D02*
G01*
X143186000Y-82608500D01*
X143186000Y-81856500D01*
X144813000Y-81856500D01*
X144813000Y-82608500D01*
G37*
G36*
X62482585Y-79436302D02*
G01*
X62632410Y-79466104D01*
X62914674Y-79583021D01*
X63168705Y-79752759D01*
X63384741Y-79968795D01*
X63554479Y-80222826D01*
X63671396Y-80505090D01*
X63731000Y-80804740D01*
X63731000Y-81110260D01*
X63671396Y-81409910D01*
X63554479Y-81692174D01*
X63384741Y-81946205D01*
X63168705Y-82162241D01*
X62914674Y-82331979D01*
X62632410Y-82448896D01*
X62482585Y-82478698D01*
X62332761Y-82508500D01*
X62027239Y-82508500D01*
X61877415Y-82478698D01*
X61727590Y-82448896D01*
X61445326Y-82331979D01*
X61191295Y-82162241D01*
X60975259Y-81946205D01*
X60805521Y-81692174D01*
X60688604Y-81409910D01*
X60629000Y-81110260D01*
X60629000Y-80804740D01*
X60688604Y-80505090D01*
X60805521Y-80222826D01*
X60975259Y-79968795D01*
X61191295Y-79752759D01*
X61445326Y-79583021D01*
X61727590Y-79466104D01*
X61877415Y-79436302D01*
X62027239Y-79406500D01*
X62332761Y-79406500D01*
X62482585Y-79436302D01*
G37*
G36*
X206248500Y-82433500D02*
G01*
X204596500Y-82433500D01*
X204596500Y-79981500D01*
X206248500Y-79981500D01*
X206248500Y-82433500D01*
G37*
G36*
X163251000Y-81831500D02*
G01*
X154249000Y-81831500D01*
X154249000Y-80254500D01*
X163251000Y-80254500D01*
X163251000Y-81831500D01*
G37*
G36*
X148373500Y-81748500D02*
G01*
X147251500Y-81748500D01*
X147251500Y-80176500D01*
X148373500Y-80176500D01*
X148373500Y-81748500D01*
G37*
G36*
X146753500Y-81748500D02*
G01*
X145631500Y-81748500D01*
X145631500Y-80176500D01*
X146753500Y-80176500D01*
X146753500Y-81748500D01*
G37*
G36*
X153291000Y-81713500D02*
G01*
X152139000Y-81713500D01*
X152139000Y-80211500D01*
X153291000Y-80211500D01*
X153291000Y-81713500D01*
G37*
G36*
X151391000Y-81713500D02*
G01*
X150239000Y-81713500D01*
X150239000Y-80211500D01*
X151391000Y-80211500D01*
X151391000Y-81713500D01*
G37*
G36*
X144813000Y-81338500D02*
G01*
X143186000Y-81338500D01*
X143186000Y-80586500D01*
X144813000Y-80586500D01*
X144813000Y-81338500D01*
G37*
G36*
X139389000Y-81338500D02*
G01*
X137762000Y-81338500D01*
X137762000Y-80586500D01*
X139389000Y-80586500D01*
X139389000Y-81338500D01*
G37*
G36*
X206248500Y-78133500D02*
G01*
X204596500Y-78133500D01*
X204596500Y-75681500D01*
X206248500Y-75681500D01*
X206248500Y-78133500D01*
G37*
G36*
X163251000Y-75955500D02*
G01*
X154249000Y-75955500D01*
X154249000Y-74378500D01*
X163251000Y-74378500D01*
X163251000Y-75955500D01*
G37*
G36*
X88431000Y-75893500D02*
G01*
X86829000Y-75893500D01*
X86829000Y-73791500D01*
X88431000Y-73791500D01*
X88431000Y-75893500D01*
G37*
G36*
X90971000Y-75893500D02*
G01*
X89369000Y-75893500D01*
X89369000Y-73791500D01*
X90971000Y-73791500D01*
X90971000Y-75893500D01*
G37*
G36*
X101131000Y-75893500D02*
G01*
X99529000Y-75893500D01*
X99529000Y-73791500D01*
X101131000Y-73791500D01*
X101131000Y-75893500D01*
G37*
G36*
X103671000Y-75893500D02*
G01*
X102069000Y-75893500D01*
X102069000Y-73791500D01*
X103671000Y-73791500D01*
X103671000Y-75893500D01*
G37*
G36*
X113831000Y-75893500D02*
G01*
X112229000Y-75893500D01*
X112229000Y-73791500D01*
X113831000Y-73791500D01*
X113831000Y-75893500D01*
G37*
G36*
X116371000Y-75893500D02*
G01*
X114769000Y-75893500D01*
X114769000Y-73791500D01*
X116371000Y-73791500D01*
X116371000Y-75893500D01*
G37*
G36*
X126531000Y-75893500D02*
G01*
X124929000Y-75893500D01*
X124929000Y-73791500D01*
X126531000Y-73791500D01*
X126531000Y-75893500D01*
G37*
G36*
X129071000Y-75893500D02*
G01*
X127469000Y-75893500D01*
X127469000Y-73791500D01*
X129071000Y-73791500D01*
X129071000Y-75893500D01*
G37*
G36*
X159501000Y-73598500D02*
G01*
X157999000Y-73598500D01*
X157999000Y-72446500D01*
X159501000Y-72446500D01*
X159501000Y-73598500D01*
G37*
G36*
X163311000Y-73281000D02*
G01*
X161809000Y-73281000D01*
X161809000Y-72129000D01*
X163311000Y-72129000D01*
X163311000Y-73281000D01*
G37*
G36*
X154243500Y-73141000D02*
G01*
X153091500Y-73141000D01*
X153091500Y-71639000D01*
X154243500Y-71639000D01*
X154243500Y-73141000D01*
G37*
G36*
X152343500Y-73141000D02*
G01*
X151191500Y-73141000D01*
X151191500Y-71639000D01*
X152343500Y-71639000D01*
X152343500Y-73141000D01*
G37*
G36*
X139389000Y-72766000D02*
G01*
X137762000Y-72766000D01*
X137762000Y-72014000D01*
X139389000Y-72014000D01*
X139389000Y-72766000D01*
G37*
G36*
X144813000Y-72766000D02*
G01*
X143186000Y-72766000D01*
X143186000Y-72014000D01*
X144813000Y-72014000D01*
X144813000Y-72766000D01*
G37*
G36*
X159501000Y-71698500D02*
G01*
X157999000Y-71698500D01*
X157999000Y-70546500D01*
X159501000Y-70546500D01*
X159501000Y-71698500D01*
G37*
G36*
X139389000Y-71496000D02*
G01*
X137762000Y-71496000D01*
X137762000Y-70744000D01*
X139389000Y-70744000D01*
X139389000Y-71496000D01*
G37*
G36*
X144813000Y-71496000D02*
G01*
X143186000Y-71496000D01*
X143186000Y-70744000D01*
X144813000Y-70744000D01*
X144813000Y-71496000D01*
G37*
G36*
X163311000Y-71381000D02*
G01*
X161809000Y-71381000D01*
X161809000Y-70229000D01*
X163311000Y-70229000D01*
X163311000Y-71381000D01*
G37*
G36*
X152343500Y-71236000D02*
G01*
X151191500Y-71236000D01*
X151191500Y-69734000D01*
X152343500Y-69734000D01*
X152343500Y-71236000D01*
G37*
G36*
X154243500Y-71236000D02*
G01*
X153091500Y-71236000D01*
X153091500Y-69734000D01*
X154243500Y-69734000D01*
X154243500Y-71236000D01*
G37*
G36*
X139389000Y-70226000D02*
G01*
X137762000Y-70226000D01*
X137762000Y-69474000D01*
X139389000Y-69474000D01*
X139389000Y-70226000D01*
G37*
G36*
X144813000Y-70226000D02*
G01*
X143186000Y-70226000D01*
X143186000Y-69474000D01*
X144813000Y-69474000D01*
X144813000Y-70226000D01*
G37*
G36*
X129071000Y-69718500D02*
G01*
X127469000Y-69718500D01*
X127469000Y-67616500D01*
X129071000Y-67616500D01*
X129071000Y-69718500D01*
G37*
G36*
X88431000Y-69718500D02*
G01*
X86829000Y-69718500D01*
X86829000Y-67616500D01*
X88431000Y-67616500D01*
X88431000Y-69718500D01*
G37*
G36*
X90971000Y-69718500D02*
G01*
X89369000Y-69718500D01*
X89369000Y-67616500D01*
X90971000Y-67616500D01*
X90971000Y-69718500D01*
G37*
G36*
X101131000Y-69718500D02*
G01*
X99529000Y-69718500D01*
X99529000Y-67616500D01*
X101131000Y-67616500D01*
X101131000Y-69718500D01*
G37*
G36*
X103671000Y-69718500D02*
G01*
X102069000Y-69718500D01*
X102069000Y-67616500D01*
X103671000Y-67616500D01*
X103671000Y-69718500D01*
G37*
G36*
X113831000Y-69718500D02*
G01*
X112229000Y-69718500D01*
X112229000Y-67616500D01*
X113831000Y-67616500D01*
X113831000Y-69718500D01*
G37*
G36*
X116371000Y-69718500D02*
G01*
X114769000Y-69718500D01*
X114769000Y-67616500D01*
X116371000Y-67616500D01*
X116371000Y-69718500D01*
G37*
G36*
X126531000Y-69718500D02*
G01*
X124929000Y-69718500D01*
X124929000Y-67616500D01*
X126531000Y-67616500D01*
X126531000Y-69718500D01*
G37*
G36*
X146753500Y-69366000D02*
G01*
X145631500Y-69366000D01*
X145631500Y-67794000D01*
X146753500Y-67794000D01*
X146753500Y-69366000D01*
G37*
G36*
X148373500Y-69366000D02*
G01*
X147251500Y-69366000D01*
X147251500Y-67794000D01*
X148373500Y-67794000D01*
X148373500Y-69366000D01*
G37*
G36*
X157278500Y-69153500D02*
G01*
X155776500Y-69153500D01*
X155776500Y-68001500D01*
X157278500Y-68001500D01*
X157278500Y-69153500D01*
G37*
G36*
X155373500Y-69153500D02*
G01*
X153871500Y-69153500D01*
X153871500Y-68001500D01*
X155373500Y-68001500D01*
X155373500Y-69153500D01*
G37*
G36*
X144813000Y-68956000D02*
G01*
X143186000Y-68956000D01*
X143186000Y-68204000D01*
X144813000Y-68204000D01*
X144813000Y-68956000D01*
G37*
G36*
X139389000Y-68956000D02*
G01*
X137762000Y-68956000D01*
X137762000Y-68204000D01*
X139389000Y-68204000D01*
X139389000Y-68956000D01*
G37*
G36*
X157278500Y-67253500D02*
G01*
X155776500Y-67253500D01*
X155776500Y-66101500D01*
X157278500Y-66101500D01*
X157278500Y-67253500D01*
G37*
G36*
X155373500Y-67253500D02*
G01*
X153871500Y-67253500D01*
X153871500Y-66101500D01*
X155373500Y-66101500D01*
X155373500Y-67253500D01*
G37*
G36*
X187613500Y-66646000D02*
G01*
X177511500Y-66646000D01*
X177511500Y-56544000D01*
X187613500Y-56544000D01*
X187613500Y-66646000D01*
G37*
G36*
X200313500Y-66646000D02*
G01*
X190211500Y-66646000D01*
X190211500Y-56544000D01*
X200313500Y-56544000D01*
X200313500Y-66646000D01*
G37*
G36*
X213013500Y-66646000D02*
G01*
X202911500Y-66646000D01*
X202911500Y-56544000D01*
X213013500Y-56544000D01*
X213013500Y-66646000D01*
G37*
G36*
X139389000Y-63876000D02*
G01*
X137762000Y-63876000D01*
X137762000Y-63124000D01*
X139389000Y-63124000D01*
X139389000Y-63876000D01*
G37*
G36*
X144813000Y-63876000D02*
G01*
X143186000Y-63876000D01*
X143186000Y-63124000D01*
X144813000Y-63124000D01*
X144813000Y-63876000D01*
G37*
G36*
X144813000Y-62606000D02*
G01*
X143186000Y-62606000D01*
X143186000Y-61854000D01*
X144813000Y-61854000D01*
X144813000Y-62606000D01*
G37*
G36*
X139389000Y-62606000D02*
G01*
X137762000Y-62606000D01*
X137762000Y-61854000D01*
X139389000Y-61854000D01*
X139389000Y-62606000D01*
G37*
G36*
X139389000Y-61336000D02*
G01*
X137762000Y-61336000D01*
X137762000Y-60584000D01*
X139389000Y-60584000D01*
X139389000Y-61336000D01*
G37*
G36*
X144813000Y-61336000D02*
G01*
X143186000Y-61336000D01*
X143186000Y-60584000D01*
X144813000Y-60584000D01*
X144813000Y-61336000D01*
G37*
G36*
X74086598Y-56284533D02*
G01*
X74550850Y-56476832D01*
X74550852Y-56476833D01*
X74968668Y-56756009D01*
X75323991Y-57111332D01*
X75603167Y-57529148D01*
X75603168Y-57529150D01*
X75795467Y-57993402D01*
X75893500Y-58486247D01*
X75893500Y-58988753D01*
X75795467Y-59481598D01*
X75603168Y-59945850D01*
X75603167Y-59945852D01*
X75323991Y-60363668D01*
X74968668Y-60718991D01*
X74550852Y-60998167D01*
X74550851Y-60998168D01*
X74550850Y-60998168D01*
X74086598Y-61190467D01*
X73593753Y-61288500D01*
X73091247Y-61288500D01*
X72598402Y-61190467D01*
X72134150Y-60998168D01*
X72134149Y-60998168D01*
X72134148Y-60998167D01*
X71716332Y-60718991D01*
X71361009Y-60363668D01*
X71081833Y-59945852D01*
X71081832Y-59945850D01*
X70889533Y-59481598D01*
X70791500Y-58988753D01*
X70791500Y-58486247D01*
X70889533Y-57993402D01*
X71081832Y-57529150D01*
X71081833Y-57529148D01*
X71361009Y-57111332D01*
X71716332Y-56756009D01*
X72134148Y-56476833D01*
X72134150Y-56476832D01*
X72598402Y-56284533D01*
X73091247Y-56186500D01*
X73593753Y-56186500D01*
X74086598Y-56284533D01*
G37*
G36*
X231249098Y-56284533D02*
G01*
X231713350Y-56476832D01*
X231713352Y-56476833D01*
X232131168Y-56756009D01*
X232486491Y-57111332D01*
X232765667Y-57529148D01*
X232765668Y-57529150D01*
X232957967Y-57993402D01*
X233056000Y-58486247D01*
X233056000Y-58988753D01*
X232957967Y-59481598D01*
X232765668Y-59945850D01*
X232765667Y-59945852D01*
X232486491Y-60363668D01*
X232131168Y-60718991D01*
X231713352Y-60998167D01*
X231713351Y-60998168D01*
X231713350Y-60998168D01*
X231249098Y-61190467D01*
X230756253Y-61288500D01*
X230253747Y-61288500D01*
X229760902Y-61190467D01*
X229296650Y-60998168D01*
X229296649Y-60998168D01*
X229296648Y-60998167D01*
X228878832Y-60718991D01*
X228523509Y-60363668D01*
X228244333Y-59945852D01*
X228244332Y-59945850D01*
X228052033Y-59481598D01*
X227954000Y-58988753D01*
X227954000Y-58486247D01*
X228052033Y-57993402D01*
X228244332Y-57529150D01*
X228244333Y-57529148D01*
X228523509Y-57111332D01*
X228878832Y-56756009D01*
X229296648Y-56476833D01*
X229296650Y-56476832D01*
X229760902Y-56284533D01*
X230253747Y-56186500D01*
X230756253Y-56186500D01*
X231249098Y-56284533D01*
G37*
G36*
X149326000Y-60476000D02*
G01*
X148204000Y-60476000D01*
X148204000Y-58904000D01*
X149326000Y-58904000D01*
X149326000Y-60476000D01*
G37*
G36*
X147706000Y-60476000D02*
G01*
X146584000Y-60476000D01*
X146584000Y-58904000D01*
X147706000Y-58904000D01*
X147706000Y-60476000D01*
G37*
G36*
X139389000Y-60066000D02*
G01*
X137762000Y-60066000D01*
X137762000Y-59314000D01*
X139389000Y-59314000D01*
X139389000Y-60066000D01*
G37*
G36*
X144813000Y-60066000D02*
G01*
X143186000Y-60066000D01*
X143186000Y-59314000D01*
X144813000Y-59314000D01*
X144813000Y-60066000D01*
G37*
G36*
X101131000Y-60018500D02*
G01*
X99529000Y-60018500D01*
X99529000Y-57916500D01*
X101131000Y-57916500D01*
X101131000Y-60018500D01*
G37*
G36*
X103671000Y-60018500D02*
G01*
X102069000Y-60018500D01*
X102069000Y-57916500D01*
X103671000Y-57916500D01*
X103671000Y-60018500D01*
G37*
G36*
X88431000Y-60018500D02*
G01*
X86829000Y-60018500D01*
X86829000Y-57916500D01*
X88431000Y-57916500D01*
X88431000Y-60018500D01*
G37*
G36*
X90971000Y-60018500D02*
G01*
X89369000Y-60018500D01*
X89369000Y-57916500D01*
X90971000Y-57916500D01*
X90971000Y-60018500D01*
G37*
G36*
X129071000Y-60018500D02*
G01*
X127469000Y-60018500D01*
X127469000Y-57916500D01*
X129071000Y-57916500D01*
X129071000Y-60018500D01*
G37*
G36*
X116371000Y-60018500D02*
G01*
X114769000Y-60018500D01*
X114769000Y-57916500D01*
X116371000Y-57916500D01*
X116371000Y-60018500D01*
G37*
G36*
X113831000Y-60018500D02*
G01*
X112229000Y-60018500D01*
X112229000Y-57916500D01*
X113831000Y-57916500D01*
X113831000Y-60018500D01*
G37*
G36*
X126531000Y-60018500D02*
G01*
X124929000Y-60018500D01*
X124929000Y-57916500D01*
X126531000Y-57916500D01*
X126531000Y-60018500D01*
G37*
M02*
