M48
; DRILL file {KiCad (5.1.5)-3} date 6/24/2020 1:45:04 PM
; FORMAT={-:-/ absolute / inch / decimal}
; #@! TF.CreationDate,2020-06-24T13:45:04-07:00
; #@! TF.GenerationSoftware,Kicad,Pcbnew,(5.1.5)-3
; #@! TF.FileFunction,Plated,1,2,PTH
FMAT,2
INCH
T1C0.0120
T2C0.0150
T3C0.0200
T4C0.0400
T5C0.0402
T6C0.0433
T7C0.0453
T8C0.0492
T9C0.0551
T10C0.0949
T11C0.1575
%
G90
G05
T1
X3.375Y-2.2625
X3.45Y-3.4
X3.45Y-3.6
X3.45Y-4.75
X3.45Y-4.95
X3.5Y-3.0125
X3.5Y-4.3625
X3.55Y-2.625
X3.55Y-3.975
X3.55Y-5.325
X3.625Y-3.3875
X3.625Y-4.7375
X3.7Y-2.2625
X3.7Y-3.6125
X3.7Y-4.9625
X3.8Y-3.3875
X3.8Y-4.7375
X3.875Y-2.2625
X3.875Y-3.6125
X3.875Y-4.9625
X4.0Y-3.0125
X4.0Y-4.3625
X4.05Y-2.625
X4.05Y-3.975
X4.125Y-3.3875
X4.125Y-4.7375
X4.2Y-2.2625
X4.2Y-3.6125
X4.2Y-4.9625
X4.3Y-3.3875
X4.3Y-4.7375
X4.375Y-2.2625
X4.375Y-3.6125
X4.375Y-4.9625
X4.5Y-3.0125
X4.5Y-3.4365
X4.5Y-3.4875
X4.5Y-4.3625
X4.55Y-3.9875
X4.625Y-3.3875
X4.625Y-4.7375
X4.7Y-2.2625
X4.7Y-3.6125
X4.7Y-4.9625
X4.8Y-3.3875
X4.8Y-4.7375
X4.875Y-2.2625
X4.875Y-3.6125
X4.875Y-4.9625
X4.951Y-3.4365
X5.0Y-2.7875
X5.0Y-3.0125
X5.0Y-3.4875
X5.0Y-4.3625
X5.0625Y-4.1375
X5.0875Y-4.1125
X5.125Y-3.3875
X5.125Y-4.7375
X5.2Y-2.2625
X5.2Y-3.6125
X5.2Y-4.9625
X5.2125Y-3.1875
X5.2125Y-3.3625
X5.2125Y-4.5375
X5.2125Y-4.7125
X5.25Y-2.4625
X5.25Y-3.8125
X5.25Y-4.8875
X5.25Y-5.1625
X5.275Y-2.3875
X5.275Y-3.2625
X5.275Y-3.3875
X5.275Y-3.7375
X5.275Y-4.6125
X5.275Y-5.0875
X5.2875Y-4.925
X5.3Y-2.4375
X5.3Y-3.7875
X5.3Y-5.1375
X5.3125Y-3.2125
X5.3125Y-3.5125
X5.3125Y-4.5625
X5.3125Y-4.8625
X5.3625Y-2.7
X5.3625Y-2.7875
X5.3625Y-4.05
X5.3625Y-4.1375
X5.3625Y-5.4
X5.3625Y-5.4875
X5.375Y-3.2875
X5.375Y-3.4875
X5.375Y-3.7875
X5.375Y-4.6375
X5.375Y-4.8375
X5.375Y-5.1375
X5.3875Y-2.45
X5.5625Y-2.35
X5.5625Y-2.5
X5.5625Y-2.7
X5.5625Y-2.85
X5.5625Y-3.1875
X5.5625Y-3.3375
X5.5625Y-3.4375
X5.5625Y-3.5875
X5.5625Y-3.6875
X5.5625Y-3.8375
X5.5625Y-4.05
X5.5625Y-4.2
X5.5625Y-4.5375
X5.5625Y-4.6875
X5.5625Y-4.7875
X5.5625Y-4.9375
X5.5625Y-5.0375
X5.5625Y-5.1875
X5.5625Y-5.4
X5.5625Y-5.55
X5.7125Y-2.6375
X5.7125Y-3.1125
X5.7125Y-3.9875
X5.7125Y-4.4625
X5.725Y-5.3375
X5.75Y-2.525
X5.75Y-3.0
X5.75Y-3.875
X5.75Y-4.35
X5.75Y-5.225
X5.7875Y-2.4375
X5.7875Y-2.5625
X5.7875Y-2.6375
X5.7875Y-3.0375
X5.7875Y-3.1125
X5.7875Y-3.9125
X5.7875Y-3.9875
X5.7875Y-4.3875
X5.7875Y-4.4625
X5.7875Y-5.2625
X5.7875Y-5.3375
X5.8125Y-3.7375
X5.825Y-2.85
X5.825Y-3.2875
X5.825Y-3.3625
X5.825Y-3.5875
X5.825Y-4.1625
X5.825Y-4.2125
X5.825Y-4.6375
X5.825Y-4.9375
X5.825Y-5.125
X5.8375Y-3.4
X5.9125Y-5.4625
X5.925Y-2.775
X5.925Y-2.85
X5.925Y-3.25
X5.925Y-3.2875
X5.925Y-3.3625
X5.925Y-3.45
X5.925Y-3.5875
X5.925Y-3.6375
X5.925Y-3.7375
X5.925Y-4.1875
X5.925Y-4.8375
X5.925Y-4.9375
X5.925Y-5.05
X5.925Y-5.125
X5.95Y-4.5875
X5.975Y-4.8
X6.0Y-2.4625
X6.025Y-4.875
X6.0375Y-2.4625
X6.0375Y-4.8
X6.0625Y-4.1375
X6.15Y-3.075
X6.1604Y-3.25
X6.1604Y-5.475
X6.1625Y-4.175
X6.2Y-3.25
X6.2Y-4.1625
X6.2Y-5.1
X6.2125Y-4.125
X6.225Y-4.5125
X6.2339Y-3.25
X6.2615Y-3.351
X6.2625Y-3.275
X6.2625Y-3.725
X6.2628Y-4.2122
X6.275Y-3.95
X6.275Y-4.4625
X6.275Y-4.75
X6.275Y-4.947
X6.2854Y-3.6271
X6.2875Y-3.25
X6.2875Y-4.125
X6.2875Y-5.575
X6.2884Y-5.4741
X6.3Y-4.4
X6.3125Y-3.7
X6.314Y-2.9
X6.314Y-5.125
X6.3396Y-4.6104
X6.3396Y-4.7229
X6.3396Y-5.1
X6.34Y-3.7625
X6.35Y-2.9
X6.3625Y-4.6375
X6.3625Y-4.75
X6.3652Y-3.275
X6.3652Y-4.175
X6.375Y-3.7
X6.3907Y-3.25
X6.3907Y-4.125
X6.4125Y-4.925
X6.4125Y-5.0
X6.45Y-3.2375
X6.45Y-4.0125
X6.45Y-4.9625
X6.45Y-5.0375
X6.475Y-3.7625
X6.475Y-3.8125
X6.4875Y-4.7375
X6.4875Y-4.8
X6.5Y-5.325
X6.525Y-4.175
X6.5375Y-4.1
X6.5375Y-5.5777
X6.6125Y-5.2125
X6.625Y-4.1875
X6.6375Y-3.6625
X6.6375Y-4.0125
X6.65Y-3.2875
X6.65Y-3.3375
X6.65Y-3.7125
X6.6625Y-3.7625
X6.6845Y-5.1625
X6.725Y-4.775
X6.75Y-3.3375
X6.75Y-4.2125
X6.775Y-4.825
X6.775Y-5.0375
X6.775Y-5.625
X6.7875Y-3.2875
X6.7875Y-4.2
X6.8125Y-4.325
X6.8125Y-4.4625
X6.825Y-3.6625
X6.825Y-3.7125
X6.8266Y-4.5609
X6.8375Y-4.825
X6.8375Y-4.95
X6.875Y-5.35
X6.9Y-5.275
X6.925Y-5.625
X6.9625Y-5.275
X7.0125Y-2.25
X7.0125Y-2.3375
X7.0125Y-2.425
X7.0125Y-2.5125
X7.0125Y-2.6
X7.025Y-5.275
X7.05Y-4.5125
X7.075Y-4.6375
X7.075Y-5.625
X7.075Y-5.7125
X7.1Y-2.25
X7.1Y-2.3375
X7.1Y-2.425
X7.1Y-2.5125
X7.1Y-2.6
X7.1625Y-5.325
X7.175Y-5.15
X7.1875Y-2.25
X7.1875Y-2.3375
X7.1875Y-2.425
X7.1875Y-2.5125
X7.1875Y-2.6
X7.2125Y-5.7125
X7.225Y-4.2
X7.225Y-5.2375
X7.25Y-4.5125
X7.25Y-4.6875
X7.2625Y-5.1875
X7.275Y-2.25
X7.275Y-2.3375
X7.275Y-2.425
X7.275Y-2.5125
X7.275Y-2.6
X7.2875Y-5.425
X7.3286Y-5.0875
X7.35Y-5.1625
X7.3625Y-2.25
X7.3625Y-2.3375
X7.3625Y-2.425
X7.3625Y-2.5125
X7.3625Y-2.6
X7.375Y-4.2
X7.475Y-4.9375
X7.475Y-4.9875
X7.475Y-5.0875
X7.5125Y-2.25
X7.5125Y-2.3375
X7.5125Y-2.425
X7.5125Y-2.5125
X7.5125Y-2.6
X7.5375Y-5.1125
X7.6Y-2.25
X7.6Y-2.3375
X7.6Y-2.425
X7.6Y-2.5125
X7.6Y-2.6
X7.65Y-4.7625
X7.65Y-4.9625
X7.6875Y-2.25
X7.6875Y-2.3375
X7.6875Y-2.425
X7.6875Y-2.5125
X7.6875Y-2.6
X7.7Y-5.575
X7.7375Y-3.2625
X7.775Y-2.25
X7.775Y-2.3375
X7.775Y-2.425
X7.775Y-2.5125
X7.775Y-2.6
X7.8125Y-5.5875
X7.8625Y-2.25
X7.8625Y-2.3375
X7.8625Y-2.425
X7.8625Y-2.5125
X7.8625Y-2.6
X7.925Y-4.6375
X7.95Y-4.4625
X8.0125Y-2.25
X8.0125Y-2.3375
X8.0125Y-2.425
X8.0125Y-2.5125
X8.0125Y-2.6
X8.0875Y-4.975
X8.1Y-2.25
X8.1Y-2.3375
X8.1Y-2.425
X8.1Y-2.5125
X8.1Y-2.6
X8.1Y-4.7625
X8.1375Y-4.2
X8.1375Y-4.425
X8.1375Y-4.7125
X8.1875Y-2.25
X8.1875Y-2.3375
X8.1875Y-2.425
X8.1875Y-2.5125
X8.1875Y-2.6
X8.1875Y-4.4875
X8.1875Y-4.6125
X8.2625Y-4.4375
X8.2625Y-4.5375
X8.275Y-2.25
X8.275Y-2.3375
X8.275Y-2.425
X8.275Y-2.5125
X8.275Y-2.6
X8.3125Y-5.375
X8.3625Y-2.25
X8.3625Y-2.3375
X8.3625Y-2.425
X8.3625Y-2.5125
X8.3625Y-2.6
X8.375Y-4.3625
X8.375Y-4.725
X8.375Y-4.8
X8.4Y-5.375
X8.5Y-4.4875
X8.5Y-5.375
X8.5875Y-5.3125
X8.7875Y-3.0
X8.7875Y-3.0875
X8.7875Y-3.175
X8.7875Y-3.2625
X8.7875Y-3.35
X8.7875Y-3.5
X8.7875Y-3.5875
X8.7875Y-3.675
X8.7875Y-3.7625
X8.7875Y-3.85
X8.875Y-3.0
X8.875Y-3.0875
X8.875Y-3.175
X8.875Y-3.2625
X8.875Y-3.35
X8.875Y-3.5
X8.875Y-3.5875
X8.875Y-3.675
X8.875Y-3.7625
X8.875Y-3.85
X8.9625Y-3.0
X8.9625Y-3.0875
X8.9625Y-3.175
X8.9625Y-3.2625
X8.9625Y-3.35
X8.9625Y-3.5
X8.9625Y-3.5875
X8.9625Y-3.675
X8.9625Y-3.7625
X8.9625Y-3.85
X9.05Y-3.0
X9.05Y-3.0875
X9.05Y-3.175
X9.05Y-3.2625
X9.05Y-3.35
X9.05Y-3.5
X9.05Y-3.5875
X9.05Y-3.675
X9.05Y-3.7625
X9.05Y-3.85
X9.1375Y-3.0
X9.1375Y-3.0875
X9.1375Y-3.175
X9.1375Y-3.2625
X9.1375Y-3.35
X9.1375Y-3.5
X9.1375Y-3.5875
X9.1375Y-3.675
X9.1375Y-3.7625
X9.1375Y-3.85
T2
X3.2875Y-5.3827
X5.75Y-2.4
X5.75Y-2.75
X5.75Y-3.2375
X5.75Y-3.4875
X5.75Y-4.1
X5.75Y-4.2875
X5.75Y-4.5875
X5.75Y-4.8375
X5.75Y-5.0875
X5.7504Y-5.4746
X5.7625Y-3.7
X5.825Y-2.9
X5.825Y-3.325
X5.825Y-3.775
X5.825Y-4.7
X5.875Y-3.7
X5.9Y-5.5
X5.925Y-2.9
X5.925Y-3.325
X5.925Y-3.775
X5.925Y-4.75
X5.9375Y-4.25
X6.0125Y-4.0625
X6.05Y-5.625
X6.1125Y-3.2875
X6.4676Y-4.8574
X6.7Y-2.95
X6.7Y-3.9375
X6.7Y-4.275
X6.8375Y-5.275
X6.8625Y-4.8875
X6.95Y-4.1875
X6.95Y-4.2875
X7.0625Y-4.05
X7.0875Y-5.1625
X7.125Y-5.1125
X7.1625Y-4.425
X7.1625Y-4.75
X7.225Y-4.275
X7.375Y-3.9875
X7.5625Y-5.5125
X8.65Y-4.1125
T3
X3.0Y-3.55
X3.125Y-4.975
X3.1625Y-4.25
X3.175Y-4.45
X3.225Y-4.4125
X3.275Y-4.3625
X3.7125Y-3.3875
X3.7125Y-4.7375
X4.2125Y-3.3875
X4.2125Y-4.7375
X4.425Y-2.8
X4.7125Y-3.3875
X4.7125Y-4.7375
X4.8125Y-4.15
X5.2125Y-2.9875
X5.2125Y-4.3375
X5.3125Y-5.625
X5.3125Y-5.7
T4
X7.4Y-4.3125
X7.4Y-4.4125
X7.4Y-4.5125
X7.4Y-4.6125
X7.4Y-4.7125
X7.4Y-4.8125
X7.4Y-4.9125
X7.4Y-5.0125
X7.4Y-5.1125
X7.4Y-5.2125
X7.4Y-5.3125
X7.4Y-5.4125
X7.4Y-5.5125
X7.4Y-5.6125
X7.5Y-4.3125
X7.6Y-4.3125
X7.7Y-4.3125
X7.8Y-4.3125
X7.9Y-4.3125
X8.0Y-4.3125
X8.0Y-4.4125
X8.0Y-4.5125
X8.0Y-4.6125
X8.0Y-4.7125
X8.0Y-4.8125
X8.0Y-4.9125
X8.0Y-5.0125
X8.0Y-5.1125
X8.0Y-5.2125
X8.0Y-5.3125
X8.0Y-5.4125
X8.0Y-5.5125
X8.0Y-5.6125
T5
X2.6181Y-3.2719
X2.6181Y-3.3901
X2.6181Y-3.5082
X2.6181Y-3.6263
X2.6181Y-3.7444
X2.6181Y-3.8625
X2.6181Y-3.9806
X2.6181Y-4.0987
X2.6181Y-4.2168
X2.6181Y-4.3349
X2.6181Y-4.4531
X2.7362Y-3.2719
X2.7362Y-3.3901
X2.7362Y-3.5082
X2.7362Y-3.6263
X2.7362Y-3.7444
X2.7362Y-3.8625
X2.7362Y-3.9806
X2.7362Y-4.0987
X2.7362Y-4.2168
X2.7362Y-4.3349
X2.7362Y-4.4531
T6
X7.6625Y-3.4047
X7.6625Y-3.7
T7
X8.1625Y-5.6125
X8.2625Y-5.6125
X8.3625Y-5.6125
X8.4625Y-5.6125
T8
X7.1875Y-3.7
X7.1875Y-3.8
X7.1875Y-3.9
T9
X8.3121Y-3.7
X8.4499Y-3.4047
T10
X2.448Y-3.1873
X2.448Y-4.5377
T11
X2.8875Y-2.3125
X9.075Y-2.3125
X9.075Y-5.6625
X2.8875Y-5.6625
T0
M30
