G04 #@! TF.GenerationSoftware,KiCad,Pcbnew,(5.1.5)-3*
G04 #@! TF.CreationDate,2020-06-24T13:45:01-07:00*
G04 #@! TF.ProjectId,BMS Board,424d5320-426f-4617-9264-2e6b69636164,rev?*
G04 #@! TF.SameCoordinates,Original*
G04 #@! TF.FileFunction,Legend,Top*
G04 #@! TF.FilePolarity,Positive*
%FSLAX46Y46*%
G04 Gerber Fmt 4.6, Leading zero omitted, Abs format (unit mm)*
G04 Created by KiCad (PCBNEW (5.1.5)-3) date 2020-06-24 13:45:01*
%MOMM*%
%LPD*%
G04 APERTURE LIST*
%ADD10C,0.150000*%
%ADD11C,0.152400*%
%ADD12C,0.120000*%
%ADD13C,0.406400*%
%ADD14C,0.203200*%
%ADD15C,0.010000*%
%ADD16C,0.200000*%
%ADD17C,0.100000*%
G04 APERTURE END LIST*
D10*
X192778214Y-81097380D02*
X192444880Y-80621190D01*
X192206785Y-81097380D02*
X192206785Y-80097380D01*
X192587738Y-80097380D01*
X192682976Y-80145000D01*
X192730595Y-80192619D01*
X192778214Y-80287857D01*
X192778214Y-80430714D01*
X192730595Y-80525952D01*
X192682976Y-80573571D01*
X192587738Y-80621190D01*
X192206785Y-80621190D01*
X193587738Y-81049761D02*
X193492500Y-81097380D01*
X193302023Y-81097380D01*
X193206785Y-81049761D01*
X193159166Y-80954523D01*
X193159166Y-80573571D01*
X193206785Y-80478333D01*
X193302023Y-80430714D01*
X193492500Y-80430714D01*
X193587738Y-80478333D01*
X193635357Y-80573571D01*
X193635357Y-80668809D01*
X193159166Y-80764047D01*
X194206785Y-81097380D02*
X194111547Y-81049761D01*
X194063928Y-80954523D01*
X194063928Y-80097380D01*
X195016309Y-81097380D02*
X195016309Y-80573571D01*
X194968690Y-80478333D01*
X194873452Y-80430714D01*
X194682976Y-80430714D01*
X194587738Y-80478333D01*
X195016309Y-81049761D02*
X194921071Y-81097380D01*
X194682976Y-81097380D01*
X194587738Y-81049761D01*
X194540119Y-80954523D01*
X194540119Y-80859285D01*
X194587738Y-80764047D01*
X194682976Y-80716428D01*
X194921071Y-80716428D01*
X195016309Y-80668809D01*
X195397261Y-80430714D02*
X195635357Y-81097380D01*
X195873452Y-80430714D02*
X195635357Y-81097380D01*
X195540119Y-81335476D01*
X195492500Y-81383095D01*
X195397261Y-81430714D01*
D11*
X203581000Y-90070214D02*
X204016428Y-90070214D01*
X203798714Y-90832214D02*
X203798714Y-90070214D01*
X204560714Y-90795928D02*
X204488142Y-90832214D01*
X204343000Y-90832214D01*
X204270428Y-90795928D01*
X204234142Y-90723357D01*
X204234142Y-90433071D01*
X204270428Y-90360500D01*
X204343000Y-90324214D01*
X204488142Y-90324214D01*
X204560714Y-90360500D01*
X204597000Y-90433071D01*
X204597000Y-90505642D01*
X204234142Y-90578214D01*
X205032428Y-90832214D02*
X204959857Y-90795928D01*
X204923571Y-90759642D01*
X204887285Y-90687071D01*
X204887285Y-90469357D01*
X204923571Y-90396785D01*
X204959857Y-90360500D01*
X205032428Y-90324214D01*
X205141285Y-90324214D01*
X205213857Y-90360500D01*
X205250142Y-90396785D01*
X205286428Y-90469357D01*
X205286428Y-90687071D01*
X205250142Y-90759642D01*
X205213857Y-90795928D01*
X205141285Y-90832214D01*
X205032428Y-90832214D01*
D10*
X217432023Y-132484880D02*
X218003452Y-132484880D01*
X217717738Y-133484880D02*
X217717738Y-132484880D01*
X218241547Y-133484880D02*
X218765357Y-132818214D01*
X218241547Y-132818214D02*
X218765357Y-133484880D01*
X206279761Y-133484880D02*
X205946428Y-133008690D01*
X205708333Y-133484880D02*
X205708333Y-132484880D01*
X206089285Y-132484880D01*
X206184523Y-132532500D01*
X206232142Y-132580119D01*
X206279761Y-132675357D01*
X206279761Y-132818214D01*
X206232142Y-132913452D01*
X206184523Y-132961071D01*
X206089285Y-133008690D01*
X205708333Y-133008690D01*
X206613095Y-133484880D02*
X207136904Y-132818214D01*
X206613095Y-132818214D02*
X207136904Y-133484880D01*
D12*
X79375000Y-104457500D02*
X79375000Y-91757500D01*
X77470000Y-91757500D02*
X77470000Y-104457500D01*
D10*
X72090595Y-113482380D02*
X72090595Y-112482380D01*
X72662023Y-113482380D01*
X72662023Y-112482380D01*
X73709642Y-113387142D02*
X73662023Y-113434761D01*
X73519166Y-113482380D01*
X73423928Y-113482380D01*
X73281071Y-113434761D01*
X73185833Y-113339523D01*
X73138214Y-113244285D01*
X73090595Y-113053809D01*
X73090595Y-112910952D01*
X73138214Y-112720476D01*
X73185833Y-112625238D01*
X73281071Y-112530000D01*
X73423928Y-112482380D01*
X73519166Y-112482380D01*
X73662023Y-112530000D01*
X73709642Y-112577619D01*
X75423928Y-112530000D02*
X75328690Y-112482380D01*
X75185833Y-112482380D01*
X75042976Y-112530000D01*
X74947738Y-112625238D01*
X74900119Y-112720476D01*
X74852500Y-112910952D01*
X74852500Y-113053809D01*
X74900119Y-113244285D01*
X74947738Y-113339523D01*
X75042976Y-113434761D01*
X75185833Y-113482380D01*
X75281071Y-113482380D01*
X75423928Y-113434761D01*
X75471547Y-113387142D01*
X75471547Y-113053809D01*
X75281071Y-113053809D01*
X75900119Y-113482380D02*
X75900119Y-112482380D01*
X76471547Y-113482380D01*
X76471547Y-112482380D01*
X76947738Y-113482380D02*
X76947738Y-112482380D01*
X77185833Y-112482380D01*
X77328690Y-112530000D01*
X77423928Y-112625238D01*
X77471547Y-112720476D01*
X77519166Y-112910952D01*
X77519166Y-113053809D01*
X77471547Y-113244285D01*
X77423928Y-113339523D01*
X77328690Y-113434761D01*
X77185833Y-113482380D01*
X76947738Y-113482380D01*
X72281071Y-109624880D02*
X72376309Y-109624880D01*
X72471547Y-109672500D01*
X72519166Y-109720119D01*
X72566785Y-109815357D01*
X72614404Y-110005833D01*
X72614404Y-110243928D01*
X72566785Y-110434404D01*
X72519166Y-110529642D01*
X72471547Y-110577261D01*
X72376309Y-110624880D01*
X72281071Y-110624880D01*
X72185833Y-110577261D01*
X72138214Y-110529642D01*
X72090595Y-110434404D01*
X72042976Y-110243928D01*
X72042976Y-110005833D01*
X72090595Y-109815357D01*
X72138214Y-109720119D01*
X72185833Y-109672500D01*
X72281071Y-109624880D01*
X73566785Y-110624880D02*
X72995357Y-110624880D01*
X73281071Y-110624880D02*
X73281071Y-109624880D01*
X73185833Y-109767738D01*
X73090595Y-109862976D01*
X72995357Y-109910595D01*
X74947738Y-109624880D02*
X75042976Y-109624880D01*
X75138214Y-109672500D01*
X75185833Y-109720119D01*
X75233452Y-109815357D01*
X75281071Y-110005833D01*
X75281071Y-110243928D01*
X75233452Y-110434404D01*
X75185833Y-110529642D01*
X75138214Y-110577261D01*
X75042976Y-110624880D01*
X74947738Y-110624880D01*
X74852500Y-110577261D01*
X74804880Y-110529642D01*
X74757261Y-110434404D01*
X74709642Y-110243928D01*
X74709642Y-110005833D01*
X74757261Y-109815357D01*
X74804880Y-109720119D01*
X74852500Y-109672500D01*
X74947738Y-109624880D01*
X75662023Y-109720119D02*
X75709642Y-109672500D01*
X75804880Y-109624880D01*
X76042976Y-109624880D01*
X76138214Y-109672500D01*
X76185833Y-109720119D01*
X76233452Y-109815357D01*
X76233452Y-109910595D01*
X76185833Y-110053452D01*
X75614404Y-110624880D01*
X76233452Y-110624880D01*
X72281071Y-106449880D02*
X72376309Y-106449880D01*
X72471547Y-106497500D01*
X72519166Y-106545119D01*
X72566785Y-106640357D01*
X72614404Y-106830833D01*
X72614404Y-107068928D01*
X72566785Y-107259404D01*
X72519166Y-107354642D01*
X72471547Y-107402261D01*
X72376309Y-107449880D01*
X72281071Y-107449880D01*
X72185833Y-107402261D01*
X72138214Y-107354642D01*
X72090595Y-107259404D01*
X72042976Y-107068928D01*
X72042976Y-106830833D01*
X72090595Y-106640357D01*
X72138214Y-106545119D01*
X72185833Y-106497500D01*
X72281071Y-106449880D01*
X72947738Y-106449880D02*
X73566785Y-106449880D01*
X73233452Y-106830833D01*
X73376309Y-106830833D01*
X73471547Y-106878452D01*
X73519166Y-106926071D01*
X73566785Y-107021309D01*
X73566785Y-107259404D01*
X73519166Y-107354642D01*
X73471547Y-107402261D01*
X73376309Y-107449880D01*
X73090595Y-107449880D01*
X72995357Y-107402261D01*
X72947738Y-107354642D01*
X74947738Y-106449880D02*
X75042976Y-106449880D01*
X75138214Y-106497500D01*
X75185833Y-106545119D01*
X75233452Y-106640357D01*
X75281071Y-106830833D01*
X75281071Y-107068928D01*
X75233452Y-107259404D01*
X75185833Y-107354642D01*
X75138214Y-107402261D01*
X75042976Y-107449880D01*
X74947738Y-107449880D01*
X74852500Y-107402261D01*
X74804880Y-107354642D01*
X74757261Y-107259404D01*
X74709642Y-107068928D01*
X74709642Y-106830833D01*
X74757261Y-106640357D01*
X74804880Y-106545119D01*
X74852500Y-106497500D01*
X74947738Y-106449880D01*
X76138214Y-106783214D02*
X76138214Y-107449880D01*
X75900119Y-106402261D02*
X75662023Y-107116547D01*
X76281071Y-107116547D01*
X72281071Y-103592380D02*
X72376309Y-103592380D01*
X72471547Y-103640000D01*
X72519166Y-103687619D01*
X72566785Y-103782857D01*
X72614404Y-103973333D01*
X72614404Y-104211428D01*
X72566785Y-104401904D01*
X72519166Y-104497142D01*
X72471547Y-104544761D01*
X72376309Y-104592380D01*
X72281071Y-104592380D01*
X72185833Y-104544761D01*
X72138214Y-104497142D01*
X72090595Y-104401904D01*
X72042976Y-104211428D01*
X72042976Y-103973333D01*
X72090595Y-103782857D01*
X72138214Y-103687619D01*
X72185833Y-103640000D01*
X72281071Y-103592380D01*
X73519166Y-103592380D02*
X73042976Y-103592380D01*
X72995357Y-104068571D01*
X73042976Y-104020952D01*
X73138214Y-103973333D01*
X73376309Y-103973333D01*
X73471547Y-104020952D01*
X73519166Y-104068571D01*
X73566785Y-104163809D01*
X73566785Y-104401904D01*
X73519166Y-104497142D01*
X73471547Y-104544761D01*
X73376309Y-104592380D01*
X73138214Y-104592380D01*
X73042976Y-104544761D01*
X72995357Y-104497142D01*
X74947738Y-103592380D02*
X75042976Y-103592380D01*
X75138214Y-103640000D01*
X75185833Y-103687619D01*
X75233452Y-103782857D01*
X75281071Y-103973333D01*
X75281071Y-104211428D01*
X75233452Y-104401904D01*
X75185833Y-104497142D01*
X75138214Y-104544761D01*
X75042976Y-104592380D01*
X74947738Y-104592380D01*
X74852500Y-104544761D01*
X74804880Y-104497142D01*
X74757261Y-104401904D01*
X74709642Y-104211428D01*
X74709642Y-103973333D01*
X74757261Y-103782857D01*
X74804880Y-103687619D01*
X74852500Y-103640000D01*
X74947738Y-103592380D01*
X76138214Y-103592380D02*
X75947738Y-103592380D01*
X75852500Y-103640000D01*
X75804880Y-103687619D01*
X75709642Y-103830476D01*
X75662023Y-104020952D01*
X75662023Y-104401904D01*
X75709642Y-104497142D01*
X75757261Y-104544761D01*
X75852500Y-104592380D01*
X76042976Y-104592380D01*
X76138214Y-104544761D01*
X76185833Y-104497142D01*
X76233452Y-104401904D01*
X76233452Y-104163809D01*
X76185833Y-104068571D01*
X76138214Y-104020952D01*
X76042976Y-103973333D01*
X75852500Y-103973333D01*
X75757261Y-104020952D01*
X75709642Y-104068571D01*
X75662023Y-104163809D01*
X72281071Y-100734880D02*
X72376309Y-100734880D01*
X72471547Y-100782500D01*
X72519166Y-100830119D01*
X72566785Y-100925357D01*
X72614404Y-101115833D01*
X72614404Y-101353928D01*
X72566785Y-101544404D01*
X72519166Y-101639642D01*
X72471547Y-101687261D01*
X72376309Y-101734880D01*
X72281071Y-101734880D01*
X72185833Y-101687261D01*
X72138214Y-101639642D01*
X72090595Y-101544404D01*
X72042976Y-101353928D01*
X72042976Y-101115833D01*
X72090595Y-100925357D01*
X72138214Y-100830119D01*
X72185833Y-100782500D01*
X72281071Y-100734880D01*
X72947738Y-100734880D02*
X73614404Y-100734880D01*
X73185833Y-101734880D01*
X74947738Y-100734880D02*
X75042976Y-100734880D01*
X75138214Y-100782500D01*
X75185833Y-100830119D01*
X75233452Y-100925357D01*
X75281071Y-101115833D01*
X75281071Y-101353928D01*
X75233452Y-101544404D01*
X75185833Y-101639642D01*
X75138214Y-101687261D01*
X75042976Y-101734880D01*
X74947738Y-101734880D01*
X74852500Y-101687261D01*
X74804880Y-101639642D01*
X74757261Y-101544404D01*
X74709642Y-101353928D01*
X74709642Y-101115833D01*
X74757261Y-100925357D01*
X74804880Y-100830119D01*
X74852500Y-100782500D01*
X74947738Y-100734880D01*
X75852500Y-101163452D02*
X75757261Y-101115833D01*
X75709642Y-101068214D01*
X75662023Y-100972976D01*
X75662023Y-100925357D01*
X75709642Y-100830119D01*
X75757261Y-100782500D01*
X75852500Y-100734880D01*
X76042976Y-100734880D01*
X76138214Y-100782500D01*
X76185833Y-100830119D01*
X76233452Y-100925357D01*
X76233452Y-100972976D01*
X76185833Y-101068214D01*
X76138214Y-101115833D01*
X76042976Y-101163452D01*
X75852500Y-101163452D01*
X75757261Y-101211071D01*
X75709642Y-101258690D01*
X75662023Y-101353928D01*
X75662023Y-101544404D01*
X75709642Y-101639642D01*
X75757261Y-101687261D01*
X75852500Y-101734880D01*
X76042976Y-101734880D01*
X76138214Y-101687261D01*
X76185833Y-101639642D01*
X76233452Y-101544404D01*
X76233452Y-101353928D01*
X76185833Y-101258690D01*
X76138214Y-101211071D01*
X76042976Y-101163452D01*
X72281071Y-97559880D02*
X72376309Y-97559880D01*
X72471547Y-97607500D01*
X72519166Y-97655119D01*
X72566785Y-97750357D01*
X72614404Y-97940833D01*
X72614404Y-98178928D01*
X72566785Y-98369404D01*
X72519166Y-98464642D01*
X72471547Y-98512261D01*
X72376309Y-98559880D01*
X72281071Y-98559880D01*
X72185833Y-98512261D01*
X72138214Y-98464642D01*
X72090595Y-98369404D01*
X72042976Y-98178928D01*
X72042976Y-97940833D01*
X72090595Y-97750357D01*
X72138214Y-97655119D01*
X72185833Y-97607500D01*
X72281071Y-97559880D01*
X73090595Y-98559880D02*
X73281071Y-98559880D01*
X73376309Y-98512261D01*
X73423928Y-98464642D01*
X73519166Y-98321785D01*
X73566785Y-98131309D01*
X73566785Y-97750357D01*
X73519166Y-97655119D01*
X73471547Y-97607500D01*
X73376309Y-97559880D01*
X73185833Y-97559880D01*
X73090595Y-97607500D01*
X73042976Y-97655119D01*
X72995357Y-97750357D01*
X72995357Y-97988452D01*
X73042976Y-98083690D01*
X73090595Y-98131309D01*
X73185833Y-98178928D01*
X73376309Y-98178928D01*
X73471547Y-98131309D01*
X73519166Y-98083690D01*
X73566785Y-97988452D01*
X75281071Y-98559880D02*
X74709642Y-98559880D01*
X74995357Y-98559880D02*
X74995357Y-97559880D01*
X74900119Y-97702738D01*
X74804880Y-97797976D01*
X74709642Y-97845595D01*
X75900119Y-97559880D02*
X75995357Y-97559880D01*
X76090595Y-97607500D01*
X76138214Y-97655119D01*
X76185833Y-97750357D01*
X76233452Y-97940833D01*
X76233452Y-98178928D01*
X76185833Y-98369404D01*
X76138214Y-98464642D01*
X76090595Y-98512261D01*
X75995357Y-98559880D01*
X75900119Y-98559880D01*
X75804880Y-98512261D01*
X75757261Y-98464642D01*
X75709642Y-98369404D01*
X75662023Y-98178928D01*
X75662023Y-97940833D01*
X75709642Y-97750357D01*
X75757261Y-97655119D01*
X75804880Y-97607500D01*
X75900119Y-97559880D01*
X72614404Y-95702380D02*
X72042976Y-95702380D01*
X72328690Y-95702380D02*
X72328690Y-94702380D01*
X72233452Y-94845238D01*
X72138214Y-94940476D01*
X72042976Y-94988095D01*
X73566785Y-95702380D02*
X72995357Y-95702380D01*
X73281071Y-95702380D02*
X73281071Y-94702380D01*
X73185833Y-94845238D01*
X73090595Y-94940476D01*
X72995357Y-94988095D01*
X75281071Y-95702380D02*
X74709642Y-95702380D01*
X74995357Y-95702380D02*
X74995357Y-94702380D01*
X74900119Y-94845238D01*
X74804880Y-94940476D01*
X74709642Y-94988095D01*
X75662023Y-94797619D02*
X75709642Y-94750000D01*
X75804880Y-94702380D01*
X76042976Y-94702380D01*
X76138214Y-94750000D01*
X76185833Y-94797619D01*
X76233452Y-94892857D01*
X76233452Y-94988095D01*
X76185833Y-95130952D01*
X75614404Y-95702380D01*
X76233452Y-95702380D01*
X72614404Y-92527380D02*
X72042976Y-92527380D01*
X72328690Y-92527380D02*
X72328690Y-91527380D01*
X72233452Y-91670238D01*
X72138214Y-91765476D01*
X72042976Y-91813095D01*
X72947738Y-91527380D02*
X73566785Y-91527380D01*
X73233452Y-91908333D01*
X73376309Y-91908333D01*
X73471547Y-91955952D01*
X73519166Y-92003571D01*
X73566785Y-92098809D01*
X73566785Y-92336904D01*
X73519166Y-92432142D01*
X73471547Y-92479761D01*
X73376309Y-92527380D01*
X73090595Y-92527380D01*
X72995357Y-92479761D01*
X72947738Y-92432142D01*
X75281071Y-92527380D02*
X74709642Y-92527380D01*
X74995357Y-92527380D02*
X74995357Y-91527380D01*
X74900119Y-91670238D01*
X74804880Y-91765476D01*
X74709642Y-91813095D01*
X76138214Y-91860714D02*
X76138214Y-92527380D01*
X75900119Y-91479761D02*
X75662023Y-92194047D01*
X76281071Y-92194047D01*
X72614404Y-89669880D02*
X72042976Y-89669880D01*
X72328690Y-89669880D02*
X72328690Y-88669880D01*
X72233452Y-88812738D01*
X72138214Y-88907976D01*
X72042976Y-88955595D01*
X73519166Y-88669880D02*
X73042976Y-88669880D01*
X72995357Y-89146071D01*
X73042976Y-89098452D01*
X73138214Y-89050833D01*
X73376309Y-89050833D01*
X73471547Y-89098452D01*
X73519166Y-89146071D01*
X73566785Y-89241309D01*
X73566785Y-89479404D01*
X73519166Y-89574642D01*
X73471547Y-89622261D01*
X73376309Y-89669880D01*
X73138214Y-89669880D01*
X73042976Y-89622261D01*
X72995357Y-89574642D01*
X75281071Y-89669880D02*
X74709642Y-89669880D01*
X74995357Y-89669880D02*
X74995357Y-88669880D01*
X74900119Y-88812738D01*
X74804880Y-88907976D01*
X74709642Y-88955595D01*
X76138214Y-88669880D02*
X75947738Y-88669880D01*
X75852500Y-88717500D01*
X75804880Y-88765119D01*
X75709642Y-88907976D01*
X75662023Y-89098452D01*
X75662023Y-89479404D01*
X75709642Y-89574642D01*
X75757261Y-89622261D01*
X75852500Y-89669880D01*
X76042976Y-89669880D01*
X76138214Y-89622261D01*
X76185833Y-89574642D01*
X76233452Y-89479404D01*
X76233452Y-89241309D01*
X76185833Y-89146071D01*
X76138214Y-89098452D01*
X76042976Y-89050833D01*
X75852500Y-89050833D01*
X75757261Y-89098452D01*
X75709642Y-89146071D01*
X75662023Y-89241309D01*
X72614404Y-86494880D02*
X72042976Y-86494880D01*
X72328690Y-86494880D02*
X72328690Y-85494880D01*
X72233452Y-85637738D01*
X72138214Y-85732976D01*
X72042976Y-85780595D01*
X72947738Y-85494880D02*
X73614404Y-85494880D01*
X73185833Y-86494880D01*
X75281071Y-86494880D02*
X74709642Y-86494880D01*
X74995357Y-86494880D02*
X74995357Y-85494880D01*
X74900119Y-85637738D01*
X74804880Y-85732976D01*
X74709642Y-85780595D01*
X75852500Y-85923452D02*
X75757261Y-85875833D01*
X75709642Y-85828214D01*
X75662023Y-85732976D01*
X75662023Y-85685357D01*
X75709642Y-85590119D01*
X75757261Y-85542500D01*
X75852500Y-85494880D01*
X76042976Y-85494880D01*
X76138214Y-85542500D01*
X76185833Y-85590119D01*
X76233452Y-85685357D01*
X76233452Y-85732976D01*
X76185833Y-85828214D01*
X76138214Y-85875833D01*
X76042976Y-85923452D01*
X75852500Y-85923452D01*
X75757261Y-85971071D01*
X75709642Y-86018690D01*
X75662023Y-86113928D01*
X75662023Y-86304404D01*
X75709642Y-86399642D01*
X75757261Y-86447261D01*
X75852500Y-86494880D01*
X76042976Y-86494880D01*
X76138214Y-86447261D01*
X76185833Y-86399642D01*
X76233452Y-86304404D01*
X76233452Y-86113928D01*
X76185833Y-86018690D01*
X76138214Y-85971071D01*
X76042976Y-85923452D01*
X72614404Y-83637380D02*
X72042976Y-83637380D01*
X72328690Y-83637380D02*
X72328690Y-82637380D01*
X72233452Y-82780238D01*
X72138214Y-82875476D01*
X72042976Y-82923095D01*
X73090595Y-83637380D02*
X73281071Y-83637380D01*
X73376309Y-83589761D01*
X73423928Y-83542142D01*
X73519166Y-83399285D01*
X73566785Y-83208809D01*
X73566785Y-82827857D01*
X73519166Y-82732619D01*
X73471547Y-82685000D01*
X73376309Y-82637380D01*
X73185833Y-82637380D01*
X73090595Y-82685000D01*
X73042976Y-82732619D01*
X72995357Y-82827857D01*
X72995357Y-83065952D01*
X73042976Y-83161190D01*
X73090595Y-83208809D01*
X73185833Y-83256428D01*
X73376309Y-83256428D01*
X73471547Y-83208809D01*
X73519166Y-83161190D01*
X73566785Y-83065952D01*
X74709642Y-82732619D02*
X74757261Y-82685000D01*
X74852500Y-82637380D01*
X75090595Y-82637380D01*
X75185833Y-82685000D01*
X75233452Y-82732619D01*
X75281071Y-82827857D01*
X75281071Y-82923095D01*
X75233452Y-83065952D01*
X74662023Y-83637380D01*
X75281071Y-83637380D01*
X75900119Y-82637380D02*
X75995357Y-82637380D01*
X76090595Y-82685000D01*
X76138214Y-82732619D01*
X76185833Y-82827857D01*
X76233452Y-83018333D01*
X76233452Y-83256428D01*
X76185833Y-83446904D01*
X76138214Y-83542142D01*
X76090595Y-83589761D01*
X75995357Y-83637380D01*
X75900119Y-83637380D01*
X75804880Y-83589761D01*
X75757261Y-83542142D01*
X75709642Y-83446904D01*
X75662023Y-83256428D01*
X75662023Y-83018333D01*
X75709642Y-82827857D01*
X75757261Y-82732619D01*
X75804880Y-82685000D01*
X75900119Y-82637380D01*
X78874880Y-103988452D02*
X77874880Y-103988452D01*
X78589166Y-103655119D01*
X77874880Y-103321785D01*
X78874880Y-103321785D01*
X78589166Y-102893214D02*
X78589166Y-102417023D01*
X78874880Y-102988452D02*
X77874880Y-102655119D01*
X78874880Y-102321785D01*
X78874880Y-101988452D02*
X77874880Y-101988452D01*
X78874880Y-101512261D02*
X77874880Y-101512261D01*
X78874880Y-100940833D01*
X77874880Y-100940833D01*
X78351071Y-99369404D02*
X78398690Y-99226547D01*
X78446309Y-99178928D01*
X78541547Y-99131309D01*
X78684404Y-99131309D01*
X78779642Y-99178928D01*
X78827261Y-99226547D01*
X78874880Y-99321785D01*
X78874880Y-99702738D01*
X77874880Y-99702738D01*
X77874880Y-99369404D01*
X77922500Y-99274166D01*
X77970119Y-99226547D01*
X78065357Y-99178928D01*
X78160595Y-99178928D01*
X78255833Y-99226547D01*
X78303452Y-99274166D01*
X78351071Y-99369404D01*
X78351071Y-99702738D01*
X78589166Y-98750357D02*
X78589166Y-98274166D01*
X78874880Y-98845595D02*
X77874880Y-98512261D01*
X78874880Y-98178928D01*
X77874880Y-97988452D02*
X77874880Y-97417023D01*
X78874880Y-97702738D02*
X77874880Y-97702738D01*
X77874880Y-97226547D02*
X77874880Y-96655119D01*
X78874880Y-96940833D02*
X77874880Y-96940833D01*
X78874880Y-95559880D02*
X77874880Y-95559880D01*
X77874880Y-95178928D01*
X77922500Y-95083690D01*
X77970119Y-95036071D01*
X78065357Y-94988452D01*
X78208214Y-94988452D01*
X78303452Y-95036071D01*
X78351071Y-95083690D01*
X78398690Y-95178928D01*
X78398690Y-95559880D01*
X77874880Y-94369404D02*
X77874880Y-94178928D01*
X77922500Y-94083690D01*
X78017738Y-93988452D01*
X78208214Y-93940833D01*
X78541547Y-93940833D01*
X78732023Y-93988452D01*
X78827261Y-94083690D01*
X78874880Y-94178928D01*
X78874880Y-94369404D01*
X78827261Y-94464642D01*
X78732023Y-94559880D01*
X78541547Y-94607500D01*
X78208214Y-94607500D01*
X78017738Y-94559880D01*
X77922500Y-94464642D01*
X77874880Y-94369404D01*
X78874880Y-92940833D02*
X78398690Y-93274166D01*
X78874880Y-93512261D02*
X77874880Y-93512261D01*
X77874880Y-93131309D01*
X77922500Y-93036071D01*
X77970119Y-92988452D01*
X78065357Y-92940833D01*
X78208214Y-92940833D01*
X78303452Y-92988452D01*
X78351071Y-93036071D01*
X78398690Y-93131309D01*
X78398690Y-93512261D01*
X77874880Y-92655119D02*
X77874880Y-92083690D01*
X78874880Y-92369404D02*
X77874880Y-92369404D01*
X205896785Y-140152500D02*
X205801547Y-140104880D01*
X205658690Y-140104880D01*
X205515833Y-140152500D01*
X205420595Y-140247738D01*
X205372976Y-140342976D01*
X205325357Y-140533452D01*
X205325357Y-140676309D01*
X205372976Y-140866785D01*
X205420595Y-140962023D01*
X205515833Y-141057261D01*
X205658690Y-141104880D01*
X205753928Y-141104880D01*
X205896785Y-141057261D01*
X205944404Y-141009642D01*
X205944404Y-140676309D01*
X205753928Y-140676309D01*
X206372976Y-141104880D02*
X206372976Y-140104880D01*
X206944404Y-141104880D01*
X206944404Y-140104880D01*
X207420595Y-141104880D02*
X207420595Y-140104880D01*
X207658690Y-140104880D01*
X207801547Y-140152500D01*
X207896785Y-140247738D01*
X207944404Y-140342976D01*
X207992023Y-140533452D01*
X207992023Y-140676309D01*
X207944404Y-140866785D01*
X207896785Y-140962023D01*
X207801547Y-141057261D01*
X207658690Y-141104880D01*
X207420595Y-141104880D01*
X214187738Y-140104880D02*
X214521071Y-141104880D01*
X214854404Y-140104880D01*
X215187738Y-141104880D02*
X215187738Y-140104880D01*
X215425833Y-140104880D01*
X215568690Y-140152500D01*
X215663928Y-140247738D01*
X215711547Y-140342976D01*
X215759166Y-140533452D01*
X215759166Y-140676309D01*
X215711547Y-140866785D01*
X215663928Y-140962023D01*
X215568690Y-141057261D01*
X215425833Y-141104880D01*
X215187738Y-141104880D01*
X216187738Y-141104880D02*
X216187738Y-140104880D01*
X216425833Y-140104880D01*
X216568690Y-140152500D01*
X216663928Y-140247738D01*
X216711547Y-140342976D01*
X216759166Y-140533452D01*
X216759166Y-140676309D01*
X216711547Y-140866785D01*
X216663928Y-140962023D01*
X216568690Y-141057261D01*
X216425833Y-141104880D01*
X216187738Y-141104880D01*
X211717023Y-140104880D02*
X212288452Y-140104880D01*
X212002738Y-141104880D02*
X212002738Y-140104880D01*
X212526547Y-141104880D02*
X213050357Y-140438214D01*
X212526547Y-140438214D02*
X213050357Y-141104880D01*
X209772261Y-141104880D02*
X209438928Y-140628690D01*
X209200833Y-141104880D02*
X209200833Y-140104880D01*
X209581785Y-140104880D01*
X209677023Y-140152500D01*
X209724642Y-140200119D01*
X209772261Y-140295357D01*
X209772261Y-140438214D01*
X209724642Y-140533452D01*
X209677023Y-140581071D01*
X209581785Y-140628690D01*
X209200833Y-140628690D01*
X210105595Y-141104880D02*
X210629404Y-140438214D01*
X210105595Y-140438214D02*
X210629404Y-141104880D01*
X74692142Y-124626666D02*
X75168333Y-124626666D01*
X74596904Y-124912380D02*
X74930238Y-123912380D01*
X75263571Y-124912380D01*
X76073095Y-124912380D02*
X75596904Y-124912380D01*
X75596904Y-123912380D01*
X76358809Y-124626666D02*
X76835000Y-124626666D01*
X76263571Y-124912380D02*
X76596904Y-123912380D01*
X76930238Y-124912380D01*
X77835000Y-124912380D02*
X77501666Y-124436190D01*
X77263571Y-124912380D02*
X77263571Y-123912380D01*
X77644523Y-123912380D01*
X77739761Y-123960000D01*
X77787380Y-124007619D01*
X77835000Y-124102857D01*
X77835000Y-124245714D01*
X77787380Y-124340952D01*
X77739761Y-124388571D01*
X77644523Y-124436190D01*
X77263571Y-124436190D01*
X78263571Y-124912380D02*
X78263571Y-123912380D01*
X78596904Y-124626666D01*
X78930238Y-123912380D01*
X78930238Y-124912380D01*
D13*
X80705476Y-119056452D02*
X83318047Y-120798166D01*
X80705476Y-116927690D02*
X83318047Y-118669404D01*
X82640714Y-113541023D02*
X82737476Y-113637785D01*
X82834238Y-113928071D01*
X82834238Y-114121595D01*
X82737476Y-114411880D01*
X82543952Y-114605404D01*
X82350428Y-114702166D01*
X81963380Y-114798928D01*
X81673095Y-114798928D01*
X81286047Y-114702166D01*
X81092523Y-114605404D01*
X80899000Y-114411880D01*
X80802238Y-114121595D01*
X80802238Y-113928071D01*
X80899000Y-113637785D01*
X80995761Y-113541023D01*
X82253666Y-112766928D02*
X82253666Y-111799309D01*
X82834238Y-112960452D02*
X80802238Y-112283119D01*
X82834238Y-111605785D01*
X80802238Y-110928452D02*
X82447190Y-110928452D01*
X82640714Y-110831690D01*
X82737476Y-110734928D01*
X82834238Y-110541404D01*
X82834238Y-110154357D01*
X82737476Y-109960833D01*
X82640714Y-109864071D01*
X82447190Y-109767309D01*
X80802238Y-109767309D01*
X80802238Y-109089976D02*
X80802238Y-107928833D01*
X82834238Y-108509404D02*
X80802238Y-108509404D01*
X82834238Y-107251500D02*
X80802238Y-107251500D01*
X80802238Y-105896833D02*
X80802238Y-105509785D01*
X80899000Y-105316261D01*
X81092523Y-105122738D01*
X81479571Y-105025976D01*
X82156904Y-105025976D01*
X82543952Y-105122738D01*
X82737476Y-105316261D01*
X82834238Y-105509785D01*
X82834238Y-105896833D01*
X82737476Y-106090357D01*
X82543952Y-106283880D01*
X82156904Y-106380642D01*
X81479571Y-106380642D01*
X81092523Y-106283880D01*
X80899000Y-106090357D01*
X80802238Y-105896833D01*
X82834238Y-104155119D02*
X80802238Y-104155119D01*
X82834238Y-102993976D01*
X80802238Y-102993976D01*
X82834238Y-100478166D02*
X80802238Y-100478166D01*
X81769857Y-100478166D02*
X81769857Y-99317023D01*
X82834238Y-99317023D02*
X80802238Y-99317023D01*
X82834238Y-98349404D02*
X80802238Y-98349404D01*
X80899000Y-96317404D02*
X80802238Y-96510928D01*
X80802238Y-96801214D01*
X80899000Y-97091500D01*
X81092523Y-97285023D01*
X81286047Y-97381785D01*
X81673095Y-97478547D01*
X81963380Y-97478547D01*
X82350428Y-97381785D01*
X82543952Y-97285023D01*
X82737476Y-97091500D01*
X82834238Y-96801214D01*
X82834238Y-96607690D01*
X82737476Y-96317404D01*
X82640714Y-96220642D01*
X81963380Y-96220642D01*
X81963380Y-96607690D01*
X82834238Y-95349785D02*
X80802238Y-95349785D01*
X81769857Y-95349785D02*
X81769857Y-94188642D01*
X82834238Y-94188642D02*
X80802238Y-94188642D01*
X80802238Y-91963119D02*
X82834238Y-91285785D01*
X80802238Y-90608452D01*
X80802238Y-89544071D02*
X80802238Y-89157023D01*
X80899000Y-88963500D01*
X81092523Y-88769976D01*
X81479571Y-88673214D01*
X82156904Y-88673214D01*
X82543952Y-88769976D01*
X82737476Y-88963500D01*
X82834238Y-89157023D01*
X82834238Y-89544071D01*
X82737476Y-89737595D01*
X82543952Y-89931119D01*
X82156904Y-90027880D01*
X81479571Y-90027880D01*
X81092523Y-89931119D01*
X80899000Y-89737595D01*
X80802238Y-89544071D01*
X82834238Y-86834738D02*
X82834238Y-87802357D01*
X80802238Y-87802357D01*
X80802238Y-86447690D02*
X80802238Y-85286547D01*
X82834238Y-85867119D02*
X80802238Y-85867119D01*
X82253666Y-84705976D02*
X82253666Y-83738357D01*
X82834238Y-84899500D02*
X80802238Y-84222166D01*
X82834238Y-83544833D01*
X80899000Y-81803119D02*
X80802238Y-81996642D01*
X80802238Y-82286928D01*
X80899000Y-82577214D01*
X81092523Y-82770738D01*
X81286047Y-82867500D01*
X81673095Y-82964261D01*
X81963380Y-82964261D01*
X82350428Y-82867500D01*
X82543952Y-82770738D01*
X82737476Y-82577214D01*
X82834238Y-82286928D01*
X82834238Y-82093404D01*
X82737476Y-81803119D01*
X82640714Y-81706357D01*
X81963380Y-81706357D01*
X81963380Y-82093404D01*
X81769857Y-80835500D02*
X81769857Y-80158166D01*
X82834238Y-79867880D02*
X82834238Y-80835500D01*
X80802238Y-80835500D01*
X80802238Y-79867880D01*
X80608714Y-78126166D02*
X83221285Y-76384452D01*
X80608714Y-76771500D02*
X83221285Y-75029785D01*
D14*
X209752595Y-67660761D02*
X209752595Y-69692761D01*
X208978500Y-69692761D01*
X208784976Y-69596000D01*
X208688214Y-69499238D01*
X208591452Y-69305714D01*
X208591452Y-69015428D01*
X208688214Y-68821904D01*
X208784976Y-68725142D01*
X208978500Y-68628380D01*
X209752595Y-68628380D01*
X207720595Y-68434857D02*
X206172404Y-68434857D01*
X206946500Y-67660761D02*
X206946500Y-69208952D01*
X195891452Y-67854285D02*
X195988214Y-67757523D01*
X196278500Y-67660761D01*
X196472023Y-67660761D01*
X196762309Y-67757523D01*
X196955833Y-67951047D01*
X197052595Y-68144571D01*
X197149357Y-68531619D01*
X197149357Y-68821904D01*
X197052595Y-69208952D01*
X196955833Y-69402476D01*
X196762309Y-69596000D01*
X196472023Y-69692761D01*
X196278500Y-69692761D01*
X195988214Y-69596000D01*
X195891452Y-69499238D01*
X195020595Y-68434857D02*
X193472404Y-68434857D01*
X194246500Y-67660761D02*
X194246500Y-69208952D01*
X183675261Y-68725142D02*
X183384976Y-68628380D01*
X183288214Y-68531619D01*
X183191452Y-68338095D01*
X183191452Y-68047809D01*
X183288214Y-67854285D01*
X183384976Y-67757523D01*
X183578500Y-67660761D01*
X184352595Y-67660761D01*
X184352595Y-69692761D01*
X183675261Y-69692761D01*
X183481738Y-69596000D01*
X183384976Y-69499238D01*
X183288214Y-69305714D01*
X183288214Y-69112190D01*
X183384976Y-68918666D01*
X183481738Y-68821904D01*
X183675261Y-68725142D01*
X184352595Y-68725142D01*
X182320595Y-68434857D02*
X180772404Y-68434857D01*
X181546500Y-67660761D02*
X181546500Y-69208952D01*
D10*
X194222857Y-107767380D02*
X194222857Y-106767380D01*
X194556190Y-107481666D01*
X194889523Y-106767380D01*
X194889523Y-107767380D01*
X195937142Y-107672142D02*
X195889523Y-107719761D01*
X195746666Y-107767380D01*
X195651428Y-107767380D01*
X195508571Y-107719761D01*
X195413333Y-107624523D01*
X195365714Y-107529285D01*
X195318095Y-107338809D01*
X195318095Y-107195952D01*
X195365714Y-107005476D01*
X195413333Y-106910238D01*
X195508571Y-106815000D01*
X195651428Y-106767380D01*
X195746666Y-106767380D01*
X195889523Y-106815000D01*
X195937142Y-106862619D01*
X196365714Y-106767380D02*
X196365714Y-107576904D01*
X196413333Y-107672142D01*
X196460952Y-107719761D01*
X196556190Y-107767380D01*
X196746666Y-107767380D01*
X196841904Y-107719761D01*
X196889523Y-107672142D01*
X196937142Y-107576904D01*
X196937142Y-106767380D01*
X179847976Y-91686071D02*
X179514642Y-91686071D01*
X179514642Y-92209880D02*
X179514642Y-91209880D01*
X179990833Y-91209880D01*
X180324166Y-91924166D02*
X180800357Y-91924166D01*
X180228928Y-92209880D02*
X180562261Y-91209880D01*
X180895595Y-92209880D01*
X181228928Y-92209880D02*
X181228928Y-91209880D01*
X181800357Y-92209880D01*
X181800357Y-91209880D01*
D15*
G36*
X177425565Y-70776048D02*
G01*
X177464390Y-70839569D01*
X177525778Y-70942324D01*
X177608335Y-71081920D01*
X177710666Y-71255963D01*
X177831374Y-71462061D01*
X177969065Y-71697821D01*
X178122342Y-71960850D01*
X178289811Y-72248754D01*
X178470075Y-72559141D01*
X178661740Y-72889618D01*
X178863409Y-73237791D01*
X179073688Y-73601268D01*
X179291181Y-73977655D01*
X179362100Y-74100478D01*
X179581508Y-74480393D01*
X179794050Y-74848125D01*
X179998335Y-75201285D01*
X180192976Y-75537484D01*
X180376583Y-75854334D01*
X180547769Y-76149445D01*
X180705143Y-76420428D01*
X180847318Y-76664895D01*
X180972904Y-76880455D01*
X181080514Y-77064721D01*
X181168758Y-77215302D01*
X181236248Y-77329811D01*
X181281595Y-77405857D01*
X181303411Y-77441053D01*
X181305200Y-77443297D01*
X181319579Y-77421659D01*
X181357270Y-77359342D01*
X181416300Y-77259729D01*
X181494700Y-77126203D01*
X181590499Y-76962147D01*
X181701724Y-76770944D01*
X181826407Y-76555977D01*
X181962575Y-76320629D01*
X182108257Y-76068283D01*
X182261484Y-75802322D01*
X182283100Y-75764760D01*
X182437340Y-75496926D01*
X182584383Y-75242035D01*
X182722249Y-75003494D01*
X182848955Y-74784711D01*
X182962521Y-74589093D01*
X183060966Y-74420047D01*
X183142307Y-74280979D01*
X183204565Y-74175297D01*
X183245758Y-74106408D01*
X183263904Y-74077718D01*
X183264473Y-74077115D01*
X183278022Y-74098072D01*
X183315668Y-74160802D01*
X183376122Y-74263076D01*
X183458095Y-74402665D01*
X183560296Y-74577340D01*
X183681436Y-74784872D01*
X183820226Y-75023034D01*
X183975375Y-75289595D01*
X184145594Y-75582327D01*
X184329593Y-75899002D01*
X184526083Y-76237390D01*
X184733774Y-76595263D01*
X184951376Y-76970392D01*
X185177599Y-77360548D01*
X185411155Y-77763503D01*
X185650752Y-78177027D01*
X185895102Y-78598893D01*
X186142915Y-79026870D01*
X186392901Y-79458731D01*
X186643770Y-79892246D01*
X186894233Y-80325188D01*
X187143000Y-80755326D01*
X187388781Y-81180432D01*
X187630287Y-81598278D01*
X187866228Y-82006635D01*
X188095315Y-82403274D01*
X188316257Y-82785966D01*
X188527765Y-83152482D01*
X188728549Y-83500593D01*
X188917319Y-83828072D01*
X189092787Y-84132688D01*
X189253662Y-84412214D01*
X189398654Y-84664420D01*
X189526475Y-84887078D01*
X189635833Y-85077959D01*
X189725440Y-85234834D01*
X189794006Y-85355475D01*
X189840240Y-85437652D01*
X189862855Y-85479136D01*
X189865000Y-85483871D01*
X189839951Y-85484964D01*
X189766214Y-85486031D01*
X189645897Y-85487069D01*
X189481112Y-85488073D01*
X189273969Y-85489040D01*
X189026579Y-85489966D01*
X188741052Y-85490846D01*
X188419499Y-85491676D01*
X188064031Y-85492453D01*
X187676757Y-85493172D01*
X187259788Y-85493830D01*
X186815236Y-85494422D01*
X186345210Y-85494945D01*
X185851821Y-85495394D01*
X185337180Y-85495766D01*
X184803397Y-85496056D01*
X184252583Y-85496260D01*
X183686848Y-85496375D01*
X183270982Y-85496400D01*
X182581409Y-85496376D01*
X181940875Y-85496299D01*
X181347619Y-85496159D01*
X180799881Y-85495945D01*
X180295898Y-85495647D01*
X179833910Y-85495255D01*
X179412157Y-85494759D01*
X179028877Y-85494149D01*
X178682309Y-85493414D01*
X178370692Y-85492544D01*
X178092266Y-85491529D01*
X177845268Y-85490359D01*
X177627940Y-85489024D01*
X177438518Y-85487514D01*
X177275243Y-85485818D01*
X177136354Y-85483926D01*
X177020088Y-85481829D01*
X176924687Y-85479515D01*
X176848388Y-85476975D01*
X176789430Y-85474199D01*
X176746053Y-85471177D01*
X176716496Y-85467897D01*
X176698997Y-85464351D01*
X176691796Y-85460527D01*
X176691540Y-85458417D01*
X176706333Y-85430714D01*
X176744523Y-85362570D01*
X176804083Y-85257524D01*
X176882987Y-85119115D01*
X176979209Y-84950883D01*
X177090721Y-84756367D01*
X177215497Y-84539106D01*
X177351511Y-84302638D01*
X177496735Y-84050505D01*
X177640407Y-83801381D01*
X177791903Y-83538533D01*
X177935608Y-83288583D01*
X178069552Y-83054999D01*
X178191762Y-82841245D01*
X178300270Y-82650788D01*
X178393105Y-82487094D01*
X178468295Y-82353629D01*
X178523870Y-82253858D01*
X178557860Y-82191248D01*
X178568351Y-82169314D01*
X178542681Y-82167755D01*
X178468971Y-82166086D01*
X178349983Y-82164325D01*
X178188477Y-82162490D01*
X177987214Y-82160599D01*
X177748953Y-82158671D01*
X177476457Y-82156724D01*
X177172484Y-82154777D01*
X176839797Y-82152847D01*
X176481155Y-82150954D01*
X176099320Y-82149115D01*
X175697051Y-82147348D01*
X175277110Y-82145672D01*
X174842257Y-82144106D01*
X174690987Y-82143600D01*
X178611495Y-82143600D01*
X183998627Y-82143600D01*
X183928263Y-82020952D01*
X183733965Y-81682584D01*
X183536660Y-81339552D01*
X183337977Y-80994659D01*
X183139550Y-80650710D01*
X182943010Y-80310509D01*
X182749987Y-79976860D01*
X182562113Y-79652569D01*
X182381021Y-79340438D01*
X182208341Y-79043273D01*
X182045704Y-78763878D01*
X181894743Y-78505056D01*
X181757088Y-78269613D01*
X181634371Y-78060352D01*
X181528224Y-77880078D01*
X181440277Y-77731595D01*
X181372164Y-77617708D01*
X181325513Y-77541220D01*
X181301959Y-77504936D01*
X181299430Y-77502259D01*
X181285187Y-77524268D01*
X181247596Y-77586749D01*
X181188705Y-77686175D01*
X181110558Y-77819018D01*
X181015202Y-77981754D01*
X180904681Y-78170853D01*
X180781041Y-78382790D01*
X180646328Y-78614038D01*
X180502588Y-78861070D01*
X180351865Y-79120359D01*
X180196205Y-79388378D01*
X180037655Y-79661601D01*
X179878258Y-79936500D01*
X179720062Y-80209549D01*
X179565111Y-80477221D01*
X179415451Y-80735988D01*
X179273128Y-80982325D01*
X179140187Y-81212704D01*
X179018673Y-81423598D01*
X178910632Y-81611481D01*
X178818110Y-81772826D01*
X178743152Y-81904106D01*
X178687804Y-82001794D01*
X178654112Y-82062362D01*
X178648017Y-82073750D01*
X178611495Y-82143600D01*
X174690987Y-82143600D01*
X170819972Y-82130900D01*
X174104837Y-76441300D01*
X174392011Y-75944043D01*
X174672637Y-75458416D01*
X174945651Y-74986250D01*
X175209988Y-74529375D01*
X175464583Y-74089623D01*
X175708373Y-73668825D01*
X175940293Y-73268813D01*
X176159278Y-72891416D01*
X176364265Y-72538467D01*
X176554188Y-72211796D01*
X176727983Y-71913235D01*
X176884586Y-71644615D01*
X177022932Y-71407767D01*
X177141957Y-71204522D01*
X177240597Y-71036711D01*
X177317787Y-70906166D01*
X177372462Y-70814717D01*
X177403559Y-70764196D01*
X177410701Y-70754154D01*
X177425565Y-70776048D01*
G37*
X177425565Y-70776048D02*
X177464390Y-70839569D01*
X177525778Y-70942324D01*
X177608335Y-71081920D01*
X177710666Y-71255963D01*
X177831374Y-71462061D01*
X177969065Y-71697821D01*
X178122342Y-71960850D01*
X178289811Y-72248754D01*
X178470075Y-72559141D01*
X178661740Y-72889618D01*
X178863409Y-73237791D01*
X179073688Y-73601268D01*
X179291181Y-73977655D01*
X179362100Y-74100478D01*
X179581508Y-74480393D01*
X179794050Y-74848125D01*
X179998335Y-75201285D01*
X180192976Y-75537484D01*
X180376583Y-75854334D01*
X180547769Y-76149445D01*
X180705143Y-76420428D01*
X180847318Y-76664895D01*
X180972904Y-76880455D01*
X181080514Y-77064721D01*
X181168758Y-77215302D01*
X181236248Y-77329811D01*
X181281595Y-77405857D01*
X181303411Y-77441053D01*
X181305200Y-77443297D01*
X181319579Y-77421659D01*
X181357270Y-77359342D01*
X181416300Y-77259729D01*
X181494700Y-77126203D01*
X181590499Y-76962147D01*
X181701724Y-76770944D01*
X181826407Y-76555977D01*
X181962575Y-76320629D01*
X182108257Y-76068283D01*
X182261484Y-75802322D01*
X182283100Y-75764760D01*
X182437340Y-75496926D01*
X182584383Y-75242035D01*
X182722249Y-75003494D01*
X182848955Y-74784711D01*
X182962521Y-74589093D01*
X183060966Y-74420047D01*
X183142307Y-74280979D01*
X183204565Y-74175297D01*
X183245758Y-74106408D01*
X183263904Y-74077718D01*
X183264473Y-74077115D01*
X183278022Y-74098072D01*
X183315668Y-74160802D01*
X183376122Y-74263076D01*
X183458095Y-74402665D01*
X183560296Y-74577340D01*
X183681436Y-74784872D01*
X183820226Y-75023034D01*
X183975375Y-75289595D01*
X184145594Y-75582327D01*
X184329593Y-75899002D01*
X184526083Y-76237390D01*
X184733774Y-76595263D01*
X184951376Y-76970392D01*
X185177599Y-77360548D01*
X185411155Y-77763503D01*
X185650752Y-78177027D01*
X185895102Y-78598893D01*
X186142915Y-79026870D01*
X186392901Y-79458731D01*
X186643770Y-79892246D01*
X186894233Y-80325188D01*
X187143000Y-80755326D01*
X187388781Y-81180432D01*
X187630287Y-81598278D01*
X187866228Y-82006635D01*
X188095315Y-82403274D01*
X188316257Y-82785966D01*
X188527765Y-83152482D01*
X188728549Y-83500593D01*
X188917319Y-83828072D01*
X189092787Y-84132688D01*
X189253662Y-84412214D01*
X189398654Y-84664420D01*
X189526475Y-84887078D01*
X189635833Y-85077959D01*
X189725440Y-85234834D01*
X189794006Y-85355475D01*
X189840240Y-85437652D01*
X189862855Y-85479136D01*
X189865000Y-85483871D01*
X189839951Y-85484964D01*
X189766214Y-85486031D01*
X189645897Y-85487069D01*
X189481112Y-85488073D01*
X189273969Y-85489040D01*
X189026579Y-85489966D01*
X188741052Y-85490846D01*
X188419499Y-85491676D01*
X188064031Y-85492453D01*
X187676757Y-85493172D01*
X187259788Y-85493830D01*
X186815236Y-85494422D01*
X186345210Y-85494945D01*
X185851821Y-85495394D01*
X185337180Y-85495766D01*
X184803397Y-85496056D01*
X184252583Y-85496260D01*
X183686848Y-85496375D01*
X183270982Y-85496400D01*
X182581409Y-85496376D01*
X181940875Y-85496299D01*
X181347619Y-85496159D01*
X180799881Y-85495945D01*
X180295898Y-85495647D01*
X179833910Y-85495255D01*
X179412157Y-85494759D01*
X179028877Y-85494149D01*
X178682309Y-85493414D01*
X178370692Y-85492544D01*
X178092266Y-85491529D01*
X177845268Y-85490359D01*
X177627940Y-85489024D01*
X177438518Y-85487514D01*
X177275243Y-85485818D01*
X177136354Y-85483926D01*
X177020088Y-85481829D01*
X176924687Y-85479515D01*
X176848388Y-85476975D01*
X176789430Y-85474199D01*
X176746053Y-85471177D01*
X176716496Y-85467897D01*
X176698997Y-85464351D01*
X176691796Y-85460527D01*
X176691540Y-85458417D01*
X176706333Y-85430714D01*
X176744523Y-85362570D01*
X176804083Y-85257524D01*
X176882987Y-85119115D01*
X176979209Y-84950883D01*
X177090721Y-84756367D01*
X177215497Y-84539106D01*
X177351511Y-84302638D01*
X177496735Y-84050505D01*
X177640407Y-83801381D01*
X177791903Y-83538533D01*
X177935608Y-83288583D01*
X178069552Y-83054999D01*
X178191762Y-82841245D01*
X178300270Y-82650788D01*
X178393105Y-82487094D01*
X178468295Y-82353629D01*
X178523870Y-82253858D01*
X178557860Y-82191248D01*
X178568351Y-82169314D01*
X178542681Y-82167755D01*
X178468971Y-82166086D01*
X178349983Y-82164325D01*
X178188477Y-82162490D01*
X177987214Y-82160599D01*
X177748953Y-82158671D01*
X177476457Y-82156724D01*
X177172484Y-82154777D01*
X176839797Y-82152847D01*
X176481155Y-82150954D01*
X176099320Y-82149115D01*
X175697051Y-82147348D01*
X175277110Y-82145672D01*
X174842257Y-82144106D01*
X174690987Y-82143600D01*
X178611495Y-82143600D01*
X183998627Y-82143600D01*
X183928263Y-82020952D01*
X183733965Y-81682584D01*
X183536660Y-81339552D01*
X183337977Y-80994659D01*
X183139550Y-80650710D01*
X182943010Y-80310509D01*
X182749987Y-79976860D01*
X182562113Y-79652569D01*
X182381021Y-79340438D01*
X182208341Y-79043273D01*
X182045704Y-78763878D01*
X181894743Y-78505056D01*
X181757088Y-78269613D01*
X181634371Y-78060352D01*
X181528224Y-77880078D01*
X181440277Y-77731595D01*
X181372164Y-77617708D01*
X181325513Y-77541220D01*
X181301959Y-77504936D01*
X181299430Y-77502259D01*
X181285187Y-77524268D01*
X181247596Y-77586749D01*
X181188705Y-77686175D01*
X181110558Y-77819018D01*
X181015202Y-77981754D01*
X180904681Y-78170853D01*
X180781041Y-78382790D01*
X180646328Y-78614038D01*
X180502588Y-78861070D01*
X180351865Y-79120359D01*
X180196205Y-79388378D01*
X180037655Y-79661601D01*
X179878258Y-79936500D01*
X179720062Y-80209549D01*
X179565111Y-80477221D01*
X179415451Y-80735988D01*
X179273128Y-80982325D01*
X179140187Y-81212704D01*
X179018673Y-81423598D01*
X178910632Y-81611481D01*
X178818110Y-81772826D01*
X178743152Y-81904106D01*
X178687804Y-82001794D01*
X178654112Y-82062362D01*
X178648017Y-82073750D01*
X178611495Y-82143600D01*
X174690987Y-82143600D01*
X170819972Y-82130900D01*
X174104837Y-76441300D01*
X174392011Y-75944043D01*
X174672637Y-75458416D01*
X174945651Y-74986250D01*
X175209988Y-74529375D01*
X175464583Y-74089623D01*
X175708373Y-73668825D01*
X175940293Y-73268813D01*
X176159278Y-72891416D01*
X176364265Y-72538467D01*
X176554188Y-72211796D01*
X176727983Y-71913235D01*
X176884586Y-71644615D01*
X177022932Y-71407767D01*
X177141957Y-71204522D01*
X177240597Y-71036711D01*
X177317787Y-70906166D01*
X177372462Y-70814717D01*
X177403559Y-70764196D01*
X177410701Y-70754154D01*
X177425565Y-70776048D01*
D16*
X153900000Y-132770000D02*
X163600000Y-132770000D01*
X153900000Y-136470000D02*
X153900000Y-132770000D01*
X163600000Y-136470000D02*
X153900000Y-136470000D01*
X163600000Y-132770000D02*
X163600000Y-136470000D01*
X153900000Y-98480000D02*
X163600000Y-98480000D01*
X153900000Y-102180000D02*
X153900000Y-98480000D01*
X163600000Y-102180000D02*
X153900000Y-102180000D01*
X163600000Y-98480000D02*
X163600000Y-102180000D01*
X153900000Y-76255000D02*
X163600000Y-76255000D01*
X153900000Y-79955000D02*
X153900000Y-76255000D01*
X163600000Y-79955000D02*
X153900000Y-79955000D01*
X163600000Y-76255000D02*
X163600000Y-79955000D01*
X179792500Y-134072500D02*
X179792500Y-132822500D01*
X182752500Y-132472500D02*
X179832500Y-132472500D01*
X182752500Y-132322500D02*
X182752500Y-132472500D01*
X179832500Y-132322500D02*
X182752500Y-132322500D01*
X179832500Y-132472500D02*
X179832500Y-132322500D01*
X137812500Y-127277500D02*
X139337500Y-127277500D01*
X139687500Y-132307500D02*
X139687500Y-127407500D01*
X142887500Y-132307500D02*
X139687500Y-132307500D01*
X142887500Y-127407500D02*
X142887500Y-132307500D01*
X139687500Y-127407500D02*
X142887500Y-127407500D01*
X137812500Y-136485000D02*
X139337500Y-136485000D01*
X139687500Y-141515000D02*
X139687500Y-136615000D01*
X142887500Y-141515000D02*
X139687500Y-141515000D01*
X142887500Y-136615000D02*
X142887500Y-141515000D01*
X139687500Y-136615000D02*
X142887500Y-136615000D01*
X137812500Y-120927500D02*
X139337500Y-120927500D01*
X139687500Y-125957500D02*
X139687500Y-121057500D01*
X142887500Y-125957500D02*
X139687500Y-125957500D01*
X142887500Y-121057500D02*
X142887500Y-125957500D01*
X139687500Y-121057500D02*
X142887500Y-121057500D01*
X137812500Y-114577500D02*
X139337500Y-114577500D01*
X139687500Y-119607500D02*
X139687500Y-114707500D01*
X142887500Y-119607500D02*
X139687500Y-119607500D01*
X142887500Y-114707500D02*
X142887500Y-119607500D01*
X139687500Y-114707500D02*
X142887500Y-114707500D01*
X137812500Y-92987500D02*
X139337500Y-92987500D01*
X139687500Y-98017500D02*
X139687500Y-93117500D01*
X142887500Y-98017500D02*
X139687500Y-98017500D01*
X142887500Y-93117500D02*
X142887500Y-98017500D01*
X139687500Y-93117500D02*
X142887500Y-93117500D01*
X137812500Y-102195000D02*
X139337500Y-102195000D01*
X139687500Y-107225000D02*
X139687500Y-102325000D01*
X142887500Y-107225000D02*
X139687500Y-107225000D01*
X142887500Y-102325000D02*
X142887500Y-107225000D01*
X139687500Y-102325000D02*
X142887500Y-102325000D01*
X137812500Y-86637500D02*
X139337500Y-86637500D01*
X139687500Y-91667500D02*
X139687500Y-86767500D01*
X142887500Y-91667500D02*
X139687500Y-91667500D01*
X142887500Y-86767500D02*
X142887500Y-91667500D01*
X139687500Y-86767500D02*
X142887500Y-86767500D01*
X137812500Y-80287500D02*
X139337500Y-80287500D01*
X139687500Y-85317500D02*
X139687500Y-80417500D01*
X142887500Y-85317500D02*
X139687500Y-85317500D01*
X142887500Y-80417500D02*
X142887500Y-85317500D01*
X139687500Y-80417500D02*
X142887500Y-80417500D01*
X137812500Y-59015000D02*
X139337500Y-59015000D01*
X139687500Y-64045000D02*
X139687500Y-59145000D01*
X142887500Y-64045000D02*
X139687500Y-64045000D01*
X142887500Y-59145000D02*
X142887500Y-64045000D01*
X139687500Y-59145000D02*
X142887500Y-59145000D01*
X137812500Y-67905000D02*
X139337500Y-67905000D01*
X139687500Y-72935000D02*
X139687500Y-68035000D01*
X142887500Y-72935000D02*
X139687500Y-72935000D01*
X142887500Y-68035000D02*
X142887500Y-72935000D01*
X139687500Y-68035000D02*
X142887500Y-68035000D01*
X151711269Y-135943731D02*
X152453731Y-135201269D01*
X152082500Y-139907500D02*
X152082500Y-138857500D01*
X152082500Y-141812500D02*
X152082500Y-140762500D01*
X152717500Y-106887500D02*
X152717500Y-105837500D01*
X155782500Y-109220000D02*
X154732500Y-109220000D01*
X151765000Y-81487500D02*
X151765000Y-80437500D01*
X152717500Y-84027500D02*
X152717500Y-82977500D01*
X152771231Y-129803769D02*
X152028769Y-130546231D01*
X153406231Y-127581269D02*
X152663769Y-128323731D01*
X154676231Y-126311269D02*
X153933769Y-127053731D01*
X155311231Y-123136269D02*
X154568769Y-123878731D01*
X152925000Y-96520000D02*
X151875000Y-96520000D01*
X153723731Y-92338769D02*
X152981269Y-93081231D01*
X154993731Y-91068769D02*
X154251269Y-91811231D01*
X152717500Y-71865000D02*
X152717500Y-72915000D01*
X152717500Y-69960000D02*
X152717500Y-71010000D01*
X155147500Y-67627500D02*
X154097500Y-67627500D01*
X157052500Y-67627500D02*
X156002500Y-67627500D01*
X206582500Y-123825000D02*
X205532500Y-123825000D01*
X200550000Y-120967500D02*
X199500000Y-120967500D01*
X85090000Y-143937500D02*
X85090000Y-144987500D01*
X192087500Y-116632500D02*
X192087500Y-117682500D01*
X192087500Y-114092500D02*
X192087500Y-115142500D01*
X206900000Y-138112500D02*
X205850000Y-138112500D01*
X217597500Y-122555000D02*
X218647500Y-122555000D01*
X210392500Y-138112500D02*
X209342500Y-138112500D01*
X216425000Y-122555000D02*
X215375000Y-122555000D01*
X156417500Y-141287500D02*
X155367500Y-141287500D01*
X158640000Y-142875000D02*
X157590000Y-142875000D01*
X158542500Y-128587500D02*
X159592500Y-128587500D01*
X163195000Y-129332500D02*
X163195000Y-130382500D01*
X157272500Y-94615000D02*
X158322500Y-94615000D01*
X158225000Y-72072500D02*
X159275000Y-72072500D01*
X162035000Y-71755000D02*
X163085000Y-71755000D01*
X170600000Y-128002500D02*
X172350000Y-128002500D01*
X172875000Y-134377500D02*
X172875000Y-127877500D01*
X176375000Y-134377500D02*
X172875000Y-134377500D01*
X176375000Y-127877500D02*
X176375000Y-134377500D01*
X172875000Y-127877500D02*
X176375000Y-127877500D01*
D17*
X71985000Y-137247500D02*
X75335000Y-137247500D01*
X71985000Y-127547500D02*
X71985000Y-137247500D01*
X75335000Y-127547500D02*
X71985000Y-127547500D01*
X81685000Y-137247500D02*
X78335000Y-137247500D01*
X81685000Y-127547500D02*
X81685000Y-137247500D01*
X78335000Y-127547500D02*
X81685000Y-127547500D01*
D16*
X192217500Y-83917500D02*
X194942500Y-83917500D01*
X192217500Y-81817500D02*
X192217500Y-83917500D01*
X194942500Y-81817500D02*
X192217500Y-81817500D01*
X205325000Y-128400000D02*
X205325000Y-131125000D01*
X207425000Y-128400000D02*
X205325000Y-128400000D01*
X207425000Y-131125000D02*
X207425000Y-128400000D01*
X219172500Y-131950000D02*
X219172500Y-129225000D01*
X217072500Y-131950000D02*
X219172500Y-131950000D01*
X217072500Y-129225000D02*
X217072500Y-131950000D01*
D17*
X191427500Y-94230000D02*
G75*
G02X191527500Y-94230000I50000J0D01*
G01*
X191527500Y-94230000D02*
G75*
G02X191427500Y-94230000I-50000J0D01*
G01*
X191527500Y-94230000D02*
X191527500Y-94230000D01*
X191427500Y-94230000D02*
X191427500Y-94230000D01*
X192627500Y-84980000D02*
X192627500Y-95480000D01*
X216627500Y-84980000D02*
X192627500Y-84980000D01*
X216627500Y-95480000D02*
X216627500Y-84980000D01*
X192627500Y-95480000D02*
X216627500Y-95480000D01*
D16*
X179514500Y-92710000D02*
X179514500Y-99060000D01*
X185610500Y-92710000D02*
X179514500Y-92710000D01*
X185610500Y-100330000D02*
X185610500Y-92710000D01*
X182562500Y-100330000D02*
X185610500Y-100330000D01*
X207947500Y-135625000D02*
X207947500Y-134225000D01*
X211787500Y-133875000D02*
X207947500Y-133875000D01*
X211787500Y-126475000D02*
X211787500Y-133875000D01*
X207947500Y-126475000D02*
X211787500Y-126475000D01*
X207947500Y-133875000D02*
X207947500Y-126475000D01*
X216550000Y-124725000D02*
X216550000Y-126125000D01*
X212710000Y-126475000D02*
X216550000Y-126475000D01*
X212710000Y-133875000D02*
X212710000Y-126475000D01*
X216550000Y-133875000D02*
X212710000Y-133875000D01*
X216550000Y-126475000D02*
X216550000Y-133875000D01*
X189639500Y-92770000D02*
X189639500Y-87570000D01*
X186915500Y-87570000D02*
X186915500Y-93095000D01*
X204060500Y-76457500D02*
X204060500Y-81657500D01*
X206784500Y-81657500D02*
X206784500Y-76132500D01*
D12*
X186690000Y-108267500D02*
X204470000Y-108267500D01*
X186690000Y-143827500D02*
X186690000Y-108267500D01*
X204470000Y-143827500D02*
X186690000Y-143827500D01*
X204470000Y-108267500D02*
X204470000Y-143827500D01*
X183832500Y-102108000D02*
X183832500Y-102743000D01*
X183197500Y-102108000D02*
X183832500Y-102108000D01*
X181292500Y-102108000D02*
X181292500Y-102743000D01*
X181927500Y-102108000D02*
X181292500Y-102108000D01*
X71120000Y-118427500D02*
X60960000Y-118427500D01*
X71120000Y-77787500D02*
X71120000Y-118427500D01*
X60960000Y-77787500D02*
X71120000Y-77787500D01*
X83820000Y-140525500D02*
X83820000Y-141160500D01*
X83185000Y-140525500D02*
X83820000Y-140525500D01*
X81280000Y-140525500D02*
X81280000Y-141160500D01*
X81915000Y-140525500D02*
X81280000Y-140525500D01*
X125980000Y-134937500D02*
G75*
G03X125980000Y-134937500I-250000J0D01*
G01*
X124710000Y-129147500D02*
X129290000Y-129147500D01*
X124710000Y-135647500D02*
X129290000Y-135647500D01*
X129290000Y-135647500D02*
X129290000Y-129147500D01*
X124710000Y-135647500D02*
X124710000Y-129147500D01*
X113280000Y-134937500D02*
G75*
G03X113280000Y-134937500I-250000J0D01*
G01*
X112010000Y-129147500D02*
X116590000Y-129147500D01*
X112010000Y-135647500D02*
X116590000Y-135647500D01*
X116590000Y-135647500D02*
X116590000Y-129147500D01*
X112010000Y-135647500D02*
X112010000Y-129147500D01*
X100580000Y-134937500D02*
G75*
G03X100580000Y-134937500I-250000J0D01*
G01*
X99310000Y-129147500D02*
X103890000Y-129147500D01*
X99310000Y-135647500D02*
X103890000Y-135647500D01*
X103890000Y-135647500D02*
X103890000Y-129147500D01*
X99310000Y-135647500D02*
X99310000Y-129147500D01*
X87880000Y-134937500D02*
G75*
G03X87880000Y-134937500I-250000J0D01*
G01*
X86610000Y-129147500D02*
X91190000Y-129147500D01*
X86610000Y-135647500D02*
X91190000Y-135647500D01*
X91190000Y-135647500D02*
X91190000Y-129147500D01*
X86610000Y-135647500D02*
X86610000Y-129147500D01*
X90420000Y-111442500D02*
G75*
G03X90420000Y-111442500I-250000J0D01*
G01*
X91190000Y-117232500D02*
X86610000Y-117232500D01*
X91190000Y-110732500D02*
X86610000Y-110732500D01*
X86610000Y-110732500D02*
X86610000Y-117232500D01*
X91190000Y-110732500D02*
X91190000Y-117232500D01*
X103120000Y-111442500D02*
G75*
G03X103120000Y-111442500I-250000J0D01*
G01*
X103890000Y-117232500D02*
X99310000Y-117232500D01*
X103890000Y-110732500D02*
X99310000Y-110732500D01*
X99310000Y-110732500D02*
X99310000Y-117232500D01*
X103890000Y-110732500D02*
X103890000Y-117232500D01*
X115820000Y-111442500D02*
G75*
G03X115820000Y-111442500I-250000J0D01*
G01*
X116590000Y-117232500D02*
X112010000Y-117232500D01*
X116590000Y-110732500D02*
X112010000Y-110732500D01*
X112010000Y-110732500D02*
X112010000Y-117232500D01*
X116590000Y-110732500D02*
X116590000Y-117232500D01*
X128520000Y-111442500D02*
G75*
G03X128520000Y-111442500I-250000J0D01*
G01*
X129290000Y-117232500D02*
X124710000Y-117232500D01*
X129290000Y-110732500D02*
X124710000Y-110732500D01*
X124710000Y-110732500D02*
X124710000Y-117232500D01*
X129290000Y-110732500D02*
X129290000Y-117232500D01*
X125980000Y-100647500D02*
G75*
G03X125980000Y-100647500I-250000J0D01*
G01*
X124710000Y-94857500D02*
X129290000Y-94857500D01*
X124710000Y-101357500D02*
X129290000Y-101357500D01*
X129290000Y-101357500D02*
X129290000Y-94857500D01*
X124710000Y-101357500D02*
X124710000Y-94857500D01*
X113280000Y-100647500D02*
G75*
G03X113280000Y-100647500I-250000J0D01*
G01*
X112010000Y-94857500D02*
X116590000Y-94857500D01*
X112010000Y-101357500D02*
X116590000Y-101357500D01*
X116590000Y-101357500D02*
X116590000Y-94857500D01*
X112010000Y-101357500D02*
X112010000Y-94857500D01*
X100580000Y-100647500D02*
G75*
G03X100580000Y-100647500I-250000J0D01*
G01*
X99310000Y-94857500D02*
X103890000Y-94857500D01*
X99310000Y-101357500D02*
X103890000Y-101357500D01*
X103890000Y-101357500D02*
X103890000Y-94857500D01*
X99310000Y-101357500D02*
X99310000Y-94857500D01*
X87880000Y-100647500D02*
G75*
G03X87880000Y-100647500I-250000J0D01*
G01*
X86610000Y-94857500D02*
X91190000Y-94857500D01*
X86610000Y-101357500D02*
X91190000Y-101357500D01*
X91190000Y-101357500D02*
X91190000Y-94857500D01*
X86610000Y-101357500D02*
X86610000Y-94857500D01*
X90420000Y-77152500D02*
G75*
G03X90420000Y-77152500I-250000J0D01*
G01*
X91190000Y-82942500D02*
X86610000Y-82942500D01*
X91190000Y-76442500D02*
X86610000Y-76442500D01*
X86610000Y-76442500D02*
X86610000Y-82942500D01*
X91190000Y-76442500D02*
X91190000Y-82942500D01*
X103120000Y-77152500D02*
G75*
G03X103120000Y-77152500I-250000J0D01*
G01*
X103890000Y-82942500D02*
X99310000Y-82942500D01*
X103890000Y-76442500D02*
X99310000Y-76442500D01*
X99310000Y-76442500D02*
X99310000Y-82942500D01*
X103890000Y-76442500D02*
X103890000Y-82942500D01*
X115820000Y-77152500D02*
G75*
G03X115820000Y-77152500I-250000J0D01*
G01*
X116590000Y-82942500D02*
X112010000Y-82942500D01*
X116590000Y-76442500D02*
X112010000Y-76442500D01*
X112010000Y-76442500D02*
X112010000Y-82942500D01*
X116590000Y-76442500D02*
X116590000Y-82942500D01*
X128520000Y-77152500D02*
G75*
G03X128520000Y-77152500I-250000J0D01*
G01*
X129290000Y-82942500D02*
X124710000Y-82942500D01*
X129290000Y-76442500D02*
X124710000Y-76442500D01*
X124710000Y-76442500D02*
X124710000Y-82942500D01*
X129290000Y-76442500D02*
X129290000Y-82942500D01*
X125980000Y-66357500D02*
G75*
G03X125980000Y-66357500I-250000J0D01*
G01*
X124710000Y-60567500D02*
X129290000Y-60567500D01*
X124710000Y-67067500D02*
X129290000Y-67067500D01*
X129290000Y-67067500D02*
X129290000Y-60567500D01*
X124710000Y-67067500D02*
X124710000Y-60567500D01*
X113280000Y-66357500D02*
G75*
G03X113280000Y-66357500I-250000J0D01*
G01*
X112010000Y-60567500D02*
X116590000Y-60567500D01*
X112010000Y-67067500D02*
X116590000Y-67067500D01*
X116590000Y-67067500D02*
X116590000Y-60567500D01*
X112010000Y-67067500D02*
X112010000Y-60567500D01*
X100580000Y-66357500D02*
G75*
G03X100580000Y-66357500I-250000J0D01*
G01*
X99310000Y-60567500D02*
X103890000Y-60567500D01*
X99310000Y-67067500D02*
X103890000Y-67067500D01*
X103890000Y-67067500D02*
X103890000Y-60567500D01*
X99310000Y-67067500D02*
X99310000Y-60567500D01*
X87880000Y-66357500D02*
G75*
G03X87880000Y-66357500I-250000J0D01*
G01*
X86610000Y-60567500D02*
X91190000Y-60567500D01*
X86610000Y-67067500D02*
X91190000Y-67067500D01*
X91190000Y-67067500D02*
X91190000Y-60567500D01*
X86610000Y-67067500D02*
X86610000Y-60567500D01*
M02*
