G04 #@! TF.GenerationSoftware,KiCad,Pcbnew,(5.1.5)-3*
G04 #@! TF.CreationDate,2020-06-24T13:45:01-07:00*
G04 #@! TF.ProjectId,BMS Board,424d5320-426f-4617-9264-2e6b69636164,rev?*
G04 #@! TF.SameCoordinates,Original*
G04 #@! TF.FileFunction,Paste,Top*
G04 #@! TF.FilePolarity,Positive*
%FSLAX46Y46*%
G04 Gerber Fmt 4.6, Leading zero omitted, Abs format (unit mm)*
G04 Created by KiCad (PCBNEW (5.1.5)-3) date 2020-06-24 13:45:01*
%MOMM*%
%LPD*%
G04 APERTURE LIST*
%ADD10R,0.450000X1.475000*%
%ADD11R,0.600000X1.250000*%
%ADD12R,1.525000X0.650000*%
%ADD13C,0.100000*%
%ADD14R,1.050000X1.400000*%
%ADD15R,1.400000X1.050000*%
%ADD16R,1.750000X3.200000*%
%ADD17R,1.750000X0.950000*%
%ADD18R,1.700000X1.500000*%
%ADD19R,0.950000X1.400000*%
%ADD20R,1.400000X0.950000*%
%ADD21R,0.600000X1.400000*%
%ADD22R,1.550000X2.350000*%
%ADD23R,1.470000X1.020000*%
%ADD24R,1.020000X1.470000*%
%ADD25R,0.900000X1.200000*%
%ADD26R,10.000000X10.000000*%
%ADD27R,1.500000X2.000000*%
G04 APERTURE END LIST*
D10*
X162975000Y-137558000D03*
X162325000Y-137558000D03*
X161675000Y-137558000D03*
X161025000Y-137558000D03*
X160375000Y-137558000D03*
X159725000Y-137558000D03*
X159075000Y-137558000D03*
X158425000Y-137558000D03*
X157775000Y-137558000D03*
X157125000Y-137558000D03*
X156475000Y-137558000D03*
X155825000Y-137558000D03*
X155175000Y-137558000D03*
X154525000Y-137558000D03*
X154525000Y-131682000D03*
X155175000Y-131682000D03*
X155825000Y-131682000D03*
X156475000Y-131682000D03*
X157125000Y-131682000D03*
X157775000Y-131682000D03*
X158425000Y-131682000D03*
X159075000Y-131682000D03*
X159725000Y-131682000D03*
X160375000Y-131682000D03*
X161025000Y-131682000D03*
X161675000Y-131682000D03*
X162325000Y-131682000D03*
X162975000Y-131682000D03*
X162975000Y-103268000D03*
X162325000Y-103268000D03*
X161675000Y-103268000D03*
X161025000Y-103268000D03*
X160375000Y-103268000D03*
X159725000Y-103268000D03*
X159075000Y-103268000D03*
X158425000Y-103268000D03*
X157775000Y-103268000D03*
X157125000Y-103268000D03*
X156475000Y-103268000D03*
X155825000Y-103268000D03*
X155175000Y-103268000D03*
X154525000Y-103268000D03*
X154525000Y-97392000D03*
X155175000Y-97392000D03*
X155825000Y-97392000D03*
X156475000Y-97392000D03*
X157125000Y-97392000D03*
X157775000Y-97392000D03*
X158425000Y-97392000D03*
X159075000Y-97392000D03*
X159725000Y-97392000D03*
X160375000Y-97392000D03*
X161025000Y-97392000D03*
X161675000Y-97392000D03*
X162325000Y-97392000D03*
X162975000Y-97392000D03*
X162975000Y-81043000D03*
X162325000Y-81043000D03*
X161675000Y-81043000D03*
X161025000Y-81043000D03*
X160375000Y-81043000D03*
X159725000Y-81043000D03*
X159075000Y-81043000D03*
X158425000Y-81043000D03*
X157775000Y-81043000D03*
X157125000Y-81043000D03*
X156475000Y-81043000D03*
X155825000Y-81043000D03*
X155175000Y-81043000D03*
X154525000Y-81043000D03*
X154525000Y-75167000D03*
X155175000Y-75167000D03*
X155825000Y-75167000D03*
X156475000Y-75167000D03*
X157125000Y-75167000D03*
X157775000Y-75167000D03*
X158425000Y-75167000D03*
X159075000Y-75167000D03*
X159725000Y-75167000D03*
X160375000Y-75167000D03*
X161025000Y-75167000D03*
X161675000Y-75167000D03*
X162325000Y-75167000D03*
X162975000Y-75167000D03*
D11*
X181292500Y-131347500D03*
X182242500Y-133447500D03*
X180342500Y-133447500D03*
D12*
X143999500Y-127952500D03*
X143999500Y-129222500D03*
X143999500Y-130492500D03*
X143999500Y-131762500D03*
X138575500Y-131762500D03*
X138575500Y-130492500D03*
X138575500Y-129222500D03*
X138575500Y-127952500D03*
X143999500Y-137160000D03*
X143999500Y-138430000D03*
X143999500Y-139700000D03*
X143999500Y-140970000D03*
X138575500Y-140970000D03*
X138575500Y-139700000D03*
X138575500Y-138430000D03*
X138575500Y-137160000D03*
X143999500Y-121602500D03*
X143999500Y-122872500D03*
X143999500Y-124142500D03*
X143999500Y-125412500D03*
X138575500Y-125412500D03*
X138575500Y-124142500D03*
X138575500Y-122872500D03*
X138575500Y-121602500D03*
X143999500Y-115252500D03*
X143999500Y-116522500D03*
X143999500Y-117792500D03*
X143999500Y-119062500D03*
X138575500Y-119062500D03*
X138575500Y-117792500D03*
X138575500Y-116522500D03*
X138575500Y-115252500D03*
X143999500Y-93662500D03*
X143999500Y-94932500D03*
X143999500Y-96202500D03*
X143999500Y-97472500D03*
X138575500Y-97472500D03*
X138575500Y-96202500D03*
X138575500Y-94932500D03*
X138575500Y-93662500D03*
X143999500Y-102870000D03*
X143999500Y-104140000D03*
X143999500Y-105410000D03*
X143999500Y-106680000D03*
X138575500Y-106680000D03*
X138575500Y-105410000D03*
X138575500Y-104140000D03*
X138575500Y-102870000D03*
X143999500Y-87312500D03*
X143999500Y-88582500D03*
X143999500Y-89852500D03*
X143999500Y-91122500D03*
X138575500Y-91122500D03*
X138575500Y-89852500D03*
X138575500Y-88582500D03*
X138575500Y-87312500D03*
X143999500Y-80962500D03*
X143999500Y-82232500D03*
X143999500Y-83502500D03*
X143999500Y-84772500D03*
X138575500Y-84772500D03*
X138575500Y-83502500D03*
X138575500Y-82232500D03*
X138575500Y-80962500D03*
X143999500Y-59690000D03*
X143999500Y-60960000D03*
X143999500Y-62230000D03*
X143999500Y-63500000D03*
X138575500Y-63500000D03*
X138575500Y-62230000D03*
X138575500Y-60960000D03*
X138575500Y-59690000D03*
X143999500Y-68580000D03*
X143999500Y-69850000D03*
X143999500Y-71120000D03*
X143999500Y-72390000D03*
X138575500Y-72390000D03*
X138575500Y-71120000D03*
X138575500Y-69850000D03*
X138575500Y-68580000D03*
D13*
G36*
X152276955Y-134777005D02*
G01*
X151287005Y-135766955D01*
X150544543Y-135024493D01*
X151534493Y-134034543D01*
X152276955Y-134777005D01*
G37*
G36*
X153620457Y-136120507D02*
G01*
X152630507Y-137110457D01*
X151888045Y-136367995D01*
X152877995Y-135378045D01*
X153620457Y-136120507D01*
G37*
D14*
X151132500Y-139382500D03*
X153032500Y-139382500D03*
X151132500Y-141287500D03*
X153032500Y-141287500D03*
X151767500Y-106362500D03*
X153667500Y-106362500D03*
D15*
X155257500Y-110170000D03*
X155257500Y-108270000D03*
D14*
X150815000Y-80962500D03*
X152715000Y-80962500D03*
X151767500Y-83502500D03*
X153667500Y-83502500D03*
D13*
G36*
X152205545Y-130970495D02*
G01*
X153195495Y-129980545D01*
X153937957Y-130723007D01*
X152948007Y-131712957D01*
X152205545Y-130970495D01*
G37*
G36*
X150862043Y-129626993D02*
G01*
X151851993Y-128637043D01*
X152594455Y-129379505D01*
X151604505Y-130369455D01*
X150862043Y-129626993D01*
G37*
G36*
X152840545Y-128747995D02*
G01*
X153830495Y-127758045D01*
X154572957Y-128500507D01*
X153583007Y-129490457D01*
X152840545Y-128747995D01*
G37*
G36*
X151497043Y-127404493D02*
G01*
X152486993Y-126414543D01*
X153229455Y-127157005D01*
X152239505Y-128146955D01*
X151497043Y-127404493D01*
G37*
G36*
X154110545Y-127477995D02*
G01*
X155100495Y-126488045D01*
X155842957Y-127230507D01*
X154853007Y-128220457D01*
X154110545Y-127477995D01*
G37*
G36*
X152767043Y-126134493D02*
G01*
X153756993Y-125144543D01*
X154499455Y-125887005D01*
X153509505Y-126876955D01*
X152767043Y-126134493D01*
G37*
G36*
X154745545Y-124302995D02*
G01*
X155735495Y-123313045D01*
X156477957Y-124055507D01*
X155488007Y-125045457D01*
X154745545Y-124302995D01*
G37*
G36*
X153402043Y-122959493D02*
G01*
X154391993Y-121969543D01*
X155134455Y-122712005D01*
X154144505Y-123701955D01*
X153402043Y-122959493D01*
G37*
D15*
X152400000Y-97470000D03*
X152400000Y-95570000D03*
D13*
G36*
X153158045Y-93505495D02*
G01*
X154147995Y-92515545D01*
X154890457Y-93258007D01*
X153900507Y-94247957D01*
X153158045Y-93505495D01*
G37*
G36*
X151814543Y-92161993D02*
G01*
X152804493Y-91172043D01*
X153546955Y-91914505D01*
X152557005Y-92904455D01*
X151814543Y-92161993D01*
G37*
G36*
X154428045Y-92235495D02*
G01*
X155417995Y-91245545D01*
X156160457Y-91988007D01*
X155170507Y-92977957D01*
X154428045Y-92235495D01*
G37*
G36*
X153084543Y-90891993D02*
G01*
X154074493Y-89902043D01*
X154816955Y-90644505D01*
X153827005Y-91634455D01*
X153084543Y-90891993D01*
G37*
D14*
X153667500Y-72390000D03*
X151767500Y-72390000D03*
X153667500Y-70485000D03*
X151767500Y-70485000D03*
D15*
X154622500Y-68577500D03*
X154622500Y-66677500D03*
X156527500Y-68577500D03*
X156527500Y-66677500D03*
X206057500Y-124775000D03*
X206057500Y-122875000D03*
X200025000Y-121917500D03*
X200025000Y-120017500D03*
D14*
X86040000Y-144462500D03*
X84140000Y-144462500D03*
X193037500Y-117157500D03*
X191137500Y-117157500D03*
X193037500Y-114617500D03*
X191137500Y-114617500D03*
D15*
X206375000Y-139062500D03*
X206375000Y-137162500D03*
X218122500Y-121605000D03*
X218122500Y-123505000D03*
X209867500Y-139062500D03*
X209867500Y-137162500D03*
X215900000Y-123505000D03*
X215900000Y-121605000D03*
X155892500Y-142237500D03*
X155892500Y-140337500D03*
X158115000Y-143825000D03*
X158115000Y-141925000D03*
X159067500Y-127637500D03*
X159067500Y-129537500D03*
D14*
X164145000Y-129857500D03*
X162245000Y-129857500D03*
D15*
X157797500Y-93665000D03*
X157797500Y-95565000D03*
X158750000Y-71122500D03*
X158750000Y-73022500D03*
X162560000Y-70805000D03*
X162560000Y-72705000D03*
D16*
X177775000Y-131127500D03*
D17*
X171475000Y-133427500D03*
X171475000Y-131127500D03*
X171475000Y-128827500D03*
D18*
X76835000Y-137347500D03*
X76835000Y-127447500D03*
D19*
X194942500Y-82867500D03*
X193042500Y-82867500D03*
D20*
X206375000Y-131125000D03*
X206375000Y-129225000D03*
X218122500Y-129225000D03*
X218122500Y-131125000D03*
D21*
X208597500Y-125425000D03*
X209867500Y-125425000D03*
X211137500Y-125425000D03*
X211137500Y-134925000D03*
X209867500Y-134925000D03*
X208597500Y-134925000D03*
X215900000Y-134925000D03*
X214630000Y-134925000D03*
X213360000Y-134925000D03*
X213360000Y-125425000D03*
X214630000Y-125425000D03*
X215900000Y-125425000D03*
D22*
X188277500Y-88020000D03*
X188277500Y-92320000D03*
X205422500Y-81207500D03*
X205422500Y-76907500D03*
D23*
X208597500Y-122062500D03*
X208597500Y-123682500D03*
D24*
X167497500Y-136842500D03*
X165877500Y-136842500D03*
X147812500Y-137160000D03*
X146192500Y-137160000D03*
X147812500Y-127952500D03*
X146192500Y-127952500D03*
X147812500Y-121602500D03*
X146192500Y-121602500D03*
X147812500Y-115252500D03*
X146192500Y-115252500D03*
X147812500Y-102870000D03*
X146192500Y-102870000D03*
X147812500Y-92392500D03*
X146192500Y-92392500D03*
X147812500Y-87312500D03*
X146192500Y-87312500D03*
X147812500Y-80962500D03*
X146192500Y-80962500D03*
X147812500Y-68580000D03*
X146192500Y-68580000D03*
X148765000Y-59690000D03*
X147145000Y-59690000D03*
X163020000Y-141605000D03*
X164640000Y-141605000D03*
D25*
X182562500Y-101870000D03*
X183512500Y-103870000D03*
X181612500Y-103870000D03*
D26*
X207962500Y-61595000D03*
X195262500Y-61595000D03*
X182562500Y-61595000D03*
D25*
X82550000Y-140287500D03*
X83500000Y-142287500D03*
X81600000Y-142287500D03*
D27*
X125730000Y-127547500D03*
X128270000Y-127547500D03*
X128270000Y-137247500D03*
X125730000Y-137247500D03*
X113030000Y-127547500D03*
X115570000Y-127547500D03*
X115570000Y-137247500D03*
X113030000Y-137247500D03*
X100330000Y-127547500D03*
X102870000Y-127547500D03*
X102870000Y-137247500D03*
X100330000Y-137247500D03*
X87630000Y-127547500D03*
X90170000Y-127547500D03*
X90170000Y-137247500D03*
X87630000Y-137247500D03*
X90170000Y-118832500D03*
X87630000Y-118832500D03*
X87630000Y-109132500D03*
X90170000Y-109132500D03*
X102870000Y-118832500D03*
X100330000Y-118832500D03*
X100330000Y-109132500D03*
X102870000Y-109132500D03*
X115570000Y-118832500D03*
X113030000Y-118832500D03*
X113030000Y-109132500D03*
X115570000Y-109132500D03*
X128270000Y-118832500D03*
X125730000Y-118832500D03*
X125730000Y-109132500D03*
X128270000Y-109132500D03*
X125730000Y-93257500D03*
X128270000Y-93257500D03*
X128270000Y-102957500D03*
X125730000Y-102957500D03*
X113030000Y-93257500D03*
X115570000Y-93257500D03*
X115570000Y-102957500D03*
X113030000Y-102957500D03*
X100330000Y-93257500D03*
X102870000Y-93257500D03*
X102870000Y-102957500D03*
X100330000Y-102957500D03*
X87630000Y-93257500D03*
X90170000Y-93257500D03*
X90170000Y-102957500D03*
X87630000Y-102957500D03*
X90170000Y-84542500D03*
X87630000Y-84542500D03*
X87630000Y-74842500D03*
X90170000Y-74842500D03*
X102870000Y-84542500D03*
X100330000Y-84542500D03*
X100330000Y-74842500D03*
X102870000Y-74842500D03*
X115570000Y-84542500D03*
X113030000Y-84542500D03*
X113030000Y-74842500D03*
X115570000Y-74842500D03*
X128270000Y-84542500D03*
X125730000Y-84542500D03*
X125730000Y-74842500D03*
X128270000Y-74842500D03*
X125730000Y-58967500D03*
X128270000Y-58967500D03*
X128270000Y-68667500D03*
X125730000Y-68667500D03*
X113030000Y-58967500D03*
X115570000Y-58967500D03*
X115570000Y-68667500D03*
X113030000Y-68667500D03*
X100330000Y-58967500D03*
X102870000Y-58967500D03*
X102870000Y-68667500D03*
X100330000Y-68667500D03*
X87630000Y-58967500D03*
X90170000Y-58967500D03*
X90170000Y-68667500D03*
X87630000Y-68667500D03*
M02*
