G04 #@! TF.GenerationSoftware,KiCad,Pcbnew,(5.1.5)-3*
G04 #@! TF.CreationDate,2020-06-24T13:45:01-07:00*
G04 #@! TF.ProjectId,BMS Board,424d5320-426f-4617-9264-2e6b69636164,rev?*
G04 #@! TF.SameCoordinates,Original*
G04 #@! TF.FileFunction,Legend,Bot*
G04 #@! TF.FilePolarity,Positive*
%FSLAX46Y46*%
G04 Gerber Fmt 4.6, Leading zero omitted, Abs format (unit mm)*
G04 Created by KiCad (PCBNEW (5.1.5)-3) date 2020-06-24 13:45:01*
%MOMM*%
%LPD*%
G04 APERTURE LIST*
%ADD10C,0.300000*%
%ADD11C,0.406400*%
%ADD12C,0.203200*%
%ADD13C,0.200000*%
%ADD14C,0.100000*%
%ADD15C,0.120000*%
G04 APERTURE END LIST*
D10*
X214597142Y-72814642D02*
X213454285Y-72814642D01*
X211668571Y-72957500D02*
X210954285Y-72957500D01*
X211811428Y-73386071D02*
X211311428Y-71886071D01*
X210811428Y-73386071D01*
X209668571Y-73386071D02*
X209668571Y-71886071D01*
X209668571Y-73314642D02*
X209811428Y-73386071D01*
X210097142Y-73386071D01*
X210240000Y-73314642D01*
X210311428Y-73243214D01*
X210382857Y-73100357D01*
X210382857Y-72671785D01*
X210311428Y-72528928D01*
X210240000Y-72457500D01*
X210097142Y-72386071D01*
X209811428Y-72386071D01*
X209668571Y-72457500D01*
X208954285Y-73386071D02*
X208954285Y-72386071D01*
X208954285Y-71886071D02*
X209025714Y-71957500D01*
X208954285Y-72028928D01*
X208882857Y-71957500D01*
X208954285Y-71886071D01*
X208954285Y-72028928D01*
X208240000Y-72386071D02*
X208240000Y-73386071D01*
X208240000Y-72528928D02*
X208168571Y-72457500D01*
X208025714Y-72386071D01*
X207811428Y-72386071D01*
X207668571Y-72457500D01*
X207597142Y-72600357D01*
X207597142Y-73386071D01*
X205811428Y-72957500D02*
X205097142Y-72957500D01*
X205954285Y-73386071D02*
X205454285Y-71886071D01*
X204954285Y-73386071D01*
X203811428Y-73314642D02*
X203954285Y-73386071D01*
X204240000Y-73386071D01*
X204382857Y-73314642D01*
X204454285Y-73243214D01*
X204525714Y-73100357D01*
X204525714Y-72671785D01*
X204454285Y-72528928D01*
X204382857Y-72457500D01*
X204240000Y-72386071D01*
X203954285Y-72386071D01*
X203811428Y-72457500D01*
X203168571Y-73386071D02*
X203168571Y-71886071D01*
X203025714Y-72814642D02*
X202597142Y-73386071D01*
X202597142Y-72386071D02*
X203168571Y-72957500D01*
X201382857Y-73314642D02*
X201525714Y-73386071D01*
X201811428Y-73386071D01*
X201954285Y-73314642D01*
X202025714Y-73171785D01*
X202025714Y-72600357D01*
X201954285Y-72457500D01*
X201811428Y-72386071D01*
X201525714Y-72386071D01*
X201382857Y-72457500D01*
X201311428Y-72600357D01*
X201311428Y-72743214D01*
X202025714Y-72886071D01*
X200668571Y-73386071D02*
X200668571Y-72386071D01*
X200668571Y-72671785D02*
X200597142Y-72528928D01*
X200525714Y-72457500D01*
X200382857Y-72386071D01*
X200240000Y-72386071D01*
X199740000Y-73386071D02*
X199740000Y-72386071D01*
X199740000Y-72528928D02*
X199668571Y-72457500D01*
X199525714Y-72386071D01*
X199311428Y-72386071D01*
X199168571Y-72457500D01*
X199097142Y-72600357D01*
X199097142Y-73386071D01*
X199097142Y-72600357D02*
X199025714Y-72457500D01*
X198882857Y-72386071D01*
X198668571Y-72386071D01*
X198525714Y-72457500D01*
X198454285Y-72600357D01*
X198454285Y-73386071D01*
X197097142Y-73386071D02*
X197097142Y-72600357D01*
X197168571Y-72457500D01*
X197311428Y-72386071D01*
X197597142Y-72386071D01*
X197740000Y-72457500D01*
X197097142Y-73314642D02*
X197240000Y-73386071D01*
X197597142Y-73386071D01*
X197740000Y-73314642D01*
X197811428Y-73171785D01*
X197811428Y-73028928D01*
X197740000Y-72886071D01*
X197597142Y-72814642D01*
X197240000Y-72814642D01*
X197097142Y-72743214D01*
X196382857Y-72386071D02*
X196382857Y-73386071D01*
X196382857Y-72528928D02*
X196311428Y-72457500D01*
X196168571Y-72386071D01*
X195954285Y-72386071D01*
X195811428Y-72457500D01*
X195740000Y-72600357D01*
X195740000Y-73386071D01*
X214909642Y-69742857D02*
X214695357Y-69814285D01*
X214623928Y-69885714D01*
X214552500Y-70028571D01*
X214552500Y-70242857D01*
X214623928Y-70385714D01*
X214695357Y-70457142D01*
X214838214Y-70528571D01*
X215409642Y-70528571D01*
X215409642Y-69028571D01*
X214909642Y-69028571D01*
X214766785Y-69100000D01*
X214695357Y-69171428D01*
X214623928Y-69314285D01*
X214623928Y-69457142D01*
X214695357Y-69600000D01*
X214766785Y-69671428D01*
X214909642Y-69742857D01*
X215409642Y-69742857D01*
X213266785Y-70528571D02*
X213266785Y-69742857D01*
X213338214Y-69600000D01*
X213481071Y-69528571D01*
X213766785Y-69528571D01*
X213909642Y-69600000D01*
X213266785Y-70457142D02*
X213409642Y-70528571D01*
X213766785Y-70528571D01*
X213909642Y-70457142D01*
X213981071Y-70314285D01*
X213981071Y-70171428D01*
X213909642Y-70028571D01*
X213766785Y-69957142D01*
X213409642Y-69957142D01*
X213266785Y-69885714D01*
X212766785Y-69528571D02*
X212195357Y-69528571D01*
X212552500Y-69028571D02*
X212552500Y-70314285D01*
X212481071Y-70457142D01*
X212338214Y-70528571D01*
X212195357Y-70528571D01*
X211909642Y-69528571D02*
X211338214Y-69528571D01*
X211695357Y-69028571D02*
X211695357Y-70314285D01*
X211623928Y-70457142D01*
X211481071Y-70528571D01*
X211338214Y-70528571D01*
X210266785Y-70457142D02*
X210409642Y-70528571D01*
X210695357Y-70528571D01*
X210838214Y-70457142D01*
X210909642Y-70314285D01*
X210909642Y-69742857D01*
X210838214Y-69600000D01*
X210695357Y-69528571D01*
X210409642Y-69528571D01*
X210266785Y-69600000D01*
X210195357Y-69742857D01*
X210195357Y-69885714D01*
X210909642Y-70028571D01*
X209552500Y-70528571D02*
X209552500Y-69528571D01*
X209552500Y-69814285D02*
X209481071Y-69671428D01*
X209409642Y-69600000D01*
X209266785Y-69528571D01*
X209123928Y-69528571D01*
X208766785Y-69528571D02*
X208409642Y-70528571D01*
X208052500Y-69528571D02*
X208409642Y-70528571D01*
X208552500Y-70885714D01*
X208623928Y-70957142D01*
X208766785Y-71028571D01*
X206338214Y-70528571D02*
X206338214Y-69028571D01*
X205838214Y-70100000D01*
X205338214Y-69028571D01*
X205338214Y-70528571D01*
X203981071Y-70528571D02*
X203981071Y-69742857D01*
X204052500Y-69600000D01*
X204195357Y-69528571D01*
X204481071Y-69528571D01*
X204623928Y-69600000D01*
X203981071Y-70457142D02*
X204123928Y-70528571D01*
X204481071Y-70528571D01*
X204623928Y-70457142D01*
X204695357Y-70314285D01*
X204695357Y-70171428D01*
X204623928Y-70028571D01*
X204481071Y-69957142D01*
X204123928Y-69957142D01*
X203981071Y-69885714D01*
X203266785Y-69528571D02*
X203266785Y-70528571D01*
X203266785Y-69671428D02*
X203195357Y-69600000D01*
X203052500Y-69528571D01*
X202838214Y-69528571D01*
X202695357Y-69600000D01*
X202623928Y-69742857D01*
X202623928Y-70528571D01*
X201266785Y-70528571D02*
X201266785Y-69742857D01*
X201338214Y-69600000D01*
X201481071Y-69528571D01*
X201766785Y-69528571D01*
X201909642Y-69600000D01*
X201266785Y-70457142D02*
X201409642Y-70528571D01*
X201766785Y-70528571D01*
X201909642Y-70457142D01*
X201981071Y-70314285D01*
X201981071Y-70171428D01*
X201909642Y-70028571D01*
X201766785Y-69957142D01*
X201409642Y-69957142D01*
X201266785Y-69885714D01*
X199909642Y-69528571D02*
X199909642Y-70742857D01*
X199981071Y-70885714D01*
X200052500Y-70957142D01*
X200195357Y-71028571D01*
X200409642Y-71028571D01*
X200552500Y-70957142D01*
X199909642Y-70457142D02*
X200052500Y-70528571D01*
X200338214Y-70528571D01*
X200481071Y-70457142D01*
X200552500Y-70385714D01*
X200623928Y-70242857D01*
X200623928Y-69814285D01*
X200552500Y-69671428D01*
X200481071Y-69600000D01*
X200338214Y-69528571D01*
X200052500Y-69528571D01*
X199909642Y-69600000D01*
X198623928Y-70457142D02*
X198766785Y-70528571D01*
X199052500Y-70528571D01*
X199195357Y-70457142D01*
X199266785Y-70314285D01*
X199266785Y-69742857D01*
X199195357Y-69600000D01*
X199052500Y-69528571D01*
X198766785Y-69528571D01*
X198623928Y-69600000D01*
X198552500Y-69742857D01*
X198552500Y-69885714D01*
X199266785Y-70028571D01*
X197909642Y-70528571D02*
X197909642Y-69528571D01*
X197909642Y-69671428D02*
X197838214Y-69600000D01*
X197695357Y-69528571D01*
X197481071Y-69528571D01*
X197338214Y-69600000D01*
X197266785Y-69742857D01*
X197266785Y-70528571D01*
X197266785Y-69742857D02*
X197195357Y-69600000D01*
X197052500Y-69528571D01*
X196838214Y-69528571D01*
X196695357Y-69600000D01*
X196623928Y-69742857D01*
X196623928Y-70528571D01*
X195338214Y-70457142D02*
X195481071Y-70528571D01*
X195766785Y-70528571D01*
X195909642Y-70457142D01*
X195981071Y-70314285D01*
X195981071Y-69742857D01*
X195909642Y-69600000D01*
X195766785Y-69528571D01*
X195481071Y-69528571D01*
X195338214Y-69600000D01*
X195266785Y-69742857D01*
X195266785Y-69885714D01*
X195981071Y-70028571D01*
X194623928Y-69528571D02*
X194623928Y-70528571D01*
X194623928Y-69671428D02*
X194552500Y-69600000D01*
X194409642Y-69528571D01*
X194195357Y-69528571D01*
X194052500Y-69600000D01*
X193981071Y-69742857D01*
X193981071Y-70528571D01*
X193481071Y-69528571D02*
X192909642Y-69528571D01*
X193266785Y-69028571D02*
X193266785Y-70314285D01*
X193195357Y-70457142D01*
X193052500Y-70528571D01*
X192909642Y-70528571D01*
X191338214Y-70457142D02*
X191123928Y-70528571D01*
X190766785Y-70528571D01*
X190623928Y-70457142D01*
X190552500Y-70385714D01*
X190481071Y-70242857D01*
X190481071Y-70100000D01*
X190552500Y-69957142D01*
X190623928Y-69885714D01*
X190766785Y-69814285D01*
X191052500Y-69742857D01*
X191195357Y-69671428D01*
X191266785Y-69600000D01*
X191338214Y-69457142D01*
X191338214Y-69314285D01*
X191266785Y-69171428D01*
X191195357Y-69100000D01*
X191052500Y-69028571D01*
X190695357Y-69028571D01*
X190481071Y-69100000D01*
X189981071Y-69528571D02*
X189623928Y-70528571D01*
X189266785Y-69528571D02*
X189623928Y-70528571D01*
X189766785Y-70885714D01*
X189838214Y-70957142D01*
X189981071Y-71028571D01*
X188766785Y-70457142D02*
X188623928Y-70528571D01*
X188338214Y-70528571D01*
X188195357Y-70457142D01*
X188123928Y-70314285D01*
X188123928Y-70242857D01*
X188195357Y-70100000D01*
X188338214Y-70028571D01*
X188552500Y-70028571D01*
X188695357Y-69957142D01*
X188766785Y-69814285D01*
X188766785Y-69742857D01*
X188695357Y-69600000D01*
X188552500Y-69528571D01*
X188338214Y-69528571D01*
X188195357Y-69600000D01*
X187695357Y-69528571D02*
X187123928Y-69528571D01*
X187481071Y-69028571D02*
X187481071Y-70314285D01*
X187409642Y-70457142D01*
X187266785Y-70528571D01*
X187123928Y-70528571D01*
X186052500Y-70457142D02*
X186195357Y-70528571D01*
X186481071Y-70528571D01*
X186623928Y-70457142D01*
X186695357Y-70314285D01*
X186695357Y-69742857D01*
X186623928Y-69600000D01*
X186481071Y-69528571D01*
X186195357Y-69528571D01*
X186052500Y-69600000D01*
X185981071Y-69742857D01*
X185981071Y-69885714D01*
X186695357Y-70028571D01*
X185338214Y-70528571D02*
X185338214Y-69528571D01*
X185338214Y-69671428D02*
X185266785Y-69600000D01*
X185123928Y-69528571D01*
X184909642Y-69528571D01*
X184766785Y-69600000D01*
X184695357Y-69742857D01*
X184695357Y-70528571D01*
X184695357Y-69742857D02*
X184623928Y-69600000D01*
X184481071Y-69528571D01*
X184266785Y-69528571D01*
X184123928Y-69600000D01*
X184052500Y-69742857D01*
X184052500Y-70528571D01*
X182409642Y-69028571D02*
X181909642Y-70528571D01*
X181409642Y-69028571D01*
X180981071Y-69171428D02*
X180909642Y-69100000D01*
X180766785Y-69028571D01*
X180409642Y-69028571D01*
X180266785Y-69100000D01*
X180195357Y-69171428D01*
X180123928Y-69314285D01*
X180123928Y-69457142D01*
X180195357Y-69671428D01*
X181052500Y-70528571D01*
X180123928Y-70528571D01*
D11*
X74990476Y-77158547D02*
X77603047Y-75416833D01*
X74990476Y-79287309D02*
X77603047Y-77545595D01*
X76925714Y-82673976D02*
X77022476Y-82577214D01*
X77119238Y-82286928D01*
X77119238Y-82093404D01*
X77022476Y-81803119D01*
X76828952Y-81609595D01*
X76635428Y-81512833D01*
X76248380Y-81416071D01*
X75958095Y-81416071D01*
X75571047Y-81512833D01*
X75377523Y-81609595D01*
X75184000Y-81803119D01*
X75087238Y-82093404D01*
X75087238Y-82286928D01*
X75184000Y-82577214D01*
X75280761Y-82673976D01*
X76538666Y-83448071D02*
X76538666Y-84415690D01*
X77119238Y-83254547D02*
X75087238Y-83931880D01*
X77119238Y-84609214D01*
X75087238Y-85286547D02*
X76732190Y-85286547D01*
X76925714Y-85383309D01*
X77022476Y-85480071D01*
X77119238Y-85673595D01*
X77119238Y-86060642D01*
X77022476Y-86254166D01*
X76925714Y-86350928D01*
X76732190Y-86447690D01*
X75087238Y-86447690D01*
X75087238Y-87125023D02*
X75087238Y-88286166D01*
X77119238Y-87705595D02*
X75087238Y-87705595D01*
X77119238Y-88963499D02*
X75087238Y-88963499D01*
X75087238Y-90318166D02*
X75087238Y-90705214D01*
X75184000Y-90898738D01*
X75377523Y-91092261D01*
X75764571Y-91189023D01*
X76441904Y-91189023D01*
X76828952Y-91092261D01*
X77022476Y-90898738D01*
X77119238Y-90705214D01*
X77119238Y-90318166D01*
X77022476Y-90124642D01*
X76828952Y-89931119D01*
X76441904Y-89834357D01*
X75764571Y-89834357D01*
X75377523Y-89931119D01*
X75184000Y-90124642D01*
X75087238Y-90318166D01*
X77119238Y-92059880D02*
X75087238Y-92059880D01*
X77119238Y-93221023D01*
X75087238Y-93221023D01*
X77119238Y-95736833D02*
X75087238Y-95736833D01*
X76054857Y-95736833D02*
X76054857Y-96897976D01*
X77119238Y-96897976D02*
X75087238Y-96897976D01*
X77119238Y-97865595D02*
X75087238Y-97865595D01*
X75184000Y-99897595D02*
X75087238Y-99704071D01*
X75087238Y-99413785D01*
X75184000Y-99123499D01*
X75377523Y-98929976D01*
X75571047Y-98833214D01*
X75958095Y-98736452D01*
X76248380Y-98736452D01*
X76635428Y-98833214D01*
X76828952Y-98929976D01*
X77022476Y-99123499D01*
X77119238Y-99413785D01*
X77119238Y-99607309D01*
X77022476Y-99897595D01*
X76925714Y-99994357D01*
X76248380Y-99994357D01*
X76248380Y-99607309D01*
X77119238Y-100865214D02*
X75087238Y-100865214D01*
X76054857Y-100865214D02*
X76054857Y-102026357D01*
X77119238Y-102026357D02*
X75087238Y-102026357D01*
X75087238Y-104251880D02*
X77119238Y-104929214D01*
X75087238Y-105606547D01*
X75087238Y-106670928D02*
X75087238Y-107057976D01*
X75184000Y-107251499D01*
X75377523Y-107445023D01*
X75764571Y-107541785D01*
X76441904Y-107541785D01*
X76828952Y-107445023D01*
X77022476Y-107251499D01*
X77119238Y-107057976D01*
X77119238Y-106670928D01*
X77022476Y-106477404D01*
X76828952Y-106283880D01*
X76441904Y-106187119D01*
X75764571Y-106187119D01*
X75377523Y-106283880D01*
X75184000Y-106477404D01*
X75087238Y-106670928D01*
X77119238Y-109380261D02*
X77119238Y-108412642D01*
X75087238Y-108412642D01*
X75087238Y-109767309D02*
X75087238Y-110928452D01*
X77119238Y-110347880D02*
X75087238Y-110347880D01*
X76538666Y-111509023D02*
X76538666Y-112476642D01*
X77119238Y-111315499D02*
X75087238Y-111992833D01*
X77119238Y-112670166D01*
X75184000Y-114411880D02*
X75087238Y-114218357D01*
X75087238Y-113928071D01*
X75184000Y-113637785D01*
X75377523Y-113444261D01*
X75571047Y-113347499D01*
X75958095Y-113250738D01*
X76248380Y-113250738D01*
X76635428Y-113347499D01*
X76828952Y-113444261D01*
X77022476Y-113637785D01*
X77119238Y-113928071D01*
X77119238Y-114121595D01*
X77022476Y-114411880D01*
X76925714Y-114508642D01*
X76248380Y-114508642D01*
X76248380Y-114121595D01*
X76054857Y-115379499D02*
X76054857Y-116056833D01*
X77119238Y-116347119D02*
X77119238Y-115379499D01*
X75087238Y-115379499D01*
X75087238Y-116347119D01*
X74893714Y-118088833D02*
X77506285Y-119830547D01*
X74893714Y-119443499D02*
X77506285Y-121185214D01*
D12*
X221581738Y-113779904D02*
X219549738Y-113779904D01*
X219549738Y-114554000D01*
X219646500Y-114747523D01*
X219743261Y-114844285D01*
X219936785Y-114941047D01*
X220227071Y-114941047D01*
X220420595Y-114844285D01*
X220517357Y-114747523D01*
X220614119Y-114554000D01*
X220614119Y-113779904D01*
X220807642Y-115811904D02*
X220807642Y-117360095D01*
X220517357Y-92232238D02*
X220614119Y-92522523D01*
X220710880Y-92619285D01*
X220904404Y-92716047D01*
X221194690Y-92716047D01*
X221388214Y-92619285D01*
X221484976Y-92522523D01*
X221581738Y-92329000D01*
X221581738Y-91554904D01*
X219549738Y-91554904D01*
X219549738Y-92232238D01*
X219646500Y-92425761D01*
X219743261Y-92522523D01*
X219936785Y-92619285D01*
X220130309Y-92619285D01*
X220323833Y-92522523D01*
X220420595Y-92425761D01*
X220517357Y-92232238D01*
X220517357Y-91554904D01*
X220807642Y-93586904D02*
X220807642Y-95135095D01*
X221388214Y-80016047D02*
X221484976Y-79919285D01*
X221581738Y-79629000D01*
X221581738Y-79435476D01*
X221484976Y-79145190D01*
X221291452Y-78951666D01*
X221097928Y-78854904D01*
X220710880Y-78758142D01*
X220420595Y-78758142D01*
X220033547Y-78854904D01*
X219840023Y-78951666D01*
X219646500Y-79145190D01*
X219549738Y-79435476D01*
X219549738Y-79629000D01*
X219646500Y-79919285D01*
X219743261Y-80016047D01*
X220807642Y-80886904D02*
X220807642Y-82435095D01*
D13*
X167525000Y-117117500D02*
X165675000Y-117117500D01*
X165325000Y-128647500D02*
X165325000Y-117097500D01*
X158525000Y-128647500D02*
X165325000Y-128647500D01*
X158525000Y-117097500D02*
X158525000Y-128647500D01*
X165325000Y-117097500D02*
X158525000Y-117097500D01*
X167525000Y-82827500D02*
X165675000Y-82827500D01*
X165325000Y-94357500D02*
X165325000Y-82807500D01*
X158525000Y-94357500D02*
X165325000Y-94357500D01*
X158525000Y-82807500D02*
X158525000Y-94357500D01*
X165325000Y-82807500D02*
X158525000Y-82807500D01*
X167525000Y-60285000D02*
X165675000Y-60285000D01*
X165325000Y-71815000D02*
X165325000Y-60265000D01*
X158525000Y-71815000D02*
X165325000Y-71815000D01*
X158525000Y-60265000D02*
X158525000Y-71815000D01*
X165325000Y-60265000D02*
X158525000Y-60265000D01*
X164447500Y-132040000D02*
X162922500Y-132040000D01*
X162572500Y-137070000D02*
X162572500Y-132170000D01*
X159372500Y-137070000D02*
X162572500Y-137070000D01*
X159372500Y-132170000D02*
X159372500Y-137070000D01*
X162572500Y-132170000D02*
X159372500Y-132170000D01*
X221845000Y-111530000D02*
X221845000Y-110280000D01*
X218885000Y-109930000D02*
X221805000Y-109930000D01*
X218885000Y-109780000D02*
X218885000Y-109930000D01*
X221805000Y-109780000D02*
X218885000Y-109780000D01*
X221805000Y-109930000D02*
X221805000Y-109780000D01*
X109625000Y-121690000D02*
X108375000Y-121690000D01*
X108025000Y-124650000D02*
X108025000Y-121730000D01*
X107875000Y-124650000D02*
X108025000Y-124650000D01*
X107875000Y-121730000D02*
X107875000Y-124650000D01*
X108025000Y-121730000D02*
X107875000Y-121730000D01*
X109625000Y-87400000D02*
X108375000Y-87400000D01*
X108025000Y-90360000D02*
X108025000Y-87440000D01*
X107875000Y-90360000D02*
X108025000Y-90360000D01*
X107875000Y-87440000D02*
X107875000Y-90360000D01*
X108025000Y-87440000D02*
X107875000Y-87440000D01*
X137812500Y-141645000D02*
X139337500Y-141645000D01*
X139687500Y-136615000D02*
X139687500Y-141515000D01*
X142887500Y-136615000D02*
X139687500Y-136615000D01*
X142887500Y-141515000D02*
X142887500Y-136615000D01*
X139687500Y-141515000D02*
X142887500Y-141515000D01*
X137812500Y-132437500D02*
X139337500Y-132437500D01*
X139687500Y-127407500D02*
X139687500Y-132307500D01*
X142887500Y-127407500D02*
X139687500Y-127407500D01*
X142887500Y-132307500D02*
X142887500Y-127407500D01*
X139687500Y-132307500D02*
X142887500Y-132307500D01*
X137812500Y-126087500D02*
X139337500Y-126087500D01*
X139687500Y-121057500D02*
X139687500Y-125957500D01*
X142887500Y-121057500D02*
X139687500Y-121057500D01*
X142887500Y-125957500D02*
X142887500Y-121057500D01*
X139687500Y-125957500D02*
X142887500Y-125957500D01*
X137812500Y-119737500D02*
X139337500Y-119737500D01*
X139687500Y-114707500D02*
X139687500Y-119607500D01*
X142887500Y-114707500D02*
X139687500Y-114707500D01*
X142887500Y-119607500D02*
X142887500Y-114707500D01*
X139687500Y-119607500D02*
X142887500Y-119607500D01*
X137812500Y-107355000D02*
X139337500Y-107355000D01*
X139687500Y-102325000D02*
X139687500Y-107225000D01*
X142887500Y-102325000D02*
X139687500Y-102325000D01*
X142887500Y-107225000D02*
X142887500Y-102325000D01*
X139687500Y-107225000D02*
X142887500Y-107225000D01*
X137812500Y-98147500D02*
X139337500Y-98147500D01*
X139687500Y-93117500D02*
X139687500Y-98017500D01*
X142887500Y-93117500D02*
X139687500Y-93117500D01*
X142887500Y-98017500D02*
X142887500Y-93117500D01*
X139687500Y-98017500D02*
X142887500Y-98017500D01*
X137812500Y-91797500D02*
X139337500Y-91797500D01*
X139687500Y-86767500D02*
X139687500Y-91667500D01*
X142887500Y-86767500D02*
X139687500Y-86767500D01*
X142887500Y-91667500D02*
X142887500Y-86767500D01*
X139687500Y-91667500D02*
X142887500Y-91667500D01*
X137812500Y-85447500D02*
X139337500Y-85447500D01*
X139687500Y-80417500D02*
X139687500Y-85317500D01*
X142887500Y-80417500D02*
X139687500Y-80417500D01*
X142887500Y-85317500D02*
X142887500Y-80417500D01*
X139687500Y-85317500D02*
X142887500Y-85317500D01*
X137812500Y-73065000D02*
X139337500Y-73065000D01*
X139687500Y-68035000D02*
X139687500Y-72935000D01*
X142887500Y-68035000D02*
X139687500Y-68035000D01*
X142887500Y-72935000D02*
X142887500Y-68035000D01*
X139687500Y-72935000D02*
X142887500Y-72935000D01*
X137812500Y-64175000D02*
X139337500Y-64175000D01*
X139687500Y-59145000D02*
X139687500Y-64045000D01*
X142887500Y-59145000D02*
X139687500Y-59145000D01*
X142887500Y-64045000D02*
X142887500Y-59145000D01*
X139687500Y-64045000D02*
X142887500Y-64045000D01*
X199597500Y-90170000D02*
X198547500Y-90170000D01*
X151765000Y-104567500D02*
X151765000Y-105617500D01*
X147955000Y-92917500D02*
X147955000Y-91867500D01*
X157272500Y-108585000D02*
X158322500Y-108585000D01*
X158005000Y-100330000D02*
X156955000Y-100330000D01*
X158322500Y-78105000D02*
X157272500Y-78105000D01*
X160227500Y-78105000D02*
X159177500Y-78105000D01*
X165735000Y-98632500D02*
X165735000Y-97582500D01*
X217377500Y-103505000D02*
X216327500Y-103505000D01*
X127000000Y-137707500D02*
X127000000Y-134707500D01*
X127000000Y-133897500D02*
X127000000Y-130897500D01*
X127000000Y-130087500D02*
X127000000Y-127087500D01*
X114300000Y-137707500D02*
X114300000Y-134707500D01*
X114300000Y-133897500D02*
X114300000Y-130897500D01*
X114300000Y-130087500D02*
X114300000Y-127087500D01*
X101600000Y-137707500D02*
X101600000Y-134707500D01*
X101600000Y-133897500D02*
X101600000Y-130897500D01*
X101600000Y-130087500D02*
X101600000Y-127087500D01*
X88900000Y-137707500D02*
X88900000Y-134707500D01*
X88900000Y-133897500D02*
X88900000Y-130897500D01*
X88900000Y-130087500D02*
X88900000Y-127087500D01*
X88900000Y-116292500D02*
X88900000Y-119292500D01*
X88900000Y-112482500D02*
X88900000Y-115482500D01*
X88900000Y-108672500D02*
X88900000Y-111672500D01*
X101600000Y-108672500D02*
X101600000Y-111672500D01*
X101600000Y-112482500D02*
X101600000Y-115482500D01*
X101600000Y-116292500D02*
X101600000Y-119292500D01*
X114300000Y-116292500D02*
X114300000Y-119292500D01*
X114300000Y-112482500D02*
X114300000Y-115482500D01*
X114300000Y-108672500D02*
X114300000Y-111672500D01*
X127000000Y-116292500D02*
X127000000Y-119292500D01*
X127000000Y-112482500D02*
X127000000Y-115482500D01*
X127000000Y-108672500D02*
X127000000Y-111672500D01*
X127000000Y-103417500D02*
X127000000Y-100417500D01*
X127000000Y-99607500D02*
X127000000Y-96607500D01*
X127000000Y-95797500D02*
X127000000Y-92797500D01*
X114300000Y-103417500D02*
X114300000Y-100417500D01*
X114300000Y-99607500D02*
X114300000Y-96607500D01*
X114300000Y-95797500D02*
X114300000Y-92797500D01*
X101600000Y-103417500D02*
X101600000Y-100417500D01*
X101600000Y-99607500D02*
X101600000Y-96607500D01*
X101600000Y-95797500D02*
X101600000Y-92797500D01*
X88900000Y-103417500D02*
X88900000Y-100417500D01*
X88900000Y-99607500D02*
X88900000Y-96607500D01*
X88900000Y-95797500D02*
X88900000Y-92797500D01*
X88900000Y-82002500D02*
X88900000Y-85002500D01*
X88900000Y-78192500D02*
X88900000Y-81192500D01*
X88900000Y-74382500D02*
X88900000Y-77382500D01*
X101600000Y-82002500D02*
X101600000Y-85002500D01*
X101600000Y-78192500D02*
X101600000Y-81192500D01*
X101600000Y-74382500D02*
X101600000Y-77382500D01*
X114300000Y-82002500D02*
X114300000Y-85002500D01*
X114300000Y-78192500D02*
X114300000Y-81192500D01*
X114300000Y-74382500D02*
X114300000Y-77382500D01*
X127000000Y-82002500D02*
X127000000Y-85002500D01*
X127000000Y-78192500D02*
X127000000Y-81192500D01*
X127000000Y-74382500D02*
X127000000Y-77382500D01*
X127000000Y-69127500D02*
X127000000Y-66127500D01*
X127000000Y-65317500D02*
X127000000Y-62317500D01*
X127000000Y-61507500D02*
X127000000Y-58507500D01*
X114300000Y-69127500D02*
X114300000Y-66127500D01*
X114300000Y-65317500D02*
X114300000Y-62317500D01*
X114300000Y-61507500D02*
X114300000Y-58507500D01*
X101600000Y-69127500D02*
X101600000Y-66127500D01*
X101600000Y-65317500D02*
X101600000Y-62317500D01*
X101600000Y-61507500D02*
X101600000Y-58507500D01*
X88900000Y-69127500D02*
X88900000Y-66127500D01*
X88900000Y-65317500D02*
X88900000Y-62317500D01*
X88900000Y-61507500D02*
X88900000Y-58507500D01*
X133777500Y-140335000D02*
X134827500Y-140335000D01*
X120650000Y-129112500D02*
X120650000Y-128062500D01*
X107950000Y-129112500D02*
X107950000Y-128062500D01*
X95250000Y-129112500D02*
X95250000Y-128062500D01*
X87105000Y-123190000D02*
X88155000Y-123190000D01*
X95250000Y-117267500D02*
X95250000Y-118317500D01*
X107950000Y-117267500D02*
X107950000Y-118317500D01*
X120650000Y-117267500D02*
X120650000Y-118317500D01*
X133777500Y-106045000D02*
X134827500Y-106045000D01*
X120650000Y-94822500D02*
X120650000Y-93772500D01*
X107950000Y-94822500D02*
X107950000Y-93772500D01*
X95250000Y-94822500D02*
X95250000Y-93772500D01*
X87105000Y-88900000D02*
X88155000Y-88900000D01*
X95250000Y-82977500D02*
X95250000Y-84027500D01*
X107950000Y-82977500D02*
X107950000Y-84027500D01*
X120650000Y-82977500D02*
X120650000Y-84027500D01*
X133777500Y-71755000D02*
X134827500Y-71755000D01*
X120650000Y-60532500D02*
X120650000Y-59482500D01*
X107950000Y-60532500D02*
X107950000Y-59482500D01*
X95250000Y-60532500D02*
X95250000Y-59482500D01*
X149225000Y-136952500D02*
X149225000Y-138002500D01*
X149225000Y-135047500D02*
X149225000Y-136097500D01*
X149225000Y-133142500D02*
X149225000Y-134192500D01*
X149225000Y-131237500D02*
X149225000Y-132287500D01*
X149225000Y-114727500D02*
X149225000Y-115777500D01*
X149225000Y-112822500D02*
X149225000Y-113872500D01*
X149225000Y-110917500D02*
X149225000Y-111967500D01*
X149225000Y-109012500D02*
X149225000Y-110062500D01*
X149225000Y-102662500D02*
X149225000Y-103712500D01*
X149225000Y-100757500D02*
X149225000Y-101807500D01*
X149225000Y-98852500D02*
X149225000Y-99902500D01*
X149225000Y-96947500D02*
X149225000Y-97997500D01*
X149225000Y-80437500D02*
X149225000Y-81487500D01*
X149225000Y-78532500D02*
X149225000Y-79582500D01*
X149225000Y-76627500D02*
X149225000Y-77677500D01*
X149225000Y-74722500D02*
X149225000Y-75772500D01*
X149225000Y-68372500D02*
X149225000Y-69422500D01*
X149225000Y-66467500D02*
X149225000Y-67517500D01*
X149225000Y-64562500D02*
X149225000Y-65612500D01*
X149225000Y-62657500D02*
X149225000Y-63707500D01*
X217832500Y-106857500D02*
G75*
G03X217832500Y-106657500I0J100000D01*
G01*
X217832500Y-106657500D02*
G75*
G03X217832500Y-106857500I0J-100000D01*
G01*
X217832500Y-106657500D02*
X217832500Y-106657500D01*
X217832500Y-106857500D02*
X217832500Y-106857500D01*
D14*
X221932500Y-101207500D02*
X222432500Y-101207500D01*
X221932500Y-107707500D02*
X221932500Y-101207500D01*
X222432500Y-107707500D02*
X221932500Y-107707500D01*
X165950000Y-141882500D02*
G75*
G03X165950000Y-141782500I0J50000D01*
G01*
X165950000Y-141782500D02*
G75*
G03X165950000Y-141882500I0J-50000D01*
G01*
X165950000Y-141782500D02*
X165950000Y-141782500D01*
X165950000Y-141882500D02*
X165950000Y-141882500D01*
X168402000Y-140882500D02*
X168402000Y-137882500D01*
X168402000Y-136119500D02*
X174498000Y-136119500D01*
X168402000Y-142645500D02*
X174498000Y-142645500D01*
D13*
X178260000Y-132727500D02*
X172260000Y-132727500D01*
X172260000Y-129527500D02*
X178860000Y-129527500D01*
D15*
X193357500Y-89408000D02*
X193357500Y-90043000D01*
X193992500Y-89408000D02*
X193357500Y-89408000D01*
X195897500Y-89408000D02*
X195897500Y-90043000D01*
X195262500Y-89408000D02*
X195897500Y-89408000D01*
X130683000Y-141605000D02*
X131318000Y-141605000D01*
X130683000Y-140970000D02*
X130683000Y-141605000D01*
X130683000Y-139065000D02*
X131318000Y-139065000D01*
X130683000Y-139700000D02*
X130683000Y-139065000D01*
X121920000Y-133159500D02*
X121920000Y-132524500D01*
X121285000Y-133159500D02*
X121920000Y-133159500D01*
X119380000Y-133159500D02*
X119380000Y-132524500D01*
X120015000Y-133159500D02*
X119380000Y-133159500D01*
X109220000Y-133159500D02*
X109220000Y-132524500D01*
X108585000Y-133159500D02*
X109220000Y-133159500D01*
X106680000Y-133159500D02*
X106680000Y-132524500D01*
X107315000Y-133159500D02*
X106680000Y-133159500D01*
X96520000Y-133159500D02*
X96520000Y-132524500D01*
X95885000Y-133159500D02*
X96520000Y-133159500D01*
X93980000Y-133159500D02*
X93980000Y-132524500D01*
X94615000Y-133159500D02*
X93980000Y-133159500D01*
X83693000Y-124460000D02*
X84328000Y-124460000D01*
X83693000Y-123825000D02*
X83693000Y-124460000D01*
X83693000Y-121920000D02*
X84328000Y-121920000D01*
X83693000Y-122555000D02*
X83693000Y-121920000D01*
X93980000Y-113220500D02*
X93980000Y-113855500D01*
X94615000Y-113220500D02*
X93980000Y-113220500D01*
X96520000Y-113220500D02*
X96520000Y-113855500D01*
X95885000Y-113220500D02*
X96520000Y-113220500D01*
X106680000Y-113220500D02*
X106680000Y-113855500D01*
X107315000Y-113220500D02*
X106680000Y-113220500D01*
X109220000Y-113220500D02*
X109220000Y-113855500D01*
X108585000Y-113220500D02*
X109220000Y-113220500D01*
X119380000Y-113220500D02*
X119380000Y-113855500D01*
X120015000Y-113220500D02*
X119380000Y-113220500D01*
X121920000Y-113220500D02*
X121920000Y-113855500D01*
X121285000Y-113220500D02*
X121920000Y-113220500D01*
X130683000Y-107315000D02*
X131318000Y-107315000D01*
X130683000Y-106680000D02*
X130683000Y-107315000D01*
X130683000Y-104775000D02*
X131318000Y-104775000D01*
X130683000Y-105410000D02*
X130683000Y-104775000D01*
X121920000Y-98869500D02*
X121920000Y-98234500D01*
X121285000Y-98869500D02*
X121920000Y-98869500D01*
X119380000Y-98869500D02*
X119380000Y-98234500D01*
X120015000Y-98869500D02*
X119380000Y-98869500D01*
X109220000Y-98869500D02*
X109220000Y-98234500D01*
X108585000Y-98869500D02*
X109220000Y-98869500D01*
X106680000Y-98869500D02*
X106680000Y-98234500D01*
X107315000Y-98869500D02*
X106680000Y-98869500D01*
X96520000Y-98869500D02*
X96520000Y-98234500D01*
X95885000Y-98869500D02*
X96520000Y-98869500D01*
X93980000Y-98869500D02*
X93980000Y-98234500D01*
X94615000Y-98869500D02*
X93980000Y-98869500D01*
X83693000Y-90170000D02*
X84328000Y-90170000D01*
X83693000Y-89535000D02*
X83693000Y-90170000D01*
X83693000Y-87630000D02*
X84328000Y-87630000D01*
X83693000Y-88265000D02*
X83693000Y-87630000D01*
X93980000Y-78930500D02*
X93980000Y-79565500D01*
X94615000Y-78930500D02*
X93980000Y-78930500D01*
X96520000Y-78930500D02*
X96520000Y-79565500D01*
X95885000Y-78930500D02*
X96520000Y-78930500D01*
X106680000Y-78930500D02*
X106680000Y-79565500D01*
X107315000Y-78930500D02*
X106680000Y-78930500D01*
X109220000Y-78930500D02*
X109220000Y-79565500D01*
X108585000Y-78930500D02*
X109220000Y-78930500D01*
X119380000Y-78930500D02*
X119380000Y-79565500D01*
X120015000Y-78930500D02*
X119380000Y-78930500D01*
X121920000Y-78930500D02*
X121920000Y-79565500D01*
X121285000Y-78930500D02*
X121920000Y-78930500D01*
X130683000Y-73025000D02*
X131318000Y-73025000D01*
X130683000Y-72390000D02*
X130683000Y-73025000D01*
X130683000Y-70485000D02*
X131318000Y-70485000D01*
X130683000Y-71120000D02*
X130683000Y-70485000D01*
X121920000Y-64579500D02*
X121920000Y-63944500D01*
X121285000Y-64579500D02*
X121920000Y-64579500D01*
X119380000Y-64579500D02*
X119380000Y-63944500D01*
X120015000Y-64579500D02*
X119380000Y-64579500D01*
X109220000Y-64579500D02*
X109220000Y-63944500D01*
X108585000Y-64579500D02*
X109220000Y-64579500D01*
X106680000Y-64579500D02*
X106680000Y-63944500D01*
X107315000Y-64579500D02*
X106680000Y-64579500D01*
X96520000Y-64579500D02*
X96520000Y-63944500D01*
X95885000Y-64579500D02*
X96520000Y-64579500D01*
X93980000Y-64579500D02*
X93980000Y-63944500D01*
X94615000Y-64579500D02*
X93980000Y-64579500D01*
M02*
