G04 #@! TF.GenerationSoftware,KiCad,Pcbnew,(5.1.5)-3*
G04 #@! TF.CreationDate,2020-06-17T20:43:19-07:00*
G04 #@! TF.ProjectId,BMS Board,424d5320-426f-4617-9264-2e6b69636164,rev?*
G04 #@! TF.SameCoordinates,Original*
G04 #@! TF.FileFunction,Paste,Top*
G04 #@! TF.FilePolarity,Positive*
%FSLAX46Y46*%
G04 Gerber Fmt 4.6, Leading zero omitted, Abs format (unit mm)*
G04 Created by KiCad (PCBNEW (5.1.5)-3) date 2020-06-17 20:43:19*
%MOMM*%
%LPD*%
G04 APERTURE LIST*
%ADD10R,0.450000X1.475000*%
%ADD11R,0.600000X1.250000*%
%ADD12R,1.525000X0.650000*%
%ADD13R,1.400000X1.050000*%
%ADD14R,1.050000X1.400000*%
%ADD15R,1.750000X3.200000*%
%ADD16R,1.750000X0.950000*%
%ADD17R,0.650000X1.600000*%
%ADD18R,1.700000X1.500000*%
%ADD19R,1.400000X0.950000*%
%ADD20R,1.020000X1.470000*%
%ADD21R,0.900000X1.200000*%
%ADD22R,10.000000X10.000000*%
%ADD23R,1.500000X2.000000*%
G04 APERTURE END LIST*
D10*
X226475000Y-420450500D03*
X225825000Y-420450500D03*
X225175000Y-420450500D03*
X224525000Y-420450500D03*
X223875000Y-420450500D03*
X223225000Y-420450500D03*
X222575000Y-420450500D03*
X221925000Y-420450500D03*
X221275000Y-420450500D03*
X220625000Y-420450500D03*
X219975000Y-420450500D03*
X219325000Y-420450500D03*
X218675000Y-420450500D03*
X218025000Y-420450500D03*
X218025000Y-414574500D03*
X218675000Y-414574500D03*
X219325000Y-414574500D03*
X219975000Y-414574500D03*
X220625000Y-414574500D03*
X221275000Y-414574500D03*
X221925000Y-414574500D03*
X222575000Y-414574500D03*
X223225000Y-414574500D03*
X223875000Y-414574500D03*
X224525000Y-414574500D03*
X225175000Y-414574500D03*
X225825000Y-414574500D03*
X226475000Y-414574500D03*
X226475000Y-386160500D03*
X225825000Y-386160500D03*
X225175000Y-386160500D03*
X224525000Y-386160500D03*
X223875000Y-386160500D03*
X223225000Y-386160500D03*
X222575000Y-386160500D03*
X221925000Y-386160500D03*
X221275000Y-386160500D03*
X220625000Y-386160500D03*
X219975000Y-386160500D03*
X219325000Y-386160500D03*
X218675000Y-386160500D03*
X218025000Y-386160500D03*
X218025000Y-380284500D03*
X218675000Y-380284500D03*
X219325000Y-380284500D03*
X219975000Y-380284500D03*
X220625000Y-380284500D03*
X221275000Y-380284500D03*
X221925000Y-380284500D03*
X222575000Y-380284500D03*
X223225000Y-380284500D03*
X223875000Y-380284500D03*
X224525000Y-380284500D03*
X225175000Y-380284500D03*
X225825000Y-380284500D03*
X226475000Y-380284500D03*
X226475000Y-363935500D03*
X225825000Y-363935500D03*
X225175000Y-363935500D03*
X224525000Y-363935500D03*
X223875000Y-363935500D03*
X223225000Y-363935500D03*
X222575000Y-363935500D03*
X221925000Y-363935500D03*
X221275000Y-363935500D03*
X220625000Y-363935500D03*
X219975000Y-363935500D03*
X219325000Y-363935500D03*
X218675000Y-363935500D03*
X218025000Y-363935500D03*
X218025000Y-358059500D03*
X218675000Y-358059500D03*
X219325000Y-358059500D03*
X219975000Y-358059500D03*
X220625000Y-358059500D03*
X221275000Y-358059500D03*
X221925000Y-358059500D03*
X222575000Y-358059500D03*
X223225000Y-358059500D03*
X223875000Y-358059500D03*
X224525000Y-358059500D03*
X225175000Y-358059500D03*
X225825000Y-358059500D03*
X226475000Y-358059500D03*
D11*
X244792500Y-414240000D03*
X245742500Y-416340000D03*
X243842500Y-416340000D03*
D12*
X207499500Y-410845000D03*
X207499500Y-412115000D03*
X207499500Y-413385000D03*
X207499500Y-414655000D03*
X202075500Y-414655000D03*
X202075500Y-413385000D03*
X202075500Y-412115000D03*
X202075500Y-410845000D03*
X207499500Y-420052500D03*
X207499500Y-421322500D03*
X207499500Y-422592500D03*
X207499500Y-423862500D03*
X202075500Y-423862500D03*
X202075500Y-422592500D03*
X202075500Y-421322500D03*
X202075500Y-420052500D03*
X207499500Y-404495000D03*
X207499500Y-405765000D03*
X207499500Y-407035000D03*
X207499500Y-408305000D03*
X202075500Y-408305000D03*
X202075500Y-407035000D03*
X202075500Y-405765000D03*
X202075500Y-404495000D03*
X207499500Y-398145000D03*
X207499500Y-399415000D03*
X207499500Y-400685000D03*
X207499500Y-401955000D03*
X202075500Y-401955000D03*
X202075500Y-400685000D03*
X202075500Y-399415000D03*
X202075500Y-398145000D03*
X207499500Y-376555000D03*
X207499500Y-377825000D03*
X207499500Y-379095000D03*
X207499500Y-380365000D03*
X202075500Y-380365000D03*
X202075500Y-379095000D03*
X202075500Y-377825000D03*
X202075500Y-376555000D03*
X207499500Y-385762500D03*
X207499500Y-387032500D03*
X207499500Y-388302500D03*
X207499500Y-389572500D03*
X202075500Y-389572500D03*
X202075500Y-388302500D03*
X202075500Y-387032500D03*
X202075500Y-385762500D03*
X207499500Y-370205000D03*
X207499500Y-371475000D03*
X207499500Y-372745000D03*
X207499500Y-374015000D03*
X202075500Y-374015000D03*
X202075500Y-372745000D03*
X202075500Y-371475000D03*
X202075500Y-370205000D03*
X207499500Y-363855000D03*
X207499500Y-365125000D03*
X207499500Y-366395000D03*
X207499500Y-367665000D03*
X202075500Y-367665000D03*
X202075500Y-366395000D03*
X202075500Y-365125000D03*
X202075500Y-363855000D03*
X207499500Y-342582500D03*
X207499500Y-343852500D03*
X207499500Y-345122500D03*
X207499500Y-346392500D03*
X202075500Y-346392500D03*
X202075500Y-345122500D03*
X202075500Y-343852500D03*
X202075500Y-342582500D03*
X207499500Y-351472500D03*
X207499500Y-352742500D03*
X207499500Y-354012500D03*
X207499500Y-355282500D03*
X202075500Y-355282500D03*
X202075500Y-354012500D03*
X202075500Y-352742500D03*
X202075500Y-351472500D03*
D13*
X263525000Y-404810000D03*
X263525000Y-402910000D03*
D14*
X149540000Y-427355000D03*
X147640000Y-427355000D03*
X256537500Y-400050000D03*
X254637500Y-400050000D03*
X256537500Y-397510000D03*
X254637500Y-397510000D03*
D13*
X269875000Y-418462500D03*
X269875000Y-416562500D03*
X279400000Y-418462500D03*
X279400000Y-416562500D03*
X272732500Y-405762500D03*
X272732500Y-403862500D03*
X276542500Y-405762500D03*
X276542500Y-403862500D03*
X219392500Y-425130000D03*
X219392500Y-423230000D03*
X221615000Y-426717500D03*
X221615000Y-424817500D03*
X222567500Y-410530000D03*
X222567500Y-412430000D03*
D14*
X227645000Y-412750000D03*
X225745000Y-412750000D03*
D13*
X221297500Y-376557500D03*
X221297500Y-378457500D03*
X222250000Y-354015000D03*
X222250000Y-355915000D03*
X226060000Y-353697500D03*
X226060000Y-355597500D03*
D15*
X241275000Y-414020000D03*
D16*
X234975000Y-416320000D03*
X234975000Y-414020000D03*
X234975000Y-411720000D03*
D17*
X276542500Y-418267500D03*
X275272500Y-418267500D03*
X274002500Y-418267500D03*
X272732500Y-418267500D03*
X272732500Y-407867500D03*
X274002500Y-407867500D03*
X275272500Y-407867500D03*
X276542500Y-407867500D03*
D18*
X140335000Y-420240000D03*
X140335000Y-410340000D03*
D19*
X269875000Y-414652500D03*
X269875000Y-412752500D03*
X279400000Y-414652500D03*
X279400000Y-412752500D03*
D20*
X278305000Y-420370000D03*
X276685000Y-420370000D03*
X230997500Y-419735000D03*
X229377500Y-419735000D03*
X211312500Y-420052500D03*
X209692500Y-420052500D03*
X211312500Y-410845000D03*
X209692500Y-410845000D03*
X211312500Y-404495000D03*
X209692500Y-404495000D03*
X211312500Y-398145000D03*
X209692500Y-398145000D03*
X211312500Y-385762500D03*
X209692500Y-385762500D03*
X211312500Y-375285000D03*
X209692500Y-375285000D03*
X211312500Y-370205000D03*
X209692500Y-370205000D03*
X211312500Y-363855000D03*
X209692500Y-363855000D03*
X211312500Y-351472500D03*
X209692500Y-351472500D03*
X212265000Y-342582500D03*
X210645000Y-342582500D03*
X226520000Y-424497500D03*
X228140000Y-424497500D03*
D21*
X246062500Y-384762500D03*
X247012500Y-386762500D03*
X245112500Y-386762500D03*
D22*
X271462500Y-344487500D03*
X258762500Y-344487500D03*
X246062500Y-344487500D03*
D21*
X146050000Y-423180000D03*
X147000000Y-425180000D03*
X145100000Y-425180000D03*
D23*
X189230000Y-410440000D03*
X191770000Y-410440000D03*
X191770000Y-420140000D03*
X189230000Y-420140000D03*
X176530000Y-410440000D03*
X179070000Y-410440000D03*
X179070000Y-420140000D03*
X176530000Y-420140000D03*
X163830000Y-410440000D03*
X166370000Y-410440000D03*
X166370000Y-420140000D03*
X163830000Y-420140000D03*
X151130000Y-410440000D03*
X153670000Y-410440000D03*
X153670000Y-420140000D03*
X151130000Y-420140000D03*
X153670000Y-401725000D03*
X151130000Y-401725000D03*
X151130000Y-392025000D03*
X153670000Y-392025000D03*
X166370000Y-401725000D03*
X163830000Y-401725000D03*
X163830000Y-392025000D03*
X166370000Y-392025000D03*
X179070000Y-401725000D03*
X176530000Y-401725000D03*
X176530000Y-392025000D03*
X179070000Y-392025000D03*
X191770000Y-401725000D03*
X189230000Y-401725000D03*
X189230000Y-392025000D03*
X191770000Y-392025000D03*
X189230000Y-376150000D03*
X191770000Y-376150000D03*
X191770000Y-385850000D03*
X189230000Y-385850000D03*
X176530000Y-376150000D03*
X179070000Y-376150000D03*
X179070000Y-385850000D03*
X176530000Y-385850000D03*
X163830000Y-376150000D03*
X166370000Y-376150000D03*
X166370000Y-385850000D03*
X163830000Y-385850000D03*
X151130000Y-376150000D03*
X153670000Y-376150000D03*
X153670000Y-385850000D03*
X151130000Y-385850000D03*
X153670000Y-367435000D03*
X151130000Y-367435000D03*
X151130000Y-357735000D03*
X153670000Y-357735000D03*
X166370000Y-367435000D03*
X163830000Y-367435000D03*
X163830000Y-357735000D03*
X166370000Y-357735000D03*
X179070000Y-367435000D03*
X176530000Y-367435000D03*
X176530000Y-357735000D03*
X179070000Y-357735000D03*
X191770000Y-367435000D03*
X189230000Y-367435000D03*
X189230000Y-357735000D03*
X191770000Y-357735000D03*
X189230000Y-341860000D03*
X191770000Y-341860000D03*
X191770000Y-351560000D03*
X189230000Y-351560000D03*
X176530000Y-341860000D03*
X179070000Y-341860000D03*
X179070000Y-351560000D03*
X176530000Y-351560000D03*
X163830000Y-341860000D03*
X166370000Y-341860000D03*
X166370000Y-351560000D03*
X163830000Y-351560000D03*
X151130000Y-341860000D03*
X153670000Y-341860000D03*
X153670000Y-351560000D03*
X151130000Y-351560000D03*
M02*
