M48
; DRILL file {KiCad (5.1.5)-3} date 6/17/2020 8:45:42 PM
; FORMAT={-:-/ absolute / inch / decimal}
; #@! TF.CreationDate,2020-06-17T20:45:42-07:00
; #@! TF.GenerationSoftware,Kicad,Pcbnew,(5.1.5)-3
; #@! TF.FileFunction,Plated,1,2,PTH
FMAT,2
INCH
T1C0.0120
T2C0.0150
T3C0.0200
T4C0.0400
T5C0.0402
T6C0.0433
T7C0.0453
T8C0.0492
T9C0.0551
T10C0.0949
T11C0.1575
%
G90
G05
T1
X5.875Y-13.4
X5.95Y-14.5375
X5.95Y-14.7375
X5.95Y-15.8875
X5.95Y-16.0875
X6.0Y-14.15
X6.0Y-15.5
X6.05Y-13.7625
X6.05Y-15.1125
X6.05Y-16.4625
X6.125Y-14.525
X6.125Y-15.875
X6.2Y-13.4
X6.2Y-14.75
X6.2Y-16.1
X6.3Y-14.525
X6.3Y-15.875
X6.375Y-13.4
X6.375Y-14.75
X6.375Y-16.1
X6.5Y-14.15
X6.5Y-15.5
X6.55Y-13.7625
X6.55Y-15.1125
X6.625Y-14.525
X6.625Y-15.875
X6.7Y-13.4
X6.7Y-14.75
X6.7Y-16.1
X6.8Y-14.525
X6.8Y-15.875
X6.875Y-13.4
X6.875Y-14.75
X6.875Y-16.1
X7.0Y-14.15
X7.0Y-14.574
X7.0Y-14.625
X7.0Y-15.5
X7.05Y-15.125
X7.125Y-14.525
X7.125Y-15.875
X7.2Y-13.4
X7.2Y-14.75
X7.2Y-16.1
X7.3Y-14.525
X7.3Y-15.875
X7.375Y-13.4
X7.375Y-14.75
X7.375Y-16.1
X7.451Y-14.574
X7.5Y-13.925
X7.5Y-14.15
X7.5Y-14.625
X7.5Y-15.5
X7.5625Y-15.275
X7.5875Y-15.25
X7.625Y-14.525
X7.625Y-15.875
X7.7Y-13.4
X7.7Y-14.75
X7.7Y-16.1
X7.7125Y-14.325
X7.7125Y-14.5
X7.7125Y-15.675
X7.7125Y-15.85
X7.75Y-13.6
X7.75Y-14.95
X7.75Y-16.025
X7.75Y-16.3
X7.775Y-13.525
X7.775Y-14.4
X7.775Y-14.525
X7.775Y-14.875
X7.775Y-15.75
X7.775Y-16.225
X7.7875Y-16.0625
X7.8Y-13.575
X7.8Y-14.925
X7.8Y-16.275
X7.8125Y-14.35
X7.8125Y-14.65
X7.8125Y-15.7
X7.8125Y-16.0
X7.8625Y-13.8375
X7.8625Y-13.925
X7.8625Y-15.1875
X7.8625Y-15.275
X7.8625Y-16.5375
X7.8625Y-16.625
X7.875Y-14.425
X7.875Y-14.625
X7.875Y-14.925
X7.875Y-15.775
X7.875Y-15.975
X7.875Y-16.275
X7.8875Y-13.5875
X8.0625Y-13.4875
X8.0625Y-13.6375
X8.0625Y-13.8375
X8.0625Y-13.9875
X8.0625Y-14.325
X8.0625Y-14.475
X8.0625Y-14.575
X8.0625Y-14.725
X8.0625Y-14.825
X8.0625Y-14.975
X8.0625Y-15.1875
X8.0625Y-15.3375
X8.0625Y-15.675
X8.0625Y-15.825
X8.0625Y-15.925
X8.0625Y-16.075
X8.0625Y-16.175
X8.0625Y-16.325
X8.0625Y-16.5375
X8.0625Y-16.6875
X8.2125Y-13.775
X8.2125Y-14.25
X8.2125Y-15.125
X8.2125Y-15.6
X8.225Y-16.475
X8.25Y-13.6625
X8.25Y-14.1375
X8.25Y-15.0125
X8.25Y-15.4875
X8.25Y-16.3625
X8.2875Y-13.575
X8.2875Y-13.7
X8.2875Y-13.775
X8.2875Y-14.175
X8.2875Y-14.25
X8.2875Y-15.05
X8.2875Y-15.125
X8.2875Y-15.525
X8.2875Y-15.6
X8.2875Y-16.4
X8.2875Y-16.475
X8.3125Y-14.875
X8.325Y-13.9875
X8.325Y-14.425
X8.325Y-14.5
X8.325Y-14.725
X8.325Y-15.3
X8.325Y-15.35
X8.325Y-15.775
X8.325Y-16.075
X8.325Y-16.2625
X8.3375Y-14.5375
X8.425Y-13.9125
X8.425Y-13.9875
X8.425Y-14.3875
X8.425Y-14.425
X8.425Y-14.5
X8.425Y-14.625
X8.425Y-14.725
X8.425Y-14.8
X8.425Y-14.875
X8.425Y-15.2625
X8.425Y-15.3
X8.425Y-15.975
X8.425Y-16.075
X8.425Y-16.1875
X8.425Y-16.2625
X8.45Y-15.725
X8.4625Y-16.6
X8.475Y-15.9375
X8.5Y-13.6
X8.5375Y-13.6
X8.5375Y-15.9375
X8.55Y-16.025
X8.65Y-14.2125
X8.6604Y-14.3875
X8.6604Y-16.6125
X8.6625Y-15.3125
X8.7Y-14.3875
X8.7Y-15.3
X8.7Y-16.2375
X8.7125Y-15.2625
X8.725Y-15.65
X8.7339Y-14.3875
X8.7615Y-14.4885
X8.7625Y-14.4125
X8.7625Y-14.8625
X8.7628Y-15.3497
X8.775Y-15.0875
X8.775Y-15.6
X8.775Y-15.8875
X8.775Y-16.0845
X8.7854Y-14.7646
X8.7875Y-14.3875
X8.7875Y-15.2625
X8.7875Y-16.7125
X8.7884Y-16.6116
X8.8Y-15.5375
X8.8125Y-14.8375
X8.814Y-14.0375
X8.814Y-16.2625
X8.8396Y-15.7479
X8.8396Y-15.8604
X8.8396Y-16.2375
X8.84Y-14.9
X8.85Y-14.0375
X8.8625Y-15.775
X8.8625Y-15.8875
X8.8652Y-14.4125
X8.8652Y-15.3125
X8.875Y-14.8375
X8.8907Y-14.3875
X8.8907Y-15.2625
X8.9125Y-16.0625
X8.9125Y-16.1375
X8.95Y-14.375
X8.95Y-15.15
X8.95Y-16.1
X8.95Y-16.175
X8.975Y-14.9
X8.975Y-14.95
X8.9875Y-15.875
X8.9875Y-15.9375
X9.0Y-16.4625
X9.025Y-15.3125
X9.0375Y-15.2375
X9.0375Y-16.7152
X9.1125Y-16.35
X9.125Y-15.325
X9.1375Y-14.8
X9.1375Y-15.15
X9.15Y-14.425
X9.15Y-14.475
X9.15Y-14.85
X9.1625Y-14.9
X9.1845Y-16.3
X9.225Y-15.9125
X9.25Y-14.475
X9.25Y-15.35
X9.275Y-15.9625
X9.275Y-16.175
X9.275Y-16.7625
X9.2875Y-14.425
X9.2875Y-15.3375
X9.3125Y-15.4625
X9.3125Y-15.6
X9.325Y-14.8
X9.325Y-14.85
X9.3266Y-15.6984
X9.3375Y-15.9625
X9.3375Y-16.0875
X9.375Y-16.4875
X9.4Y-16.4125
X9.425Y-16.7625
X9.4625Y-16.4125
X9.525Y-16.4125
X9.55Y-15.65
X9.575Y-15.775
X9.575Y-16.7625
X9.6625Y-16.4625
X9.675Y-16.2875
X9.725Y-15.3375
X9.725Y-16.375
X9.75Y-15.65
X9.75Y-15.825
X9.7625Y-16.325
X9.7875Y-16.5625
X9.8286Y-16.225
X9.85Y-16.3
X9.875Y-15.3375
X9.975Y-16.075
X9.975Y-16.125
X9.975Y-16.225
X10.0375Y-16.25
X10.15Y-15.9
X10.15Y-16.1
X10.2Y-16.7125
X10.3125Y-16.725
X10.425Y-15.775
X10.45Y-15.6
X10.6Y-15.9
X10.6375Y-15.3375
X10.6375Y-15.5625
X10.6375Y-15.85
X10.6875Y-15.55
X10.6875Y-15.625
X10.6875Y-15.75
X10.775Y-15.6375
X10.8125Y-15.9
X10.8125Y-15.975
X10.875Y-15.5
X11.0Y-15.625
X11.0625Y-15.7125
X11.2875Y-14.1375
X11.2875Y-14.225
X11.2875Y-14.3125
X11.2875Y-14.4
X11.2875Y-14.4875
X11.2875Y-14.6375
X11.2875Y-14.725
X11.2875Y-14.8125
X11.2875Y-14.9
X11.2875Y-14.9875
X11.375Y-14.1375
X11.375Y-14.225
X11.375Y-14.3125
X11.375Y-14.4
X11.375Y-14.4875
X11.375Y-14.6375
X11.375Y-14.725
X11.375Y-14.8125
X11.375Y-14.9
X11.375Y-14.9875
X11.4625Y-14.1375
X11.4625Y-14.225
X11.4625Y-14.3125
X11.4625Y-14.4
X11.4625Y-14.4875
X11.4625Y-14.6375
X11.4625Y-14.725
X11.4625Y-14.8125
X11.4625Y-14.9
X11.4625Y-14.9875
X11.55Y-14.1375
X11.55Y-14.225
X11.55Y-14.3125
X11.55Y-14.4
X11.55Y-14.4875
X11.55Y-14.6375
X11.55Y-14.725
X11.55Y-14.8125
X11.55Y-14.9
X11.55Y-14.9875
X11.6375Y-14.1375
X11.6375Y-14.225
X11.6375Y-14.3125
X11.6375Y-14.4
X11.6375Y-14.4875
X11.6375Y-14.6375
X11.6375Y-14.725
X11.6375Y-14.8125
X11.6375Y-14.9
X11.6375Y-14.9875
T2
X5.7875Y-16.5202
X8.25Y-13.5375
X8.25Y-13.8875
X8.25Y-14.375
X8.25Y-14.625
X8.25Y-15.2375
X8.25Y-15.425
X8.25Y-15.725
X8.25Y-15.975
X8.25Y-16.225
X8.2504Y-16.6121
X8.2625Y-14.8375
X8.325Y-14.0375
X8.325Y-14.4625
X8.325Y-14.9125
X8.325Y-15.8375
X8.375Y-14.8375
X8.4Y-16.6375
X8.425Y-14.0375
X8.425Y-14.4625
X8.425Y-14.9125
X8.425Y-15.8875
X8.4375Y-15.3875
X8.5Y-14.6375
X8.525Y-15.2125
X8.55Y-16.75
X8.6125Y-14.425
X8.9676Y-15.9949
X9.2Y-14.0875
X9.2Y-15.075
X9.2Y-15.4125
X9.3375Y-16.4125
X9.3625Y-16.025
X9.45Y-15.325
X9.45Y-15.425
X9.5625Y-15.1875
X9.5875Y-16.3
X9.625Y-16.25
X9.6625Y-15.5625
X9.6625Y-15.8875
X9.725Y-15.4125
X9.875Y-15.125
X10.0625Y-16.65
T3
X5.5Y-14.6875
X5.625Y-16.1125
X5.6625Y-15.3875
X5.675Y-15.5875
X5.725Y-15.55
X5.775Y-15.5
X6.2125Y-14.525
X6.2125Y-15.875
X6.7125Y-14.525
X6.7125Y-15.875
X6.925Y-13.9375
X7.2125Y-14.525
X7.2125Y-15.875
X7.3125Y-15.2875
X7.7125Y-14.125
X7.7125Y-15.475
X7.8125Y-16.7625
X7.8125Y-16.8375
T4
X9.9Y-15.45
X9.9Y-15.55
X9.9Y-15.65
X9.9Y-15.75
X9.9Y-15.85
X9.9Y-15.95
X9.9Y-16.05
X9.9Y-16.15
X9.9Y-16.25
X9.9Y-16.35
X9.9Y-16.45
X9.9Y-16.55
X9.9Y-16.65
X9.9Y-16.75
X10.0Y-15.45
X10.1Y-15.45
X10.2Y-15.45
X10.3Y-15.45
X10.4Y-15.45
X10.5Y-15.45
X10.5Y-15.55
X10.5Y-15.65
X10.5Y-15.75
X10.5Y-15.85
X10.5Y-15.95
X10.5Y-16.05
X10.5Y-16.15
X10.5Y-16.25
X10.5Y-16.35
X10.5Y-16.45
X10.5Y-16.55
X10.5Y-16.65
X10.5Y-16.75
T5
X5.1181Y-14.4094
X5.1181Y-14.5276
X5.1181Y-14.6457
X5.1181Y-14.7638
X5.1181Y-14.8819
X5.1181Y-15.0
X5.1181Y-15.1181
X5.1181Y-15.2362
X5.1181Y-15.3543
X5.1181Y-15.4724
X5.1181Y-15.5906
X5.2362Y-14.4094
X5.2362Y-14.5276
X5.2362Y-14.6457
X5.2362Y-14.7638
X5.2362Y-14.8819
X5.2362Y-15.0
X5.2362Y-15.1181
X5.2362Y-15.2362
X5.2362Y-15.3543
X5.2362Y-15.4724
X5.2362Y-15.5906
T6
X10.1625Y-14.5422
X10.1625Y-14.8375
T7
X10.6625Y-16.75
X10.7625Y-16.75
X10.8625Y-16.75
X10.9625Y-16.75
T8
X9.6875Y-14.8375
X9.6875Y-14.9375
X9.6875Y-15.0375
T9
X10.8121Y-14.8375
X10.9499Y-14.5422
T10
X4.948Y-14.3248
X4.948Y-15.6752
T11
X11.575Y-16.8
X5.3875Y-13.45
X5.3875Y-16.8
X11.575Y-13.45
T0
M30
