G04 #@! TF.GenerationSoftware,KiCad,Pcbnew,(5.1.5)-3*
G04 #@! TF.CreationDate,2020-06-17T20:43:19-07:00*
G04 #@! TF.ProjectId,BMS Board,424d5320-426f-4617-9264-2e6b69636164,rev?*
G04 #@! TF.SameCoordinates,Original*
G04 #@! TF.FileFunction,Soldermask,Bot*
G04 #@! TF.FilePolarity,Negative*
%FSLAX46Y46*%
G04 Gerber Fmt 4.6, Leading zero omitted, Abs format (unit mm)*
G04 Created by KiCad (PCBNEW (5.1.5)-3) date 2020-06-17 20:43:19*
%MOMM*%
%LPD*%
G04 APERTURE LIST*
%ADD10C,0.100000*%
G04 APERTURE END LIST*
D10*
G36*
X294749098Y-424267033D02*
G01*
X295213350Y-424459332D01*
X295213352Y-424459333D01*
X295631168Y-424738509D01*
X295986491Y-425093832D01*
X296170971Y-425369926D01*
X296265668Y-425511650D01*
X296457967Y-425975902D01*
X296556000Y-426468747D01*
X296556000Y-426971253D01*
X296457967Y-427464098D01*
X296265668Y-427928350D01*
X296265667Y-427928352D01*
X295986491Y-428346168D01*
X295631168Y-428701491D01*
X295213352Y-428980667D01*
X295213351Y-428980668D01*
X295213350Y-428980668D01*
X294749098Y-429172967D01*
X294256253Y-429271000D01*
X293753747Y-429271000D01*
X293260902Y-429172967D01*
X292796650Y-428980668D01*
X292796649Y-428980668D01*
X292796648Y-428980667D01*
X292378832Y-428701491D01*
X292023509Y-428346168D01*
X291744333Y-427928352D01*
X291744332Y-427928350D01*
X291552033Y-427464098D01*
X291454000Y-426971253D01*
X291454000Y-426468747D01*
X291552033Y-425975902D01*
X291744332Y-425511650D01*
X291839029Y-425369926D01*
X292023509Y-425093832D01*
X292378832Y-424738509D01*
X292796648Y-424459333D01*
X292796650Y-424459332D01*
X293260902Y-424267033D01*
X293753747Y-424169000D01*
X294256253Y-424169000D01*
X294749098Y-424267033D01*
G37*
G36*
X137586598Y-424267033D02*
G01*
X138050850Y-424459332D01*
X138050852Y-424459333D01*
X138468668Y-424738509D01*
X138823991Y-425093832D01*
X139008471Y-425369926D01*
X139103168Y-425511650D01*
X139295467Y-425975902D01*
X139393500Y-426468747D01*
X139393500Y-426971253D01*
X139295467Y-427464098D01*
X139103168Y-427928350D01*
X139103167Y-427928352D01*
X138823991Y-428346168D01*
X138468668Y-428701491D01*
X138050852Y-428980667D01*
X138050851Y-428980668D01*
X138050850Y-428980668D01*
X137586598Y-429172967D01*
X137093753Y-429271000D01*
X136591247Y-429271000D01*
X136098402Y-429172967D01*
X135634150Y-428980668D01*
X135634149Y-428980668D01*
X135634148Y-428980667D01*
X135216332Y-428701491D01*
X134861009Y-428346168D01*
X134581833Y-427928352D01*
X134581832Y-427928350D01*
X134389533Y-427464098D01*
X134291500Y-426971253D01*
X134291500Y-426468747D01*
X134389533Y-425975902D01*
X134581832Y-425511650D01*
X134676529Y-425369926D01*
X134861009Y-425093832D01*
X135216332Y-424738509D01*
X135634148Y-424459333D01*
X135634150Y-424459332D01*
X136098402Y-424267033D01*
X136591247Y-424169000D01*
X137093753Y-424169000D01*
X137586598Y-424267033D01*
G37*
G36*
X273545715Y-424554053D02*
G01*
X273633958Y-424571605D01*
X273702819Y-424600128D01*
X273800203Y-424640466D01*
X273949822Y-424740438D01*
X274077062Y-424867678D01*
X274177034Y-425017297D01*
X274245895Y-425183543D01*
X274281000Y-425360027D01*
X274281000Y-425539973D01*
X274245895Y-425716457D01*
X274177034Y-425882703D01*
X274077062Y-426032322D01*
X273949822Y-426159562D01*
X273800203Y-426259534D01*
X273702819Y-426299872D01*
X273633958Y-426328395D01*
X273545715Y-426345948D01*
X273457473Y-426363500D01*
X273277527Y-426363500D01*
X273189285Y-426345948D01*
X273101042Y-426328395D01*
X273032181Y-426299872D01*
X272934797Y-426259534D01*
X272785178Y-426159562D01*
X272657938Y-426032322D01*
X272557966Y-425882703D01*
X272489105Y-425716457D01*
X272454000Y-425539973D01*
X272454000Y-425360027D01*
X272489105Y-425183543D01*
X272557966Y-425017297D01*
X272657938Y-424867678D01*
X272785178Y-424740438D01*
X272934797Y-424640466D01*
X273032181Y-424600128D01*
X273101042Y-424571605D01*
X273189285Y-424554053D01*
X273277527Y-424536500D01*
X273457473Y-424536500D01*
X273545715Y-424554053D01*
G37*
G36*
X271741000Y-426363500D02*
G01*
X269914000Y-426363500D01*
X269914000Y-424536500D01*
X271741000Y-424536500D01*
X271741000Y-426363500D01*
G37*
G36*
X276085715Y-424554053D02*
G01*
X276173958Y-424571605D01*
X276242819Y-424600128D01*
X276340203Y-424640466D01*
X276489822Y-424740438D01*
X276617062Y-424867678D01*
X276717034Y-425017297D01*
X276785895Y-425183543D01*
X276821000Y-425360027D01*
X276821000Y-425539973D01*
X276785895Y-425716457D01*
X276717034Y-425882703D01*
X276617062Y-426032322D01*
X276489822Y-426159562D01*
X276340203Y-426259534D01*
X276242819Y-426299872D01*
X276173958Y-426328395D01*
X276085715Y-426345948D01*
X275997473Y-426363500D01*
X275817527Y-426363500D01*
X275729285Y-426345948D01*
X275641042Y-426328395D01*
X275572181Y-426299872D01*
X275474797Y-426259534D01*
X275325178Y-426159562D01*
X275197938Y-426032322D01*
X275097966Y-425882703D01*
X275029105Y-425716457D01*
X274994000Y-425539973D01*
X274994000Y-425360027D01*
X275029105Y-425183543D01*
X275097966Y-425017297D01*
X275197938Y-424867678D01*
X275325178Y-424740438D01*
X275474797Y-424640466D01*
X275572181Y-424600128D01*
X275641042Y-424571605D01*
X275729285Y-424554053D01*
X275817527Y-424536500D01*
X275997473Y-424536500D01*
X276085715Y-424554053D01*
G37*
G36*
X278625715Y-424554053D02*
G01*
X278713958Y-424571605D01*
X278782819Y-424600128D01*
X278880203Y-424640466D01*
X279029822Y-424740438D01*
X279157062Y-424867678D01*
X279257034Y-425017297D01*
X279325895Y-425183543D01*
X279361000Y-425360027D01*
X279361000Y-425539973D01*
X279325895Y-425716457D01*
X279257034Y-425882703D01*
X279157062Y-426032322D01*
X279029822Y-426159562D01*
X278880203Y-426259534D01*
X278782819Y-426299872D01*
X278713958Y-426328395D01*
X278625715Y-426345948D01*
X278537473Y-426363500D01*
X278357527Y-426363500D01*
X278269285Y-426345948D01*
X278181042Y-426328395D01*
X278112181Y-426299872D01*
X278014797Y-426259534D01*
X277865178Y-426159562D01*
X277737938Y-426032322D01*
X277637966Y-425882703D01*
X277569105Y-425716457D01*
X277534000Y-425539973D01*
X277534000Y-425360027D01*
X277569105Y-425183543D01*
X277637966Y-425017297D01*
X277737938Y-424867678D01*
X277865178Y-424740438D01*
X278014797Y-424640466D01*
X278112181Y-424600128D01*
X278181042Y-424571605D01*
X278269285Y-424554053D01*
X278357527Y-424536500D01*
X278537473Y-424536500D01*
X278625715Y-424554053D01*
G37*
G36*
X251697142Y-424668242D02*
G01*
X251845101Y-424729529D01*
X251978255Y-424818499D01*
X252091501Y-424931745D01*
X252180471Y-425064899D01*
X252241758Y-425212858D01*
X252273000Y-425369925D01*
X252273000Y-425530075D01*
X252241758Y-425687142D01*
X252180471Y-425835101D01*
X252091501Y-425968255D01*
X251978255Y-426081501D01*
X251845101Y-426170471D01*
X251697142Y-426231758D01*
X251540075Y-426263000D01*
X251379925Y-426263000D01*
X251222858Y-426231758D01*
X251074899Y-426170471D01*
X250941745Y-426081501D01*
X250828499Y-425968255D01*
X250739529Y-425835101D01*
X250678242Y-425687142D01*
X250647000Y-425530075D01*
X250647000Y-425369925D01*
X250678242Y-425212858D01*
X250739529Y-425064899D01*
X250828499Y-424931745D01*
X250941745Y-424818499D01*
X251074899Y-424729529D01*
X251222858Y-424668242D01*
X251379925Y-424637000D01*
X251540075Y-424637000D01*
X251697142Y-424668242D01*
G37*
G36*
X266937142Y-424668242D02*
G01*
X267085101Y-424729529D01*
X267218255Y-424818499D01*
X267331501Y-424931745D01*
X267420471Y-425064899D01*
X267481758Y-425212858D01*
X267513000Y-425369925D01*
X267513000Y-425530075D01*
X267481758Y-425687142D01*
X267420471Y-425835101D01*
X267331501Y-425968255D01*
X267218255Y-426081501D01*
X267085101Y-426170471D01*
X266937142Y-426231758D01*
X266780075Y-426263000D01*
X266619925Y-426263000D01*
X266462858Y-426231758D01*
X266314899Y-426170471D01*
X266181745Y-426081501D01*
X266068499Y-425968255D01*
X265979529Y-425835101D01*
X265918242Y-425687142D01*
X265887000Y-425530075D01*
X265887000Y-425369925D01*
X265918242Y-425212858D01*
X265979529Y-425064899D01*
X266068499Y-424931745D01*
X266181745Y-424818499D01*
X266314899Y-424729529D01*
X266462858Y-424668242D01*
X266619925Y-424637000D01*
X266780075Y-424637000D01*
X266937142Y-424668242D01*
G37*
G36*
X233026000Y-425116000D02*
G01*
X230174000Y-425116000D01*
X230174000Y-424014000D01*
X233026000Y-424014000D01*
X233026000Y-425116000D01*
G37*
G36*
X241426000Y-425101000D02*
G01*
X235174000Y-425101000D01*
X235174000Y-419449000D01*
X241426000Y-419449000D01*
X241426000Y-425101000D01*
G37*
G36*
X198553500Y-424753500D02*
G01*
X197051500Y-424753500D01*
X197051500Y-423601500D01*
X198553500Y-423601500D01*
X198553500Y-424753500D01*
G37*
G36*
X196596000Y-424678500D02*
G01*
X195294000Y-424678500D01*
X195294000Y-423676500D01*
X196596000Y-423676500D01*
X196596000Y-424678500D01*
G37*
G36*
X208313000Y-424238500D02*
G01*
X206686000Y-424238500D01*
X206686000Y-423486500D01*
X208313000Y-423486500D01*
X208313000Y-424238500D01*
G37*
G36*
X202889000Y-424238500D02*
G01*
X201262000Y-424238500D01*
X201262000Y-423486500D01*
X202889000Y-423486500D01*
X202889000Y-424238500D01*
G37*
G36*
X194596000Y-423728500D02*
G01*
X193294000Y-423728500D01*
X193294000Y-422726500D01*
X194596000Y-422726500D01*
X194596000Y-423728500D01*
G37*
G36*
X266937142Y-422128242D02*
G01*
X267085101Y-422189529D01*
X267218255Y-422278499D01*
X267331501Y-422391745D01*
X267420471Y-422524899D01*
X267481758Y-422672858D01*
X267513000Y-422829925D01*
X267513000Y-422990075D01*
X267481758Y-423147142D01*
X267420471Y-423295101D01*
X267331501Y-423428255D01*
X267218255Y-423541501D01*
X267085101Y-423630471D01*
X266937142Y-423691758D01*
X266780075Y-423723000D01*
X266619925Y-423723000D01*
X266462858Y-423691758D01*
X266314899Y-423630471D01*
X266181745Y-423541501D01*
X266068499Y-423428255D01*
X265979529Y-423295101D01*
X265918242Y-423147142D01*
X265887000Y-422990075D01*
X265887000Y-422829925D01*
X265918242Y-422672858D01*
X265979529Y-422524899D01*
X266068499Y-422391745D01*
X266181745Y-422278499D01*
X266314899Y-422189529D01*
X266462858Y-422128242D01*
X266619925Y-422097000D01*
X266780075Y-422097000D01*
X266937142Y-422128242D01*
G37*
G36*
X251697142Y-422128242D02*
G01*
X251845101Y-422189529D01*
X251978255Y-422278499D01*
X252091501Y-422391745D01*
X252180471Y-422524899D01*
X252241758Y-422672858D01*
X252273000Y-422829925D01*
X252273000Y-422990075D01*
X252241758Y-423147142D01*
X252180471Y-423295101D01*
X252091501Y-423428255D01*
X251978255Y-423541501D01*
X251845101Y-423630471D01*
X251697142Y-423691758D01*
X251540075Y-423723000D01*
X251379925Y-423723000D01*
X251222858Y-423691758D01*
X251074899Y-423630471D01*
X250941745Y-423541501D01*
X250828499Y-423428255D01*
X250739529Y-423295101D01*
X250678242Y-423147142D01*
X250647000Y-422990075D01*
X250647000Y-422829925D01*
X250678242Y-422672858D01*
X250739529Y-422524899D01*
X250828499Y-422391745D01*
X250941745Y-422278499D01*
X251074899Y-422189529D01*
X251222858Y-422128242D01*
X251379925Y-422097000D01*
X251540075Y-422097000D01*
X251697142Y-422128242D01*
G37*
G36*
X208313000Y-422968500D02*
G01*
X206686000Y-422968500D01*
X206686000Y-422216500D01*
X208313000Y-422216500D01*
X208313000Y-422968500D01*
G37*
G36*
X202889000Y-422968500D02*
G01*
X201262000Y-422968500D01*
X201262000Y-422216500D01*
X202889000Y-422216500D01*
X202889000Y-422968500D01*
G37*
G36*
X198553500Y-422853500D02*
G01*
X197051500Y-422853500D01*
X197051500Y-421701500D01*
X198553500Y-421701500D01*
X198553500Y-422853500D01*
G37*
G36*
X196596000Y-422778500D02*
G01*
X195294000Y-422778500D01*
X195294000Y-421776500D01*
X196596000Y-421776500D01*
X196596000Y-422778500D01*
G37*
G36*
X202889000Y-421698500D02*
G01*
X201262000Y-421698500D01*
X201262000Y-420946500D01*
X202889000Y-420946500D01*
X202889000Y-421698500D01*
G37*
G36*
X208313000Y-421698500D02*
G01*
X206686000Y-421698500D01*
X206686000Y-420946500D01*
X208313000Y-420946500D01*
X208313000Y-421698500D01*
G37*
G36*
X266937142Y-419588242D02*
G01*
X267085101Y-419649529D01*
X267218255Y-419738499D01*
X267331501Y-419851745D01*
X267420471Y-419984899D01*
X267481758Y-420132858D01*
X267513000Y-420289925D01*
X267513000Y-420450075D01*
X267481758Y-420607142D01*
X267420471Y-420755101D01*
X267331501Y-420888255D01*
X267218255Y-421001501D01*
X267085101Y-421090471D01*
X266937142Y-421151758D01*
X266780075Y-421183000D01*
X266619925Y-421183000D01*
X266462858Y-421151758D01*
X266314899Y-421090471D01*
X266181745Y-421001501D01*
X266068499Y-420888255D01*
X265979529Y-420755101D01*
X265918242Y-420607142D01*
X265887000Y-420450075D01*
X265887000Y-420289925D01*
X265918242Y-420132858D01*
X265979529Y-419984899D01*
X266068499Y-419851745D01*
X266181745Y-419738499D01*
X266314899Y-419649529D01*
X266462858Y-419588242D01*
X266619925Y-419557000D01*
X266780075Y-419557000D01*
X266937142Y-419588242D01*
G37*
G36*
X251697142Y-419588242D02*
G01*
X251845101Y-419649529D01*
X251978255Y-419738499D01*
X252091501Y-419851745D01*
X252180471Y-419984899D01*
X252241758Y-420132858D01*
X252273000Y-420289925D01*
X252273000Y-420450075D01*
X252241758Y-420607142D01*
X252180471Y-420755101D01*
X252091501Y-420888255D01*
X251978255Y-421001501D01*
X251845101Y-421090471D01*
X251697142Y-421151758D01*
X251540075Y-421183000D01*
X251379925Y-421183000D01*
X251222858Y-421151758D01*
X251074899Y-421090471D01*
X250941745Y-421001501D01*
X250828499Y-420888255D01*
X250739529Y-420755101D01*
X250678242Y-420607142D01*
X250647000Y-420450075D01*
X250647000Y-420289925D01*
X250678242Y-420132858D01*
X250739529Y-419984899D01*
X250828499Y-419851745D01*
X250941745Y-419738499D01*
X251074899Y-419649529D01*
X251222858Y-419588242D01*
X251379925Y-419557000D01*
X251540075Y-419557000D01*
X251697142Y-419588242D01*
G37*
G36*
X214251000Y-421121000D02*
G01*
X213099000Y-421121000D01*
X213099000Y-419619000D01*
X214251000Y-419619000D01*
X214251000Y-421121000D01*
G37*
G36*
X212351000Y-421121000D02*
G01*
X211199000Y-421121000D01*
X211199000Y-419619000D01*
X212351000Y-419619000D01*
X212351000Y-421121000D01*
G37*
G36*
X156701000Y-420751000D02*
G01*
X154599000Y-420751000D01*
X154599000Y-417449000D01*
X156701000Y-417449000D01*
X156701000Y-420751000D01*
G37*
G36*
X194801000Y-420751000D02*
G01*
X192699000Y-420751000D01*
X192699000Y-417449000D01*
X194801000Y-417449000D01*
X194801000Y-420751000D01*
G37*
G36*
X188301000Y-420751000D02*
G01*
X186199000Y-420751000D01*
X186199000Y-417449000D01*
X188301000Y-417449000D01*
X188301000Y-420751000D01*
G37*
G36*
X162901000Y-420751000D02*
G01*
X160799000Y-420751000D01*
X160799000Y-417449000D01*
X162901000Y-417449000D01*
X162901000Y-420751000D01*
G37*
G36*
X182101000Y-420751000D02*
G01*
X179999000Y-420751000D01*
X179999000Y-417449000D01*
X182101000Y-417449000D01*
X182101000Y-420751000D01*
G37*
G36*
X169401000Y-420751000D02*
G01*
X167299000Y-420751000D01*
X167299000Y-417449000D01*
X169401000Y-417449000D01*
X169401000Y-420751000D01*
G37*
G36*
X175601000Y-420751000D02*
G01*
X173499000Y-420751000D01*
X173499000Y-417449000D01*
X175601000Y-417449000D01*
X175601000Y-420751000D01*
G37*
G36*
X150201000Y-420751000D02*
G01*
X148099000Y-420751000D01*
X148099000Y-417449000D01*
X150201000Y-417449000D01*
X150201000Y-420751000D01*
G37*
G36*
X233026000Y-420536000D02*
G01*
X230174000Y-420536000D01*
X230174000Y-419434000D01*
X233026000Y-419434000D01*
X233026000Y-420536000D01*
G37*
G36*
X202889000Y-420428500D02*
G01*
X201262000Y-420428500D01*
X201262000Y-419676500D01*
X202889000Y-419676500D01*
X202889000Y-420428500D01*
G37*
G36*
X208313000Y-420428500D02*
G01*
X206686000Y-420428500D01*
X206686000Y-419676500D01*
X208313000Y-419676500D01*
X208313000Y-420428500D01*
G37*
G36*
X227998000Y-419793500D02*
G01*
X226371000Y-419793500D01*
X226371000Y-419041500D01*
X227998000Y-419041500D01*
X227998000Y-419793500D01*
G37*
G36*
X222574000Y-419793500D02*
G01*
X220947000Y-419793500D01*
X220947000Y-419041500D01*
X222574000Y-419041500D01*
X222574000Y-419793500D01*
G37*
G36*
X212351000Y-419216000D02*
G01*
X211199000Y-419216000D01*
X211199000Y-417714000D01*
X212351000Y-417714000D01*
X212351000Y-419216000D01*
G37*
G36*
X214251000Y-419216000D02*
G01*
X213099000Y-419216000D01*
X213099000Y-417714000D01*
X214251000Y-417714000D01*
X214251000Y-419216000D01*
G37*
G36*
X232243500Y-418883500D02*
G01*
X230671500Y-418883500D01*
X230671500Y-417761500D01*
X232243500Y-417761500D01*
X232243500Y-418883500D01*
G37*
G36*
X251697142Y-417048242D02*
G01*
X251845101Y-417109529D01*
X251978255Y-417198499D01*
X252091501Y-417311745D01*
X252180471Y-417444899D01*
X252241758Y-417592858D01*
X252273000Y-417749925D01*
X252273000Y-417910075D01*
X252241758Y-418067142D01*
X252180471Y-418215101D01*
X252091501Y-418348255D01*
X251978255Y-418461501D01*
X251845101Y-418550471D01*
X251697142Y-418611758D01*
X251540075Y-418643000D01*
X251379925Y-418643000D01*
X251222858Y-418611758D01*
X251074899Y-418550471D01*
X250941745Y-418461501D01*
X250828499Y-418348255D01*
X250739529Y-418215101D01*
X250678242Y-418067142D01*
X250647000Y-417910075D01*
X250647000Y-417749925D01*
X250678242Y-417592858D01*
X250739529Y-417444899D01*
X250828499Y-417311745D01*
X250941745Y-417198499D01*
X251074899Y-417109529D01*
X251222858Y-417048242D01*
X251379925Y-417017000D01*
X251540075Y-417017000D01*
X251697142Y-417048242D01*
G37*
G36*
X266937142Y-417048242D02*
G01*
X267085101Y-417109529D01*
X267218255Y-417198499D01*
X267331501Y-417311745D01*
X267420471Y-417444899D01*
X267481758Y-417592858D01*
X267513000Y-417749925D01*
X267513000Y-417910075D01*
X267481758Y-418067142D01*
X267420471Y-418215101D01*
X267331501Y-418348255D01*
X267218255Y-418461501D01*
X267085101Y-418550471D01*
X266937142Y-418611758D01*
X266780075Y-418643000D01*
X266619925Y-418643000D01*
X266462858Y-418611758D01*
X266314899Y-418550471D01*
X266181745Y-418461501D01*
X266068499Y-418348255D01*
X265979529Y-418215101D01*
X265918242Y-418067142D01*
X265887000Y-417910075D01*
X265887000Y-417749925D01*
X265918242Y-417592858D01*
X265979529Y-417444899D01*
X266068499Y-417311745D01*
X266181745Y-417198499D01*
X266314899Y-417109529D01*
X266462858Y-417048242D01*
X266619925Y-417017000D01*
X266780075Y-417017000D01*
X266937142Y-417048242D01*
G37*
G36*
X219543500Y-418566000D02*
G01*
X217971500Y-418566000D01*
X217971500Y-417444000D01*
X219543500Y-417444000D01*
X219543500Y-418566000D01*
G37*
G36*
X222574000Y-418523500D02*
G01*
X220947000Y-418523500D01*
X220947000Y-417771500D01*
X222574000Y-417771500D01*
X222574000Y-418523500D01*
G37*
G36*
X227998000Y-418523500D02*
G01*
X226371000Y-418523500D01*
X226371000Y-417771500D01*
X227998000Y-417771500D01*
X227998000Y-418523500D01*
G37*
G36*
X230338500Y-417613500D02*
G01*
X228766500Y-417613500D01*
X228766500Y-416491500D01*
X230338500Y-416491500D01*
X230338500Y-417613500D01*
G37*
G36*
X214251000Y-417311000D02*
G01*
X213099000Y-417311000D01*
X213099000Y-415809000D01*
X214251000Y-415809000D01*
X214251000Y-417311000D01*
G37*
G36*
X212351000Y-417311000D02*
G01*
X211199000Y-417311000D01*
X211199000Y-415809000D01*
X212351000Y-415809000D01*
X212351000Y-417311000D01*
G37*
G36*
X232243500Y-417263500D02*
G01*
X230671500Y-417263500D01*
X230671500Y-416141500D01*
X232243500Y-416141500D01*
X232243500Y-417263500D01*
G37*
G36*
X222574000Y-417253500D02*
G01*
X220947000Y-417253500D01*
X220947000Y-416501500D01*
X222574000Y-416501500D01*
X222574000Y-417253500D01*
G37*
G36*
X227998000Y-417253500D02*
G01*
X226371000Y-417253500D01*
X226371000Y-416501500D01*
X227998000Y-416501500D01*
X227998000Y-417253500D01*
G37*
G36*
X219543500Y-416946000D02*
G01*
X217971500Y-416946000D01*
X217971500Y-415824000D01*
X219543500Y-415824000D01*
X219543500Y-416946000D01*
G37*
G36*
X194801000Y-416941000D02*
G01*
X192699000Y-416941000D01*
X192699000Y-413639000D01*
X194801000Y-413639000D01*
X194801000Y-416941000D01*
G37*
G36*
X188301000Y-416941000D02*
G01*
X186199000Y-416941000D01*
X186199000Y-413639000D01*
X188301000Y-413639000D01*
X188301000Y-416941000D01*
G37*
G36*
X184651000Y-416941000D02*
G01*
X183649000Y-416941000D01*
X183649000Y-415639000D01*
X184651000Y-415639000D01*
X184651000Y-416941000D01*
G37*
G36*
X150201000Y-416941000D02*
G01*
X148099000Y-416941000D01*
X148099000Y-413639000D01*
X150201000Y-413639000D01*
X150201000Y-416941000D01*
G37*
G36*
X182101000Y-416941000D02*
G01*
X179999000Y-416941000D01*
X179999000Y-413639000D01*
X182101000Y-413639000D01*
X182101000Y-416941000D01*
G37*
G36*
X171951000Y-416941000D02*
G01*
X170949000Y-416941000D01*
X170949000Y-415639000D01*
X171951000Y-415639000D01*
X171951000Y-416941000D01*
G37*
G36*
X159251000Y-416941000D02*
G01*
X158249000Y-416941000D01*
X158249000Y-415639000D01*
X159251000Y-415639000D01*
X159251000Y-416941000D01*
G37*
G36*
X175601000Y-416941000D02*
G01*
X173499000Y-416941000D01*
X173499000Y-413639000D01*
X175601000Y-413639000D01*
X175601000Y-416941000D01*
G37*
G36*
X156701000Y-416941000D02*
G01*
X154599000Y-416941000D01*
X154599000Y-413639000D01*
X156701000Y-413639000D01*
X156701000Y-416941000D01*
G37*
G36*
X169401000Y-416941000D02*
G01*
X167299000Y-416941000D01*
X167299000Y-413639000D01*
X169401000Y-413639000D01*
X169401000Y-416941000D01*
G37*
G36*
X162901000Y-416941000D02*
G01*
X160799000Y-416941000D01*
X160799000Y-413639000D01*
X162901000Y-413639000D01*
X162901000Y-416941000D01*
G37*
G36*
X251697142Y-414508242D02*
G01*
X251845101Y-414569529D01*
X251978255Y-414658499D01*
X252091501Y-414771745D01*
X252180471Y-414904899D01*
X252241758Y-415052858D01*
X252273000Y-415209925D01*
X252273000Y-415370075D01*
X252241758Y-415527142D01*
X252180471Y-415675101D01*
X252091501Y-415808255D01*
X251978255Y-415921501D01*
X251845101Y-416010471D01*
X251697142Y-416071758D01*
X251540075Y-416103000D01*
X251379925Y-416103000D01*
X251222858Y-416071758D01*
X251074899Y-416010471D01*
X250941745Y-415921501D01*
X250828499Y-415808255D01*
X250739529Y-415675101D01*
X250678242Y-415527142D01*
X250647000Y-415370075D01*
X250647000Y-415209925D01*
X250678242Y-415052858D01*
X250739529Y-414904899D01*
X250828499Y-414771745D01*
X250941745Y-414658499D01*
X251074899Y-414569529D01*
X251222858Y-414508242D01*
X251379925Y-414477000D01*
X251540075Y-414477000D01*
X251697142Y-414508242D01*
G37*
G36*
X266937142Y-414508242D02*
G01*
X267085101Y-414569529D01*
X267218255Y-414658499D01*
X267331501Y-414771745D01*
X267420471Y-414904899D01*
X267481758Y-415052858D01*
X267513000Y-415209925D01*
X267513000Y-415370075D01*
X267481758Y-415527142D01*
X267420471Y-415675101D01*
X267331501Y-415808255D01*
X267218255Y-415921501D01*
X267085101Y-416010471D01*
X266937142Y-416071758D01*
X266780075Y-416103000D01*
X266619925Y-416103000D01*
X266462858Y-416071758D01*
X266314899Y-416010471D01*
X266181745Y-415921501D01*
X266068499Y-415808255D01*
X265979529Y-415675101D01*
X265918242Y-415527142D01*
X265887000Y-415370075D01*
X265887000Y-415209925D01*
X265918242Y-415052858D01*
X265979529Y-414904899D01*
X266068499Y-414771745D01*
X266181745Y-414658499D01*
X266314899Y-414569529D01*
X266462858Y-414508242D01*
X266619925Y-414477000D01*
X266780075Y-414477000D01*
X266937142Y-414508242D01*
G37*
G36*
X230338500Y-415993500D02*
G01*
X228766500Y-415993500D01*
X228766500Y-414871500D01*
X230338500Y-414871500D01*
X230338500Y-415993500D01*
G37*
G36*
X222574000Y-415983500D02*
G01*
X220947000Y-415983500D01*
X220947000Y-415231500D01*
X222574000Y-415231500D01*
X222574000Y-415983500D01*
G37*
G36*
X227998000Y-415983500D02*
G01*
X226371000Y-415983500D01*
X226371000Y-415231500D01*
X227998000Y-415231500D01*
X227998000Y-415983500D01*
G37*
G36*
X214251000Y-415406000D02*
G01*
X213099000Y-415406000D01*
X213099000Y-413904000D01*
X214251000Y-413904000D01*
X214251000Y-415406000D01*
G37*
G36*
X212351000Y-415406000D02*
G01*
X211199000Y-415406000D01*
X211199000Y-413904000D01*
X212351000Y-413904000D01*
X212351000Y-415406000D01*
G37*
G36*
X242411000Y-415221000D02*
G01*
X240009000Y-415221000D01*
X240009000Y-412819000D01*
X242411000Y-412819000D01*
X242411000Y-415221000D01*
G37*
G36*
X237511000Y-415221000D02*
G01*
X235109000Y-415221000D01*
X235109000Y-412819000D01*
X237511000Y-412819000D01*
X237511000Y-415221000D01*
G37*
G36*
X208313000Y-415031000D02*
G01*
X206686000Y-415031000D01*
X206686000Y-414279000D01*
X208313000Y-414279000D01*
X208313000Y-415031000D01*
G37*
G36*
X202889000Y-415031000D02*
G01*
X201262000Y-415031000D01*
X201262000Y-414279000D01*
X202889000Y-414279000D01*
X202889000Y-415031000D01*
G37*
G36*
X160201000Y-414941000D02*
G01*
X159199000Y-414941000D01*
X159199000Y-413639000D01*
X160201000Y-413639000D01*
X160201000Y-414941000D01*
G37*
G36*
X171001000Y-414941000D02*
G01*
X169999000Y-414941000D01*
X169999000Y-413639000D01*
X171001000Y-413639000D01*
X171001000Y-414941000D01*
G37*
G36*
X183701000Y-414941000D02*
G01*
X182699000Y-414941000D01*
X182699000Y-413639000D01*
X183701000Y-413639000D01*
X183701000Y-414941000D01*
G37*
G36*
X172901000Y-414941000D02*
G01*
X171899000Y-414941000D01*
X171899000Y-413639000D01*
X172901000Y-413639000D01*
X172901000Y-414941000D01*
G37*
G36*
X185601000Y-414941000D02*
G01*
X184599000Y-414941000D01*
X184599000Y-413639000D01*
X185601000Y-413639000D01*
X185601000Y-414941000D01*
G37*
G36*
X158301000Y-414941000D02*
G01*
X157299000Y-414941000D01*
X157299000Y-413639000D01*
X158301000Y-413639000D01*
X158301000Y-414941000D01*
G37*
G36*
X202889000Y-413761000D02*
G01*
X201262000Y-413761000D01*
X201262000Y-413009000D01*
X202889000Y-413009000D01*
X202889000Y-413761000D01*
G37*
G36*
X208313000Y-413761000D02*
G01*
X206686000Y-413761000D01*
X206686000Y-413009000D01*
X208313000Y-413009000D01*
X208313000Y-413761000D01*
G37*
G36*
X251697142Y-411968242D02*
G01*
X251845101Y-412029529D01*
X251978255Y-412118499D01*
X252091501Y-412231745D01*
X252180471Y-412364899D01*
X252241758Y-412512858D01*
X252273000Y-412669925D01*
X252273000Y-412830075D01*
X252241758Y-412987142D01*
X252180471Y-413135101D01*
X252091501Y-413268255D01*
X251978255Y-413381501D01*
X251845101Y-413470471D01*
X251697142Y-413531758D01*
X251540075Y-413563000D01*
X251379925Y-413563000D01*
X251222858Y-413531758D01*
X251074899Y-413470471D01*
X250941745Y-413381501D01*
X250828499Y-413268255D01*
X250739529Y-413135101D01*
X250678242Y-412987142D01*
X250647000Y-412830075D01*
X250647000Y-412669925D01*
X250678242Y-412512858D01*
X250739529Y-412364899D01*
X250828499Y-412231745D01*
X250941745Y-412118499D01*
X251074899Y-412029529D01*
X251222858Y-411968242D01*
X251379925Y-411937000D01*
X251540075Y-411937000D01*
X251697142Y-411968242D01*
G37*
G36*
X266937142Y-411968242D02*
G01*
X267085101Y-412029529D01*
X267218255Y-412118499D01*
X267331501Y-412231745D01*
X267420471Y-412364899D01*
X267481758Y-412512858D01*
X267513000Y-412669925D01*
X267513000Y-412830075D01*
X267481758Y-412987142D01*
X267420471Y-413135101D01*
X267331501Y-413268255D01*
X267218255Y-413381501D01*
X267085101Y-413470471D01*
X266937142Y-413531758D01*
X266780075Y-413563000D01*
X266619925Y-413563000D01*
X266462858Y-413531758D01*
X266314899Y-413470471D01*
X266181745Y-413381501D01*
X266068499Y-413268255D01*
X265979529Y-413135101D01*
X265918242Y-412987142D01*
X265887000Y-412830075D01*
X265887000Y-412669925D01*
X265918242Y-412512858D01*
X265979529Y-412364899D01*
X266068499Y-412231745D01*
X266181745Y-412118499D01*
X266314899Y-412029529D01*
X266462858Y-411968242D01*
X266619925Y-411937000D01*
X266780075Y-411937000D01*
X266937142Y-411968242D01*
G37*
G36*
X182101000Y-413131000D02*
G01*
X179999000Y-413131000D01*
X179999000Y-409829000D01*
X182101000Y-409829000D01*
X182101000Y-413131000D01*
G37*
G36*
X194801000Y-413131000D02*
G01*
X192699000Y-413131000D01*
X192699000Y-409829000D01*
X194801000Y-409829000D01*
X194801000Y-413131000D01*
G37*
G36*
X188301000Y-413131000D02*
G01*
X186199000Y-413131000D01*
X186199000Y-409829000D01*
X188301000Y-409829000D01*
X188301000Y-413131000D01*
G37*
G36*
X175601000Y-413131000D02*
G01*
X173499000Y-413131000D01*
X173499000Y-409829000D01*
X175601000Y-409829000D01*
X175601000Y-413131000D01*
G37*
G36*
X150201000Y-413131000D02*
G01*
X148099000Y-413131000D01*
X148099000Y-409829000D01*
X150201000Y-409829000D01*
X150201000Y-413131000D01*
G37*
G36*
X156701000Y-413131000D02*
G01*
X154599000Y-413131000D01*
X154599000Y-409829000D01*
X156701000Y-409829000D01*
X156701000Y-413131000D01*
G37*
G36*
X162901000Y-413131000D02*
G01*
X160799000Y-413131000D01*
X160799000Y-409829000D01*
X162901000Y-409829000D01*
X162901000Y-413131000D01*
G37*
G36*
X169401000Y-413131000D02*
G01*
X167299000Y-413131000D01*
X167299000Y-409829000D01*
X169401000Y-409829000D01*
X169401000Y-413131000D01*
G37*
G36*
X202889000Y-412491000D02*
G01*
X201262000Y-412491000D01*
X201262000Y-411739000D01*
X202889000Y-411739000D01*
X202889000Y-412491000D01*
G37*
G36*
X208313000Y-412491000D02*
G01*
X206686000Y-412491000D01*
X206686000Y-411739000D01*
X208313000Y-411739000D01*
X208313000Y-412491000D01*
G37*
G36*
X185676000Y-412231000D02*
G01*
X184524000Y-412231000D01*
X184524000Y-410729000D01*
X185676000Y-410729000D01*
X185676000Y-412231000D01*
G37*
G36*
X183776000Y-412231000D02*
G01*
X182624000Y-412231000D01*
X182624000Y-410729000D01*
X183776000Y-410729000D01*
X183776000Y-412231000D01*
G37*
G36*
X158376000Y-412231000D02*
G01*
X157224000Y-412231000D01*
X157224000Y-410729000D01*
X158376000Y-410729000D01*
X158376000Y-412231000D01*
G37*
G36*
X171076000Y-412231000D02*
G01*
X169924000Y-412231000D01*
X169924000Y-410729000D01*
X171076000Y-410729000D01*
X171076000Y-412231000D01*
G37*
G36*
X172976000Y-412231000D02*
G01*
X171824000Y-412231000D01*
X171824000Y-410729000D01*
X172976000Y-410729000D01*
X172976000Y-412231000D01*
G37*
G36*
X160276000Y-412231000D02*
G01*
X159124000Y-412231000D01*
X159124000Y-410729000D01*
X160276000Y-410729000D01*
X160276000Y-412231000D01*
G37*
G36*
X231076000Y-411221000D02*
G01*
X229124000Y-411221000D01*
X229124000Y-410469000D01*
X231076000Y-410469000D01*
X231076000Y-411221000D01*
G37*
G36*
X221726000Y-411221000D02*
G01*
X219774000Y-411221000D01*
X219774000Y-410469000D01*
X221726000Y-410469000D01*
X221726000Y-411221000D01*
G37*
G36*
X202889000Y-411221000D02*
G01*
X201262000Y-411221000D01*
X201262000Y-410469000D01*
X202889000Y-410469000D01*
X202889000Y-411221000D01*
G37*
G36*
X208313000Y-411221000D02*
G01*
X206686000Y-411221000D01*
X206686000Y-410469000D01*
X208313000Y-410469000D01*
X208313000Y-411221000D01*
G37*
G36*
X266937142Y-409428242D02*
G01*
X267085101Y-409489529D01*
X267218255Y-409578499D01*
X267331501Y-409691745D01*
X267420471Y-409824899D01*
X267481758Y-409972858D01*
X267513000Y-410129925D01*
X267513000Y-410290075D01*
X267481758Y-410447142D01*
X267420471Y-410595101D01*
X267331501Y-410728255D01*
X267218255Y-410841501D01*
X267085101Y-410930471D01*
X266937142Y-410991758D01*
X266780075Y-411023000D01*
X266619925Y-411023000D01*
X266462858Y-410991758D01*
X266314899Y-410930471D01*
X266181745Y-410841501D01*
X266068499Y-410728255D01*
X265979529Y-410595101D01*
X265918242Y-410447142D01*
X265887000Y-410290075D01*
X265887000Y-410129925D01*
X265918242Y-409972858D01*
X265979529Y-409824899D01*
X266068499Y-409691745D01*
X266181745Y-409578499D01*
X266314899Y-409489529D01*
X266462858Y-409428242D01*
X266619925Y-409397000D01*
X266780075Y-409397000D01*
X266937142Y-409428242D01*
G37*
G36*
X251697142Y-409428242D02*
G01*
X251845101Y-409489529D01*
X251978255Y-409578499D01*
X252091501Y-409691745D01*
X252180471Y-409824899D01*
X252241758Y-409972858D01*
X252273000Y-410129925D01*
X252273000Y-410290075D01*
X252241758Y-410447142D01*
X252180471Y-410595101D01*
X252091501Y-410728255D01*
X251978255Y-410841501D01*
X251845101Y-410930471D01*
X251697142Y-410991758D01*
X251540075Y-411023000D01*
X251379925Y-411023000D01*
X251222858Y-410991758D01*
X251074899Y-410930471D01*
X250941745Y-410841501D01*
X250828499Y-410728255D01*
X250739529Y-410595101D01*
X250678242Y-410447142D01*
X250647000Y-410290075D01*
X250647000Y-410129925D01*
X250678242Y-409972858D01*
X250739529Y-409824899D01*
X250828499Y-409691745D01*
X250941745Y-409578499D01*
X251074899Y-409489529D01*
X251222858Y-409428242D01*
X251379925Y-409397000D01*
X251540075Y-409397000D01*
X251697142Y-409428242D01*
G37*
G36*
X231076000Y-409951000D02*
G01*
X229124000Y-409951000D01*
X229124000Y-409199000D01*
X231076000Y-409199000D01*
X231076000Y-409951000D01*
G37*
G36*
X221726000Y-409951000D02*
G01*
X219774000Y-409951000D01*
X219774000Y-409199000D01*
X221726000Y-409199000D01*
X221726000Y-409951000D01*
G37*
G36*
X221726000Y-408681000D02*
G01*
X219774000Y-408681000D01*
X219774000Y-407929000D01*
X221726000Y-407929000D01*
X221726000Y-408681000D01*
G37*
G36*
X231076000Y-408681000D02*
G01*
X229124000Y-408681000D01*
X229124000Y-407929000D01*
X231076000Y-407929000D01*
X231076000Y-408681000D01*
G37*
G36*
X202889000Y-408681000D02*
G01*
X201262000Y-408681000D01*
X201262000Y-407929000D01*
X202889000Y-407929000D01*
X202889000Y-408681000D01*
G37*
G36*
X208313000Y-408681000D02*
G01*
X206686000Y-408681000D01*
X206686000Y-407929000D01*
X208313000Y-407929000D01*
X208313000Y-408681000D01*
G37*
G36*
X266937142Y-406888242D02*
G01*
X267085101Y-406949529D01*
X267218255Y-407038499D01*
X267331501Y-407151745D01*
X267420471Y-407284899D01*
X267481758Y-407432858D01*
X267513000Y-407589925D01*
X267513000Y-407750075D01*
X267481758Y-407907142D01*
X267420471Y-408055101D01*
X267331501Y-408188255D01*
X267218255Y-408301501D01*
X267085101Y-408390471D01*
X266937142Y-408451758D01*
X266780075Y-408483000D01*
X266619925Y-408483000D01*
X266462858Y-408451758D01*
X266314899Y-408390471D01*
X266181745Y-408301501D01*
X266068499Y-408188255D01*
X265979529Y-408055101D01*
X265918242Y-407907142D01*
X265887000Y-407750075D01*
X265887000Y-407589925D01*
X265918242Y-407432858D01*
X265979529Y-407284899D01*
X266068499Y-407151745D01*
X266181745Y-407038499D01*
X266314899Y-406949529D01*
X266462858Y-406888242D01*
X266619925Y-406857000D01*
X266780075Y-406857000D01*
X266937142Y-406888242D01*
G37*
G36*
X251697142Y-406888242D02*
G01*
X251845101Y-406949529D01*
X251978255Y-407038499D01*
X252091501Y-407151745D01*
X252180471Y-407284899D01*
X252241758Y-407432858D01*
X252273000Y-407589925D01*
X252273000Y-407750075D01*
X252241758Y-407907142D01*
X252180471Y-408055101D01*
X252091501Y-408188255D01*
X251978255Y-408301501D01*
X251845101Y-408390471D01*
X251697142Y-408451758D01*
X251540075Y-408483000D01*
X251379925Y-408483000D01*
X251222858Y-408451758D01*
X251074899Y-408390471D01*
X250941745Y-408301501D01*
X250828499Y-408188255D01*
X250739529Y-408055101D01*
X250678242Y-407907142D01*
X250647000Y-407750075D01*
X250647000Y-407589925D01*
X250678242Y-407432858D01*
X250739529Y-407284899D01*
X250828499Y-407151745D01*
X250941745Y-407038499D01*
X251074899Y-406949529D01*
X251222858Y-406888242D01*
X251379925Y-406857000D01*
X251540075Y-406857000D01*
X251697142Y-406888242D01*
G37*
G36*
X151881000Y-407608500D02*
G01*
X150379000Y-407608500D01*
X150379000Y-406456500D01*
X151881000Y-406456500D01*
X151881000Y-407608500D01*
G37*
G36*
X149606000Y-407533500D02*
G01*
X148304000Y-407533500D01*
X148304000Y-406531500D01*
X149606000Y-406531500D01*
X149606000Y-407533500D01*
G37*
G36*
X231076000Y-407411000D02*
G01*
X229124000Y-407411000D01*
X229124000Y-406659000D01*
X231076000Y-406659000D01*
X231076000Y-407411000D01*
G37*
G36*
X208313000Y-407411000D02*
G01*
X206686000Y-407411000D01*
X206686000Y-406659000D01*
X208313000Y-406659000D01*
X208313000Y-407411000D01*
G37*
G36*
X202889000Y-407411000D02*
G01*
X201262000Y-407411000D01*
X201262000Y-406659000D01*
X202889000Y-406659000D01*
X202889000Y-407411000D01*
G37*
G36*
X221726000Y-407411000D02*
G01*
X219774000Y-407411000D01*
X219774000Y-406659000D01*
X221726000Y-406659000D01*
X221726000Y-407411000D01*
G37*
G36*
X173176000Y-407383500D02*
G01*
X171824000Y-407383500D01*
X171824000Y-406681500D01*
X173176000Y-406681500D01*
X173176000Y-407383500D01*
G37*
G36*
X147606000Y-406583500D02*
G01*
X146304000Y-406583500D01*
X146304000Y-405581500D01*
X147606000Y-405581500D01*
X147606000Y-406583500D01*
G37*
G36*
X171076000Y-406433500D02*
G01*
X169724000Y-406433500D01*
X169724000Y-405731500D01*
X171076000Y-405731500D01*
X171076000Y-406433500D01*
G37*
G36*
X231076000Y-406141000D02*
G01*
X229124000Y-406141000D01*
X229124000Y-405389000D01*
X231076000Y-405389000D01*
X231076000Y-406141000D01*
G37*
G36*
X221726000Y-406141000D02*
G01*
X219774000Y-406141000D01*
X219774000Y-405389000D01*
X221726000Y-405389000D01*
X221726000Y-406141000D01*
G37*
G36*
X202889000Y-406141000D02*
G01*
X201262000Y-406141000D01*
X201262000Y-405389000D01*
X202889000Y-405389000D01*
X202889000Y-406141000D01*
G37*
G36*
X208313000Y-406141000D02*
G01*
X206686000Y-406141000D01*
X206686000Y-405389000D01*
X208313000Y-405389000D01*
X208313000Y-406141000D01*
G37*
G36*
X266937142Y-404348242D02*
G01*
X267085101Y-404409529D01*
X267218255Y-404498499D01*
X267331501Y-404611745D01*
X267420471Y-404744899D01*
X267481758Y-404892858D01*
X267513000Y-405049925D01*
X267513000Y-405210075D01*
X267481758Y-405367142D01*
X267420471Y-405515101D01*
X267331501Y-405648255D01*
X267218255Y-405761501D01*
X267085101Y-405850471D01*
X266937142Y-405911758D01*
X266780075Y-405943000D01*
X266619925Y-405943000D01*
X266462858Y-405911758D01*
X266314899Y-405850471D01*
X266181745Y-405761501D01*
X266068499Y-405648255D01*
X265979529Y-405515101D01*
X265918242Y-405367142D01*
X265887000Y-405210075D01*
X265887000Y-405049925D01*
X265918242Y-404892858D01*
X265979529Y-404744899D01*
X266068499Y-404611745D01*
X266181745Y-404498499D01*
X266314899Y-404409529D01*
X266462858Y-404348242D01*
X266619925Y-404317000D01*
X266780075Y-404317000D01*
X266937142Y-404348242D01*
G37*
G36*
X251697142Y-404348242D02*
G01*
X251845101Y-404409529D01*
X251978255Y-404498499D01*
X252091501Y-404611745D01*
X252180471Y-404744899D01*
X252241758Y-404892858D01*
X252273000Y-405049925D01*
X252273000Y-405210075D01*
X252241758Y-405367142D01*
X252180471Y-405515101D01*
X252091501Y-405648255D01*
X251978255Y-405761501D01*
X251845101Y-405850471D01*
X251697142Y-405911758D01*
X251540075Y-405943000D01*
X251379925Y-405943000D01*
X251222858Y-405911758D01*
X251074899Y-405850471D01*
X250941745Y-405761501D01*
X250828499Y-405648255D01*
X250739529Y-405515101D01*
X250678242Y-405367142D01*
X250647000Y-405210075D01*
X250647000Y-405049925D01*
X250678242Y-404892858D01*
X250739529Y-404744899D01*
X250828499Y-404611745D01*
X250941745Y-404498499D01*
X251074899Y-404409529D01*
X251222858Y-404348242D01*
X251379925Y-404317000D01*
X251540075Y-404317000D01*
X251697142Y-404348242D01*
G37*
G36*
X151881000Y-405708500D02*
G01*
X150379000Y-405708500D01*
X150379000Y-404556500D01*
X151881000Y-404556500D01*
X151881000Y-405708500D01*
G37*
G36*
X149606000Y-405633500D02*
G01*
X148304000Y-405633500D01*
X148304000Y-404631500D01*
X149606000Y-404631500D01*
X149606000Y-405633500D01*
G37*
G36*
X173176000Y-405483500D02*
G01*
X171824000Y-405483500D01*
X171824000Y-404781500D01*
X173176000Y-404781500D01*
X173176000Y-405483500D01*
G37*
G36*
X221726000Y-404871000D02*
G01*
X219774000Y-404871000D01*
X219774000Y-404119000D01*
X221726000Y-404119000D01*
X221726000Y-404871000D01*
G37*
G36*
X208313000Y-404871000D02*
G01*
X206686000Y-404871000D01*
X206686000Y-404119000D01*
X208313000Y-404119000D01*
X208313000Y-404871000D01*
G37*
G36*
X202889000Y-404871000D02*
G01*
X201262000Y-404871000D01*
X201262000Y-404119000D01*
X202889000Y-404119000D01*
X202889000Y-404871000D01*
G37*
G36*
X231076000Y-404871000D02*
G01*
X229124000Y-404871000D01*
X229124000Y-404119000D01*
X231076000Y-404119000D01*
X231076000Y-404871000D01*
G37*
G36*
X221726000Y-403601000D02*
G01*
X219774000Y-403601000D01*
X219774000Y-402849000D01*
X221726000Y-402849000D01*
X221726000Y-403601000D01*
G37*
G36*
X231076000Y-403601000D02*
G01*
X229124000Y-403601000D01*
X229124000Y-402849000D01*
X231076000Y-402849000D01*
X231076000Y-403601000D01*
G37*
G36*
X296198500Y-403513500D02*
G01*
X286096500Y-403513500D01*
X286096500Y-393411500D01*
X296198500Y-393411500D01*
X296198500Y-403513500D01*
G37*
G36*
X266937142Y-401808242D02*
G01*
X267085101Y-401869529D01*
X267218255Y-401958499D01*
X267331501Y-402071745D01*
X267420471Y-402204899D01*
X267481758Y-402352858D01*
X267513000Y-402509925D01*
X267513000Y-402670075D01*
X267481758Y-402827142D01*
X267420471Y-402975101D01*
X267331501Y-403108255D01*
X267218255Y-403221501D01*
X267085101Y-403310471D01*
X266937142Y-403371758D01*
X266780075Y-403403000D01*
X266619925Y-403403000D01*
X266462858Y-403371758D01*
X266314899Y-403310471D01*
X266181745Y-403221501D01*
X266068499Y-403108255D01*
X265979529Y-402975101D01*
X265918242Y-402827142D01*
X265887000Y-402670075D01*
X265887000Y-402509925D01*
X265918242Y-402352858D01*
X265979529Y-402204899D01*
X266068499Y-402071745D01*
X266181745Y-401958499D01*
X266314899Y-401869529D01*
X266462858Y-401808242D01*
X266619925Y-401777000D01*
X266780075Y-401777000D01*
X266937142Y-401808242D01*
G37*
G36*
X251697142Y-401808242D02*
G01*
X251845101Y-401869529D01*
X251978255Y-401958499D01*
X252091501Y-402071745D01*
X252180471Y-402204899D01*
X252241758Y-402352858D01*
X252273000Y-402509925D01*
X252273000Y-402670075D01*
X252241758Y-402827142D01*
X252180471Y-402975101D01*
X252091501Y-403108255D01*
X251978255Y-403221501D01*
X251845101Y-403310471D01*
X251697142Y-403371758D01*
X251540075Y-403403000D01*
X251379925Y-403403000D01*
X251222858Y-403371758D01*
X251074899Y-403310471D01*
X250941745Y-403221501D01*
X250828499Y-403108255D01*
X250739529Y-402975101D01*
X250678242Y-402827142D01*
X250647000Y-402670075D01*
X250647000Y-402509925D01*
X250678242Y-402352858D01*
X250739529Y-402204899D01*
X250828499Y-402071745D01*
X250941745Y-401958499D01*
X251074899Y-401869529D01*
X251222858Y-401808242D01*
X251379925Y-401777000D01*
X251540075Y-401777000D01*
X251697142Y-401808242D01*
G37*
G36*
X182101000Y-402336000D02*
G01*
X179999000Y-402336000D01*
X179999000Y-399034000D01*
X182101000Y-399034000D01*
X182101000Y-402336000D01*
G37*
G36*
X150201000Y-402336000D02*
G01*
X148099000Y-402336000D01*
X148099000Y-399034000D01*
X150201000Y-399034000D01*
X150201000Y-402336000D01*
G37*
G36*
X156701000Y-402336000D02*
G01*
X154599000Y-402336000D01*
X154599000Y-399034000D01*
X156701000Y-399034000D01*
X156701000Y-402336000D01*
G37*
G36*
X188301000Y-402336000D02*
G01*
X186199000Y-402336000D01*
X186199000Y-399034000D01*
X188301000Y-399034000D01*
X188301000Y-402336000D01*
G37*
G36*
X175601000Y-402336000D02*
G01*
X173499000Y-402336000D01*
X173499000Y-399034000D01*
X175601000Y-399034000D01*
X175601000Y-402336000D01*
G37*
G36*
X194801000Y-402336000D02*
G01*
X192699000Y-402336000D01*
X192699000Y-399034000D01*
X194801000Y-399034000D01*
X194801000Y-402336000D01*
G37*
G36*
X162901000Y-402336000D02*
G01*
X160799000Y-402336000D01*
X160799000Y-399034000D01*
X162901000Y-399034000D01*
X162901000Y-402336000D01*
G37*
G36*
X169401000Y-402336000D02*
G01*
X167299000Y-402336000D01*
X167299000Y-399034000D01*
X169401000Y-399034000D01*
X169401000Y-402336000D01*
G37*
G36*
X231076000Y-402331000D02*
G01*
X229124000Y-402331000D01*
X229124000Y-401579000D01*
X231076000Y-401579000D01*
X231076000Y-402331000D01*
G37*
G36*
X221726000Y-402331000D02*
G01*
X219774000Y-402331000D01*
X219774000Y-401579000D01*
X221726000Y-401579000D01*
X221726000Y-402331000D01*
G37*
G36*
X208313000Y-402331000D02*
G01*
X206686000Y-402331000D01*
X206686000Y-401579000D01*
X208313000Y-401579000D01*
X208313000Y-402331000D01*
G37*
G36*
X202889000Y-402331000D02*
G01*
X201262000Y-402331000D01*
X201262000Y-401579000D01*
X202889000Y-401579000D01*
X202889000Y-402331000D01*
G37*
G36*
X158376000Y-401436000D02*
G01*
X157224000Y-401436000D01*
X157224000Y-399934000D01*
X158376000Y-399934000D01*
X158376000Y-401436000D01*
G37*
G36*
X171076000Y-401436000D02*
G01*
X169924000Y-401436000D01*
X169924000Y-399934000D01*
X171076000Y-399934000D01*
X171076000Y-401436000D01*
G37*
G36*
X172976000Y-401436000D02*
G01*
X171824000Y-401436000D01*
X171824000Y-399934000D01*
X172976000Y-399934000D01*
X172976000Y-401436000D01*
G37*
G36*
X183776000Y-401436000D02*
G01*
X182624000Y-401436000D01*
X182624000Y-399934000D01*
X183776000Y-399934000D01*
X183776000Y-401436000D01*
G37*
G36*
X185676000Y-401436000D02*
G01*
X184524000Y-401436000D01*
X184524000Y-399934000D01*
X185676000Y-399934000D01*
X185676000Y-401436000D01*
G37*
G36*
X160276000Y-401436000D02*
G01*
X159124000Y-401436000D01*
X159124000Y-399934000D01*
X160276000Y-399934000D01*
X160276000Y-401436000D01*
G37*
G36*
X202889000Y-401061000D02*
G01*
X201262000Y-401061000D01*
X201262000Y-400309000D01*
X202889000Y-400309000D01*
X202889000Y-401061000D01*
G37*
G36*
X221726000Y-401061000D02*
G01*
X219774000Y-401061000D01*
X219774000Y-400309000D01*
X221726000Y-400309000D01*
X221726000Y-401061000D01*
G37*
G36*
X208313000Y-401061000D02*
G01*
X206686000Y-401061000D01*
X206686000Y-400309000D01*
X208313000Y-400309000D01*
X208313000Y-401061000D01*
G37*
G36*
X231076000Y-401061000D02*
G01*
X229124000Y-401061000D01*
X229124000Y-400309000D01*
X231076000Y-400309000D01*
X231076000Y-401061000D01*
G37*
G36*
X251697142Y-399268242D02*
G01*
X251845101Y-399329529D01*
X251978255Y-399418499D01*
X252091501Y-399531745D01*
X252180471Y-399664899D01*
X252241758Y-399812858D01*
X252273000Y-399969925D01*
X252273000Y-400130075D01*
X252241758Y-400287142D01*
X252180471Y-400435101D01*
X252091501Y-400568255D01*
X251978255Y-400681501D01*
X251845101Y-400770471D01*
X251697142Y-400831758D01*
X251540075Y-400863000D01*
X251379925Y-400863000D01*
X251222858Y-400831758D01*
X251074899Y-400770471D01*
X250941745Y-400681501D01*
X250828499Y-400568255D01*
X250739529Y-400435101D01*
X250678242Y-400287142D01*
X250647000Y-400130075D01*
X250647000Y-399969925D01*
X250678242Y-399812858D01*
X250739529Y-399664899D01*
X250828499Y-399531745D01*
X250941745Y-399418499D01*
X251074899Y-399329529D01*
X251222858Y-399268242D01*
X251379925Y-399237000D01*
X251540075Y-399237000D01*
X251697142Y-399268242D01*
G37*
G36*
X266937142Y-399268242D02*
G01*
X267085101Y-399329529D01*
X267218255Y-399418499D01*
X267331501Y-399531745D01*
X267420471Y-399664899D01*
X267481758Y-399812858D01*
X267513000Y-399969925D01*
X267513000Y-400130075D01*
X267481758Y-400287142D01*
X267420471Y-400435101D01*
X267331501Y-400568255D01*
X267218255Y-400681501D01*
X267085101Y-400770471D01*
X266937142Y-400831758D01*
X266780075Y-400863000D01*
X266619925Y-400863000D01*
X266462858Y-400831758D01*
X266314899Y-400770471D01*
X266181745Y-400681501D01*
X266068499Y-400568255D01*
X265979529Y-400435101D01*
X265918242Y-400287142D01*
X265887000Y-400130075D01*
X265887000Y-399969925D01*
X265918242Y-399812858D01*
X265979529Y-399664899D01*
X266068499Y-399531745D01*
X266181745Y-399418499D01*
X266314899Y-399329529D01*
X266462858Y-399268242D01*
X266619925Y-399237000D01*
X266780075Y-399237000D01*
X266937142Y-399268242D01*
G37*
G36*
X202889000Y-399791000D02*
G01*
X201262000Y-399791000D01*
X201262000Y-399039000D01*
X202889000Y-399039000D01*
X202889000Y-399791000D01*
G37*
G36*
X208313000Y-399791000D02*
G01*
X206686000Y-399791000D01*
X206686000Y-399039000D01*
X208313000Y-399039000D01*
X208313000Y-399791000D01*
G37*
G36*
X125982585Y-396628802D02*
G01*
X126132410Y-396658604D01*
X126414674Y-396775521D01*
X126668705Y-396945259D01*
X126884741Y-397161295D01*
X127054479Y-397415326D01*
X127171396Y-397697590D01*
X127171396Y-397697591D01*
X127201729Y-397850082D01*
X127231000Y-397997240D01*
X127231000Y-398302760D01*
X127171396Y-398602410D01*
X127054479Y-398884674D01*
X126884741Y-399138705D01*
X126668705Y-399354741D01*
X126414674Y-399524479D01*
X126132410Y-399641396D01*
X126014252Y-399664899D01*
X125832761Y-399701000D01*
X125527239Y-399701000D01*
X125345748Y-399664899D01*
X125227590Y-399641396D01*
X124945326Y-399524479D01*
X124691295Y-399354741D01*
X124475259Y-399138705D01*
X124305521Y-398884674D01*
X124188604Y-398602410D01*
X124129000Y-398302760D01*
X124129000Y-397997240D01*
X124158272Y-397850082D01*
X124188604Y-397697591D01*
X124188604Y-397697590D01*
X124305521Y-397415326D01*
X124475259Y-397161295D01*
X124691295Y-396945259D01*
X124945326Y-396775521D01*
X125227590Y-396658604D01*
X125377415Y-396628802D01*
X125527239Y-396599000D01*
X125832761Y-396599000D01*
X125982585Y-396628802D01*
G37*
G36*
X214251000Y-398896000D02*
G01*
X213099000Y-398896000D01*
X213099000Y-397394000D01*
X214251000Y-397394000D01*
X214251000Y-398896000D01*
G37*
G36*
X212351000Y-398896000D02*
G01*
X211199000Y-398896000D01*
X211199000Y-397394000D01*
X212351000Y-397394000D01*
X212351000Y-398896000D01*
G37*
G36*
X175601000Y-398526000D02*
G01*
X173499000Y-398526000D01*
X173499000Y-395224000D01*
X175601000Y-395224000D01*
X175601000Y-398526000D01*
G37*
G36*
X160201000Y-398526000D02*
G01*
X159199000Y-398526000D01*
X159199000Y-397224000D01*
X160201000Y-397224000D01*
X160201000Y-398526000D01*
G37*
G36*
X158301000Y-398526000D02*
G01*
X157299000Y-398526000D01*
X157299000Y-397224000D01*
X158301000Y-397224000D01*
X158301000Y-398526000D01*
G37*
G36*
X156701000Y-398526000D02*
G01*
X154599000Y-398526000D01*
X154599000Y-395224000D01*
X156701000Y-395224000D01*
X156701000Y-398526000D01*
G37*
G36*
X171001000Y-398526000D02*
G01*
X169999000Y-398526000D01*
X169999000Y-397224000D01*
X171001000Y-397224000D01*
X171001000Y-398526000D01*
G37*
G36*
X172901000Y-398526000D02*
G01*
X171899000Y-398526000D01*
X171899000Y-397224000D01*
X172901000Y-397224000D01*
X172901000Y-398526000D01*
G37*
G36*
X162901000Y-398526000D02*
G01*
X160799000Y-398526000D01*
X160799000Y-395224000D01*
X162901000Y-395224000D01*
X162901000Y-398526000D01*
G37*
G36*
X169401000Y-398526000D02*
G01*
X167299000Y-398526000D01*
X167299000Y-395224000D01*
X169401000Y-395224000D01*
X169401000Y-398526000D01*
G37*
G36*
X183701000Y-398526000D02*
G01*
X182699000Y-398526000D01*
X182699000Y-397224000D01*
X183701000Y-397224000D01*
X183701000Y-398526000D01*
G37*
G36*
X185601000Y-398526000D02*
G01*
X184599000Y-398526000D01*
X184599000Y-397224000D01*
X185601000Y-397224000D01*
X185601000Y-398526000D01*
G37*
G36*
X188301000Y-398526000D02*
G01*
X186199000Y-398526000D01*
X186199000Y-395224000D01*
X188301000Y-395224000D01*
X188301000Y-398526000D01*
G37*
G36*
X194801000Y-398526000D02*
G01*
X192699000Y-398526000D01*
X192699000Y-395224000D01*
X194801000Y-395224000D01*
X194801000Y-398526000D01*
G37*
G36*
X150201000Y-398526000D02*
G01*
X148099000Y-398526000D01*
X148099000Y-395224000D01*
X150201000Y-395224000D01*
X150201000Y-398526000D01*
G37*
G36*
X182101000Y-398526000D02*
G01*
X179999000Y-398526000D01*
X179999000Y-395224000D01*
X182101000Y-395224000D01*
X182101000Y-398526000D01*
G37*
G36*
X202889000Y-398521000D02*
G01*
X201262000Y-398521000D01*
X201262000Y-397769000D01*
X202889000Y-397769000D01*
X202889000Y-398521000D01*
G37*
G36*
X208313000Y-398521000D02*
G01*
X206686000Y-398521000D01*
X206686000Y-397769000D01*
X208313000Y-397769000D01*
X208313000Y-398521000D01*
G37*
G36*
X251697142Y-396728242D02*
G01*
X251845101Y-396789529D01*
X251978255Y-396878499D01*
X252091501Y-396991745D01*
X252180471Y-397124899D01*
X252241758Y-397272858D01*
X252273000Y-397429925D01*
X252273000Y-397590075D01*
X252241758Y-397747142D01*
X252180471Y-397895101D01*
X252091501Y-398028255D01*
X251978255Y-398141501D01*
X251845101Y-398230471D01*
X251697142Y-398291758D01*
X251540075Y-398323000D01*
X251379925Y-398323000D01*
X251222858Y-398291758D01*
X251074899Y-398230471D01*
X250941745Y-398141501D01*
X250828499Y-398028255D01*
X250739529Y-397895101D01*
X250678242Y-397747142D01*
X250647000Y-397590075D01*
X250647000Y-397429925D01*
X250678242Y-397272858D01*
X250739529Y-397124899D01*
X250828499Y-396991745D01*
X250941745Y-396878499D01*
X251074899Y-396789529D01*
X251222858Y-396728242D01*
X251379925Y-396697000D01*
X251540075Y-396697000D01*
X251697142Y-396728242D01*
G37*
G36*
X266937142Y-396728242D02*
G01*
X267085101Y-396789529D01*
X267218255Y-396878499D01*
X267331501Y-396991745D01*
X267420471Y-397124899D01*
X267481758Y-397272858D01*
X267513000Y-397429925D01*
X267513000Y-397590075D01*
X267481758Y-397747142D01*
X267420471Y-397895101D01*
X267331501Y-398028255D01*
X267218255Y-398141501D01*
X267085101Y-398230471D01*
X266937142Y-398291758D01*
X266780075Y-398323000D01*
X266619925Y-398323000D01*
X266462858Y-398291758D01*
X266314899Y-398230471D01*
X266181745Y-398141501D01*
X266068499Y-398028255D01*
X265979529Y-397895101D01*
X265918242Y-397747142D01*
X265887000Y-397590075D01*
X265887000Y-397429925D01*
X265918242Y-397272858D01*
X265979529Y-397124899D01*
X266068499Y-396991745D01*
X266181745Y-396878499D01*
X266314899Y-396789529D01*
X266462858Y-396728242D01*
X266619925Y-396697000D01*
X266780075Y-396697000D01*
X266937142Y-396728242D01*
G37*
G36*
X276882582Y-396788007D02*
G01*
X275820507Y-397850082D01*
X275005920Y-397035495D01*
X276067995Y-395973420D01*
X276882582Y-396788007D01*
G37*
G36*
X214251000Y-396991000D02*
G01*
X213099000Y-396991000D01*
X213099000Y-395489000D01*
X214251000Y-395489000D01*
X214251000Y-396991000D01*
G37*
G36*
X212351000Y-396991000D02*
G01*
X211199000Y-396991000D01*
X211199000Y-395489000D01*
X212351000Y-395489000D01*
X212351000Y-396991000D01*
G37*
G36*
X130113512Y-395103927D02*
G01*
X130262812Y-395133624D01*
X130426784Y-395201544D01*
X130574354Y-395300147D01*
X130699853Y-395425646D01*
X130798456Y-395573216D01*
X130866376Y-395737188D01*
X130901000Y-395911259D01*
X130901000Y-396088741D01*
X130866376Y-396262812D01*
X130798456Y-396426784D01*
X130699853Y-396574354D01*
X130574354Y-396699853D01*
X130426784Y-396798456D01*
X130262812Y-396866376D01*
X130113512Y-396896073D01*
X130088742Y-396901000D01*
X129911258Y-396901000D01*
X129886488Y-396896073D01*
X129737188Y-396866376D01*
X129573216Y-396798456D01*
X129425646Y-396699853D01*
X129300147Y-396574354D01*
X129201544Y-396426784D01*
X129133624Y-396262812D01*
X129099000Y-396088741D01*
X129099000Y-395911259D01*
X129133624Y-395737188D01*
X129201544Y-395573216D01*
X129300147Y-395425646D01*
X129425646Y-395300147D01*
X129573216Y-395201544D01*
X129737188Y-395133624D01*
X129886488Y-395103927D01*
X129911258Y-395099000D01*
X130088742Y-395099000D01*
X130113512Y-395103927D01*
G37*
G36*
X133113512Y-395103927D02*
G01*
X133262812Y-395133624D01*
X133426784Y-395201544D01*
X133574354Y-395300147D01*
X133699853Y-395425646D01*
X133798456Y-395573216D01*
X133866376Y-395737188D01*
X133901000Y-395911259D01*
X133901000Y-396088741D01*
X133866376Y-396262812D01*
X133798456Y-396426784D01*
X133699853Y-396574354D01*
X133574354Y-396699853D01*
X133426784Y-396798456D01*
X133262812Y-396866376D01*
X133113512Y-396896073D01*
X133088742Y-396901000D01*
X132911258Y-396901000D01*
X132886488Y-396896073D01*
X132737188Y-396866376D01*
X132573216Y-396798456D01*
X132425646Y-396699853D01*
X132300147Y-396574354D01*
X132201544Y-396426784D01*
X132133624Y-396262812D01*
X132099000Y-396088741D01*
X132099000Y-395911259D01*
X132133624Y-395737188D01*
X132201544Y-395573216D01*
X132300147Y-395425646D01*
X132425646Y-395300147D01*
X132573216Y-395201544D01*
X132737188Y-395133624D01*
X132886488Y-395103927D01*
X132911258Y-395099000D01*
X133088742Y-395099000D01*
X133113512Y-395103927D01*
G37*
G36*
X171951000Y-396526000D02*
G01*
X170949000Y-396526000D01*
X170949000Y-395224000D01*
X171951000Y-395224000D01*
X171951000Y-396526000D01*
G37*
G36*
X159251000Y-396526000D02*
G01*
X158249000Y-396526000D01*
X158249000Y-395224000D01*
X159251000Y-395224000D01*
X159251000Y-396526000D01*
G37*
G36*
X184651000Y-396526000D02*
G01*
X183649000Y-396526000D01*
X183649000Y-395224000D01*
X184651000Y-395224000D01*
X184651000Y-396526000D01*
G37*
G36*
X275539080Y-395444505D02*
G01*
X274477005Y-396506580D01*
X273662418Y-395691993D01*
X274724493Y-394629918D01*
X275539080Y-395444505D01*
G37*
G36*
X251697142Y-394188242D02*
G01*
X251845101Y-394249529D01*
X251978255Y-394338499D01*
X252091501Y-394451745D01*
X252180471Y-394584899D01*
X252241758Y-394732858D01*
X252273000Y-394889925D01*
X252273000Y-395050075D01*
X252241758Y-395207142D01*
X252180471Y-395355101D01*
X252091501Y-395488255D01*
X251978255Y-395601501D01*
X251845101Y-395690471D01*
X251697142Y-395751758D01*
X251540075Y-395783000D01*
X251379925Y-395783000D01*
X251222858Y-395751758D01*
X251074899Y-395690471D01*
X250941745Y-395601501D01*
X250828499Y-395488255D01*
X250739529Y-395355101D01*
X250678242Y-395207142D01*
X250647000Y-395050075D01*
X250647000Y-394889925D01*
X250678242Y-394732858D01*
X250739529Y-394584899D01*
X250828499Y-394451745D01*
X250941745Y-394338499D01*
X251074899Y-394249529D01*
X251222858Y-394188242D01*
X251379925Y-394157000D01*
X251540075Y-394157000D01*
X251697142Y-394188242D01*
G37*
G36*
X266937142Y-394188242D02*
G01*
X267085101Y-394249529D01*
X267218255Y-394338499D01*
X267331501Y-394451745D01*
X267420471Y-394584899D01*
X267481758Y-394732858D01*
X267513000Y-394889925D01*
X267513000Y-395050075D01*
X267481758Y-395207142D01*
X267420471Y-395355101D01*
X267331501Y-395488255D01*
X267218255Y-395601501D01*
X267085101Y-395690471D01*
X266937142Y-395751758D01*
X266780075Y-395783000D01*
X266619925Y-395783000D01*
X266462858Y-395751758D01*
X266314899Y-395690471D01*
X266181745Y-395601501D01*
X266068499Y-395488255D01*
X265979529Y-395355101D01*
X265918242Y-395207142D01*
X265887000Y-395050075D01*
X265887000Y-394889925D01*
X265918242Y-394732858D01*
X265979529Y-394584899D01*
X266068499Y-394451745D01*
X266181745Y-394338499D01*
X266314899Y-394249529D01*
X266462858Y-394188242D01*
X266619925Y-394157000D01*
X266780075Y-394157000D01*
X266937142Y-394188242D01*
G37*
G36*
X214251000Y-395086000D02*
G01*
X213099000Y-395086000D01*
X213099000Y-393584000D01*
X214251000Y-393584000D01*
X214251000Y-395086000D01*
G37*
G36*
X212351000Y-395086000D02*
G01*
X211199000Y-395086000D01*
X211199000Y-393584000D01*
X212351000Y-393584000D01*
X212351000Y-395086000D01*
G37*
G36*
X194801000Y-394716000D02*
G01*
X192699000Y-394716000D01*
X192699000Y-391414000D01*
X194801000Y-391414000D01*
X194801000Y-394716000D01*
G37*
G36*
X175601000Y-394716000D02*
G01*
X173499000Y-394716000D01*
X173499000Y-391414000D01*
X175601000Y-391414000D01*
X175601000Y-394716000D01*
G37*
G36*
X182101000Y-394716000D02*
G01*
X179999000Y-394716000D01*
X179999000Y-391414000D01*
X182101000Y-391414000D01*
X182101000Y-394716000D01*
G37*
G36*
X169401000Y-394716000D02*
G01*
X167299000Y-394716000D01*
X167299000Y-391414000D01*
X169401000Y-391414000D01*
X169401000Y-394716000D01*
G37*
G36*
X162901000Y-394716000D02*
G01*
X160799000Y-394716000D01*
X160799000Y-391414000D01*
X162901000Y-391414000D01*
X162901000Y-394716000D01*
G37*
G36*
X156701000Y-394716000D02*
G01*
X154599000Y-394716000D01*
X154599000Y-391414000D01*
X156701000Y-391414000D01*
X156701000Y-394716000D01*
G37*
G36*
X150201000Y-394716000D02*
G01*
X148099000Y-394716000D01*
X148099000Y-391414000D01*
X150201000Y-391414000D01*
X150201000Y-394716000D01*
G37*
G36*
X188301000Y-394716000D02*
G01*
X186199000Y-394716000D01*
X186199000Y-391414000D01*
X188301000Y-391414000D01*
X188301000Y-394716000D01*
G37*
G36*
X285146000Y-394473500D02*
G01*
X284444000Y-394473500D01*
X284444000Y-393121500D01*
X285146000Y-393121500D01*
X285146000Y-394473500D01*
G37*
G36*
X283246000Y-394473500D02*
G01*
X282544000Y-394473500D01*
X282544000Y-393121500D01*
X283246000Y-393121500D01*
X283246000Y-394473500D01*
G37*
G36*
X133113512Y-392103927D02*
G01*
X133262812Y-392133624D01*
X133426784Y-392201544D01*
X133574354Y-392300147D01*
X133699853Y-392425646D01*
X133798456Y-392573216D01*
X133866376Y-392737188D01*
X133901000Y-392911259D01*
X133901000Y-393088741D01*
X133866376Y-393262812D01*
X133798456Y-393426784D01*
X133699853Y-393574354D01*
X133574354Y-393699853D01*
X133426784Y-393798456D01*
X133262812Y-393866376D01*
X133113512Y-393896073D01*
X133088742Y-393901000D01*
X132911258Y-393901000D01*
X132886488Y-393896073D01*
X132737188Y-393866376D01*
X132573216Y-393798456D01*
X132425646Y-393699853D01*
X132300147Y-393574354D01*
X132201544Y-393426784D01*
X132133624Y-393262812D01*
X132099000Y-393088741D01*
X132099000Y-392911259D01*
X132133624Y-392737188D01*
X132201544Y-392573216D01*
X132300147Y-392425646D01*
X132425646Y-392300147D01*
X132573216Y-392201544D01*
X132737188Y-392133624D01*
X132886488Y-392103927D01*
X132911258Y-392099000D01*
X133088742Y-392099000D01*
X133113512Y-392103927D01*
G37*
G36*
X130113512Y-392103927D02*
G01*
X130262812Y-392133624D01*
X130426784Y-392201544D01*
X130574354Y-392300147D01*
X130699853Y-392425646D01*
X130798456Y-392573216D01*
X130866376Y-392737188D01*
X130901000Y-392911259D01*
X130901000Y-393088741D01*
X130866376Y-393262812D01*
X130798456Y-393426784D01*
X130699853Y-393574354D01*
X130574354Y-393699853D01*
X130426784Y-393798456D01*
X130262812Y-393866376D01*
X130113512Y-393896073D01*
X130088742Y-393901000D01*
X129911258Y-393901000D01*
X129886488Y-393896073D01*
X129737188Y-393866376D01*
X129573216Y-393798456D01*
X129425646Y-393699853D01*
X129300147Y-393574354D01*
X129201544Y-393426784D01*
X129133624Y-393262812D01*
X129099000Y-393088741D01*
X129099000Y-392911259D01*
X129133624Y-392737188D01*
X129201544Y-392573216D01*
X129300147Y-392425646D01*
X129425646Y-392300147D01*
X129573216Y-392201544D01*
X129737188Y-392133624D01*
X129886488Y-392103927D01*
X129911258Y-392099000D01*
X130088742Y-392099000D01*
X130113512Y-392103927D01*
G37*
G36*
X266937142Y-391648242D02*
G01*
X267085101Y-391709529D01*
X267218255Y-391798499D01*
X267331501Y-391911745D01*
X267420471Y-392044899D01*
X267481758Y-392192858D01*
X267513000Y-392349925D01*
X267513000Y-392510075D01*
X267481758Y-392667142D01*
X267420471Y-392815101D01*
X267331501Y-392948255D01*
X267218255Y-393061501D01*
X267085101Y-393150471D01*
X266937142Y-393211758D01*
X266780075Y-393243000D01*
X266619925Y-393243000D01*
X266462858Y-393211758D01*
X266314899Y-393150471D01*
X266181745Y-393061501D01*
X266068499Y-392948255D01*
X265979529Y-392815101D01*
X265918242Y-392667142D01*
X265887000Y-392510075D01*
X265887000Y-392349925D01*
X265918242Y-392192858D01*
X265979529Y-392044899D01*
X266068499Y-391911745D01*
X266181745Y-391798499D01*
X266314899Y-391709529D01*
X266462858Y-391648242D01*
X266619925Y-391617000D01*
X266780075Y-391617000D01*
X266937142Y-391648242D01*
G37*
G36*
X254237142Y-391648242D02*
G01*
X254385101Y-391709529D01*
X254518255Y-391798499D01*
X254631501Y-391911745D01*
X254720471Y-392044899D01*
X254781758Y-392192858D01*
X254813000Y-392349925D01*
X254813000Y-392510075D01*
X254781758Y-392667142D01*
X254720471Y-392815101D01*
X254631501Y-392948255D01*
X254518255Y-393061501D01*
X254385101Y-393150471D01*
X254237142Y-393211758D01*
X254080075Y-393243000D01*
X253919925Y-393243000D01*
X253762858Y-393211758D01*
X253614899Y-393150471D01*
X253481745Y-393061501D01*
X253368499Y-392948255D01*
X253279529Y-392815101D01*
X253218242Y-392667142D01*
X253187000Y-392510075D01*
X253187000Y-392349925D01*
X253218242Y-392192858D01*
X253279529Y-392044899D01*
X253368499Y-391911745D01*
X253481745Y-391798499D01*
X253614899Y-391709529D01*
X253762858Y-391648242D01*
X253919925Y-391617000D01*
X254080075Y-391617000D01*
X254237142Y-391648242D01*
G37*
G36*
X256777142Y-391648242D02*
G01*
X256925101Y-391709529D01*
X257058255Y-391798499D01*
X257171501Y-391911745D01*
X257260471Y-392044899D01*
X257321758Y-392192858D01*
X257353000Y-392349925D01*
X257353000Y-392510075D01*
X257321758Y-392667142D01*
X257260471Y-392815101D01*
X257171501Y-392948255D01*
X257058255Y-393061501D01*
X256925101Y-393150471D01*
X256777142Y-393211758D01*
X256620075Y-393243000D01*
X256459925Y-393243000D01*
X256302858Y-393211758D01*
X256154899Y-393150471D01*
X256021745Y-393061501D01*
X255908499Y-392948255D01*
X255819529Y-392815101D01*
X255758242Y-392667142D01*
X255727000Y-392510075D01*
X255727000Y-392349925D01*
X255758242Y-392192858D01*
X255819529Y-392044899D01*
X255908499Y-391911745D01*
X256021745Y-391798499D01*
X256154899Y-391709529D01*
X256302858Y-391648242D01*
X256459925Y-391617000D01*
X256620075Y-391617000D01*
X256777142Y-391648242D01*
G37*
G36*
X259317142Y-391648242D02*
G01*
X259465101Y-391709529D01*
X259598255Y-391798499D01*
X259711501Y-391911745D01*
X259800471Y-392044899D01*
X259861758Y-392192858D01*
X259893000Y-392349925D01*
X259893000Y-392510075D01*
X259861758Y-392667142D01*
X259800471Y-392815101D01*
X259711501Y-392948255D01*
X259598255Y-393061501D01*
X259465101Y-393150471D01*
X259317142Y-393211758D01*
X259160075Y-393243000D01*
X258999925Y-393243000D01*
X258842858Y-393211758D01*
X258694899Y-393150471D01*
X258561745Y-393061501D01*
X258448499Y-392948255D01*
X258359529Y-392815101D01*
X258298242Y-392667142D01*
X258267000Y-392510075D01*
X258267000Y-392349925D01*
X258298242Y-392192858D01*
X258359529Y-392044899D01*
X258448499Y-391911745D01*
X258561745Y-391798499D01*
X258694899Y-391709529D01*
X258842858Y-391648242D01*
X258999925Y-391617000D01*
X259160075Y-391617000D01*
X259317142Y-391648242D01*
G37*
G36*
X261857142Y-391648242D02*
G01*
X262005101Y-391709529D01*
X262138255Y-391798499D01*
X262251501Y-391911745D01*
X262340471Y-392044899D01*
X262401758Y-392192858D01*
X262433000Y-392349925D01*
X262433000Y-392510075D01*
X262401758Y-392667142D01*
X262340471Y-392815101D01*
X262251501Y-392948255D01*
X262138255Y-393061501D01*
X262005101Y-393150471D01*
X261857142Y-393211758D01*
X261700075Y-393243000D01*
X261539925Y-393243000D01*
X261382858Y-393211758D01*
X261234899Y-393150471D01*
X261101745Y-393061501D01*
X260988499Y-392948255D01*
X260899529Y-392815101D01*
X260838242Y-392667142D01*
X260807000Y-392510075D01*
X260807000Y-392349925D01*
X260838242Y-392192858D01*
X260899529Y-392044899D01*
X260988499Y-391911745D01*
X261101745Y-391798499D01*
X261234899Y-391709529D01*
X261382858Y-391648242D01*
X261539925Y-391617000D01*
X261700075Y-391617000D01*
X261857142Y-391648242D01*
G37*
G36*
X251697142Y-391648242D02*
G01*
X251845101Y-391709529D01*
X251978255Y-391798499D01*
X252091501Y-391911745D01*
X252180471Y-392044899D01*
X252241758Y-392192858D01*
X252273000Y-392349925D01*
X252273000Y-392510075D01*
X252241758Y-392667142D01*
X252180471Y-392815101D01*
X252091501Y-392948255D01*
X251978255Y-393061501D01*
X251845101Y-393150471D01*
X251697142Y-393211758D01*
X251540075Y-393243000D01*
X251379925Y-393243000D01*
X251222858Y-393211758D01*
X251074899Y-393150471D01*
X250941745Y-393061501D01*
X250828499Y-392948255D01*
X250739529Y-392815101D01*
X250678242Y-392667142D01*
X250647000Y-392510075D01*
X250647000Y-392349925D01*
X250678242Y-392192858D01*
X250739529Y-392044899D01*
X250828499Y-391911745D01*
X250941745Y-391798499D01*
X251074899Y-391709529D01*
X251222858Y-391648242D01*
X251379925Y-391617000D01*
X251540075Y-391617000D01*
X251697142Y-391648242D01*
G37*
G36*
X264397142Y-391648242D02*
G01*
X264545101Y-391709529D01*
X264678255Y-391798499D01*
X264791501Y-391911745D01*
X264880471Y-392044899D01*
X264941758Y-392192858D01*
X264973000Y-392349925D01*
X264973000Y-392510075D01*
X264941758Y-392667142D01*
X264880471Y-392815101D01*
X264791501Y-392948255D01*
X264678255Y-393061501D01*
X264545101Y-393150471D01*
X264397142Y-393211758D01*
X264240075Y-393243000D01*
X264079925Y-393243000D01*
X263922858Y-393211758D01*
X263774899Y-393150471D01*
X263641745Y-393061501D01*
X263528499Y-392948255D01*
X263439529Y-392815101D01*
X263378242Y-392667142D01*
X263347000Y-392510075D01*
X263347000Y-392349925D01*
X263378242Y-392192858D01*
X263439529Y-392044899D01*
X263528499Y-391911745D01*
X263641745Y-391798499D01*
X263774899Y-391709529D01*
X263922858Y-391648242D01*
X264079925Y-391617000D01*
X264240075Y-391617000D01*
X264397142Y-391648242D01*
G37*
G36*
X212351000Y-393181000D02*
G01*
X211199000Y-393181000D01*
X211199000Y-391679000D01*
X212351000Y-391679000D01*
X212351000Y-393181000D01*
G37*
G36*
X214251000Y-393181000D02*
G01*
X213099000Y-393181000D01*
X213099000Y-391679000D01*
X214251000Y-391679000D01*
X214251000Y-393181000D01*
G37*
G36*
X222048500Y-393003500D02*
G01*
X220546500Y-393003500D01*
X220546500Y-391851500D01*
X222048500Y-391851500D01*
X222048500Y-393003500D01*
G37*
G36*
X284196000Y-392373500D02*
G01*
X283494000Y-392373500D01*
X283494000Y-391021500D01*
X284196000Y-391021500D01*
X284196000Y-392373500D01*
G37*
G36*
X222048500Y-391103500D02*
G01*
X220546500Y-391103500D01*
X220546500Y-389951500D01*
X222048500Y-389951500D01*
X222048500Y-391103500D01*
G37*
G36*
X133113512Y-389103927D02*
G01*
X133262812Y-389133624D01*
X133426784Y-389201544D01*
X133574354Y-389300147D01*
X133699853Y-389425646D01*
X133798456Y-389573216D01*
X133866376Y-389737188D01*
X133901000Y-389911259D01*
X133901000Y-390088741D01*
X133866376Y-390262812D01*
X133798456Y-390426784D01*
X133699853Y-390574354D01*
X133574354Y-390699853D01*
X133426784Y-390798456D01*
X133262812Y-390866376D01*
X133113512Y-390896073D01*
X133088742Y-390901000D01*
X132911258Y-390901000D01*
X132886488Y-390896073D01*
X132737188Y-390866376D01*
X132573216Y-390798456D01*
X132425646Y-390699853D01*
X132300147Y-390574354D01*
X132201544Y-390426784D01*
X132133624Y-390262812D01*
X132099000Y-390088741D01*
X132099000Y-389911259D01*
X132133624Y-389737188D01*
X132201544Y-389573216D01*
X132300147Y-389425646D01*
X132425646Y-389300147D01*
X132573216Y-389201544D01*
X132737188Y-389133624D01*
X132886488Y-389103927D01*
X132911258Y-389099000D01*
X133088742Y-389099000D01*
X133113512Y-389103927D01*
G37*
G36*
X130113512Y-389103927D02*
G01*
X130262812Y-389133624D01*
X130426784Y-389201544D01*
X130574354Y-389300147D01*
X130699853Y-389425646D01*
X130798456Y-389573216D01*
X130866376Y-389737188D01*
X130901000Y-389911259D01*
X130901000Y-390088741D01*
X130866376Y-390262812D01*
X130798456Y-390426784D01*
X130699853Y-390574354D01*
X130574354Y-390699853D01*
X130426784Y-390798456D01*
X130262812Y-390866376D01*
X130113512Y-390896073D01*
X130088742Y-390901000D01*
X129911258Y-390901000D01*
X129886488Y-390896073D01*
X129737188Y-390866376D01*
X129573216Y-390798456D01*
X129425646Y-390699853D01*
X129300147Y-390574354D01*
X129201544Y-390426784D01*
X129133624Y-390262812D01*
X129099000Y-390088741D01*
X129099000Y-389911259D01*
X129133624Y-389737188D01*
X129201544Y-389573216D01*
X129300147Y-389425646D01*
X129425646Y-389300147D01*
X129573216Y-389201544D01*
X129737188Y-389133624D01*
X129886488Y-389103927D01*
X129911258Y-389099000D01*
X130088742Y-389099000D01*
X130113512Y-389103927D01*
G37*
G36*
X292983500Y-390551000D02*
G01*
X286381500Y-390551000D01*
X286381500Y-384149000D01*
X292983500Y-384149000D01*
X292983500Y-390551000D01*
G37*
G36*
X198553500Y-390463500D02*
G01*
X197051500Y-390463500D01*
X197051500Y-389311500D01*
X198553500Y-389311500D01*
X198553500Y-390463500D01*
G37*
G36*
X284683500Y-390437000D02*
G01*
X281681500Y-390437000D01*
X281681500Y-388835000D01*
X284683500Y-388835000D01*
X284683500Y-390437000D01*
G37*
G36*
X196596000Y-390388500D02*
G01*
X195294000Y-390388500D01*
X195294000Y-389386500D01*
X196596000Y-389386500D01*
X196596000Y-390388500D01*
G37*
G36*
X202889000Y-389948500D02*
G01*
X201262000Y-389948500D01*
X201262000Y-389196500D01*
X202889000Y-389196500D01*
X202889000Y-389948500D01*
G37*
G36*
X208313000Y-389948500D02*
G01*
X206686000Y-389948500D01*
X206686000Y-389196500D01*
X208313000Y-389196500D01*
X208313000Y-389948500D01*
G37*
G36*
X194596000Y-389438500D02*
G01*
X193294000Y-389438500D01*
X193294000Y-388436500D01*
X194596000Y-388436500D01*
X194596000Y-389438500D01*
G37*
G36*
X202889000Y-388678500D02*
G01*
X201262000Y-388678500D01*
X201262000Y-387926500D01*
X202889000Y-387926500D01*
X202889000Y-388678500D01*
G37*
G36*
X208313000Y-388678500D02*
G01*
X206686000Y-388678500D01*
X206686000Y-387926500D01*
X208313000Y-387926500D01*
X208313000Y-388678500D01*
G37*
G36*
X198553500Y-388563500D02*
G01*
X197051500Y-388563500D01*
X197051500Y-387411500D01*
X198553500Y-387411500D01*
X198553500Y-388563500D01*
G37*
G36*
X196596000Y-388488500D02*
G01*
X195294000Y-388488500D01*
X195294000Y-387486500D01*
X196596000Y-387486500D01*
X196596000Y-388488500D01*
G37*
G36*
X130113512Y-386103927D02*
G01*
X130262812Y-386133624D01*
X130426784Y-386201544D01*
X130574354Y-386300147D01*
X130699853Y-386425646D01*
X130798456Y-386573216D01*
X130866376Y-386737188D01*
X130901000Y-386911259D01*
X130901000Y-387088741D01*
X130866376Y-387262812D01*
X130798456Y-387426784D01*
X130699853Y-387574354D01*
X130574354Y-387699853D01*
X130426784Y-387798456D01*
X130262812Y-387866376D01*
X130113512Y-387896073D01*
X130088742Y-387901000D01*
X129911258Y-387901000D01*
X129886488Y-387896073D01*
X129737188Y-387866376D01*
X129573216Y-387798456D01*
X129425646Y-387699853D01*
X129300147Y-387574354D01*
X129201544Y-387426784D01*
X129133624Y-387262812D01*
X129099000Y-387088741D01*
X129099000Y-386911259D01*
X129133624Y-386737188D01*
X129201544Y-386573216D01*
X129300147Y-386425646D01*
X129425646Y-386300147D01*
X129573216Y-386201544D01*
X129737188Y-386133624D01*
X129886488Y-386103927D01*
X129911258Y-386099000D01*
X130088742Y-386099000D01*
X130113512Y-386103927D01*
G37*
G36*
X133113512Y-386103927D02*
G01*
X133262812Y-386133624D01*
X133426784Y-386201544D01*
X133574354Y-386300147D01*
X133699853Y-386425646D01*
X133798456Y-386573216D01*
X133866376Y-386737188D01*
X133901000Y-386911259D01*
X133901000Y-387088741D01*
X133866376Y-387262812D01*
X133798456Y-387426784D01*
X133699853Y-387574354D01*
X133574354Y-387699853D01*
X133426784Y-387798456D01*
X133262812Y-387866376D01*
X133113512Y-387896073D01*
X133088742Y-387901000D01*
X132911258Y-387901000D01*
X132886488Y-387896073D01*
X132737188Y-387866376D01*
X132573216Y-387798456D01*
X132425646Y-387699853D01*
X132300147Y-387574354D01*
X132201544Y-387426784D01*
X132133624Y-387262812D01*
X132099000Y-387088741D01*
X132099000Y-386911259D01*
X132133624Y-386737188D01*
X132201544Y-386573216D01*
X132300147Y-386425646D01*
X132425646Y-386300147D01*
X132573216Y-386201544D01*
X132737188Y-386133624D01*
X132886488Y-386103927D01*
X132911258Y-386099000D01*
X133088742Y-386099000D01*
X133113512Y-386103927D01*
G37*
G36*
X208313000Y-387408500D02*
G01*
X206686000Y-387408500D01*
X206686000Y-386656500D01*
X208313000Y-386656500D01*
X208313000Y-387408500D01*
G37*
G36*
X202889000Y-387408500D02*
G01*
X201262000Y-387408500D01*
X201262000Y-386656500D01*
X202889000Y-386656500D01*
X202889000Y-387408500D01*
G37*
G36*
X214251000Y-386831000D02*
G01*
X213099000Y-386831000D01*
X213099000Y-385329000D01*
X214251000Y-385329000D01*
X214251000Y-386831000D01*
G37*
G36*
X212351000Y-386831000D02*
G01*
X211199000Y-386831000D01*
X211199000Y-385329000D01*
X212351000Y-385329000D01*
X212351000Y-386831000D01*
G37*
G36*
X182101000Y-386461000D02*
G01*
X179999000Y-386461000D01*
X179999000Y-383159000D01*
X182101000Y-383159000D01*
X182101000Y-386461000D01*
G37*
G36*
X175601000Y-386461000D02*
G01*
X173499000Y-386461000D01*
X173499000Y-383159000D01*
X175601000Y-383159000D01*
X175601000Y-386461000D01*
G37*
G36*
X169401000Y-386461000D02*
G01*
X167299000Y-386461000D01*
X167299000Y-383159000D01*
X169401000Y-383159000D01*
X169401000Y-386461000D01*
G37*
G36*
X162901000Y-386461000D02*
G01*
X160799000Y-386461000D01*
X160799000Y-383159000D01*
X162901000Y-383159000D01*
X162901000Y-386461000D01*
G37*
G36*
X156701000Y-386461000D02*
G01*
X154599000Y-386461000D01*
X154599000Y-383159000D01*
X156701000Y-383159000D01*
X156701000Y-386461000D01*
G37*
G36*
X150201000Y-386461000D02*
G01*
X148099000Y-386461000D01*
X148099000Y-383159000D01*
X150201000Y-383159000D01*
X150201000Y-386461000D01*
G37*
G36*
X188301000Y-386461000D02*
G01*
X186199000Y-386461000D01*
X186199000Y-383159000D01*
X188301000Y-383159000D01*
X188301000Y-386461000D01*
G37*
G36*
X194801000Y-386461000D02*
G01*
X192699000Y-386461000D01*
X192699000Y-383159000D01*
X194801000Y-383159000D01*
X194801000Y-386461000D01*
G37*
G36*
X202889000Y-386138500D02*
G01*
X201262000Y-386138500D01*
X201262000Y-385386500D01*
X202889000Y-385386500D01*
X202889000Y-386138500D01*
G37*
G36*
X208313000Y-386138500D02*
G01*
X206686000Y-386138500D01*
X206686000Y-385386500D01*
X208313000Y-385386500D01*
X208313000Y-386138500D01*
G37*
G36*
X284683500Y-385865000D02*
G01*
X281681500Y-385865000D01*
X281681500Y-384263000D01*
X284683500Y-384263000D01*
X284683500Y-385865000D01*
G37*
G36*
X214251000Y-384926000D02*
G01*
X213099000Y-384926000D01*
X213099000Y-383424000D01*
X214251000Y-383424000D01*
X214251000Y-384926000D01*
G37*
G36*
X212351000Y-384926000D02*
G01*
X211199000Y-384926000D01*
X211199000Y-383424000D01*
X212351000Y-383424000D01*
X212351000Y-384926000D01*
G37*
G36*
X133113512Y-383103927D02*
G01*
X133262812Y-383133624D01*
X133426784Y-383201544D01*
X133574354Y-383300147D01*
X133699853Y-383425646D01*
X133798456Y-383573216D01*
X133866376Y-383737188D01*
X133901000Y-383911259D01*
X133901000Y-384088741D01*
X133866376Y-384262812D01*
X133798456Y-384426784D01*
X133699853Y-384574354D01*
X133574354Y-384699853D01*
X133426784Y-384798456D01*
X133262812Y-384866376D01*
X133113512Y-384896073D01*
X133088742Y-384901000D01*
X132911258Y-384901000D01*
X132886488Y-384896073D01*
X132737188Y-384866376D01*
X132573216Y-384798456D01*
X132425646Y-384699853D01*
X132300147Y-384574354D01*
X132201544Y-384426784D01*
X132133624Y-384262812D01*
X132099000Y-384088741D01*
X132099000Y-383911259D01*
X132133624Y-383737188D01*
X132201544Y-383573216D01*
X132300147Y-383425646D01*
X132425646Y-383300147D01*
X132573216Y-383201544D01*
X132737188Y-383133624D01*
X132886488Y-383103927D01*
X132911258Y-383099000D01*
X133088742Y-383099000D01*
X133113512Y-383103927D01*
G37*
G36*
X130113512Y-383103927D02*
G01*
X130262812Y-383133624D01*
X130426784Y-383201544D01*
X130574354Y-383300147D01*
X130699853Y-383425646D01*
X130798456Y-383573216D01*
X130866376Y-383737188D01*
X130901000Y-383911259D01*
X130901000Y-384088741D01*
X130866376Y-384262812D01*
X130798456Y-384426784D01*
X130699853Y-384574354D01*
X130574354Y-384699853D01*
X130426784Y-384798456D01*
X130262812Y-384866376D01*
X130113512Y-384896073D01*
X130088742Y-384901000D01*
X129911258Y-384901000D01*
X129886488Y-384896073D01*
X129737188Y-384866376D01*
X129573216Y-384798456D01*
X129425646Y-384699853D01*
X129300147Y-384574354D01*
X129201544Y-384426784D01*
X129133624Y-384262812D01*
X129099000Y-384088741D01*
X129099000Y-383911259D01*
X129133624Y-383737188D01*
X129201544Y-383573216D01*
X129300147Y-383425646D01*
X129425646Y-383300147D01*
X129573216Y-383201544D01*
X129737188Y-383133624D01*
X129886488Y-383103927D01*
X129911258Y-383099000D01*
X130088742Y-383099000D01*
X130113512Y-383103927D01*
G37*
G36*
X221731000Y-384748500D02*
G01*
X220229000Y-384748500D01*
X220229000Y-383596500D01*
X221731000Y-383596500D01*
X221731000Y-384748500D01*
G37*
G36*
X214251000Y-383021000D02*
G01*
X213099000Y-383021000D01*
X213099000Y-381519000D01*
X214251000Y-381519000D01*
X214251000Y-383021000D01*
G37*
G36*
X212351000Y-383021000D02*
G01*
X211199000Y-383021000D01*
X211199000Y-381519000D01*
X212351000Y-381519000D01*
X212351000Y-383021000D01*
G37*
G36*
X247051000Y-382941000D02*
G01*
X245074000Y-382941000D01*
X245074000Y-380964000D01*
X247051000Y-380964000D01*
X247051000Y-382941000D01*
G37*
G36*
X221731000Y-382848500D02*
G01*
X220229000Y-382848500D01*
X220229000Y-381696500D01*
X221731000Y-381696500D01*
X221731000Y-382848500D01*
G37*
G36*
X156701000Y-382651000D02*
G01*
X154599000Y-382651000D01*
X154599000Y-379349000D01*
X156701000Y-379349000D01*
X156701000Y-382651000D01*
G37*
G36*
X194801000Y-382651000D02*
G01*
X192699000Y-382651000D01*
X192699000Y-379349000D01*
X194801000Y-379349000D01*
X194801000Y-382651000D01*
G37*
G36*
X171951000Y-382651000D02*
G01*
X170949000Y-382651000D01*
X170949000Y-381349000D01*
X171951000Y-381349000D01*
X171951000Y-382651000D01*
G37*
G36*
X169401000Y-382651000D02*
G01*
X167299000Y-382651000D01*
X167299000Y-379349000D01*
X169401000Y-379349000D01*
X169401000Y-382651000D01*
G37*
G36*
X162901000Y-382651000D02*
G01*
X160799000Y-382651000D01*
X160799000Y-379349000D01*
X162901000Y-379349000D01*
X162901000Y-382651000D01*
G37*
G36*
X159251000Y-382651000D02*
G01*
X158249000Y-382651000D01*
X158249000Y-381349000D01*
X159251000Y-381349000D01*
X159251000Y-382651000D01*
G37*
G36*
X182101000Y-382651000D02*
G01*
X179999000Y-382651000D01*
X179999000Y-379349000D01*
X182101000Y-379349000D01*
X182101000Y-382651000D01*
G37*
G36*
X184651000Y-382651000D02*
G01*
X183649000Y-382651000D01*
X183649000Y-381349000D01*
X184651000Y-381349000D01*
X184651000Y-382651000D01*
G37*
G36*
X188301000Y-382651000D02*
G01*
X186199000Y-382651000D01*
X186199000Y-379349000D01*
X188301000Y-379349000D01*
X188301000Y-382651000D01*
G37*
G36*
X150201000Y-382651000D02*
G01*
X148099000Y-382651000D01*
X148099000Y-379349000D01*
X150201000Y-379349000D01*
X150201000Y-382651000D01*
G37*
G36*
X175601000Y-382651000D02*
G01*
X173499000Y-382651000D01*
X173499000Y-379349000D01*
X175601000Y-379349000D01*
X175601000Y-382651000D01*
G37*
G36*
X130113512Y-380103927D02*
G01*
X130262812Y-380133624D01*
X130426784Y-380201544D01*
X130574354Y-380300147D01*
X130699853Y-380425646D01*
X130798456Y-380573216D01*
X130866376Y-380737188D01*
X130901000Y-380911259D01*
X130901000Y-381088741D01*
X130866376Y-381262812D01*
X130798456Y-381426784D01*
X130699853Y-381574354D01*
X130574354Y-381699853D01*
X130426784Y-381798456D01*
X130262812Y-381866376D01*
X130113512Y-381896073D01*
X130088742Y-381901000D01*
X129911258Y-381901000D01*
X129886488Y-381896073D01*
X129737188Y-381866376D01*
X129573216Y-381798456D01*
X129425646Y-381699853D01*
X129300147Y-381574354D01*
X129201544Y-381426784D01*
X129133624Y-381262812D01*
X129099000Y-381088741D01*
X129099000Y-380911259D01*
X129133624Y-380737188D01*
X129201544Y-380573216D01*
X129300147Y-380425646D01*
X129425646Y-380300147D01*
X129573216Y-380201544D01*
X129737188Y-380133624D01*
X129886488Y-380103927D01*
X129911258Y-380099000D01*
X130088742Y-380099000D01*
X130113512Y-380103927D01*
G37*
G36*
X133113512Y-380103927D02*
G01*
X133262812Y-380133624D01*
X133426784Y-380201544D01*
X133574354Y-380300147D01*
X133699853Y-380425646D01*
X133798456Y-380573216D01*
X133866376Y-380737188D01*
X133901000Y-380911259D01*
X133901000Y-381088741D01*
X133866376Y-381262812D01*
X133798456Y-381426784D01*
X133699853Y-381574354D01*
X133574354Y-381699853D01*
X133426784Y-381798456D01*
X133262812Y-381866376D01*
X133113512Y-381896073D01*
X133088742Y-381901000D01*
X132911258Y-381901000D01*
X132886488Y-381896073D01*
X132737188Y-381866376D01*
X132573216Y-381798456D01*
X132425646Y-381699853D01*
X132300147Y-381574354D01*
X132201544Y-381426784D01*
X132133624Y-381262812D01*
X132099000Y-381088741D01*
X132099000Y-380911259D01*
X132133624Y-380737188D01*
X132201544Y-380573216D01*
X132300147Y-380425646D01*
X132425646Y-380300147D01*
X132573216Y-380201544D01*
X132737188Y-380133624D01*
X132886488Y-380103927D01*
X132911258Y-380099000D01*
X133088742Y-380099000D01*
X133113512Y-380103927D01*
G37*
G36*
X228861000Y-381751000D02*
G01*
X227709000Y-381751000D01*
X227709000Y-380249000D01*
X228861000Y-380249000D01*
X228861000Y-381751000D01*
G37*
G36*
X230761000Y-381751000D02*
G01*
X229609000Y-381751000D01*
X229609000Y-380249000D01*
X230761000Y-380249000D01*
X230761000Y-381751000D01*
G37*
G36*
X296198500Y-381288500D02*
G01*
X286096500Y-381288500D01*
X286096500Y-371186500D01*
X296198500Y-371186500D01*
X296198500Y-381288500D01*
G37*
G36*
X212351000Y-381116000D02*
G01*
X211199000Y-381116000D01*
X211199000Y-379614000D01*
X212351000Y-379614000D01*
X212351000Y-381116000D01*
G37*
G36*
X214251000Y-381116000D02*
G01*
X213099000Y-381116000D01*
X213099000Y-379614000D01*
X214251000Y-379614000D01*
X214251000Y-381116000D01*
G37*
G36*
X202889000Y-380741000D02*
G01*
X201262000Y-380741000D01*
X201262000Y-379989000D01*
X202889000Y-379989000D01*
X202889000Y-380741000D01*
G37*
G36*
X208313000Y-380741000D02*
G01*
X206686000Y-380741000D01*
X206686000Y-379989000D01*
X208313000Y-379989000D01*
X208313000Y-380741000D01*
G37*
G36*
X158301000Y-380651000D02*
G01*
X157299000Y-380651000D01*
X157299000Y-379349000D01*
X158301000Y-379349000D01*
X158301000Y-380651000D01*
G37*
G36*
X160201000Y-380651000D02*
G01*
X159199000Y-380651000D01*
X159199000Y-379349000D01*
X160201000Y-379349000D01*
X160201000Y-380651000D01*
G37*
G36*
X171001000Y-380651000D02*
G01*
X169999000Y-380651000D01*
X169999000Y-379349000D01*
X171001000Y-379349000D01*
X171001000Y-380651000D01*
G37*
G36*
X172901000Y-380651000D02*
G01*
X171899000Y-380651000D01*
X171899000Y-379349000D01*
X172901000Y-379349000D01*
X172901000Y-380651000D01*
G37*
G36*
X185601000Y-380651000D02*
G01*
X184599000Y-380651000D01*
X184599000Y-379349000D01*
X185601000Y-379349000D01*
X185601000Y-380651000D01*
G37*
G36*
X183701000Y-380651000D02*
G01*
X182699000Y-380651000D01*
X182699000Y-379349000D01*
X183701000Y-379349000D01*
X183701000Y-380651000D01*
G37*
G36*
X246255347Y-378442993D02*
G01*
X246350835Y-378461987D01*
X246425350Y-378492853D01*
X246530729Y-378536502D01*
X246530730Y-378536503D01*
X246692632Y-378644682D01*
X246830318Y-378782368D01*
X246869494Y-378841000D01*
X246938498Y-378944271D01*
X247013013Y-379124166D01*
X247051000Y-379315140D01*
X247051000Y-379509860D01*
X247013013Y-379700834D01*
X246938498Y-379880729D01*
X246938497Y-379880730D01*
X246830318Y-380042632D01*
X246692632Y-380180318D01*
X246660865Y-380201544D01*
X246530729Y-380288498D01*
X246425350Y-380332147D01*
X246350835Y-380363013D01*
X246255347Y-380382007D01*
X246159860Y-380401000D01*
X245965140Y-380401000D01*
X245869653Y-380382007D01*
X245774165Y-380363013D01*
X245699650Y-380332147D01*
X245594271Y-380288498D01*
X245464135Y-380201544D01*
X245432368Y-380180318D01*
X245294682Y-380042632D01*
X245186503Y-379880730D01*
X245186502Y-379880729D01*
X245111987Y-379700834D01*
X245074000Y-379509860D01*
X245074000Y-379315140D01*
X245111987Y-379124166D01*
X245186502Y-378944271D01*
X245255506Y-378841000D01*
X245294682Y-378782368D01*
X245432368Y-378644682D01*
X245594270Y-378536503D01*
X245594271Y-378536502D01*
X245699650Y-378492853D01*
X245774165Y-378461987D01*
X245869653Y-378442994D01*
X245965140Y-378424000D01*
X246159860Y-378424000D01*
X246255347Y-378442993D01*
G37*
G36*
X202889000Y-379471000D02*
G01*
X201262000Y-379471000D01*
X201262000Y-378719000D01*
X202889000Y-378719000D01*
X202889000Y-379471000D01*
G37*
G36*
X208313000Y-379471000D02*
G01*
X206686000Y-379471000D01*
X206686000Y-378719000D01*
X208313000Y-378719000D01*
X208313000Y-379471000D01*
G37*
G36*
X133113512Y-377103927D02*
G01*
X133262812Y-377133624D01*
X133426784Y-377201544D01*
X133574354Y-377300147D01*
X133699853Y-377425646D01*
X133798456Y-377573216D01*
X133866376Y-377737188D01*
X133901000Y-377911259D01*
X133901000Y-378088741D01*
X133866376Y-378262812D01*
X133798456Y-378426784D01*
X133699853Y-378574354D01*
X133574354Y-378699853D01*
X133426784Y-378798456D01*
X133262812Y-378866376D01*
X133113512Y-378896073D01*
X133088742Y-378901000D01*
X132911258Y-378901000D01*
X132886488Y-378896073D01*
X132737188Y-378866376D01*
X132573216Y-378798456D01*
X132425646Y-378699853D01*
X132300147Y-378574354D01*
X132201544Y-378426784D01*
X132133624Y-378262812D01*
X132099000Y-378088741D01*
X132099000Y-377911259D01*
X132133624Y-377737188D01*
X132201544Y-377573216D01*
X132300147Y-377425646D01*
X132425646Y-377300147D01*
X132573216Y-377201544D01*
X132737188Y-377133624D01*
X132886488Y-377103927D01*
X132911258Y-377099000D01*
X133088742Y-377099000D01*
X133113512Y-377103927D01*
G37*
G36*
X130113512Y-377103927D02*
G01*
X130262812Y-377133624D01*
X130426784Y-377201544D01*
X130574354Y-377300147D01*
X130699853Y-377425646D01*
X130798456Y-377573216D01*
X130866376Y-377737188D01*
X130901000Y-377911259D01*
X130901000Y-378088741D01*
X130866376Y-378262812D01*
X130798456Y-378426784D01*
X130699853Y-378574354D01*
X130574354Y-378699853D01*
X130426784Y-378798456D01*
X130262812Y-378866376D01*
X130113512Y-378896073D01*
X130088742Y-378901000D01*
X129911258Y-378901000D01*
X129886488Y-378896073D01*
X129737188Y-378866376D01*
X129573216Y-378798456D01*
X129425646Y-378699853D01*
X129300147Y-378574354D01*
X129201544Y-378426784D01*
X129133624Y-378262812D01*
X129099000Y-378088741D01*
X129099000Y-377911259D01*
X129133624Y-377737188D01*
X129201544Y-377573216D01*
X129300147Y-377425646D01*
X129425646Y-377300147D01*
X129573216Y-377201544D01*
X129737188Y-377133624D01*
X129886488Y-377103927D01*
X129911258Y-377099000D01*
X130088742Y-377099000D01*
X130113512Y-377103927D01*
G37*
G36*
X156701000Y-378841000D02*
G01*
X154599000Y-378841000D01*
X154599000Y-375539000D01*
X156701000Y-375539000D01*
X156701000Y-378841000D01*
G37*
G36*
X162901000Y-378841000D02*
G01*
X160799000Y-378841000D01*
X160799000Y-375539000D01*
X162901000Y-375539000D01*
X162901000Y-378841000D01*
G37*
G36*
X182101000Y-378841000D02*
G01*
X179999000Y-378841000D01*
X179999000Y-375539000D01*
X182101000Y-375539000D01*
X182101000Y-378841000D01*
G37*
G36*
X150201000Y-378841000D02*
G01*
X148099000Y-378841000D01*
X148099000Y-375539000D01*
X150201000Y-375539000D01*
X150201000Y-378841000D01*
G37*
G36*
X188301000Y-378841000D02*
G01*
X186199000Y-378841000D01*
X186199000Y-375539000D01*
X188301000Y-375539000D01*
X188301000Y-378841000D01*
G37*
G36*
X194801000Y-378841000D02*
G01*
X192699000Y-378841000D01*
X192699000Y-375539000D01*
X194801000Y-375539000D01*
X194801000Y-378841000D01*
G37*
G36*
X169401000Y-378841000D02*
G01*
X167299000Y-378841000D01*
X167299000Y-375539000D01*
X169401000Y-375539000D01*
X169401000Y-378841000D01*
G37*
G36*
X175601000Y-378841000D02*
G01*
X173499000Y-378841000D01*
X173499000Y-375539000D01*
X175601000Y-375539000D01*
X175601000Y-378841000D01*
G37*
G36*
X208313000Y-378201000D02*
G01*
X206686000Y-378201000D01*
X206686000Y-377449000D01*
X208313000Y-377449000D01*
X208313000Y-378201000D01*
G37*
G36*
X202889000Y-378201000D02*
G01*
X201262000Y-378201000D01*
X201262000Y-377449000D01*
X202889000Y-377449000D01*
X202889000Y-378201000D01*
G37*
G36*
X274842295Y-375792656D02*
G01*
X274948650Y-375813811D01*
X275048834Y-375855309D01*
X275149020Y-375896807D01*
X275329344Y-376017295D01*
X275482705Y-376170656D01*
X275603193Y-376350980D01*
X275603193Y-376350981D01*
X275686189Y-376551350D01*
X275728500Y-376764061D01*
X275728500Y-376980939D01*
X275692717Y-377160834D01*
X275686189Y-377193649D01*
X275603193Y-377394020D01*
X275482705Y-377574344D01*
X275329344Y-377727705D01*
X275149020Y-377848193D01*
X274948650Y-377931189D01*
X274842295Y-377952344D01*
X274735940Y-377973500D01*
X274519060Y-377973500D01*
X274412705Y-377952344D01*
X274306350Y-377931189D01*
X274105980Y-377848193D01*
X273925656Y-377727705D01*
X273772295Y-377574344D01*
X273651807Y-377394020D01*
X273568811Y-377193649D01*
X273562284Y-377160834D01*
X273526500Y-376980939D01*
X273526500Y-376764061D01*
X273568811Y-376551350D01*
X273651807Y-376350981D01*
X273651807Y-376350980D01*
X273772295Y-376170656D01*
X273925656Y-376017295D01*
X274105980Y-375896807D01*
X274206166Y-375855309D01*
X274306350Y-375813811D01*
X274412705Y-375792656D01*
X274519060Y-375771500D01*
X274735940Y-375771500D01*
X274842295Y-375792656D01*
G37*
G36*
X172976000Y-377941000D02*
G01*
X171824000Y-377941000D01*
X171824000Y-376439000D01*
X172976000Y-376439000D01*
X172976000Y-377941000D01*
G37*
G36*
X185676000Y-377941000D02*
G01*
X184524000Y-377941000D01*
X184524000Y-376439000D01*
X185676000Y-376439000D01*
X185676000Y-377941000D01*
G37*
G36*
X183776000Y-377941000D02*
G01*
X182624000Y-377941000D01*
X182624000Y-376439000D01*
X183776000Y-376439000D01*
X183776000Y-377941000D01*
G37*
G36*
X171076000Y-377941000D02*
G01*
X169924000Y-377941000D01*
X169924000Y-376439000D01*
X171076000Y-376439000D01*
X171076000Y-377941000D01*
G37*
G36*
X160276000Y-377941000D02*
G01*
X159124000Y-377941000D01*
X159124000Y-376439000D01*
X160276000Y-376439000D01*
X160276000Y-377941000D01*
G37*
G36*
X158376000Y-377941000D02*
G01*
X157224000Y-377941000D01*
X157224000Y-376439000D01*
X158376000Y-376439000D01*
X158376000Y-377941000D01*
G37*
G36*
X246224245Y-375896807D02*
G01*
X246350835Y-375921987D01*
X246425350Y-375952853D01*
X246530729Y-375996502D01*
X246611131Y-376050225D01*
X246692632Y-376104682D01*
X246830318Y-376242368D01*
X246830319Y-376242370D01*
X246938498Y-376404271D01*
X246952883Y-376439000D01*
X247013013Y-376584165D01*
X247051000Y-376775141D01*
X247051000Y-376969859D01*
X247013013Y-377160835D01*
X246982147Y-377235350D01*
X246938498Y-377340729D01*
X246938497Y-377340730D01*
X246830318Y-377502632D01*
X246692632Y-377640318D01*
X246679936Y-377648801D01*
X246530729Y-377748498D01*
X246425350Y-377792147D01*
X246350835Y-377823013D01*
X246255347Y-377842006D01*
X246159860Y-377861000D01*
X245965140Y-377861000D01*
X245869653Y-377842006D01*
X245774165Y-377823013D01*
X245699650Y-377792147D01*
X245594271Y-377748498D01*
X245445064Y-377648801D01*
X245432368Y-377640318D01*
X245294682Y-377502632D01*
X245186503Y-377340730D01*
X245186502Y-377340729D01*
X245142853Y-377235350D01*
X245111987Y-377160835D01*
X245074000Y-376969859D01*
X245074000Y-376775141D01*
X245111987Y-376584165D01*
X245172117Y-376439000D01*
X245186502Y-376404271D01*
X245294681Y-376242370D01*
X245294682Y-376242368D01*
X245432368Y-376104682D01*
X245513869Y-376050225D01*
X245594271Y-375996502D01*
X245699650Y-375952853D01*
X245774165Y-375921987D01*
X245900755Y-375896807D01*
X245965140Y-375884000D01*
X246159860Y-375884000D01*
X246224245Y-375896807D01*
G37*
G36*
X258298399Y-376013332D02*
G01*
X258383020Y-376030164D01*
X258542442Y-376096199D01*
X258685918Y-376192066D01*
X258807934Y-376314082D01*
X258903801Y-376457558D01*
X258969836Y-376616980D01*
X259003500Y-376786221D01*
X259003500Y-376958779D01*
X258969836Y-377128020D01*
X258903801Y-377287442D01*
X258807934Y-377430918D01*
X258685918Y-377552934D01*
X258542442Y-377648801D01*
X258383020Y-377714836D01*
X258318338Y-377727702D01*
X258213780Y-377748500D01*
X258041220Y-377748500D01*
X257936662Y-377727702D01*
X257871980Y-377714836D01*
X257712558Y-377648801D01*
X257569082Y-377552934D01*
X257447066Y-377430918D01*
X257351199Y-377287442D01*
X257285164Y-377128020D01*
X257251500Y-376958779D01*
X257251500Y-376786221D01*
X257285164Y-376616980D01*
X257351199Y-376457558D01*
X257447066Y-376314082D01*
X257569082Y-376192066D01*
X257712558Y-376096199D01*
X257871980Y-376030164D01*
X257956601Y-376013332D01*
X258041220Y-375996500D01*
X258213780Y-375996500D01*
X258298399Y-376013332D01*
G37*
G36*
X221726000Y-376931000D02*
G01*
X219774000Y-376931000D01*
X219774000Y-376179000D01*
X221726000Y-376179000D01*
X221726000Y-376931000D01*
G37*
G36*
X208313000Y-376931000D02*
G01*
X206686000Y-376931000D01*
X206686000Y-376179000D01*
X208313000Y-376179000D01*
X208313000Y-376931000D01*
G37*
G36*
X202889000Y-376931000D02*
G01*
X201262000Y-376931000D01*
X201262000Y-376179000D01*
X202889000Y-376179000D01*
X202889000Y-376931000D01*
G37*
G36*
X231076000Y-376931000D02*
G01*
X229124000Y-376931000D01*
X229124000Y-376179000D01*
X231076000Y-376179000D01*
X231076000Y-376931000D01*
G37*
G36*
X130113512Y-374103927D02*
G01*
X130262812Y-374133624D01*
X130426784Y-374201544D01*
X130574354Y-374300147D01*
X130699853Y-374425646D01*
X130798456Y-374573216D01*
X130866376Y-374737188D01*
X130901000Y-374911259D01*
X130901000Y-375088741D01*
X130866376Y-375262812D01*
X130798456Y-375426784D01*
X130699853Y-375574354D01*
X130574354Y-375699853D01*
X130426784Y-375798456D01*
X130262812Y-375866376D01*
X130113512Y-375896073D01*
X130088742Y-375901000D01*
X129911258Y-375901000D01*
X129886488Y-375896073D01*
X129737188Y-375866376D01*
X129573216Y-375798456D01*
X129425646Y-375699853D01*
X129300147Y-375574354D01*
X129201544Y-375426784D01*
X129133624Y-375262812D01*
X129099000Y-375088741D01*
X129099000Y-374911259D01*
X129133624Y-374737188D01*
X129201544Y-374573216D01*
X129300147Y-374425646D01*
X129425646Y-374300147D01*
X129573216Y-374201544D01*
X129737188Y-374133624D01*
X129886488Y-374103927D01*
X129911258Y-374099000D01*
X130088742Y-374099000D01*
X130113512Y-374103927D01*
G37*
G36*
X133113512Y-374103927D02*
G01*
X133262812Y-374133624D01*
X133426784Y-374201544D01*
X133574354Y-374300147D01*
X133699853Y-374425646D01*
X133798456Y-374573216D01*
X133866376Y-374737188D01*
X133901000Y-374911259D01*
X133901000Y-375088741D01*
X133866376Y-375262812D01*
X133798456Y-375426784D01*
X133699853Y-375574354D01*
X133574354Y-375699853D01*
X133426784Y-375798456D01*
X133262812Y-375866376D01*
X133113512Y-375896073D01*
X133088742Y-375901000D01*
X132911258Y-375901000D01*
X132886488Y-375896073D01*
X132737188Y-375866376D01*
X132573216Y-375798456D01*
X132425646Y-375699853D01*
X132300147Y-375574354D01*
X132201544Y-375426784D01*
X132133624Y-375262812D01*
X132099000Y-375088741D01*
X132099000Y-374911259D01*
X132133624Y-374737188D01*
X132201544Y-374573216D01*
X132300147Y-374425646D01*
X132425646Y-374300147D01*
X132573216Y-374201544D01*
X132737188Y-374133624D01*
X132886488Y-374103927D01*
X132911258Y-374099000D01*
X133088742Y-374099000D01*
X133113512Y-374103927D01*
G37*
G36*
X231076000Y-375661000D02*
G01*
X229124000Y-375661000D01*
X229124000Y-374909000D01*
X231076000Y-374909000D01*
X231076000Y-375661000D01*
G37*
G36*
X221726000Y-375661000D02*
G01*
X219774000Y-375661000D01*
X219774000Y-374909000D01*
X221726000Y-374909000D01*
X221726000Y-375661000D01*
G37*
G36*
X259578500Y-374713500D02*
G01*
X258576500Y-374713500D01*
X258576500Y-373411500D01*
X259578500Y-373411500D01*
X259578500Y-374713500D01*
G37*
G36*
X257678500Y-374713500D02*
G01*
X256676500Y-374713500D01*
X256676500Y-373411500D01*
X257678500Y-373411500D01*
X257678500Y-374713500D01*
G37*
G36*
X208313000Y-374391000D02*
G01*
X206686000Y-374391000D01*
X206686000Y-373639000D01*
X208313000Y-373639000D01*
X208313000Y-374391000D01*
G37*
G36*
X221726000Y-374391000D02*
G01*
X219774000Y-374391000D01*
X219774000Y-373639000D01*
X221726000Y-373639000D01*
X221726000Y-374391000D01*
G37*
G36*
X202889000Y-374391000D02*
G01*
X201262000Y-374391000D01*
X201262000Y-373639000D01*
X202889000Y-373639000D01*
X202889000Y-374391000D01*
G37*
G36*
X231076000Y-374391000D02*
G01*
X229124000Y-374391000D01*
X229124000Y-373639000D01*
X231076000Y-373639000D01*
X231076000Y-374391000D01*
G37*
G36*
X151881000Y-373318500D02*
G01*
X150379000Y-373318500D01*
X150379000Y-372166500D01*
X151881000Y-372166500D01*
X151881000Y-373318500D01*
G37*
G36*
X149606000Y-373243500D02*
G01*
X148304000Y-373243500D01*
X148304000Y-372241500D01*
X149606000Y-372241500D01*
X149606000Y-373243500D01*
G37*
G36*
X231076000Y-373121000D02*
G01*
X229124000Y-373121000D01*
X229124000Y-372369000D01*
X231076000Y-372369000D01*
X231076000Y-373121000D01*
G37*
G36*
X221726000Y-373121000D02*
G01*
X219774000Y-373121000D01*
X219774000Y-372369000D01*
X221726000Y-372369000D01*
X221726000Y-373121000D01*
G37*
G36*
X208313000Y-373121000D02*
G01*
X206686000Y-373121000D01*
X206686000Y-372369000D01*
X208313000Y-372369000D01*
X208313000Y-373121000D01*
G37*
G36*
X202889000Y-373121000D02*
G01*
X201262000Y-373121000D01*
X201262000Y-372369000D01*
X202889000Y-372369000D01*
X202889000Y-373121000D01*
G37*
G36*
X173176000Y-373093500D02*
G01*
X171824000Y-373093500D01*
X171824000Y-372391500D01*
X173176000Y-372391500D01*
X173176000Y-373093500D01*
G37*
G36*
X133113512Y-371103927D02*
G01*
X133262812Y-371133624D01*
X133426784Y-371201544D01*
X133574354Y-371300147D01*
X133699853Y-371425646D01*
X133798456Y-371573216D01*
X133866376Y-371737188D01*
X133901000Y-371911259D01*
X133901000Y-372088741D01*
X133866376Y-372262812D01*
X133798456Y-372426784D01*
X133699853Y-372574354D01*
X133574354Y-372699853D01*
X133426784Y-372798456D01*
X133262812Y-372866376D01*
X133113512Y-372896073D01*
X133088742Y-372901000D01*
X132911258Y-372901000D01*
X132886488Y-372896073D01*
X132737188Y-372866376D01*
X132573216Y-372798456D01*
X132425646Y-372699853D01*
X132300147Y-372574354D01*
X132201544Y-372426784D01*
X132133624Y-372262812D01*
X132099000Y-372088741D01*
X132099000Y-371911259D01*
X132133624Y-371737188D01*
X132201544Y-371573216D01*
X132300147Y-371425646D01*
X132425646Y-371300147D01*
X132573216Y-371201544D01*
X132737188Y-371133624D01*
X132886488Y-371103927D01*
X132911258Y-371099000D01*
X133088742Y-371099000D01*
X133113512Y-371103927D01*
G37*
G36*
X130113512Y-371103927D02*
G01*
X130262812Y-371133624D01*
X130426784Y-371201544D01*
X130574354Y-371300147D01*
X130699853Y-371425646D01*
X130798456Y-371573216D01*
X130866376Y-371737188D01*
X130901000Y-371911259D01*
X130901000Y-372088741D01*
X130866376Y-372262812D01*
X130798456Y-372426784D01*
X130699853Y-372574354D01*
X130574354Y-372699853D01*
X130426784Y-372798456D01*
X130262812Y-372866376D01*
X130113512Y-372896073D01*
X130088742Y-372901000D01*
X129911258Y-372901000D01*
X129886488Y-372896073D01*
X129737188Y-372866376D01*
X129573216Y-372798456D01*
X129425646Y-372699853D01*
X129300147Y-372574354D01*
X129201544Y-372426784D01*
X129133624Y-372262812D01*
X129099000Y-372088741D01*
X129099000Y-371911259D01*
X129133624Y-371737188D01*
X129201544Y-371573216D01*
X129300147Y-371425646D01*
X129425646Y-371300147D01*
X129573216Y-371201544D01*
X129737188Y-371133624D01*
X129886488Y-371103927D01*
X129911258Y-371099000D01*
X130088742Y-371099000D01*
X130113512Y-371103927D01*
G37*
G36*
X258628500Y-372713500D02*
G01*
X257626500Y-372713500D01*
X257626500Y-371411500D01*
X258628500Y-371411500D01*
X258628500Y-372713500D01*
G37*
G36*
X147606000Y-372293500D02*
G01*
X146304000Y-372293500D01*
X146304000Y-371291500D01*
X147606000Y-371291500D01*
X147606000Y-372293500D01*
G37*
G36*
X171076000Y-372143500D02*
G01*
X169724000Y-372143500D01*
X169724000Y-371441500D01*
X171076000Y-371441500D01*
X171076000Y-372143500D01*
G37*
G36*
X221726000Y-371851000D02*
G01*
X219774000Y-371851000D01*
X219774000Y-371099000D01*
X221726000Y-371099000D01*
X221726000Y-371851000D01*
G37*
G36*
X231076000Y-371851000D02*
G01*
X229124000Y-371851000D01*
X229124000Y-371099000D01*
X231076000Y-371099000D01*
X231076000Y-371851000D01*
G37*
G36*
X208313000Y-371851000D02*
G01*
X206686000Y-371851000D01*
X206686000Y-371099000D01*
X208313000Y-371099000D01*
X208313000Y-371851000D01*
G37*
G36*
X202889000Y-371851000D02*
G01*
X201262000Y-371851000D01*
X201262000Y-371099000D01*
X202889000Y-371099000D01*
X202889000Y-371851000D01*
G37*
G36*
X151881000Y-371418500D02*
G01*
X150379000Y-371418500D01*
X150379000Y-370266500D01*
X151881000Y-370266500D01*
X151881000Y-371418500D01*
G37*
G36*
X149606000Y-371343500D02*
G01*
X148304000Y-371343500D01*
X148304000Y-370341500D01*
X149606000Y-370341500D01*
X149606000Y-371343500D01*
G37*
G36*
X173176000Y-371193500D02*
G01*
X171824000Y-371193500D01*
X171824000Y-370491500D01*
X173176000Y-370491500D01*
X173176000Y-371193500D01*
G37*
G36*
X221726000Y-370581000D02*
G01*
X219774000Y-370581000D01*
X219774000Y-369829000D01*
X221726000Y-369829000D01*
X221726000Y-370581000D01*
G37*
G36*
X231076000Y-370581000D02*
G01*
X229124000Y-370581000D01*
X229124000Y-369829000D01*
X231076000Y-369829000D01*
X231076000Y-370581000D01*
G37*
G36*
X208313000Y-370581000D02*
G01*
X206686000Y-370581000D01*
X206686000Y-369829000D01*
X208313000Y-369829000D01*
X208313000Y-370581000D01*
G37*
G36*
X202889000Y-370581000D02*
G01*
X201262000Y-370581000D01*
X201262000Y-369829000D01*
X202889000Y-369829000D01*
X202889000Y-370581000D01*
G37*
G36*
X278342295Y-368292656D02*
G01*
X278448650Y-368313811D01*
X278548834Y-368355309D01*
X278649020Y-368396807D01*
X278829344Y-368517295D01*
X278982705Y-368670656D01*
X279103193Y-368850980D01*
X279103193Y-368850981D01*
X279186189Y-369051350D01*
X279193627Y-369088742D01*
X279228252Y-369262811D01*
X279228500Y-369264061D01*
X279228500Y-369480939D01*
X279186189Y-369693650D01*
X279147340Y-369787440D01*
X279103193Y-369894020D01*
X278982705Y-370074344D01*
X278829344Y-370227705D01*
X278649020Y-370348193D01*
X278448650Y-370431189D01*
X278342295Y-370452344D01*
X278235940Y-370473500D01*
X278019060Y-370473500D01*
X277912705Y-370452344D01*
X277806350Y-370431189D01*
X277605980Y-370348193D01*
X277425656Y-370227705D01*
X277272295Y-370074344D01*
X277151807Y-369894020D01*
X277107660Y-369787440D01*
X277068811Y-369693650D01*
X277026500Y-369480939D01*
X277026500Y-369264061D01*
X277026749Y-369262811D01*
X277061373Y-369088742D01*
X277068811Y-369051350D01*
X277151807Y-368850981D01*
X277151807Y-368850980D01*
X277272295Y-368670656D01*
X277425656Y-368517295D01*
X277605980Y-368396807D01*
X277706166Y-368355309D01*
X277806350Y-368313811D01*
X277912705Y-368292656D01*
X278019060Y-368271500D01*
X278235940Y-368271500D01*
X278342295Y-368292656D01*
G37*
G36*
X258383020Y-368530164D02*
G01*
X258542442Y-368596199D01*
X258685918Y-368692066D01*
X258807934Y-368814082D01*
X258903801Y-368957558D01*
X258958139Y-369088742D01*
X258969836Y-369116981D01*
X258998844Y-369262811D01*
X259003500Y-369286221D01*
X259003500Y-369458779D01*
X258969836Y-369628020D01*
X258903801Y-369787442D01*
X258807934Y-369930918D01*
X258685918Y-370052934D01*
X258542442Y-370148801D01*
X258383020Y-370214836D01*
X258318338Y-370227702D01*
X258213780Y-370248500D01*
X258041220Y-370248500D01*
X257936662Y-370227702D01*
X257871980Y-370214836D01*
X257712558Y-370148801D01*
X257569082Y-370052934D01*
X257447066Y-369930918D01*
X257351199Y-369787442D01*
X257285164Y-369628020D01*
X257251500Y-369458779D01*
X257251500Y-369286221D01*
X257256157Y-369262811D01*
X257285164Y-369116981D01*
X257296861Y-369088742D01*
X257351199Y-368957558D01*
X257447066Y-368814082D01*
X257569082Y-368692066D01*
X257712558Y-368596199D01*
X257871980Y-368530164D01*
X258041220Y-368496500D01*
X258213780Y-368496500D01*
X258383020Y-368530164D01*
G37*
G36*
X133113512Y-368103927D02*
G01*
X133262812Y-368133624D01*
X133426784Y-368201544D01*
X133574354Y-368300147D01*
X133699853Y-368425646D01*
X133798456Y-368573216D01*
X133866376Y-368737188D01*
X133901000Y-368911259D01*
X133901000Y-369088741D01*
X133866376Y-369262812D01*
X133798456Y-369426784D01*
X133699853Y-369574354D01*
X133574354Y-369699853D01*
X133426784Y-369798456D01*
X133262812Y-369866376D01*
X133113512Y-369896073D01*
X133088742Y-369901000D01*
X132911258Y-369901000D01*
X132886488Y-369896073D01*
X132737188Y-369866376D01*
X132573216Y-369798456D01*
X132425646Y-369699853D01*
X132300147Y-369574354D01*
X132201544Y-369426784D01*
X132133624Y-369262812D01*
X132099000Y-369088741D01*
X132099000Y-368911259D01*
X132133624Y-368737188D01*
X132201544Y-368573216D01*
X132300147Y-368425646D01*
X132425646Y-368300147D01*
X132573216Y-368201544D01*
X132737188Y-368133624D01*
X132886488Y-368103927D01*
X132911258Y-368099000D01*
X133088742Y-368099000D01*
X133113512Y-368103927D01*
G37*
G36*
X130113512Y-368103927D02*
G01*
X130262812Y-368133624D01*
X130426784Y-368201544D01*
X130574354Y-368300147D01*
X130699853Y-368425646D01*
X130798456Y-368573216D01*
X130866376Y-368737188D01*
X130901000Y-368911259D01*
X130901000Y-369088741D01*
X130866376Y-369262812D01*
X130798456Y-369426784D01*
X130699853Y-369574354D01*
X130574354Y-369699853D01*
X130426784Y-369798456D01*
X130262812Y-369866376D01*
X130113512Y-369896073D01*
X130088742Y-369901000D01*
X129911258Y-369901000D01*
X129886488Y-369896073D01*
X129737188Y-369866376D01*
X129573216Y-369798456D01*
X129425646Y-369699853D01*
X129300147Y-369574354D01*
X129201544Y-369426784D01*
X129133624Y-369262812D01*
X129099000Y-369088741D01*
X129099000Y-368911259D01*
X129133624Y-368737188D01*
X129201544Y-368573216D01*
X129300147Y-368425646D01*
X129425646Y-368300147D01*
X129573216Y-368201544D01*
X129737188Y-368133624D01*
X129886488Y-368103927D01*
X129911258Y-368099000D01*
X130088742Y-368099000D01*
X130113512Y-368103927D01*
G37*
G36*
X221726000Y-369311000D02*
G01*
X219774000Y-369311000D01*
X219774000Y-368559000D01*
X221726000Y-368559000D01*
X221726000Y-369311000D01*
G37*
G36*
X231076000Y-369311000D02*
G01*
X229124000Y-369311000D01*
X229124000Y-368559000D01*
X231076000Y-368559000D01*
X231076000Y-369311000D01*
G37*
G36*
X296198500Y-368588500D02*
G01*
X286096500Y-368588500D01*
X286096500Y-358486500D01*
X296198500Y-358486500D01*
X296198500Y-368588500D01*
G37*
G36*
X188301000Y-368046000D02*
G01*
X186199000Y-368046000D01*
X186199000Y-364744000D01*
X188301000Y-364744000D01*
X188301000Y-368046000D01*
G37*
G36*
X194801000Y-368046000D02*
G01*
X192699000Y-368046000D01*
X192699000Y-364744000D01*
X194801000Y-364744000D01*
X194801000Y-368046000D01*
G37*
G36*
X156701000Y-368046000D02*
G01*
X154599000Y-368046000D01*
X154599000Y-364744000D01*
X156701000Y-364744000D01*
X156701000Y-368046000D01*
G37*
G36*
X150201000Y-368046000D02*
G01*
X148099000Y-368046000D01*
X148099000Y-364744000D01*
X150201000Y-364744000D01*
X150201000Y-368046000D01*
G37*
G36*
X169401000Y-368046000D02*
G01*
X167299000Y-368046000D01*
X167299000Y-364744000D01*
X169401000Y-364744000D01*
X169401000Y-368046000D01*
G37*
G36*
X162901000Y-368046000D02*
G01*
X160799000Y-368046000D01*
X160799000Y-364744000D01*
X162901000Y-364744000D01*
X162901000Y-368046000D01*
G37*
G36*
X175601000Y-368046000D02*
G01*
X173499000Y-368046000D01*
X173499000Y-364744000D01*
X175601000Y-364744000D01*
X175601000Y-368046000D01*
G37*
G36*
X182101000Y-368046000D02*
G01*
X179999000Y-368046000D01*
X179999000Y-364744000D01*
X182101000Y-364744000D01*
X182101000Y-368046000D01*
G37*
G36*
X202889000Y-368041000D02*
G01*
X201262000Y-368041000D01*
X201262000Y-367289000D01*
X202889000Y-367289000D01*
X202889000Y-368041000D01*
G37*
G36*
X221726000Y-368041000D02*
G01*
X219774000Y-368041000D01*
X219774000Y-367289000D01*
X221726000Y-367289000D01*
X221726000Y-368041000D01*
G37*
G36*
X231076000Y-368041000D02*
G01*
X229124000Y-368041000D01*
X229124000Y-367289000D01*
X231076000Y-367289000D01*
X231076000Y-368041000D01*
G37*
G36*
X208313000Y-368041000D02*
G01*
X206686000Y-368041000D01*
X206686000Y-367289000D01*
X208313000Y-367289000D01*
X208313000Y-368041000D01*
G37*
G36*
X158376000Y-367146000D02*
G01*
X157224000Y-367146000D01*
X157224000Y-365644000D01*
X158376000Y-365644000D01*
X158376000Y-367146000D01*
G37*
G36*
X160276000Y-367146000D02*
G01*
X159124000Y-367146000D01*
X159124000Y-365644000D01*
X160276000Y-365644000D01*
X160276000Y-367146000D01*
G37*
G36*
X171076000Y-367146000D02*
G01*
X169924000Y-367146000D01*
X169924000Y-365644000D01*
X171076000Y-365644000D01*
X171076000Y-367146000D01*
G37*
G36*
X172976000Y-367146000D02*
G01*
X171824000Y-367146000D01*
X171824000Y-365644000D01*
X172976000Y-365644000D01*
X172976000Y-367146000D01*
G37*
G36*
X183776000Y-367146000D02*
G01*
X182624000Y-367146000D01*
X182624000Y-365644000D01*
X183776000Y-365644000D01*
X183776000Y-367146000D01*
G37*
G36*
X185676000Y-367146000D02*
G01*
X184524000Y-367146000D01*
X184524000Y-365644000D01*
X185676000Y-365644000D01*
X185676000Y-367146000D01*
G37*
G36*
X133113512Y-365103927D02*
G01*
X133262812Y-365133624D01*
X133426784Y-365201544D01*
X133574354Y-365300147D01*
X133699853Y-365425646D01*
X133798456Y-365573216D01*
X133866376Y-365737188D01*
X133901000Y-365911259D01*
X133901000Y-366088741D01*
X133866376Y-366262812D01*
X133798456Y-366426784D01*
X133699853Y-366574354D01*
X133574354Y-366699853D01*
X133426784Y-366798456D01*
X133262812Y-366866376D01*
X133113512Y-366896073D01*
X133088742Y-366901000D01*
X132911258Y-366901000D01*
X132886488Y-366896073D01*
X132737188Y-366866376D01*
X132573216Y-366798456D01*
X132425646Y-366699853D01*
X132300147Y-366574354D01*
X132201544Y-366426784D01*
X132133624Y-366262812D01*
X132099000Y-366088741D01*
X132099000Y-365911259D01*
X132133624Y-365737188D01*
X132201544Y-365573216D01*
X132300147Y-365425646D01*
X132425646Y-365300147D01*
X132573216Y-365201544D01*
X132737188Y-365133624D01*
X132886488Y-365103927D01*
X132911258Y-365099000D01*
X133088742Y-365099000D01*
X133113512Y-365103927D01*
G37*
G36*
X130113512Y-365103927D02*
G01*
X130262812Y-365133624D01*
X130426784Y-365201544D01*
X130574354Y-365300147D01*
X130699853Y-365425646D01*
X130798456Y-365573216D01*
X130866376Y-365737188D01*
X130901000Y-365911259D01*
X130901000Y-366088741D01*
X130866376Y-366262812D01*
X130798456Y-366426784D01*
X130699853Y-366574354D01*
X130574354Y-366699853D01*
X130426784Y-366798456D01*
X130262812Y-366866376D01*
X130113512Y-366896073D01*
X130088742Y-366901000D01*
X129911258Y-366901000D01*
X129886488Y-366896073D01*
X129737188Y-366866376D01*
X129573216Y-366798456D01*
X129425646Y-366699853D01*
X129300147Y-366574354D01*
X129201544Y-366426784D01*
X129133624Y-366262812D01*
X129099000Y-366088741D01*
X129099000Y-365911259D01*
X129133624Y-365737188D01*
X129201544Y-365573216D01*
X129300147Y-365425646D01*
X129425646Y-365300147D01*
X129573216Y-365201544D01*
X129737188Y-365133624D01*
X129886488Y-365103927D01*
X129911258Y-365099000D01*
X130088742Y-365099000D01*
X130113512Y-365103927D01*
G37*
G36*
X202889000Y-366771000D02*
G01*
X201262000Y-366771000D01*
X201262000Y-366019000D01*
X202889000Y-366019000D01*
X202889000Y-366771000D01*
G37*
G36*
X208313000Y-366771000D02*
G01*
X206686000Y-366771000D01*
X206686000Y-366019000D01*
X208313000Y-366019000D01*
X208313000Y-366771000D01*
G37*
G36*
X221726000Y-366771000D02*
G01*
X219774000Y-366771000D01*
X219774000Y-366019000D01*
X221726000Y-366019000D01*
X221726000Y-366771000D01*
G37*
G36*
X231076000Y-366771000D02*
G01*
X229124000Y-366771000D01*
X229124000Y-366019000D01*
X231076000Y-366019000D01*
X231076000Y-366771000D01*
G37*
G36*
X208313000Y-365501000D02*
G01*
X206686000Y-365501000D01*
X206686000Y-364749000D01*
X208313000Y-364749000D01*
X208313000Y-365501000D01*
G37*
G36*
X202889000Y-365501000D02*
G01*
X201262000Y-365501000D01*
X201262000Y-364749000D01*
X202889000Y-364749000D01*
X202889000Y-365501000D01*
G37*
G36*
X125982585Y-362328802D02*
G01*
X126132410Y-362358604D01*
X126414674Y-362475521D01*
X126668705Y-362645259D01*
X126884741Y-362861295D01*
X127054479Y-363115326D01*
X127171396Y-363397590D01*
X127231000Y-363697240D01*
X127231000Y-364002760D01*
X127171396Y-364302410D01*
X127054479Y-364584674D01*
X126884741Y-364838705D01*
X126668705Y-365054741D01*
X126414674Y-365224479D01*
X126132410Y-365341396D01*
X125982585Y-365371198D01*
X125832761Y-365401000D01*
X125527239Y-365401000D01*
X125377415Y-365371198D01*
X125227590Y-365341396D01*
X124945326Y-365224479D01*
X124691295Y-365054741D01*
X124475259Y-364838705D01*
X124305521Y-364584674D01*
X124188604Y-364302410D01*
X124129000Y-364002760D01*
X124129000Y-363697240D01*
X124188604Y-363397590D01*
X124305521Y-363115326D01*
X124475259Y-362861295D01*
X124691295Y-362645259D01*
X124945326Y-362475521D01*
X125227590Y-362358604D01*
X125377415Y-362328802D01*
X125527239Y-362299000D01*
X125832761Y-362299000D01*
X125982585Y-362328802D01*
G37*
G36*
X214251000Y-364606000D02*
G01*
X213099000Y-364606000D01*
X213099000Y-363104000D01*
X214251000Y-363104000D01*
X214251000Y-364606000D01*
G37*
G36*
X212351000Y-364606000D02*
G01*
X211199000Y-364606000D01*
X211199000Y-363104000D01*
X212351000Y-363104000D01*
X212351000Y-364606000D01*
G37*
G36*
X150201000Y-364236000D02*
G01*
X148099000Y-364236000D01*
X148099000Y-360934000D01*
X150201000Y-360934000D01*
X150201000Y-364236000D01*
G37*
G36*
X156701000Y-364236000D02*
G01*
X154599000Y-364236000D01*
X154599000Y-360934000D01*
X156701000Y-360934000D01*
X156701000Y-364236000D01*
G37*
G36*
X185601000Y-364236000D02*
G01*
X184599000Y-364236000D01*
X184599000Y-362934000D01*
X185601000Y-362934000D01*
X185601000Y-364236000D01*
G37*
G36*
X183701000Y-364236000D02*
G01*
X182699000Y-364236000D01*
X182699000Y-362934000D01*
X183701000Y-362934000D01*
X183701000Y-364236000D01*
G37*
G36*
X172901000Y-364236000D02*
G01*
X171899000Y-364236000D01*
X171899000Y-362934000D01*
X172901000Y-362934000D01*
X172901000Y-364236000D01*
G37*
G36*
X171001000Y-364236000D02*
G01*
X169999000Y-364236000D01*
X169999000Y-362934000D01*
X171001000Y-362934000D01*
X171001000Y-364236000D01*
G37*
G36*
X160201000Y-364236000D02*
G01*
X159199000Y-364236000D01*
X159199000Y-362934000D01*
X160201000Y-362934000D01*
X160201000Y-364236000D01*
G37*
G36*
X194801000Y-364236000D02*
G01*
X192699000Y-364236000D01*
X192699000Y-360934000D01*
X194801000Y-360934000D01*
X194801000Y-364236000D01*
G37*
G36*
X188301000Y-364236000D02*
G01*
X186199000Y-364236000D01*
X186199000Y-360934000D01*
X188301000Y-360934000D01*
X188301000Y-364236000D01*
G37*
G36*
X169401000Y-364236000D02*
G01*
X167299000Y-364236000D01*
X167299000Y-360934000D01*
X169401000Y-360934000D01*
X169401000Y-364236000D01*
G37*
G36*
X162901000Y-364236000D02*
G01*
X160799000Y-364236000D01*
X160799000Y-360934000D01*
X162901000Y-360934000D01*
X162901000Y-364236000D01*
G37*
G36*
X182101000Y-364236000D02*
G01*
X179999000Y-364236000D01*
X179999000Y-360934000D01*
X182101000Y-360934000D01*
X182101000Y-364236000D01*
G37*
G36*
X175601000Y-364236000D02*
G01*
X173499000Y-364236000D01*
X173499000Y-360934000D01*
X175601000Y-360934000D01*
X175601000Y-364236000D01*
G37*
G36*
X158301000Y-364236000D02*
G01*
X157299000Y-364236000D01*
X157299000Y-362934000D01*
X158301000Y-362934000D01*
X158301000Y-364236000D01*
G37*
G36*
X208313000Y-364231000D02*
G01*
X206686000Y-364231000D01*
X206686000Y-363479000D01*
X208313000Y-363479000D01*
X208313000Y-364231000D01*
G37*
G36*
X202889000Y-364231000D02*
G01*
X201262000Y-364231000D01*
X201262000Y-363479000D01*
X202889000Y-363479000D01*
X202889000Y-364231000D01*
G37*
G36*
X214251000Y-362701000D02*
G01*
X213099000Y-362701000D01*
X213099000Y-361199000D01*
X214251000Y-361199000D01*
X214251000Y-362701000D01*
G37*
G36*
X212351000Y-362701000D02*
G01*
X211199000Y-362701000D01*
X211199000Y-361199000D01*
X212351000Y-361199000D01*
X212351000Y-362701000D01*
G37*
G36*
X222048500Y-362523500D02*
G01*
X220546500Y-362523500D01*
X220546500Y-361371500D01*
X222048500Y-361371500D01*
X222048500Y-362523500D01*
G37*
G36*
X223953500Y-362523500D02*
G01*
X222451500Y-362523500D01*
X222451500Y-361371500D01*
X223953500Y-361371500D01*
X223953500Y-362523500D01*
G37*
G36*
X159251000Y-362236000D02*
G01*
X158249000Y-362236000D01*
X158249000Y-360934000D01*
X159251000Y-360934000D01*
X159251000Y-362236000D01*
G37*
G36*
X171951000Y-362236000D02*
G01*
X170949000Y-362236000D01*
X170949000Y-360934000D01*
X171951000Y-360934000D01*
X171951000Y-362236000D01*
G37*
G36*
X184651000Y-362236000D02*
G01*
X183649000Y-362236000D01*
X183649000Y-360934000D01*
X184651000Y-360934000D01*
X184651000Y-362236000D01*
G37*
G36*
X214251000Y-360796000D02*
G01*
X213099000Y-360796000D01*
X213099000Y-359294000D01*
X214251000Y-359294000D01*
X214251000Y-360796000D01*
G37*
G36*
X212351000Y-360796000D02*
G01*
X211199000Y-360796000D01*
X211199000Y-359294000D01*
X212351000Y-359294000D01*
X212351000Y-360796000D01*
G37*
G36*
X222048500Y-360623500D02*
G01*
X220546500Y-360623500D01*
X220546500Y-359471500D01*
X222048500Y-359471500D01*
X222048500Y-360623500D01*
G37*
G36*
X223953500Y-360623500D02*
G01*
X222451500Y-360623500D01*
X222451500Y-359471500D01*
X223953500Y-359471500D01*
X223953500Y-360623500D01*
G37*
G36*
X162901000Y-360426000D02*
G01*
X160799000Y-360426000D01*
X160799000Y-357124000D01*
X162901000Y-357124000D01*
X162901000Y-360426000D01*
G37*
G36*
X182101000Y-360426000D02*
G01*
X179999000Y-360426000D01*
X179999000Y-357124000D01*
X182101000Y-357124000D01*
X182101000Y-360426000D01*
G37*
G36*
X150201000Y-360426000D02*
G01*
X148099000Y-360426000D01*
X148099000Y-357124000D01*
X150201000Y-357124000D01*
X150201000Y-360426000D01*
G37*
G36*
X156701000Y-360426000D02*
G01*
X154599000Y-360426000D01*
X154599000Y-357124000D01*
X156701000Y-357124000D01*
X156701000Y-360426000D01*
G37*
G36*
X175601000Y-360426000D02*
G01*
X173499000Y-360426000D01*
X173499000Y-357124000D01*
X175601000Y-357124000D01*
X175601000Y-360426000D01*
G37*
G36*
X188301000Y-360426000D02*
G01*
X186199000Y-360426000D01*
X186199000Y-357124000D01*
X188301000Y-357124000D01*
X188301000Y-360426000D01*
G37*
G36*
X194801000Y-360426000D02*
G01*
X192699000Y-360426000D01*
X192699000Y-357124000D01*
X194801000Y-357124000D01*
X194801000Y-360426000D01*
G37*
G36*
X169401000Y-360426000D02*
G01*
X167299000Y-360426000D01*
X167299000Y-357124000D01*
X169401000Y-357124000D01*
X169401000Y-360426000D01*
G37*
G36*
X214251000Y-358891000D02*
G01*
X213099000Y-358891000D01*
X213099000Y-357389000D01*
X214251000Y-357389000D01*
X214251000Y-358891000D01*
G37*
G36*
X212351000Y-358891000D02*
G01*
X211199000Y-358891000D01*
X211199000Y-357389000D01*
X212351000Y-357389000D01*
X212351000Y-358891000D01*
G37*
G36*
X198553500Y-356173500D02*
G01*
X197051500Y-356173500D01*
X197051500Y-355021500D01*
X198553500Y-355021500D01*
X198553500Y-356173500D01*
G37*
G36*
X196596000Y-356098500D02*
G01*
X195294000Y-356098500D01*
X195294000Y-355096500D01*
X196596000Y-355096500D01*
X196596000Y-356098500D01*
G37*
G36*
X208313000Y-355658500D02*
G01*
X206686000Y-355658500D01*
X206686000Y-354906500D01*
X208313000Y-354906500D01*
X208313000Y-355658500D01*
G37*
G36*
X202889000Y-355658500D02*
G01*
X201262000Y-355658500D01*
X201262000Y-354906500D01*
X202889000Y-354906500D01*
X202889000Y-355658500D01*
G37*
G36*
X194596000Y-355148500D02*
G01*
X193294000Y-355148500D01*
X193294000Y-354146500D01*
X194596000Y-354146500D01*
X194596000Y-355148500D01*
G37*
G36*
X221726000Y-354388500D02*
G01*
X219774000Y-354388500D01*
X219774000Y-353636500D01*
X221726000Y-353636500D01*
X221726000Y-354388500D01*
G37*
G36*
X231076000Y-354388500D02*
G01*
X229124000Y-354388500D01*
X229124000Y-353636500D01*
X231076000Y-353636500D01*
X231076000Y-354388500D01*
G37*
G36*
X202889000Y-354388500D02*
G01*
X201262000Y-354388500D01*
X201262000Y-353636500D01*
X202889000Y-353636500D01*
X202889000Y-354388500D01*
G37*
G36*
X208313000Y-354388500D02*
G01*
X206686000Y-354388500D01*
X206686000Y-353636500D01*
X208313000Y-353636500D01*
X208313000Y-354388500D01*
G37*
G36*
X198553500Y-354273500D02*
G01*
X197051500Y-354273500D01*
X197051500Y-353121500D01*
X198553500Y-353121500D01*
X198553500Y-354273500D01*
G37*
G36*
X196596000Y-354198500D02*
G01*
X195294000Y-354198500D01*
X195294000Y-353196500D01*
X196596000Y-353196500D01*
X196596000Y-354198500D01*
G37*
G36*
X208313000Y-353118500D02*
G01*
X206686000Y-353118500D01*
X206686000Y-352366500D01*
X208313000Y-352366500D01*
X208313000Y-353118500D01*
G37*
G36*
X202889000Y-353118500D02*
G01*
X201262000Y-353118500D01*
X201262000Y-352366500D01*
X202889000Y-352366500D01*
X202889000Y-353118500D01*
G37*
G36*
X231076000Y-353118500D02*
G01*
X229124000Y-353118500D01*
X229124000Y-352366500D01*
X231076000Y-352366500D01*
X231076000Y-353118500D01*
G37*
G36*
X221726000Y-353118500D02*
G01*
X219774000Y-353118500D01*
X219774000Y-352366500D01*
X221726000Y-352366500D01*
X221726000Y-353118500D01*
G37*
G36*
X214251000Y-352541000D02*
G01*
X213099000Y-352541000D01*
X213099000Y-351039000D01*
X214251000Y-351039000D01*
X214251000Y-352541000D01*
G37*
G36*
X212351000Y-352541000D02*
G01*
X211199000Y-352541000D01*
X211199000Y-351039000D01*
X212351000Y-351039000D01*
X212351000Y-352541000D01*
G37*
G36*
X150201000Y-352171000D02*
G01*
X148099000Y-352171000D01*
X148099000Y-348869000D01*
X150201000Y-348869000D01*
X150201000Y-352171000D01*
G37*
G36*
X156701000Y-352171000D02*
G01*
X154599000Y-352171000D01*
X154599000Y-348869000D01*
X156701000Y-348869000D01*
X156701000Y-352171000D01*
G37*
G36*
X162901000Y-352171000D02*
G01*
X160799000Y-352171000D01*
X160799000Y-348869000D01*
X162901000Y-348869000D01*
X162901000Y-352171000D01*
G37*
G36*
X169401000Y-352171000D02*
G01*
X167299000Y-352171000D01*
X167299000Y-348869000D01*
X169401000Y-348869000D01*
X169401000Y-352171000D01*
G37*
G36*
X182101000Y-352171000D02*
G01*
X179999000Y-352171000D01*
X179999000Y-348869000D01*
X182101000Y-348869000D01*
X182101000Y-352171000D01*
G37*
G36*
X175601000Y-352171000D02*
G01*
X173499000Y-352171000D01*
X173499000Y-348869000D01*
X175601000Y-348869000D01*
X175601000Y-352171000D01*
G37*
G36*
X188301000Y-352171000D02*
G01*
X186199000Y-352171000D01*
X186199000Y-348869000D01*
X188301000Y-348869000D01*
X188301000Y-352171000D01*
G37*
G36*
X194801000Y-352171000D02*
G01*
X192699000Y-352171000D01*
X192699000Y-348869000D01*
X194801000Y-348869000D01*
X194801000Y-352171000D01*
G37*
G36*
X221726000Y-351848500D02*
G01*
X219774000Y-351848500D01*
X219774000Y-351096500D01*
X221726000Y-351096500D01*
X221726000Y-351848500D01*
G37*
G36*
X231076000Y-351848500D02*
G01*
X229124000Y-351848500D01*
X229124000Y-351096500D01*
X231076000Y-351096500D01*
X231076000Y-351848500D01*
G37*
G36*
X208313000Y-351848500D02*
G01*
X206686000Y-351848500D01*
X206686000Y-351096500D01*
X208313000Y-351096500D01*
X208313000Y-351848500D01*
G37*
G36*
X202889000Y-351848500D02*
G01*
X201262000Y-351848500D01*
X201262000Y-351096500D01*
X202889000Y-351096500D01*
X202889000Y-351848500D01*
G37*
G36*
X212351000Y-350636000D02*
G01*
X211199000Y-350636000D01*
X211199000Y-349134000D01*
X212351000Y-349134000D01*
X212351000Y-350636000D01*
G37*
G36*
X214251000Y-350636000D02*
G01*
X213099000Y-350636000D01*
X213099000Y-349134000D01*
X214251000Y-349134000D01*
X214251000Y-350636000D01*
G37*
G36*
X231076000Y-350578500D02*
G01*
X229124000Y-350578500D01*
X229124000Y-349826500D01*
X231076000Y-349826500D01*
X231076000Y-350578500D01*
G37*
G36*
X221726000Y-350578500D02*
G01*
X219774000Y-350578500D01*
X219774000Y-349826500D01*
X221726000Y-349826500D01*
X221726000Y-350578500D01*
G37*
G36*
X231076000Y-349308500D02*
G01*
X229124000Y-349308500D01*
X229124000Y-348556500D01*
X231076000Y-348556500D01*
X231076000Y-349308500D01*
G37*
G36*
X221726000Y-349308500D02*
G01*
X219774000Y-349308500D01*
X219774000Y-348556500D01*
X221726000Y-348556500D01*
X221726000Y-349308500D01*
G37*
G36*
X212351000Y-348731000D02*
G01*
X211199000Y-348731000D01*
X211199000Y-347229000D01*
X212351000Y-347229000D01*
X212351000Y-348731000D01*
G37*
G36*
X214251000Y-348731000D02*
G01*
X213099000Y-348731000D01*
X213099000Y-347229000D01*
X214251000Y-347229000D01*
X214251000Y-348731000D01*
G37*
G36*
X188301000Y-348361000D02*
G01*
X186199000Y-348361000D01*
X186199000Y-345059000D01*
X188301000Y-345059000D01*
X188301000Y-348361000D01*
G37*
G36*
X159251000Y-348361000D02*
G01*
X158249000Y-348361000D01*
X158249000Y-347059000D01*
X159251000Y-347059000D01*
X159251000Y-348361000D01*
G37*
G36*
X150201000Y-348361000D02*
G01*
X148099000Y-348361000D01*
X148099000Y-345059000D01*
X150201000Y-345059000D01*
X150201000Y-348361000D01*
G37*
G36*
X182101000Y-348361000D02*
G01*
X179999000Y-348361000D01*
X179999000Y-345059000D01*
X182101000Y-345059000D01*
X182101000Y-348361000D01*
G37*
G36*
X175601000Y-348361000D02*
G01*
X173499000Y-348361000D01*
X173499000Y-345059000D01*
X175601000Y-345059000D01*
X175601000Y-348361000D01*
G37*
G36*
X169401000Y-348361000D02*
G01*
X167299000Y-348361000D01*
X167299000Y-345059000D01*
X169401000Y-345059000D01*
X169401000Y-348361000D01*
G37*
G36*
X171951000Y-348361000D02*
G01*
X170949000Y-348361000D01*
X170949000Y-347059000D01*
X171951000Y-347059000D01*
X171951000Y-348361000D01*
G37*
G36*
X184651000Y-348361000D02*
G01*
X183649000Y-348361000D01*
X183649000Y-347059000D01*
X184651000Y-347059000D01*
X184651000Y-348361000D01*
G37*
G36*
X162901000Y-348361000D02*
G01*
X160799000Y-348361000D01*
X160799000Y-345059000D01*
X162901000Y-345059000D01*
X162901000Y-348361000D01*
G37*
G36*
X156701000Y-348361000D02*
G01*
X154599000Y-348361000D01*
X154599000Y-345059000D01*
X156701000Y-345059000D01*
X156701000Y-348361000D01*
G37*
G36*
X194801000Y-348361000D02*
G01*
X192699000Y-348361000D01*
X192699000Y-345059000D01*
X194801000Y-345059000D01*
X194801000Y-348361000D01*
G37*
G36*
X221726000Y-348038500D02*
G01*
X219774000Y-348038500D01*
X219774000Y-347286500D01*
X221726000Y-347286500D01*
X221726000Y-348038500D01*
G37*
G36*
X231076000Y-348038500D02*
G01*
X229124000Y-348038500D01*
X229124000Y-347286500D01*
X231076000Y-347286500D01*
X231076000Y-348038500D01*
G37*
G36*
X212351000Y-346826000D02*
G01*
X211199000Y-346826000D01*
X211199000Y-345324000D01*
X212351000Y-345324000D01*
X212351000Y-346826000D01*
G37*
G36*
X214251000Y-346826000D02*
G01*
X213099000Y-346826000D01*
X213099000Y-345324000D01*
X214251000Y-345324000D01*
X214251000Y-346826000D01*
G37*
G36*
X202889000Y-346768500D02*
G01*
X201262000Y-346768500D01*
X201262000Y-346016500D01*
X202889000Y-346016500D01*
X202889000Y-346768500D01*
G37*
G36*
X208313000Y-346768500D02*
G01*
X206686000Y-346768500D01*
X206686000Y-346016500D01*
X208313000Y-346016500D01*
X208313000Y-346768500D01*
G37*
G36*
X221726000Y-346768500D02*
G01*
X219774000Y-346768500D01*
X219774000Y-346016500D01*
X221726000Y-346016500D01*
X221726000Y-346768500D01*
G37*
G36*
X231076000Y-346768500D02*
G01*
X229124000Y-346768500D01*
X229124000Y-346016500D01*
X231076000Y-346016500D01*
X231076000Y-346768500D01*
G37*
G36*
X185601000Y-346361000D02*
G01*
X184599000Y-346361000D01*
X184599000Y-345059000D01*
X185601000Y-345059000D01*
X185601000Y-346361000D01*
G37*
G36*
X183701000Y-346361000D02*
G01*
X182699000Y-346361000D01*
X182699000Y-345059000D01*
X183701000Y-345059000D01*
X183701000Y-346361000D01*
G37*
G36*
X172901000Y-346361000D02*
G01*
X171899000Y-346361000D01*
X171899000Y-345059000D01*
X172901000Y-345059000D01*
X172901000Y-346361000D01*
G37*
G36*
X171001000Y-346361000D02*
G01*
X169999000Y-346361000D01*
X169999000Y-345059000D01*
X171001000Y-345059000D01*
X171001000Y-346361000D01*
G37*
G36*
X160201000Y-346361000D02*
G01*
X159199000Y-346361000D01*
X159199000Y-345059000D01*
X160201000Y-345059000D01*
X160201000Y-346361000D01*
G37*
G36*
X158301000Y-346361000D02*
G01*
X157299000Y-346361000D01*
X157299000Y-345059000D01*
X158301000Y-345059000D01*
X158301000Y-346361000D01*
G37*
G36*
X221726000Y-345498500D02*
G01*
X219774000Y-345498500D01*
X219774000Y-344746500D01*
X221726000Y-344746500D01*
X221726000Y-345498500D01*
G37*
G36*
X202889000Y-345498500D02*
G01*
X201262000Y-345498500D01*
X201262000Y-344746500D01*
X202889000Y-344746500D01*
X202889000Y-345498500D01*
G37*
G36*
X208313000Y-345498500D02*
G01*
X206686000Y-345498500D01*
X206686000Y-344746500D01*
X208313000Y-344746500D01*
X208313000Y-345498500D01*
G37*
G36*
X231076000Y-345498500D02*
G01*
X229124000Y-345498500D01*
X229124000Y-344746500D01*
X231076000Y-344746500D01*
X231076000Y-345498500D01*
G37*
G36*
X175601000Y-344551000D02*
G01*
X173499000Y-344551000D01*
X173499000Y-341249000D01*
X175601000Y-341249000D01*
X175601000Y-344551000D01*
G37*
G36*
X194801000Y-344551000D02*
G01*
X192699000Y-344551000D01*
X192699000Y-341249000D01*
X194801000Y-341249000D01*
X194801000Y-344551000D01*
G37*
G36*
X188301000Y-344551000D02*
G01*
X186199000Y-344551000D01*
X186199000Y-341249000D01*
X188301000Y-341249000D01*
X188301000Y-344551000D01*
G37*
G36*
X169401000Y-344551000D02*
G01*
X167299000Y-344551000D01*
X167299000Y-341249000D01*
X169401000Y-341249000D01*
X169401000Y-344551000D01*
G37*
G36*
X156701000Y-344551000D02*
G01*
X154599000Y-344551000D01*
X154599000Y-341249000D01*
X156701000Y-341249000D01*
X156701000Y-344551000D01*
G37*
G36*
X150201000Y-344551000D02*
G01*
X148099000Y-344551000D01*
X148099000Y-341249000D01*
X150201000Y-341249000D01*
X150201000Y-344551000D01*
G37*
G36*
X182101000Y-344551000D02*
G01*
X179999000Y-344551000D01*
X179999000Y-341249000D01*
X182101000Y-341249000D01*
X182101000Y-344551000D01*
G37*
G36*
X162901000Y-344551000D02*
G01*
X160799000Y-344551000D01*
X160799000Y-341249000D01*
X162901000Y-341249000D01*
X162901000Y-344551000D01*
G37*
G36*
X208313000Y-344228500D02*
G01*
X206686000Y-344228500D01*
X206686000Y-343476500D01*
X208313000Y-343476500D01*
X208313000Y-344228500D01*
G37*
G36*
X231076000Y-344228500D02*
G01*
X229124000Y-344228500D01*
X229124000Y-343476500D01*
X231076000Y-343476500D01*
X231076000Y-344228500D01*
G37*
G36*
X221726000Y-344228500D02*
G01*
X219774000Y-344228500D01*
X219774000Y-343476500D01*
X221726000Y-343476500D01*
X221726000Y-344228500D01*
G37*
G36*
X202889000Y-344228500D02*
G01*
X201262000Y-344228500D01*
X201262000Y-343476500D01*
X202889000Y-343476500D01*
X202889000Y-344228500D01*
G37*
G36*
X294749098Y-339177033D02*
G01*
X295213350Y-339369332D01*
X295213352Y-339369333D01*
X295631168Y-339648509D01*
X295986491Y-340003832D01*
X296265667Y-340421648D01*
X296265668Y-340421650D01*
X296457967Y-340885902D01*
X296556000Y-341378747D01*
X296556000Y-341881253D01*
X296457967Y-342374098D01*
X296265668Y-342838350D01*
X296265667Y-342838352D01*
X295986491Y-343256168D01*
X295631168Y-343611491D01*
X295213352Y-343890667D01*
X295213351Y-343890668D01*
X295213350Y-343890668D01*
X294749098Y-344082967D01*
X294256253Y-344181000D01*
X293753747Y-344181000D01*
X293260902Y-344082967D01*
X292796650Y-343890668D01*
X292796649Y-343890668D01*
X292796648Y-343890667D01*
X292378832Y-343611491D01*
X292023509Y-343256168D01*
X291744333Y-342838352D01*
X291744332Y-342838350D01*
X291552033Y-342374098D01*
X291454000Y-341881253D01*
X291454000Y-341378747D01*
X291552033Y-340885902D01*
X291744332Y-340421650D01*
X291744333Y-340421648D01*
X292023509Y-340003832D01*
X292378832Y-339648509D01*
X292796648Y-339369333D01*
X292796650Y-339369332D01*
X293260902Y-339177033D01*
X293753747Y-339079000D01*
X294256253Y-339079000D01*
X294749098Y-339177033D01*
G37*
G36*
X137586598Y-339177033D02*
G01*
X138050850Y-339369332D01*
X138050852Y-339369333D01*
X138468668Y-339648509D01*
X138823991Y-340003832D01*
X139103167Y-340421648D01*
X139103168Y-340421650D01*
X139295467Y-340885902D01*
X139393500Y-341378747D01*
X139393500Y-341881253D01*
X139295467Y-342374098D01*
X139103168Y-342838350D01*
X139103167Y-342838352D01*
X138823991Y-343256168D01*
X138468668Y-343611491D01*
X138050852Y-343890667D01*
X138050851Y-343890668D01*
X138050850Y-343890668D01*
X137586598Y-344082967D01*
X137093753Y-344181000D01*
X136591247Y-344181000D01*
X136098402Y-344082967D01*
X135634150Y-343890668D01*
X135634149Y-343890668D01*
X135634148Y-343890667D01*
X135216332Y-343611491D01*
X134861009Y-343256168D01*
X134581833Y-342838352D01*
X134581832Y-342838350D01*
X134389533Y-342374098D01*
X134291500Y-341881253D01*
X134291500Y-341378747D01*
X134389533Y-340885902D01*
X134581832Y-340421650D01*
X134581833Y-340421648D01*
X134861009Y-340003832D01*
X135216332Y-339648509D01*
X135634148Y-339369333D01*
X135634150Y-339369332D01*
X136098402Y-339177033D01*
X136591247Y-339079000D01*
X137093753Y-339079000D01*
X137586598Y-339177033D01*
G37*
G36*
X185676000Y-343651000D02*
G01*
X184524000Y-343651000D01*
X184524000Y-342149000D01*
X185676000Y-342149000D01*
X185676000Y-343651000D01*
G37*
G36*
X158376000Y-343651000D02*
G01*
X157224000Y-343651000D01*
X157224000Y-342149000D01*
X158376000Y-342149000D01*
X158376000Y-343651000D01*
G37*
G36*
X183776000Y-343651000D02*
G01*
X182624000Y-343651000D01*
X182624000Y-342149000D01*
X183776000Y-342149000D01*
X183776000Y-343651000D01*
G37*
G36*
X172976000Y-343651000D02*
G01*
X171824000Y-343651000D01*
X171824000Y-342149000D01*
X172976000Y-342149000D01*
X172976000Y-343651000D01*
G37*
G36*
X171076000Y-343651000D02*
G01*
X169924000Y-343651000D01*
X169924000Y-342149000D01*
X171076000Y-342149000D01*
X171076000Y-343651000D01*
G37*
G36*
X160276000Y-343651000D02*
G01*
X159124000Y-343651000D01*
X159124000Y-342149000D01*
X160276000Y-342149000D01*
X160276000Y-343651000D01*
G37*
G36*
X208313000Y-342958500D02*
G01*
X206686000Y-342958500D01*
X206686000Y-342206500D01*
X208313000Y-342206500D01*
X208313000Y-342958500D01*
G37*
G36*
X202889000Y-342958500D02*
G01*
X201262000Y-342958500D01*
X201262000Y-342206500D01*
X202889000Y-342206500D01*
X202889000Y-342958500D01*
G37*
M02*
