G04 #@! TF.GenerationSoftware,KiCad,Pcbnew,(5.1.5)-3*
G04 #@! TF.CreationDate,2020-06-24T13:45:01-07:00*
G04 #@! TF.ProjectId,BMS Board,424d5320-426f-4617-9264-2e6b69636164,rev?*
G04 #@! TF.SameCoordinates,Original*
G04 #@! TF.FileFunction,Paste,Bot*
G04 #@! TF.FilePolarity,Positive*
%FSLAX46Y46*%
G04 Gerber Fmt 4.6, Leading zero omitted, Abs format (unit mm)*
G04 Created by KiCad (PCBNEW (5.1.5)-3) date 2020-06-24 13:45:01*
%MOMM*%
%LPD*%
G04 APERTURE LIST*
%ADD10R,1.850000X0.650000*%
%ADD11R,1.525000X0.650000*%
%ADD12R,0.600000X1.250000*%
%ADD13R,1.250000X0.600000*%
%ADD14R,1.400000X1.050000*%
%ADD15R,1.050000X1.400000*%
%ADD16R,2.000000X3.200000*%
%ADD17R,2.900000X1.500000*%
%ADD18R,6.500000X6.300000*%
%ADD19R,6.150000X5.550000*%
%ADD20R,2.750000X1.000000*%
%ADD21R,1.020000X1.470000*%
%ADD22R,1.470000X1.020000*%
%ADD23R,2.300000X2.300000*%
%ADD24R,10.000000X10.000000*%
%ADD25R,0.900000X1.200000*%
%ADD26R,1.200000X0.900000*%
G04 APERTURE END LIST*
D10*
X157250000Y-117792500D03*
X157250000Y-119062500D03*
X157250000Y-120332500D03*
X157250000Y-121602500D03*
X157250000Y-122872500D03*
X157250000Y-124142500D03*
X157250000Y-125412500D03*
X157250000Y-126682500D03*
X157250000Y-127952500D03*
X166600000Y-127952500D03*
X166600000Y-126682500D03*
X166600000Y-125412500D03*
X166600000Y-124142500D03*
X166600000Y-122872500D03*
X166600000Y-121602500D03*
X166600000Y-120332500D03*
X166600000Y-119062500D03*
X166600000Y-117792500D03*
X157250000Y-83502500D03*
X157250000Y-84772500D03*
X157250000Y-86042500D03*
X157250000Y-87312500D03*
X157250000Y-88582500D03*
X157250000Y-89852500D03*
X157250000Y-91122500D03*
X157250000Y-92392500D03*
X157250000Y-93662500D03*
X166600000Y-93662500D03*
X166600000Y-92392500D03*
X166600000Y-91122500D03*
X166600000Y-89852500D03*
X166600000Y-88582500D03*
X166600000Y-87312500D03*
X166600000Y-86042500D03*
X166600000Y-84772500D03*
X166600000Y-83502500D03*
X157250000Y-60960000D03*
X157250000Y-62230000D03*
X157250000Y-63500000D03*
X157250000Y-64770000D03*
X157250000Y-66040000D03*
X157250000Y-67310000D03*
X157250000Y-68580000D03*
X157250000Y-69850000D03*
X157250000Y-71120000D03*
X166600000Y-71120000D03*
X166600000Y-69850000D03*
X166600000Y-68580000D03*
X166600000Y-67310000D03*
X166600000Y-66040000D03*
X166600000Y-64770000D03*
X166600000Y-63500000D03*
X166600000Y-62230000D03*
X166600000Y-60960000D03*
D11*
X158260500Y-132715000D03*
X158260500Y-133985000D03*
X158260500Y-135255000D03*
X158260500Y-136525000D03*
X163684500Y-136525000D03*
X163684500Y-135255000D03*
X163684500Y-133985000D03*
X163684500Y-132715000D03*
D12*
X220345000Y-108805000D03*
X219395000Y-110905000D03*
X221295000Y-110905000D03*
D13*
X106900000Y-123190000D03*
X109000000Y-124140000D03*
X109000000Y-122240000D03*
X106900000Y-88900000D03*
X109000000Y-89850000D03*
X109000000Y-87950000D03*
D11*
X143999500Y-140970000D03*
X143999500Y-139700000D03*
X143999500Y-138430000D03*
X143999500Y-137160000D03*
X138575500Y-137160000D03*
X138575500Y-138430000D03*
X138575500Y-139700000D03*
X138575500Y-140970000D03*
X143999500Y-131762500D03*
X143999500Y-130492500D03*
X143999500Y-129222500D03*
X143999500Y-127952500D03*
X138575500Y-127952500D03*
X138575500Y-129222500D03*
X138575500Y-130492500D03*
X138575500Y-131762500D03*
X143999500Y-125412500D03*
X143999500Y-124142500D03*
X143999500Y-122872500D03*
X143999500Y-121602500D03*
X138575500Y-121602500D03*
X138575500Y-122872500D03*
X138575500Y-124142500D03*
X138575500Y-125412500D03*
X143999500Y-119062500D03*
X143999500Y-117792500D03*
X143999500Y-116522500D03*
X143999500Y-115252500D03*
X138575500Y-115252500D03*
X138575500Y-116522500D03*
X138575500Y-117792500D03*
X138575500Y-119062500D03*
X143999500Y-106680000D03*
X143999500Y-105410000D03*
X143999500Y-104140000D03*
X143999500Y-102870000D03*
X138575500Y-102870000D03*
X138575500Y-104140000D03*
X138575500Y-105410000D03*
X138575500Y-106680000D03*
X143999500Y-97472500D03*
X143999500Y-96202500D03*
X143999500Y-94932500D03*
X143999500Y-93662500D03*
X138575500Y-93662500D03*
X138575500Y-94932500D03*
X138575500Y-96202500D03*
X138575500Y-97472500D03*
X143999500Y-91122500D03*
X143999500Y-89852500D03*
X143999500Y-88582500D03*
X143999500Y-87312500D03*
X138575500Y-87312500D03*
X138575500Y-88582500D03*
X138575500Y-89852500D03*
X138575500Y-91122500D03*
X143999500Y-84772500D03*
X143999500Y-83502500D03*
X143999500Y-82232500D03*
X143999500Y-80962500D03*
X138575500Y-80962500D03*
X138575500Y-82232500D03*
X138575500Y-83502500D03*
X138575500Y-84772500D03*
X143999500Y-72390000D03*
X143999500Y-71120000D03*
X143999500Y-69850000D03*
X143999500Y-68580000D03*
X138575500Y-68580000D03*
X138575500Y-69850000D03*
X138575500Y-71120000D03*
X138575500Y-72390000D03*
X143999500Y-63500000D03*
X143999500Y-62230000D03*
X143999500Y-60960000D03*
X143999500Y-59690000D03*
X138575500Y-59690000D03*
X138575500Y-60960000D03*
X138575500Y-62230000D03*
X138575500Y-63500000D03*
D14*
X199072500Y-89220000D03*
X199072500Y-91120000D03*
D15*
X150815000Y-105092500D03*
X152715000Y-105092500D03*
X148905000Y-92392500D03*
X147005000Y-92392500D03*
D14*
X157797500Y-109535000D03*
X157797500Y-107635000D03*
X157480000Y-99380000D03*
X157480000Y-101280000D03*
X157797500Y-77155000D03*
X157797500Y-79055000D03*
X159702500Y-77155000D03*
X159702500Y-79055000D03*
D15*
X166685000Y-98107500D03*
X164785000Y-98107500D03*
D14*
X216852500Y-102555000D03*
X216852500Y-104455000D03*
D16*
X130250000Y-136207500D03*
X123750000Y-136207500D03*
X130250000Y-132397500D03*
X123750000Y-132397500D03*
X130250000Y-128587500D03*
X123750000Y-128587500D03*
X117550000Y-136207500D03*
X111050000Y-136207500D03*
X117550000Y-132397500D03*
X111050000Y-132397500D03*
X117550000Y-128587500D03*
X111050000Y-128587500D03*
X104850000Y-136207500D03*
X98350000Y-136207500D03*
X104850000Y-132397500D03*
X98350000Y-132397500D03*
X104850000Y-128587500D03*
X98350000Y-128587500D03*
X92150000Y-136207500D03*
X85650000Y-136207500D03*
X92150000Y-132397500D03*
X85650000Y-132397500D03*
X92150000Y-128587500D03*
X85650000Y-128587500D03*
X85650000Y-117792500D03*
X92150000Y-117792500D03*
X85650000Y-113982500D03*
X92150000Y-113982500D03*
X85650000Y-110172500D03*
X92150000Y-110172500D03*
X98350000Y-110172500D03*
X104850000Y-110172500D03*
X98350000Y-113982500D03*
X104850000Y-113982500D03*
X98350000Y-117792500D03*
X104850000Y-117792500D03*
X111050000Y-117792500D03*
X117550000Y-117792500D03*
X111050000Y-113982500D03*
X117550000Y-113982500D03*
X111050000Y-110172500D03*
X117550000Y-110172500D03*
X123750000Y-117792500D03*
X130250000Y-117792500D03*
X123750000Y-113982500D03*
X130250000Y-113982500D03*
X123750000Y-110172500D03*
X130250000Y-110172500D03*
X130250000Y-101917500D03*
X123750000Y-101917500D03*
X130250000Y-98107500D03*
X123750000Y-98107500D03*
X130250000Y-94297500D03*
X123750000Y-94297500D03*
X117550000Y-101917500D03*
X111050000Y-101917500D03*
X117550000Y-98107500D03*
X111050000Y-98107500D03*
X117550000Y-94297500D03*
X111050000Y-94297500D03*
X104850000Y-101917500D03*
X98350000Y-101917500D03*
X104850000Y-98107500D03*
X98350000Y-98107500D03*
X104850000Y-94297500D03*
X98350000Y-94297500D03*
X92150000Y-101917500D03*
X85650000Y-101917500D03*
X92150000Y-98107500D03*
X85650000Y-98107500D03*
X92150000Y-94297500D03*
X85650000Y-94297500D03*
X85650000Y-83502500D03*
X92150000Y-83502500D03*
X85650000Y-79692500D03*
X92150000Y-79692500D03*
X85650000Y-75882500D03*
X92150000Y-75882500D03*
X98350000Y-83502500D03*
X104850000Y-83502500D03*
X98350000Y-79692500D03*
X104850000Y-79692500D03*
X98350000Y-75882500D03*
X104850000Y-75882500D03*
X111050000Y-83502500D03*
X117550000Y-83502500D03*
X111050000Y-79692500D03*
X117550000Y-79692500D03*
X111050000Y-75882500D03*
X117550000Y-75882500D03*
X123750000Y-83502500D03*
X130250000Y-83502500D03*
X123750000Y-79692500D03*
X130250000Y-79692500D03*
X123750000Y-75882500D03*
X130250000Y-75882500D03*
X130250000Y-67627500D03*
X123750000Y-67627500D03*
X130250000Y-63817500D03*
X123750000Y-63817500D03*
X130250000Y-60007500D03*
X123750000Y-60007500D03*
X117550000Y-67627500D03*
X111050000Y-67627500D03*
X117550000Y-63817500D03*
X111050000Y-63817500D03*
X117550000Y-60007500D03*
X111050000Y-60007500D03*
X104850000Y-67627500D03*
X98350000Y-67627500D03*
X104850000Y-63817500D03*
X98350000Y-63817500D03*
X104850000Y-60007500D03*
X98350000Y-60007500D03*
X92150000Y-67627500D03*
X85650000Y-67627500D03*
X92150000Y-63817500D03*
X85650000Y-63817500D03*
X92150000Y-60007500D03*
X85650000Y-60007500D03*
D14*
X134302500Y-141285000D03*
X134302500Y-139385000D03*
D15*
X121600000Y-128587500D03*
X119700000Y-128587500D03*
X108900000Y-128587500D03*
X107000000Y-128587500D03*
X96200000Y-128587500D03*
X94300000Y-128587500D03*
D14*
X87630000Y-124140000D03*
X87630000Y-122240000D03*
D15*
X94300000Y-117792500D03*
X96200000Y-117792500D03*
X107000000Y-117792500D03*
X108900000Y-117792500D03*
X119700000Y-117792500D03*
X121600000Y-117792500D03*
D14*
X134302500Y-106995000D03*
X134302500Y-105095000D03*
D15*
X121600000Y-94297500D03*
X119700000Y-94297500D03*
X108900000Y-94297500D03*
X107000000Y-94297500D03*
X96200000Y-94297500D03*
X94300000Y-94297500D03*
D14*
X87630000Y-89850000D03*
X87630000Y-87950000D03*
D15*
X94300000Y-83502500D03*
X96200000Y-83502500D03*
X107000000Y-83502500D03*
X108900000Y-83502500D03*
X119700000Y-83502500D03*
X121600000Y-83502500D03*
D14*
X134302500Y-72705000D03*
X134302500Y-70805000D03*
D15*
X121600000Y-60007500D03*
X119700000Y-60007500D03*
X108900000Y-60007500D03*
X107000000Y-60007500D03*
X96200000Y-60007500D03*
X94300000Y-60007500D03*
X148275000Y-137477500D03*
X150175000Y-137477500D03*
X148275000Y-135572500D03*
X150175000Y-135572500D03*
X148275000Y-133667500D03*
X150175000Y-133667500D03*
X148275000Y-131762500D03*
X150175000Y-131762500D03*
X148275000Y-115252500D03*
X150175000Y-115252500D03*
X148275000Y-113347500D03*
X150175000Y-113347500D03*
X148275000Y-111442500D03*
X150175000Y-111442500D03*
X148275000Y-109537500D03*
X150175000Y-109537500D03*
X148275000Y-103187500D03*
X150175000Y-103187500D03*
X148275000Y-101282500D03*
X150175000Y-101282500D03*
X148275000Y-99377500D03*
X150175000Y-99377500D03*
X148275000Y-97472500D03*
X150175000Y-97472500D03*
X148275000Y-80962500D03*
X150175000Y-80962500D03*
X148275000Y-79057500D03*
X150175000Y-79057500D03*
X148275000Y-77152500D03*
X150175000Y-77152500D03*
X148275000Y-75247500D03*
X150175000Y-75247500D03*
X148275000Y-68897500D03*
X150175000Y-68897500D03*
X148275000Y-66992500D03*
X150175000Y-66992500D03*
X148275000Y-65087500D03*
X150175000Y-65087500D03*
X148275000Y-63182500D03*
X150175000Y-63182500D03*
D17*
X219682500Y-102171500D03*
D18*
X226182500Y-104457500D03*
D17*
X219682500Y-106743500D03*
D19*
X174800000Y-139382500D03*
D20*
X168100000Y-137092500D03*
X168100000Y-141672500D03*
D21*
X213820000Y-134937500D03*
X215440000Y-134937500D03*
D22*
X155257500Y-133492500D03*
X155257500Y-135112500D03*
X166052500Y-132540000D03*
X166052500Y-134160000D03*
D23*
X172810000Y-131127500D03*
X177710000Y-131127500D03*
D22*
X167957500Y-133810000D03*
X167957500Y-135430000D03*
D24*
X227647500Y-93345000D03*
X227647500Y-80645000D03*
X227647500Y-115570000D03*
D25*
X194627500Y-89170000D03*
X193677500Y-91170000D03*
X195577500Y-91170000D03*
D26*
X130445000Y-140335000D03*
X132445000Y-141285000D03*
X132445000Y-139385000D03*
D25*
X120650000Y-133397500D03*
X121600000Y-131397500D03*
X119700000Y-131397500D03*
X107950000Y-133397500D03*
X108900000Y-131397500D03*
X107000000Y-131397500D03*
X95250000Y-133397500D03*
X96200000Y-131397500D03*
X94300000Y-131397500D03*
D26*
X83455000Y-123190000D03*
X85455000Y-124140000D03*
X85455000Y-122240000D03*
D25*
X95250000Y-112982500D03*
X94300000Y-114982500D03*
X96200000Y-114982500D03*
X107950000Y-112982500D03*
X107000000Y-114982500D03*
X108900000Y-114982500D03*
X120650000Y-112982500D03*
X119700000Y-114982500D03*
X121600000Y-114982500D03*
D26*
X130445000Y-106045000D03*
X132445000Y-106995000D03*
X132445000Y-105095000D03*
D25*
X120650000Y-99107500D03*
X121600000Y-97107500D03*
X119700000Y-97107500D03*
X107950000Y-99107500D03*
X108900000Y-97107500D03*
X107000000Y-97107500D03*
X95250000Y-99107500D03*
X96200000Y-97107500D03*
X94300000Y-97107500D03*
D26*
X83455000Y-88900000D03*
X85455000Y-89850000D03*
X85455000Y-87950000D03*
D25*
X95250000Y-78692500D03*
X94300000Y-80692500D03*
X96200000Y-80692500D03*
X107950000Y-78692500D03*
X107000000Y-80692500D03*
X108900000Y-80692500D03*
X120650000Y-78692500D03*
X119700000Y-80692500D03*
X121600000Y-80692500D03*
D26*
X130445000Y-71755000D03*
X132445000Y-72705000D03*
X132445000Y-70805000D03*
D25*
X120650000Y-64817500D03*
X121600000Y-62817500D03*
X119700000Y-62817500D03*
X107950000Y-64817500D03*
X108900000Y-62817500D03*
X107000000Y-62817500D03*
X95250000Y-64817500D03*
X96200000Y-62817500D03*
X94300000Y-62817500D03*
M02*
