M48
; DRILL file {KiCad (5.1.5)-3} date 6/23/2020 3:46:58 PM
; FORMAT={-:-/ absolute / inch / decimal}
; #@! TF.CreationDate,2020-06-23T15:46:58-07:00
; #@! TF.GenerationSoftware,Kicad,Pcbnew,(5.1.5)-3
; #@! TF.FileFunction,Plated,1,2,PTH
FMAT,2
INCH
T1C0.0400
T2C0.0453
T3C0.1575
%
G90
G05
T1
X3.7Y-3.4
X3.7Y-3.5
X3.7Y-3.6
X3.7Y-3.7
X3.7Y-3.8
X3.7Y-3.9
X3.7Y-4.0
X3.7Y-4.1
X3.8Y-3.4
X3.8Y-3.5
X3.8Y-3.6
X3.8Y-3.7
X3.8Y-3.8
X3.8Y-3.9
X3.8Y-4.0
X3.8Y-4.1
X4.075Y-3.1
X4.075Y-3.2
X4.075Y-3.3
X4.075Y-3.4
X4.075Y-3.5
X4.075Y-3.6
X4.075Y-3.7
X4.075Y-3.8
X4.075Y-3.9
X4.075Y-4.0
X4.075Y-4.1
X4.075Y-4.2
X4.075Y-4.3
X4.075Y-4.4
X4.175Y-4.4
X4.275Y-4.4
X4.375Y-4.4
X4.475Y-4.4
X4.575Y-4.4
X4.675Y-3.1
X4.675Y-3.2
X4.675Y-3.3
X4.675Y-3.4
X4.675Y-3.5
X4.675Y-3.6
X4.675Y-3.7
X4.675Y-3.8
X4.675Y-3.9
X4.675Y-4.0
X4.675Y-4.1
X4.675Y-4.2
X4.675Y-4.3
X4.675Y-4.4
T2
X4.85Y-2.8125
X4.95Y-2.8125
X5.05Y-2.8125
X5.15Y-2.8125
T3
X3.75Y-3.1988
X3.75Y-4.3012
X7.4902Y-3.1988
X7.4902Y-4.3012
X8.0Y-2.75
X3.25Y-4.75
X3.25Y-2.75
X8.0Y-4.75
T0
M30
